<svg width="287" height="76" viewBox="0 0 287 76" fill="none" xmlns="http://www.w3.org/2000/svg">
<rect x="0.00012207" width="287" height="76" rx="20.2667" fill="#C4BAFF"/>
<path fill-rule="evenodd" clip-rule="evenodd" d="M20.2668 0C9.07382 0 0.00012207 9.0737 0.00012207 20.2667V55.7333C0.00012207 55.768 0.000208945 55.8026 0.000382487 55.8372V27.8667C0.000382487 16.6737 9.07408 7.6 20.267 7.6H266.734C277.891 7.6 286.943 16.6161 287 27.76V20.2667C287 9.0737 277.926 0 266.733 0H20.2668Z" fill="#D9D3FF"/>
<path fill-rule="evenodd" clip-rule="evenodd" d="M20.2667 76C9.0737 76 0 66.9263 0 55.7333V20.2667C0 20.232 8.68742e-05 20.1974 0.000260417 20.1628V48.1333C0.000260417 59.3263 9.07396 68.4 20.2669 68.4H266.733C277.891 68.4 286.942 59.3839 287 48.24V55.7333C287 66.9263 277.926 76 266.733 76H20.2667Z" fill="#AC9FFA"/>
<path d="M69.844 44.776C69.4893 45.0373 69.088 45.1307 68.64 45.056C68.2107 45 67.8653 44.7947 67.604 44.44C67.324 44.0667 67.2307 43.6467 67.324 43.18V43.124C67.548 40.4733 67.6507 37.72 67.632 34.864C67.6133 32.008 67.4173 29.3013 67.044 26.744C66.9693 26.296 67.0627 25.8947 67.324 25.54C67.5853 25.1853 67.9307 24.98 68.36 24.924C68.808 24.8493 69.2093 24.9427 69.564 25.204C69.9187 25.4653 70.124 25.8107 70.18 26.24C70.7773 30.1227 70.9547 34.6587 70.712 39.848C71.496 39.0827 72.252 38.2613 72.98 37.384C73.708 36.488 75.0613 34.64 77.04 31.84L80.932 25.596C81.156 25.2227 81.4827 24.9893 81.912 24.896C82.3413 24.784 82.7427 24.8493 83.116 25.092C83.4333 25.2787 83.648 25.54 83.76 25.876C83.8907 26.1933 83.9093 26.52 83.816 26.856V26.912C83.7973 28.1067 83.732 29.5627 83.62 31.28C83.508 32.9787 83.4053 34.3787 83.312 35.48C83.2373 36.5627 83.228 37.8507 83.284 39.344C83.34 40.8373 83.4893 42.1253 83.732 43.208C83.8253 43.6373 83.7413 44.0387 83.48 44.412C83.2373 44.7667 82.9013 44.9907 82.472 45.084C82.0427 45.1773 81.6413 45.1027 81.268 44.86C80.9133 44.5987 80.6893 44.2533 80.596 43.824C80.26 42.2933 80.0827 40.4827 80.064 38.392C80.0453 36.3013 80.12 34.3973 80.288 32.68C79.504 33.968 78.7667 35.0693 78.076 35.984C77.404 36.88 76.6293 37.888 75.752 39.008C74.8747 40.128 73.932 41.1733 72.924 42.144C71.9347 43.1147 70.908 43.992 69.844 44.776ZM87.8767 43.404C87.7273 41.2387 87.6527 37.44 87.6527 32.008C87.6527 31.784 87.69 31.5693 87.7647 31.364C87.858 30.9907 88.0633 30.692 88.3807 30.468C88.698 30.2253 89.0527 30.104 89.4447 30.104H95.1007C95.586 30.104 95.9967 30.272 96.3327 30.608C96.6687 30.944 96.8367 31.3547 96.8367 31.84C96.8367 32.3253 96.6687 32.736 96.3327 33.072C95.9967 33.408 95.586 33.576 95.1007 33.576H91.1247C91.1247 37.8693 91.1993 41.0707 91.3487 43.18C91.386 43.6653 91.246 44.0947 90.9287 44.468C90.6113 44.8227 90.21 45.0093 89.7247 45.028C89.2393 45.0653 88.81 44.9253 88.4367 44.608C88.082 44.2907 87.8953 43.8893 87.8767 43.404ZM99.4809 48.556C99.4062 46.2227 99.2849 42.4053 99.1169 37.104C98.7996 36.7867 98.6222 36.404 98.5849 35.956C98.5662 35.508 98.6969 35.1067 98.9769 34.752L99.0609 34.64L99.0049 32.036C98.9862 31.5507 99.1356 31.1307 99.4529 30.776C99.7889 30.4213 100.2 30.244 100.685 30.244C101.376 30.2253 101.898 30.5333 102.253 31.168C104.25 29.7307 106.173 29.3293 108.021 29.964C109.029 30.3 109.878 30.8787 110.569 31.7C111.26 32.54 111.792 33.4827 112.165 34.528C112.986 36.6373 113.08 38.588 112.445 40.38C112.128 41.4627 111.568 42.4147 110.765 43.236C109.981 44.0387 108.992 44.5893 107.797 44.888C106.36 45.224 105.025 45.1213 103.793 44.58C103.494 44.4493 103.168 44.272 102.813 44.048C102.869 45.6347 102.916 47.1 102.953 48.444C102.972 48.9293 102.813 49.34 102.477 49.676C102.16 50.0307 101.758 50.2173 101.273 50.236C100.788 50.2547 100.368 50.096 100.013 49.76C99.6769 49.4427 99.4996 49.0413 99.4809 48.556ZM106.957 41.472C107.984 41.2293 108.674 40.688 109.029 39.848C109.421 38.5227 109.365 37.132 108.861 35.676C108.394 34.3507 107.741 33.548 106.901 33.268C105.968 32.9507 104.81 33.436 103.429 34.724C103.186 34.948 102.906 35.284 102.589 35.732L102.701 39.428L103.569 40.212C103.924 40.548 104.213 40.8 104.437 40.968C104.661 41.1173 104.913 41.2573 105.193 41.388C105.697 41.612 106.285 41.64 106.957 41.472ZM121.875 44.832C120.923 45.1307 120.037 45.1867 119.215 45C118.394 44.7947 117.657 44.4307 117.003 43.908C116.369 43.3853 115.846 42.7787 115.435 42.088C115.043 41.3787 114.801 40.66 114.707 39.932C114.521 38.5507 114.595 37.188 114.931 35.844C115.286 34.4813 115.883 33.3147 116.723 32.344C117.657 31.224 118.805 30.5147 120.167 30.216C121.53 29.8987 123.07 30.0667 124.787 30.72C125.366 30.944 125.982 31.336 126.635 31.896C126.71 31.9893 126.822 32.1013 126.971 32.232L127.419 32.624C127.55 32.736 127.681 32.8387 127.811 32.932C128.185 33.212 128.399 33.5947 128.455 34.08C128.53 34.5467 128.427 34.9667 128.147 35.34C127.923 35.62 127.634 35.816 127.279 35.928L127.307 35.956C127.457 36.292 127.541 36.7307 127.559 37.272C127.578 37.496 127.578 37.7107 127.559 37.916C127.559 38.1027 127.559 38.2147 127.559 38.252C127.559 38.2893 127.569 38.3547 127.587 38.448C127.718 39.0267 127.858 39.6893 128.007 40.436C128.045 40.66 128.073 40.8 128.091 40.856C128.129 40.912 128.175 40.968 128.231 41.024L129.435 42.2C129.79 42.5547 129.958 42.9747 129.939 43.46C129.939 43.9267 129.762 44.328 129.407 44.664C129.071 45 128.67 45.1587 128.203 45.14C127.737 45.14 127.335 44.972 126.999 44.636L125.823 43.488C125.413 43.0773 125.123 42.704 124.955 42.368L124.927 42.284C124.909 42.3213 124.834 42.424 124.703 42.592L124.395 42.984L124.003 43.404C123.854 43.572 123.705 43.7213 123.555 43.852L123.051 44.216C122.865 44.3467 122.669 44.468 122.463 44.58C122.277 44.6733 122.081 44.7573 121.875 44.832ZM120.755 41.584C120.83 41.5653 120.905 41.5373 120.979 41.5C121.054 41.444 121.119 41.3973 121.175 41.36C121.231 41.304 121.306 41.22 121.399 41.108C121.493 40.996 121.577 40.9027 121.651 40.828C121.726 40.7533 121.847 40.6227 122.015 40.436L122.379 39.96C122.51 39.8107 122.687 39.4653 122.911 38.924C122.93 38.868 122.939 38.8027 122.939 38.728C122.958 38.6533 122.967 38.5227 122.967 38.336C122.986 38.1307 123.014 37.9067 123.051 37.664C123.182 36.376 123.705 35.508 124.619 35.06C124.694 35.0227 124.769 34.9947 124.843 34.976L124.395 34.528C124.022 34.2107 123.714 34.0053 123.471 33.912C121.717 33.184 120.345 33.408 119.355 34.584C118.851 35.144 118.487 35.872 118.263 36.768C118.039 37.6453 117.993 38.56 118.123 39.512C118.217 40.2027 118.553 40.7627 119.131 41.192C119.71 41.6213 120.251 41.752 120.755 41.584ZM138.229 43.32C138.229 43.7867 138.051 44.1973 137.697 44.552C137.361 44.888 136.95 45.0467 136.465 45.028C135.998 45.028 135.587 44.86 135.233 44.524C134.897 44.1693 134.738 43.7493 134.757 43.264C134.794 39.736 134.785 36.544 134.729 33.688C133.235 33.688 132.246 33.6787 131.761 33.66C131.294 33.66 130.883 33.492 130.529 33.156C130.193 32.8013 130.025 32.3907 130.025 31.924C130.043 31.4387 130.221 31.028 130.557 30.692C130.911 30.3373 131.331 30.1693 131.817 30.188C137.193 30.2253 140.394 30.244 141.421 30.244C141.906 30.2253 142.317 30.3933 142.653 30.748C143.007 31.084 143.185 31.4947 143.185 31.98C143.203 32.4467 143.035 32.8573 142.681 33.212C142.345 33.548 141.943 33.716 141.477 33.716C141.159 33.7347 140.077 33.744 138.229 33.744C138.266 36.6187 138.266 39.8107 138.229 43.32ZM147.094 45.252C146.608 45.2707 146.188 45.112 145.834 44.776C145.498 44.44 145.33 44.0293 145.33 43.544C145.292 42.088 145.208 40.0253 145.078 37.356C144.966 34.668 144.9 32.848 144.882 31.896C144.863 31.4107 145.012 30.9907 145.33 30.636C145.666 30.2813 146.076 30.104 146.562 30.104C147.047 30.0853 147.467 30.244 147.822 30.58C148.176 30.8973 148.354 31.2987 148.354 31.784L148.494 35.312C149.166 35.256 149.754 35.2093 150.258 35.172C151.042 35.116 151.714 35.1067 152.274 35.144C153.132 35.1813 153.804 35.34 154.29 35.62C154.962 35.9747 155.531 36.488 155.998 37.16C156.464 37.832 156.763 38.5413 156.894 39.288C157.155 40.968 156.791 42.3213 155.802 43.348C155.036 44.132 153.954 44.6267 152.554 44.832C151.452 45.0187 150.006 45.0187 148.214 44.832C147.896 45.112 147.523 45.252 147.094 45.252ZM148.746 41.388C150.146 41.5187 151.238 41.5187 152.022 41.388C152.656 41.2947 153.086 41.136 153.31 40.912C153.478 40.7253 153.515 40.3707 153.422 39.848C153.347 39.344 153.086 38.952 152.638 38.672H152.582C152.544 38.672 152.479 38.6627 152.386 38.644C152.311 38.6253 152.218 38.616 152.106 38.616C151.676 38.5973 151.135 38.6067 150.482 38.644C149.959 38.6813 149.352 38.7373 148.662 38.812C148.699 39.7827 148.727 40.6413 148.746 41.388ZM171.658 45.364C170.445 45.364 169.39 45.1493 168.494 44.72C167.598 44.272 166.917 43.7307 166.45 43.096C165.983 42.4613 165.75 41.864 165.75 41.304C165.75 40.8187 165.89 40.4173 166.17 40.1C166.45 39.764 166.814 39.596 167.262 39.596C167.729 39.596 168.158 39.8387 168.55 40.324C168.905 40.772 169.203 41.1173 169.446 41.36C169.689 41.6027 170.015 41.8173 170.426 42.004C170.837 42.1907 171.331 42.284 171.91 42.284C172.563 42.284 173.105 42.1067 173.534 41.752C173.982 41.3973 174.206 40.996 174.206 40.548C174.206 40.044 173.973 39.6333 173.506 39.316C173.058 38.98 172.47 38.812 171.742 38.812C171.163 38.812 170.697 38.672 170.342 38.392C170.006 38.0933 169.838 37.7293 169.838 37.3C169.838 36.852 169.997 36.4973 170.314 36.236C170.631 35.956 171.023 35.816 171.49 35.816C172.218 35.816 172.797 35.6667 173.226 35.368C173.655 35.0507 173.87 34.6587 173.87 34.192C173.87 33.8 173.693 33.492 173.338 33.268C172.983 33.0253 172.489 32.904 171.854 32.904C171.089 32.904 170.454 33.0907 169.95 33.464C169.446 33.8187 169.129 34.2947 168.998 34.892C168.905 35.3213 168.737 35.6573 168.494 35.9C168.251 36.1427 167.943 36.264 167.57 36.264C167.141 36.264 166.805 36.124 166.562 35.844C166.319 35.5453 166.198 35.1813 166.198 34.752C166.198 33.912 166.441 33.1373 166.926 32.428C167.411 31.7187 168.083 31.1587 168.942 30.748C169.819 30.3187 170.809 30.104 171.91 30.104C172.769 30.104 173.599 30.2907 174.402 30.664C175.223 31.0187 175.886 31.5133 176.39 32.148C176.913 32.7827 177.174 33.492 177.174 34.276C177.174 34.948 176.978 35.5827 176.586 36.18C176.213 36.7773 175.681 37.2627 174.99 37.636V36.824C176.689 37.552 177.538 38.7093 177.538 40.296C177.538 41.1733 177.295 42.004 176.81 42.788C176.325 43.5533 175.634 44.1787 174.738 44.664C173.842 45.1307 172.815 45.364 171.658 45.364ZM186.543 44.832C185.591 45.1307 184.705 45.1867 183.883 45C183.062 44.7947 182.325 44.4307 181.671 43.908C181.037 43.3853 180.514 42.7787 180.103 42.088C179.711 41.3787 179.469 40.66 179.375 39.932C179.189 38.5507 179.263 37.188 179.599 35.844C179.954 34.4813 180.551 33.3147 181.391 32.344C182.325 31.224 183.473 30.5147 184.835 30.216C186.198 29.8987 187.738 30.0667 189.455 30.72C190.034 30.944 190.65 31.336 191.303 31.896C191.378 31.9893 191.49 32.1013 191.639 32.232L192.087 32.624C192.218 32.736 192.349 32.8387 192.479 32.932C192.853 33.212 193.067 33.5947 193.123 34.08C193.198 34.5467 193.095 34.9667 192.815 35.34C192.591 35.62 192.302 35.816 191.947 35.928L191.975 35.956C192.125 36.292 192.209 36.7307 192.227 37.272C192.246 37.496 192.246 37.7107 192.227 37.916C192.227 38.1027 192.227 38.2147 192.227 38.252C192.227 38.2893 192.237 38.3547 192.255 38.448C192.386 39.0267 192.526 39.6893 192.675 40.436C192.713 40.66 192.741 40.8 192.759 40.856C192.797 40.912 192.843 40.968 192.899 41.024L194.103 42.2C194.458 42.5547 194.626 42.9747 194.607 43.46C194.607 43.9267 194.43 44.328 194.075 44.664C193.739 45 193.338 45.1587 192.871 45.14C192.405 45.14 192.003 44.972 191.667 44.636L190.491 43.488C190.081 43.0773 189.791 42.704 189.623 42.368L189.595 42.284C189.577 42.3213 189.502 42.424 189.371 42.592L189.063 42.984L188.671 43.404C188.522 43.572 188.373 43.7213 188.223 43.852L187.719 44.216C187.533 44.3467 187.337 44.468 187.131 44.58C186.945 44.6733 186.749 44.7573 186.543 44.832ZM185.423 41.584C185.498 41.5653 185.573 41.5373 185.647 41.5C185.722 41.444 185.787 41.3973 185.843 41.36C185.899 41.304 185.974 41.22 186.067 41.108C186.161 40.996 186.245 40.9027 186.319 40.828C186.394 40.7533 186.515 40.6227 186.683 40.436L187.047 39.96C187.178 39.8107 187.355 39.4653 187.579 38.924C187.598 38.868 187.607 38.8027 187.607 38.728C187.626 38.6533 187.635 38.5227 187.635 38.336C187.654 38.1307 187.682 37.9067 187.719 37.664C187.85 36.376 188.373 35.508 189.287 35.06C189.362 35.0227 189.437 34.9947 189.511 34.976L189.063 34.528C188.69 34.2107 188.382 34.0053 188.139 33.912C186.385 33.184 185.013 33.408 184.023 34.584C183.519 35.144 183.155 35.872 182.931 36.768C182.707 37.6453 182.661 38.56 182.791 39.512C182.885 40.2027 183.221 40.7627 183.799 41.192C184.378 41.6213 184.919 41.752 185.423 41.584ZM199.789 44.356C199.471 44.7293 199.07 44.944 198.585 45C198.118 45.056 197.698 44.9347 197.325 44.636C196.951 44.3187 196.737 43.9267 196.681 43.46C196.606 42.7133 196.541 41.9667 196.485 41.22C196.429 40.4547 196.391 39.596 196.373 38.644L196.317 36.46C196.317 35.956 196.307 35.1533 196.289 34.052C196.289 32.9507 196.289 32.2507 196.289 31.952C196.27 31.4667 196.429 31.056 196.765 30.72C197.119 30.3653 197.53 30.188 197.997 30.188C198.482 30.1693 198.893 30.3373 199.229 30.692C199.583 31.028 199.761 31.4293 199.761 31.896C199.779 32.3627 199.789 33.0347 199.789 33.912V35.592C201.506 35.536 203.373 35.508 205.389 35.508L205.305 31.896C205.286 31.4107 205.445 30.9907 205.781 30.636C206.117 30.2813 206.518 30.104 206.985 30.104C207.47 30.0853 207.89 30.244 208.245 30.58C208.599 30.916 208.777 31.3173 208.777 31.784C208.945 37.552 209.038 41.3693 209.057 43.236C209.075 43.7213 208.917 44.1413 208.581 44.496C208.245 44.832 207.834 45 207.349 45C206.863 45.0187 206.443 44.86 206.089 44.524C205.753 44.188 205.585 43.7773 205.585 43.292C205.547 41.9853 205.519 40.548 205.501 38.98C203.447 38.9987 201.571 39.036 199.873 39.092C199.929 40.5107 200.022 41.836 200.153 43.068C200.209 43.5533 200.087 43.9827 199.789 44.356ZM215.194 44.216C214.018 43.5627 213.132 42.6107 212.534 41.36C211.937 40.1093 211.638 38.784 211.638 37.384C211.638 36.0027 211.928 34.6867 212.506 33.436C213.104 32.1853 213.99 31.224 215.166 30.552C215.726 30.2347 216.445 30.048 217.322 29.992C217.602 29.712 217.938 29.544 218.33 29.488C218.741 29.432 219.124 29.516 219.478 29.74C219.926 30.0387 220.589 30.4307 221.466 30.916C222.213 31.3453 222.764 31.7 223.118 31.98C223.678 32.484 224.098 33.0813 224.378 33.772C224.677 34.4627 224.91 35.3587 225.078 36.46C225.265 37.7667 225.153 39.0547 224.742 40.324C224.332 41.5933 223.669 42.648 222.754 43.488C221.765 44.4027 220.617 44.9347 219.31 45.084C218.004 45.2333 216.632 44.944 215.194 44.216ZM216.846 41.192C218.228 41.9573 219.413 41.8827 220.402 40.968C220.888 40.52 221.252 39.9413 221.494 39.232C221.737 38.504 221.793 37.7387 221.662 36.936C221.476 35.648 221.205 34.864 220.85 34.584C220.682 34.4347 220.337 34.2107 219.814 33.912L218.806 33.352C218.657 33.3707 218.48 33.38 218.274 33.38H217.966C217.78 33.38 217.64 33.3893 217.546 33.408C217.21 33.4267 216.986 33.464 216.874 33.52C216.333 33.8373 215.894 34.3413 215.558 35.032C215.241 35.7227 215.082 36.516 215.082 37.412C215.082 38.2893 215.241 39.0733 215.558 39.764C215.876 40.436 216.305 40.912 216.846 41.192ZM230.787 45.644C230.32 45.7373 229.891 45.644 229.499 45.364C229.107 45.1027 228.864 44.748 228.771 44.3L228.715 43.964C228.603 43.74 228.556 43.5067 228.575 43.264V43.208C228.22 41.0427 227.921 37.5707 227.679 32.792C227.623 32.6613 227.576 32.5307 227.539 32.4C227.501 32.1013 227.529 31.8213 227.623 31.56C227.679 31.1307 227.856 30.776 228.155 30.496C228.453 30.216 228.817 30.0667 229.247 30.048C229.564 30.0293 229.863 30.0947 230.143 30.244C231.636 30.02 232.924 29.908 234.007 29.908C235.239 29.9267 236.284 30.0947 237.143 30.412C238.468 30.8787 239.317 31.7 239.691 32.876C240.157 34.2947 239.905 35.564 238.935 36.684L238.683 36.908C239.355 37.3747 239.868 37.9067 240.223 38.504C240.633 39.344 240.745 40.1747 240.559 40.996C240.391 41.8173 239.943 42.592 239.215 43.32C238.188 44.3653 236.573 44.9533 234.371 45.084C233.699 45.1213 232.924 45.1213 232.047 45.084H231.767C231.505 45.3827 231.179 45.5693 230.787 45.644ZM234.203 41.668C235.509 41.5933 236.349 41.3507 236.723 40.94C237.096 40.5853 237.255 40.3333 237.199 40.184C237.012 39.848 236.517 39.54 235.715 39.26C235.248 39.092 234.483 39.064 233.419 39.176C232.933 39.232 232.317 39.3253 231.571 39.456C231.645 40.2213 231.729 40.9493 231.823 41.64H232.215C232.999 41.6773 233.661 41.6867 234.203 41.668ZM231.263 35.788C232.812 35.6387 234.044 35.4053 234.959 35.088C235.668 34.8827 236.144 34.64 236.387 34.36C236.461 34.2667 236.471 34.1173 236.415 33.912C236.415 33.8187 236.265 33.7253 235.967 33.632C235.5 33.4453 234.837 33.352 233.979 33.352C233.176 33.352 232.233 33.4267 231.151 33.576C231.207 34.5093 231.244 35.2467 231.263 35.788ZM245.765 44.216C244.589 43.5627 243.702 42.6107 243.105 41.36C242.507 40.1093 242.209 38.784 242.209 37.384C242.209 36.0027 242.498 34.6867 243.077 33.436C243.674 32.1853 244.561 31.224 245.737 30.552C246.297 30.2347 247.015 30.048 247.893 29.992C248.173 29.712 248.509 29.544 248.901 29.488C249.311 29.432 249.694 29.516 250.049 29.74C250.497 30.0387 251.159 30.4307 252.037 30.916C252.783 31.3453 253.334 31.7 253.689 31.98C254.249 32.484 254.669 33.0813 254.949 33.772C255.247 34.4627 255.481 35.3587 255.649 36.46C255.835 37.7667 255.723 39.0547 255.312 40.324C254.902 41.5933 254.239 42.648 253.325 43.488C252.335 44.4027 251.187 44.9347 249.881 45.084C248.574 45.2333 247.202 44.944 245.765 44.216ZM247.417 41.192C248.798 41.9573 249.983 41.8827 250.973 40.968C251.458 40.52 251.822 39.9413 252.065 39.232C252.307 38.504 252.363 37.7387 252.233 36.936C252.046 35.648 251.775 34.864 251.421 34.584C251.253 34.4347 250.907 34.2107 250.385 33.912L249.377 33.352C249.227 33.3707 249.05 33.38 248.845 33.38H248.537C248.35 33.38 248.21 33.3893 248.117 33.408C247.781 33.4267 247.557 33.464 247.445 33.52C246.903 33.8373 246.465 34.3413 246.129 35.032C245.811 35.7227 245.653 36.516 245.653 37.412C245.653 38.2893 245.811 39.0733 246.129 39.764C246.446 40.436 246.875 40.912 247.417 41.192Z" fill="#8B81C8"/>
<mask id="mask0" mask-type="alpha" maskUnits="userSpaceOnUse" x="17" y="19" width="36" height="35">
<rect x="17" y="19" width="36" height="35" fill="#C4C4C4"/>
</mask>
<g mask="url(#mask0)">
<path d="M23.1774 43.5312L22.966 43.7919L22.5776 43.4771L22.966 43.7919L22.966 43.792L22.9659 43.7921L22.9656 43.7924L22.9644 43.7939L22.9595 43.7999L22.9407 43.8232L22.868 43.9128L22.6009 44.2422C22.3752 44.5202 22.0634 44.9044 21.7185 45.3287L23.1774 43.5312ZM23.1774 43.5312L23.016 43.2368M23.1774 43.5312L23.016 43.2368M23.016 43.2368C21.3563 40.2088 20.9114 36.6479 21.8108 33.2913C23.732 26.1215 31.1443 21.8525 38.3352 23.7794C45.5265 25.7062 49.812 33.1097 47.8908 40.2795C47.2855 42.5386 46.0988 44.6055 44.4605 46.2566C43.8894 46.8323 42.9587 46.8371 42.3807 46.2659L42.3806 46.2658M23.016 43.2368L42.3806 46.2658M29.5788 47.5537L29.579 47.5537C30.0898 47.6351 30.3445 47.4961 30.4485 47.3682C30.5521 47.2407 30.6357 46.9643 30.4507 46.4832L29.5788 47.5537ZM29.5788 47.5537L22.3859 46.41C22.3858 46.41 22.3858 46.41 22.3857 46.41M29.5788 47.5537L22.3857 46.41M42.3806 46.2658C41.8032 45.6956 41.7985 44.7685 42.3683 44.194L42.3806 46.2658ZM22.3857 46.41C22.3857 46.41 22.3857 46.41 22.3856 46.41M22.3857 46.41L22.3856 46.41M22.3856 46.41C21.8552 46.3253 21.6197 46.1195 21.5444 45.9738M22.3856 46.41L21.5444 45.9738M21.5444 45.9738C21.4855 45.8597 21.4587 45.6491 21.7185 45.3287L21.5444 45.9738ZM27.8393 39.6958L30.4507 46.4832L42.3684 44.1939C43.6503 42.9024 44.5769 41.2853 45.0503 39.5183C46.5542 33.906 43.2004 28.1171 37.5766 26.6102C31.9536 25.1035 26.1551 28.4395 24.6511 34.0524C24.1013 36.1043 24.2049 38.248 24.8871 40.2165L25.1814 41.0654L25.7477 40.3679L26.8172 39.0506L26.8173 39.0505C26.9167 38.9281 27.0009 38.882 27.0546 38.8657C27.1038 38.8507 27.1586 38.8504 27.2295 38.8799C27.3907 38.947 27.6403 39.1793 27.8392 39.6956C27.8393 39.6957 27.8393 39.6957 27.8393 39.6958Z" fill="#8B81C8" stroke="#8B81C8"/>
</g>
</svg>
