<svg width="335" height="76" viewBox="0 0 335 76" fill="none" xmlns="http://www.w3.org/2000/svg">
<rect width="335" height="76" rx="20.2667" fill="url(#paint0_linear)"/>
<path fill-rule="evenodd" clip-rule="evenodd" d="M20.2667 0C9.0737 0 0 9.0737 0 20.2667V55.7333C0 55.768 8.68742e-05 55.8026 0.000260417 55.8372V27.8667C0.000260417 16.6737 9.07396 7.6 20.2669 7.6H314.734C325.891 7.6 334.943 16.6161 335 27.76V20.2667C335 9.0737 325.926 0 314.733 0H20.2667Z" fill="#FFF6BF"/>
<path fill-rule="evenodd" clip-rule="evenodd" d="M20.2667 76C9.0737 76 0 66.9263 0 55.7333V20.2667C0 20.232 8.68742e-05 20.1974 0.000260417 20.1628V48.1333C0.000260417 59.3263 9.07396 68.4 20.2669 68.4H314.734C325.891 68.4 334.943 59.3839 335 48.24V55.7333C335 66.9263 325.926 76 314.733 76H20.2667Z" fill="#DC6B02" fill-opacity="0.6"/>
<path d="M44.5783 33.3698C46.988 34.761 46.988 38.239 44.5783 39.6302L30.6717 47.6592C28.262 49.0504 25.25 47.3114 25.25 44.529L25.25 28.471C25.25 25.6886 28.262 23.9496 30.6717 25.3408L44.5783 33.3698Z" fill="#D7790C"/>
<path d="M67.212 43.6C67.0813 41.7333 67.072 39.652 67.184 37.356C67.352 33.3613 67.436 31.252 67.436 31.028V27.332C67.4547 27.0707 67.5387 26.828 67.688 26.604C68.1733 25.8013 69.0787 25.2413 70.404 24.924C70.5907 24.868 70.8893 24.8307 71.3 24.812C71.6173 24.7933 72.0187 24.784 72.504 24.784C73.456 24.7653 74.576 24.756 75.864 24.756C77.1707 24.756 78.3 24.7653 79.252 24.784C79.756 24.784 80.1573 24.7933 80.456 24.812C80.904 24.8307 81.212 24.868 81.38 24.924C82.6307 25.2413 83.452 25.82 83.844 26.66C83.9373 26.8653 83.9933 27.1267 84.012 27.444C84.0307 27.612 84.0493 27.8267 84.068 28.088C84.0867 28.5547 84.096 29.18 84.096 29.964C84.096 31.2893 84.0867 33.0813 84.068 35.34C84.0493 37.1133 84.0027 39.8107 83.928 43.432C83.928 43.88 83.7693 44.2627 83.452 44.58C83.1347 44.8787 82.752 45.0187 82.304 45C81.856 45 81.4733 44.8413 81.156 44.524C80.8573 44.2067 80.7173 43.824 80.736 43.376C80.8107 39.7733 80.8573 37.0853 80.876 35.312C80.8947 33.072 80.904 31.2987 80.904 29.992C80.8853 29.2267 80.876 28.6293 80.876 28.2L80.848 28.088C80.792 28.0693 80.7267 28.0507 80.652 28.032H80.596C80.5773 28.032 80.54 28.032 80.484 28.032C80.428 28.0133 80.372 28.004 80.316 28.004C80.036 27.9853 79.6533 27.976 79.168 27.976C78.2533 27.9573 77.152 27.948 75.864 27.948C74.6133 27.948 73.5213 27.9573 72.588 27.976C72.1213 27.9947 71.7387 28.004 71.44 28.004C71.3653 28.0227 71.3093 28.032 71.272 28.032H71.16C70.9547 28.0693 70.7773 28.116 70.628 28.172V31.028C70.628 31.532 70.544 33.688 70.376 37.496C70.264 39.6613 70.2733 41.6027 70.404 43.32C70.4413 43.768 70.3107 44.16 70.012 44.496C69.732 44.832 69.368 45.0187 68.92 45.056C68.4907 45.0933 68.108 44.972 67.772 44.692C67.436 44.3933 67.2493 44.0293 67.212 43.6ZM90.6708 44.216C89.4948 43.5627 88.6081 42.6107 88.0108 41.36C87.4134 40.1093 87.1148 38.784 87.1148 37.384C87.1148 36.0027 87.4041 34.6867 87.9828 33.436C88.5801 32.1853 89.4668 31.224 90.6428 30.552C91.2028 30.2347 91.9214 30.048 92.7988 29.992C93.0788 29.712 93.4148 29.544 93.8068 29.488C94.2174 29.432 94.6001 29.516 94.9548 29.74C95.4028 30.0387 96.0654 30.4307 96.9428 30.916C97.6894 31.3453 98.2401 31.7 98.5948 31.98C99.1548 32.484 99.5748 33.0813 99.8548 33.772C100.153 34.4627 100.387 35.3587 100.555 36.46C100.741 37.7667 100.629 39.0547 100.219 40.324C99.8081 41.5933 99.1454 42.648 98.2308 43.488C97.2414 44.4027 96.0934 44.9347 94.7868 45.084C93.4801 45.2333 92.1081 44.944 90.6708 44.216ZM92.3228 41.192C93.7041 41.9573 94.8894 41.8827 95.8788 40.968C96.3641 40.52 96.7281 39.9413 96.9708 39.232C97.2134 38.504 97.2694 37.7387 97.1388 36.936C96.9521 35.648 96.6814 34.864 96.3268 34.584C96.1588 34.4347 95.8134 34.2107 95.2908 33.912L94.2828 33.352C94.1334 33.3707 93.9561 33.38 93.7508 33.38H93.4428C93.2561 33.38 93.1161 33.3893 93.0228 33.408C92.6868 33.4267 92.4628 33.464 92.3508 33.52C91.8094 33.8373 91.3708 34.3413 91.0348 35.032C90.7174 35.7227 90.5588 36.516 90.5588 37.412C90.5588 38.2893 90.7174 39.0733 91.0348 39.764C91.3521 40.436 91.7814 40.912 92.3228 41.192ZM103.491 43.376C103.473 42.6667 103.454 41.724 103.435 40.548C103.417 39.372 103.407 38.5973 103.407 38.224C103.37 36.096 103.277 34.3227 103.127 32.904C103.109 32.6427 103.137 32.4 103.211 32.176C103.193 32.0827 103.183 31.9893 103.183 31.896C103.165 31.4107 103.323 31 103.659 30.664C103.995 30.3093 104.406 30.132 104.891 30.132C104.947 30.132 105.47 30.1133 106.459 30.076C107.449 30.0387 108.307 30.0107 109.035 29.992C110.118 29.9733 111.005 29.9733 111.695 29.992C112.125 29.992 112.479 30.0107 112.759 30.048C113.207 30.0853 113.562 30.1507 113.823 30.244C114.869 30.6733 115.662 31.616 116.203 33.072C116.315 33.3333 116.381 33.7067 116.399 34.192C116.418 34.5093 116.427 34.92 116.427 35.424C116.427 36.208 116.409 37.2533 116.371 38.56C116.353 39.176 116.325 39.8293 116.287 40.52C116.25 41.2107 116.213 41.808 116.175 42.312C116.157 42.816 116.147 43.1613 116.147 43.348C116.147 43.8147 115.97 44.2253 115.615 44.58C115.279 44.916 114.869 45.0747 114.383 45.056C113.917 45.056 113.506 44.888 113.151 44.552C112.815 44.1973 112.657 43.7773 112.675 43.292C112.675 43.124 112.685 42.7787 112.703 42.256C112.722 41.7333 112.75 41.1173 112.787 40.408C112.825 39.6987 112.853 39.036 112.871 38.42C112.909 37.1507 112.927 36.152 112.927 35.424V34.388C112.909 34.3133 112.899 34.248 112.899 34.192C112.769 33.8747 112.647 33.6507 112.535 33.52H112.451C112.246 33.5013 111.966 33.4827 111.611 33.464C110.977 33.464 110.137 33.4733 109.091 33.492C108.419 33.5107 107.617 33.5293 106.683 33.548C106.795 34.8547 106.87 36.3947 106.907 38.168C106.907 38.56 106.907 39.3347 106.907 40.492C106.926 41.6493 106.945 42.5733 106.963 43.264C106.982 43.7493 106.823 44.1693 106.487 44.524C106.17 44.8787 105.769 45.056 105.283 45.056C104.798 45.0747 104.378 44.9253 104.023 44.608C103.669 44.272 103.491 43.8613 103.491 43.376ZM120.372 48.556C120.297 46.2227 120.176 42.4053 120.008 37.104C119.69 36.7867 119.513 36.404 119.476 35.956C119.457 35.508 119.588 35.1067 119.868 34.752L119.952 34.64L119.896 32.036C119.877 31.5507 120.026 31.1307 120.344 30.776C120.68 30.4213 121.09 30.244 121.576 30.244C122.266 30.2253 122.789 30.5333 123.144 31.168C125.141 29.7307 127.064 29.3293 128.912 29.964C129.92 30.3 130.769 30.8787 131.46 31.7C132.15 32.54 132.682 33.4827 133.056 34.528C133.877 36.6373 133.97 38.588 133.336 40.38C133.018 41.4627 132.458 42.4147 131.656 43.236C130.872 44.0387 129.882 44.5893 128.688 44.888C127.25 45.224 125.916 45.1213 124.684 44.58C124.385 44.4493 124.058 44.272 123.704 44.048C123.76 45.6347 123.806 47.1 123.844 48.444C123.862 48.9293 123.704 49.34 123.368 49.676C123.05 50.0307 122.649 50.2173 122.164 50.236C121.678 50.2547 121.258 50.096 120.904 49.76C120.568 49.4427 120.39 49.0413 120.372 48.556ZM127.848 41.472C128.874 41.2293 129.565 40.688 129.92 39.848C130.312 38.5227 130.256 37.132 129.752 35.676C129.285 34.3507 128.632 33.548 127.792 33.268C126.858 32.9507 125.701 33.436 124.32 34.724C124.077 34.948 123.797 35.284 123.48 35.732L123.592 39.428L124.46 40.212C124.814 40.548 125.104 40.8 125.328 40.968C125.552 41.1173 125.804 41.2573 126.084 41.388C126.588 41.612 127.176 41.64 127.848 41.472ZM139.042 44.216C137.866 43.5627 136.979 42.6107 136.382 41.36C135.785 40.1093 135.486 38.784 135.486 37.384C135.486 36.0027 135.775 34.6867 136.354 33.436C136.951 32.1853 137.838 31.224 139.014 30.552C139.574 30.2347 140.293 30.048 141.17 29.992C141.45 29.712 141.786 29.544 142.178 29.488C142.589 29.432 142.971 29.516 143.326 29.74C143.774 30.0387 144.437 30.4307 145.314 30.916C146.061 31.3453 146.611 31.7 146.966 31.98C147.526 32.484 147.946 33.0813 148.226 33.772C148.525 34.4627 148.758 35.3587 148.926 36.46C149.113 37.7667 149.001 39.0547 148.59 40.324C148.179 41.5933 147.517 42.648 146.602 43.488C145.613 44.4027 144.465 44.9347 143.158 45.084C141.851 45.2333 140.479 44.944 139.042 44.216ZM140.694 41.192C142.075 41.9573 143.261 41.8827 144.25 40.968C144.735 40.52 145.099 39.9413 145.342 39.232C145.585 38.504 145.641 37.7387 145.51 36.936C145.323 35.648 145.053 34.864 144.698 34.584C144.53 34.4347 144.185 34.2107 143.662 33.912L142.654 33.352C142.505 33.3707 142.327 33.38 142.122 33.38H141.814C141.627 33.38 141.487 33.3893 141.394 33.408C141.058 33.4267 140.834 33.464 140.722 33.52C140.181 33.8373 139.742 34.3413 139.406 35.032C139.089 35.7227 138.93 36.516 138.93 37.412C138.93 38.2893 139.089 39.0733 139.406 39.764C139.723 40.436 140.153 40.912 140.694 41.192ZM159.31 44.916C157.276 45.196 155.558 44.7947 154.158 43.712C152.982 42.7973 152.124 41.472 151.582 39.736C151.153 38.168 150.948 36.628 150.966 35.116C151.004 33.604 151.2 32.1947 151.554 30.888C151.965 29.3947 152.478 28.256 153.094 27.472C153.86 26.5013 154.98 25.7453 156.454 25.204C156.958 25.0173 157.677 24.9333 158.61 24.952C159.077 24.952 159.366 24.9333 159.478 24.896C159.646 24.84 159.861 24.6813 160.122 24.42L160.654 23.944C160.897 23.7013 161.112 23.5053 161.298 23.356C161.69 23.0573 162.12 22.936 162.586 22.992C163.072 23.048 163.464 23.272 163.762 23.664C164.061 24.0373 164.182 24.4667 164.126 24.952C164.07 25.4187 163.856 25.8013 163.482 26.1L163.034 26.492L162.474 26.996C161.896 27.5373 161.326 27.92 160.766 28.144C160.225 28.3493 159.488 28.452 158.554 28.452C158.05 28.4333 157.742 28.452 157.63 28.508C156.79 28.8067 156.193 29.18 155.838 29.628C155.67 29.852 155.521 30.1227 155.39 30.44C156.604 29.7867 157.808 29.5253 159.002 29.656C160.197 29.768 161.308 30.2067 162.334 30.972C163.51 31.868 164.369 33.0533 164.91 34.528C165.452 36.0027 165.526 37.552 165.134 39.176C164.705 40.8373 164.052 42.116 163.174 43.012C162.148 44.0573 160.86 44.692 159.31 44.916ZM158.806 41.444C159.59 41.332 160.225 41.0333 160.71 40.548C161.121 40.1187 161.457 39.3813 161.718 38.336C161.961 37.4027 161.933 36.5253 161.634 35.704C161.336 34.8827 160.86 34.2293 160.206 33.744C159.665 33.296 159.049 33.0813 158.358 33.1C157.686 33.1187 157.061 33.4173 156.482 33.996C156.296 34.164 156.109 34.472 155.922 34.92C155.885 34.9947 155.848 35.0787 155.81 35.172C155.773 35.2653 155.726 35.368 155.67 35.48C155.633 35.5733 155.605 35.6573 155.586 35.732C155.418 36.1053 155.269 36.4227 155.138 36.684C155.008 36.9267 154.83 37.132 154.606 37.3C154.681 37.804 154.784 38.2707 154.914 38.7C155.25 39.7453 155.708 40.492 156.286 40.94C156.921 41.4253 157.761 41.5933 158.806 41.444ZM170.788 44.216C169.612 43.5627 168.725 42.6107 168.128 41.36C167.531 40.1093 167.232 38.784 167.232 37.384C167.232 36.0027 167.521 34.6867 168.1 33.436C168.697 32.1853 169.584 31.224 170.76 30.552C171.32 30.2347 172.039 30.048 172.916 29.992C173.196 29.712 173.532 29.544 173.924 29.488C174.335 29.432 174.717 29.516 175.072 29.74C175.52 30.0387 176.183 30.4307 177.06 30.916C177.807 31.3453 178.357 31.7 178.712 31.98C179.272 32.484 179.692 33.0813 179.972 33.772C180.271 34.4627 180.504 35.3587 180.672 36.46C180.859 37.7667 180.747 39.0547 180.336 40.324C179.925 41.5933 179.263 42.648 178.348 43.488C177.359 44.4027 176.211 44.9347 174.904 45.084C173.597 45.2333 172.225 44.944 170.788 44.216ZM172.44 41.192C173.821 41.9573 175.007 41.8827 175.996 40.968C176.481 40.52 176.845 39.9413 177.088 39.232C177.331 38.504 177.387 37.7387 177.256 36.936C177.069 35.648 176.799 34.864 176.444 34.584C176.276 34.4347 175.931 34.2107 175.408 33.912L174.4 33.352C174.251 33.3707 174.073 33.38 173.868 33.38H173.56C173.373 33.38 173.233 33.3893 173.14 33.408C172.804 33.4267 172.58 33.464 172.468 33.52C171.927 33.8373 171.488 34.3413 171.152 35.032C170.835 35.7227 170.676 36.516 170.676 37.412C170.676 38.2893 170.835 39.0733 171.152 39.764C171.469 40.436 171.899 40.912 172.44 41.192ZM186.38 45.644C185.914 45.7373 185.484 45.644 185.092 45.364C184.7 45.1027 184.458 44.748 184.364 44.3L184.308 43.964C184.196 43.74 184.15 43.5067 184.168 43.264V43.208C183.814 41.0427 183.515 37.5707 183.272 32.792C183.216 32.6613 183.17 32.5307 183.132 32.4C183.095 32.1013 183.123 31.8213 183.216 31.56C183.272 31.1307 183.45 30.776 183.748 30.496C184.047 30.216 184.411 30.0667 184.84 30.048C185.158 30.0293 185.456 30.0947 185.736 30.244C187.23 30.02 188.518 29.908 189.6 29.908C190.832 29.9267 191.878 30.0947 192.736 30.412C194.062 30.8787 194.911 31.7 195.284 32.876C195.751 34.2947 195.499 35.564 194.528 36.684L194.276 36.908C194.948 37.3747 195.462 37.9067 195.816 38.504C196.227 39.344 196.339 40.1747 196.152 40.996C195.984 41.8173 195.536 42.592 194.808 43.32C193.782 44.3653 192.167 44.9533 189.964 45.084C189.292 45.1213 188.518 45.1213 187.64 45.084H187.36C187.099 45.3827 186.772 45.5693 186.38 45.644ZM189.796 41.668C191.103 41.5933 191.943 41.3507 192.316 40.94C192.69 40.5853 192.848 40.3333 192.792 40.184C192.606 39.848 192.111 39.54 191.308 39.26C190.842 39.092 190.076 39.064 189.012 39.176C188.527 39.232 187.911 39.3253 187.164 39.456C187.239 40.2213 187.323 40.9493 187.416 41.64H187.808C188.592 41.6773 189.255 41.6867 189.796 41.668ZM186.856 35.788C188.406 35.6387 189.638 35.4053 190.552 35.088C191.262 34.8827 191.738 34.64 191.98 34.36C192.055 34.2667 192.064 34.1173 192.008 33.912C192.008 33.8187 191.859 33.7253 191.56 33.632C191.094 33.4453 190.431 33.352 189.572 33.352C188.77 33.352 187.827 33.4267 186.744 33.576C186.8 34.5093 186.838 35.2467 186.856 35.788ZM205.082 44.832C204.13 45.1307 203.244 45.1867 202.422 45C201.601 44.7947 200.864 44.4307 200.21 43.908C199.576 43.3853 199.053 42.7787 198.642 42.088C198.25 41.3787 198.008 40.66 197.914 39.932C197.728 38.5507 197.802 37.188 198.138 35.844C198.493 34.4813 199.09 33.3147 199.93 32.344C200.864 31.224 202.012 30.5147 203.374 30.216C204.737 29.8987 206.277 30.0667 207.994 30.72C208.573 30.944 209.189 31.336 209.842 31.896C209.917 31.9893 210.029 32.1013 210.178 32.232L210.626 32.624C210.757 32.736 210.888 32.8387 211.018 32.932C211.392 33.212 211.606 33.5947 211.662 34.08C211.737 34.5467 211.634 34.9667 211.354 35.34C211.13 35.62 210.841 35.816 210.486 35.928L210.514 35.956C210.664 36.292 210.748 36.7307 210.766 37.272C210.785 37.496 210.785 37.7107 210.766 37.916C210.766 38.1027 210.766 38.2147 210.766 38.252C210.766 38.2893 210.776 38.3547 210.794 38.448C210.925 39.0267 211.065 39.6893 211.214 40.436C211.252 40.66 211.28 40.8 211.298 40.856C211.336 40.912 211.382 40.968 211.438 41.024L212.642 42.2C212.997 42.5547 213.165 42.9747 213.146 43.46C213.146 43.9267 212.969 44.328 212.614 44.664C212.278 45 211.877 45.1587 211.41 45.14C210.944 45.14 210.542 44.972 210.206 44.636L209.03 43.488C208.62 43.0773 208.33 42.704 208.162 42.368L208.134 42.284C208.116 42.3213 208.041 42.424 207.91 42.592L207.602 42.984L207.21 43.404C207.061 43.572 206.912 43.7213 206.762 43.852L206.258 44.216C206.072 44.3467 205.876 44.468 205.67 44.58C205.484 44.6733 205.288 44.7573 205.082 44.832ZM203.962 41.584C204.037 41.5653 204.112 41.5373 204.186 41.5C204.261 41.444 204.326 41.3973 204.382 41.36C204.438 41.304 204.513 41.22 204.606 41.108C204.7 40.996 204.784 40.9027 204.858 40.828C204.933 40.7533 205.054 40.6227 205.222 40.436L205.586 39.96C205.717 39.8107 205.894 39.4653 206.118 38.924C206.137 38.868 206.146 38.8027 206.146 38.728C206.165 38.6533 206.174 38.5227 206.174 38.336C206.193 38.1307 206.221 37.9067 206.258 37.664C206.389 36.376 206.912 35.508 207.826 35.06C207.901 35.0227 207.976 34.9947 208.05 34.976L207.602 34.528C207.229 34.2107 206.921 34.0053 206.678 33.912C204.924 33.184 203.552 33.408 202.562 34.584C202.058 35.144 201.694 35.872 201.47 36.768C201.246 37.6453 201.2 38.56 201.33 39.512C201.424 40.2027 201.76 40.7627 202.338 41.192C202.917 41.6213 203.458 41.752 203.962 41.584ZM221.436 43.32C221.436 43.7867 221.258 44.1973 220.904 44.552C220.568 44.888 220.157 45.0467 219.672 45.028C219.205 45.028 218.794 44.86 218.44 44.524C218.104 44.1693 217.945 43.7493 217.964 43.264C218.001 39.736 217.992 36.544 217.936 33.688C216.442 33.688 215.453 33.6787 214.968 33.66C214.501 33.66 214.09 33.492 213.736 33.156C213.4 32.8013 213.232 32.3907 213.232 31.924C213.25 31.4387 213.428 31.028 213.764 30.692C214.118 30.3373 214.538 30.1693 215.024 30.188C220.4 30.2253 223.601 30.244 224.628 30.244C225.113 30.2253 225.524 30.3933 225.86 30.748C226.214 31.084 226.392 31.4947 226.392 31.98C226.41 32.4467 226.242 32.8573 225.888 33.212C225.552 33.548 225.15 33.716 224.684 33.716C224.366 33.7347 223.284 33.744 221.436 33.744C221.473 36.6187 221.473 39.8107 221.436 43.32ZM230.301 45.252C229.816 45.2707 229.396 45.112 229.041 44.776C228.705 44.44 228.537 44.0293 228.537 43.544C228.5 42.088 228.416 40.0253 228.285 37.356C228.173 34.668 228.108 32.848 228.089 31.896C228.07 31.4107 228.22 30.9907 228.537 30.636C228.873 30.2813 229.284 30.104 229.769 30.104C230.254 30.0853 230.674 30.244 231.029 30.58C231.384 30.8973 231.561 31.2987 231.561 31.784L231.701 35.312C232.373 35.256 232.961 35.2093 233.465 35.172C234.249 35.116 234.921 35.1067 235.481 35.144C236.34 35.1813 237.012 35.34 237.497 35.62C238.169 35.9747 238.738 36.488 239.205 37.16C239.672 37.832 239.97 38.5413 240.101 39.288C240.362 40.968 239.998 42.3213 239.009 43.348C238.244 44.132 237.161 44.6267 235.761 44.832C234.66 45.0187 233.213 45.0187 231.421 44.832C231.104 45.112 230.73 45.252 230.301 45.252ZM231.953 41.388C233.353 41.5187 234.445 41.5187 235.229 41.388C235.864 41.2947 236.293 41.136 236.517 40.912C236.685 40.7253 236.722 40.3707 236.629 39.848C236.554 39.344 236.293 38.952 235.845 38.672H235.789C235.752 38.672 235.686 38.6627 235.593 38.644C235.518 38.6253 235.425 38.616 235.313 38.616C234.884 38.5973 234.342 38.6067 233.689 38.644C233.166 38.6813 232.56 38.7373 231.869 38.812C231.906 39.7827 231.934 40.6413 231.953 41.388ZM255.201 45C254.137 44.8133 253.176 44.4773 252.317 43.992C251.402 43.4133 250.674 42.7227 250.133 41.92C249.61 41.0613 249.293 40.1933 249.181 39.316C249.069 38.42 249.088 37.5333 249.237 36.656C249.405 35.7787 249.694 34.948 250.105 34.164C250.534 33.38 251.066 32.68 251.701 32.064C252.336 31.4293 253.054 30.9253 253.857 30.552C254.66 30.16 255.556 29.9827 256.545 30.02C257.553 30.0387 258.552 30.3093 259.541 30.832C260.848 31.5227 261.828 32.4933 262.481 33.744C262.798 34.3227 262.985 35.032 263.041 35.872L263.097 36.684C263.097 36.9453 263.106 37.1507 263.125 37.3C263.181 37.636 263.134 37.9533 262.985 38.252C262.854 38.5507 262.64 38.784 262.341 38.952C262.024 39.1947 261.669 39.2973 261.277 39.26C258.253 39.092 255.35 39.0733 252.569 39.204C252.793 40.0253 253.288 40.6693 254.053 41.136C254.501 41.3973 255.052 41.5933 255.705 41.724C256.377 41.836 256.928 41.8267 257.357 41.696C257.525 41.64 257.749 41.5 258.029 41.276L258.617 40.8C258.86 40.576 259.093 40.3893 259.317 40.24C259.69 39.9787 260.101 39.8947 260.549 39.988C261.016 40.0813 261.38 40.324 261.641 40.716C261.902 41.0893 261.986 41.5 261.893 41.948C261.8 42.396 261.566 42.76 261.193 43.04C261.081 43.1147 260.932 43.2267 260.745 43.376L260.129 43.908C259.476 44.3933 258.86 44.72 258.281 44.888C257.292 45.1493 256.265 45.1867 255.201 45ZM253.017 35.816C255.182 35.7413 257.394 35.7413 259.653 35.816C259.634 35.5733 259.597 35.4053 259.541 35.312C259.186 34.6587 258.664 34.1453 257.973 33.772C257.021 33.2867 256.106 33.2307 255.229 33.604C254.352 33.9587 253.633 34.6587 253.073 35.704L253.017 35.816ZM286.412 46.316C286.393 46.7827 286.197 47.1747 285.824 47.492C285.469 47.828 285.049 47.9773 284.564 47.94C284.097 47.9213 283.696 47.7253 283.36 47.352C283.042 46.9973 282.902 46.5773 282.94 46.092L283.024 44.748C279.216 45.0653 274.26 45.084 268.156 44.804C267.726 44.7853 267.353 44.6267 267.036 44.328C266.662 44.0667 266.438 43.712 266.364 43.264C266.233 42.592 266.121 41.892 266.028 41.164C265.934 40.4173 265.86 39.7733 265.804 39.232C265.748 38.672 265.692 37.972 265.636 37.132C265.598 36.2733 265.57 35.6293 265.552 35.2C265.552 34.7707 265.533 34.2013 265.496 33.492C265.477 32.7827 265.468 32.2693 265.468 31.952C265.449 31.4667 265.598 31.0467 265.916 30.692C266.252 30.3373 266.662 30.16 267.148 30.16C267.633 30.1413 268.053 30.3 268.408 30.636C268.762 30.9533 268.94 31.3547 268.94 31.84C268.958 32.1387 268.977 32.708 268.996 33.548C269.033 34.3693 269.061 34.9853 269.08 35.396L269.164 37.272C269.201 38.0933 269.257 38.8213 269.332 39.456C269.406 40.0907 269.49 40.7347 269.584 41.388C271.114 41.4627 272.514 41.5093 273.784 41.528C273.728 40.52 273.69 39.4653 273.672 38.364C273.653 37.244 273.634 36.124 273.616 35.004C273.597 33.884 273.588 32.9787 273.588 32.288C273.569 31.8027 273.728 31.392 274.064 31.056C274.4 30.7013 274.81 30.524 275.296 30.524C275.781 30.5053 276.192 30.664 276.528 31C276.882 31.336 277.06 31.7467 277.06 32.232C277.078 32.9413 277.088 33.8653 277.088 35.004C277.106 36.124 277.125 37.244 277.144 38.364C277.181 39.4653 277.228 40.52 277.284 41.528C278.441 41.5093 279.552 41.472 280.616 41.416C281.157 37.72 281.558 34.5 281.82 31.756C281.857 31.2707 282.053 30.8693 282.408 30.552C282.762 30.2347 283.182 30.0947 283.668 30.132C284.153 30.1693 284.554 30.3653 284.872 30.72C285.189 31.0747 285.329 31.4947 285.292 31.98C285.105 34.276 284.741 37.3187 284.2 41.108H284.424C284.61 41.052 284.797 41.0333 284.984 41.052C285.45 41.0707 285.842 41.2667 286.16 41.64C286.496 41.9947 286.645 42.4147 286.608 42.9L286.412 46.316ZM294.447 44.944C292.935 44.5333 291.833 44.0667 291.143 43.544C289.687 42.424 288.819 40.7907 288.539 38.644C288.221 38.364 288.044 38.0093 288.007 37.58C287.969 37.0573 288.147 36.628 288.539 36.292C288.669 35.2653 288.959 34.304 289.407 33.408C289.873 32.512 290.508 31.7747 291.311 31.196C292.151 30.58 293.056 30.188 294.027 30.02C295.016 29.852 295.94 29.8987 296.799 30.16C297.657 30.4213 298.46 30.8413 299.207 31.42C299.972 31.9987 300.597 32.68 301.083 33.464C301.232 33.7813 301.372 34.1547 301.503 34.584C301.652 34.9947 301.783 35.4147 301.895 35.844C302.007 36.2733 302.063 36.4973 302.063 36.516C302.193 36.964 302.156 37.3933 301.951 37.804C301.745 38.196 301.437 38.448 301.027 38.56L300.775 38.616C300.588 38.672 300.401 38.7 300.215 38.7C297.34 38.7 294.549 38.784 291.843 38.952C292.104 39.8667 292.524 40.548 293.103 40.996C293.457 41.276 294.185 41.556 295.287 41.836C295.455 41.8733 295.604 41.9013 295.735 41.92C295.865 41.92 295.977 41.9107 296.071 41.892C296.183 41.8547 296.313 41.7987 296.463 41.724L296.911 41.472L297.555 41.08C297.853 40.912 298.161 40.744 298.479 40.576C298.889 40.408 299.3 40.3893 299.711 40.52C300.14 40.6507 300.448 40.9213 300.635 41.332C300.84 41.724 300.868 42.1347 300.719 42.564C300.588 42.9747 300.327 43.2827 299.935 43.488C299.804 43.544 299.608 43.6653 299.347 43.852L298.591 44.244C298.385 44.3747 298.105 44.5147 297.751 44.664C297.415 44.8133 297.088 44.9253 296.771 45C296.472 45.056 296.117 45.084 295.707 45.084C295.296 45.1027 294.876 45.056 294.447 44.944ZM291.927 35.704C294.073 35.592 296.257 35.5267 298.479 35.508C298.423 35.3587 298.357 35.228 298.283 35.116C297.723 34.1453 296.939 33.5293 295.931 33.268C294.923 32.988 294.017 33.156 293.215 33.772C292.636 34.22 292.207 34.864 291.927 35.704ZM294.083 25.26C294.419 25.596 294.587 26.0067 294.587 26.492C294.587 26.9773 294.419 27.388 294.083 27.724C293.747 28.06 293.289 28.228 292.711 28.228C292.132 28.228 291.675 28.06 291.339 27.724C291.003 27.388 290.835 26.9773 290.835 26.492C290.835 26.0067 291.003 25.596 291.339 25.26C291.675 24.924 292.132 24.756 292.711 24.756C293.289 24.756 293.747 24.924 294.083 25.26ZM299.235 25.288C299.571 25.624 299.739 26.0347 299.739 26.52C299.739 27.0053 299.571 27.416 299.235 27.752C298.899 28.088 298.441 28.256 297.863 28.256C297.284 28.256 296.827 28.088 296.491 27.752C296.155 27.416 295.987 27.0053 295.987 26.52C295.987 26.0347 296.155 25.624 296.491 25.288C296.827 24.952 297.284 24.784 297.863 24.784C298.441 24.784 298.899 24.952 299.235 25.288Z" fill="#D7790C"/>
<defs>
<linearGradient id="paint0_linear" x1="167.5" y1="0" x2="167.5" y2="76" gradientUnits="userSpaceOnUse">
<stop stop-color="#FFF85B"/>
<stop offset="1" stop-color="#F6BB03"/>
</linearGradient>
</defs>
</svg>
