<svg width="367" height="76" viewBox="0 0 367 76" fill="none" xmlns="http://www.w3.org/2000/svg">
<rect width="367" height="76" rx="20.2667" fill="url(#paint0_linear)"/>
<path fill-rule="evenodd" clip-rule="evenodd" d="M20.2667 0C9.0737 0 0 9.0737 0 20.2667V55.7333C0 55.768 8.68742e-05 55.8026 0.000260417 55.8372V27.8667C0.000260417 16.6737 9.07396 7.6 20.2669 7.6H346.734C357.891 7.6 366.943 16.6161 367 27.76V20.2667C367 9.0737 357.926 0 346.733 0H20.2667Z" fill="#FFF6BF"/>
<path fill-rule="evenodd" clip-rule="evenodd" d="M20.2667 76C9.0737 76 0 66.9263 0 55.7333V20.2667C0 20.232 8.68742e-05 20.1974 0.000260417 20.1628V48.1333C0.000260417 59.3263 9.07396 68.4 20.2669 68.4H346.734C357.891 68.4 366.943 59.3839 367 48.24V55.7333C367 66.9263 357.926 76 346.733 76H20.2667Z" fill="#DC6B02" fill-opacity="0.6"/>
<path d="M44.5783 33.3698C46.988 34.761 46.988 38.239 44.5783 39.6302L30.6717 47.6592C28.262 49.0504 25.25 47.3114 25.25 44.529L25.25 28.471C25.25 25.6886 28.262 23.9496 30.6717 25.3408L44.5783 33.3698Z" fill="#D7790C"/>
<path d="M73.68 44.916C72.4107 44.6173 71.216 44.1227 70.096 43.432C68.9947 42.7227 68.1267 41.8827 67.492 40.912C66.764 39.792 66.2973 38.56 66.092 37.216C65.8867 35.872 65.924 34.5653 66.204 33.296C66.484 32.008 66.96 30.8227 67.632 29.74C68.3227 28.564 69.1907 27.584 70.236 26.8C71.3 25.9973 72.532 25.428 73.932 25.092C75.332 24.756 76.8347 24.8213 78.44 25.288C79.0373 25.456 79.56 25.6427 80.008 25.848C80.4747 26.0533 80.8853 26.324 81.24 26.66C81.6133 26.9773 81.8933 27.2387 82.08 27.444C82.2667 27.6307 82.528 27.9573 82.864 28.424C83.2 28.872 83.424 29.1613 83.536 29.292C83.8347 29.628 83.9467 30.0293 83.872 30.496C83.816 30.944 83.6013 31.2987 83.228 31.56C82.8547 31.8213 82.4253 31.924 81.94 31.868C81.4733 31.812 81.1093 31.6067 80.848 31.252L80.036 30.3C79.756 29.9267 79.56 29.6747 79.448 29.544C79.336 29.4133 79.168 29.2547 78.944 29.068C78.7387 28.8813 78.524 28.7413 78.3 28.648C78.0947 28.5547 77.8147 28.4613 77.46 28.368C76.0413 27.9947 74.7347 28.0787 73.54 28.62C72.364 29.1613 71.384 30.0573 70.6 31.308C69.8347 32.5587 69.4333 33.9027 69.396 35.34C69.3587 36.7773 69.704 38.0653 70.432 39.204C70.8053 39.7827 71.356 40.3053 72.084 40.772C72.812 41.2387 73.596 41.5653 74.436 41.752C76.228 42.144 77.6093 41.8453 78.58 40.856C78.86 40.5573 79.1773 40.1 79.532 39.484C80.1853 38.1773 80.512 37.5147 80.512 37.496C80.7547 37.104 81.1 36.852 81.548 36.74C82.0147 36.6093 82.4533 36.656 82.864 36.88C83.2747 37.0853 83.5453 37.412 83.676 37.86C83.8067 38.2893 83.76 38.6907 83.536 39.064C83.424 39.2507 83.3213 39.4373 83.228 39.624L82.892 40.296L82.612 40.884C82.1453 41.78 81.66 42.4893 81.156 43.012C80.484 43.684 79.7093 44.2067 78.832 44.58C77.9547 44.9347 77.0867 45.112 76.228 45.112C75.388 45.1307 74.5387 45.0653 73.68 44.916ZM87.1848 45.14C86.8861 45.5133 86.4941 45.728 86.0088 45.784C85.5234 45.84 85.0941 45.7187 84.7208 45.42C84.3474 45.1213 84.1327 44.7293 84.0767 44.244C84.0207 43.7587 84.1421 43.3293 84.4407 42.956L85.4488 41.808C85.8034 41.4347 86.0834 41.1267 86.2888 40.884C86.4941 40.6413 86.6714 40.3707 86.8208 40.072C87.0821 39.5307 87.2034 38.364 87.1848 36.572C87.1848 35.9187 87.1568 35.0787 87.1008 34.052C87.0634 33.0067 87.0448 32.372 87.0448 32.148C87.0448 32.0173 87.0541 31.896 87.0728 31.784C87.1101 31.3547 87.2781 30.9907 87.5768 30.692C87.8941 30.3747 88.2768 30.2067 88.7248 30.188C89.2288 30.1507 89.7514 30.1227 90.2928 30.104C90.8528 30.0667 91.2168 30.048 91.3848 30.048C91.5528 30.0293 91.7488 30.02 91.9728 30.02C92.2154 30.0013 92.4301 29.992 92.6168 29.992H93.3448C93.6061 29.992 94.0261 30.0013 94.6048 30.02C95.2021 30.02 95.8368 30.02 96.5088 30.02C96.6581 30.02 96.8074 30.0387 96.9568 30.076H96.9848C97.4701 30.1133 97.8621 30.3187 98.1608 30.692C98.4781 31.0653 98.6181 31.4853 98.5808 31.952C98.2074 36.6187 98.0208 40.3987 98.0208 43.292C98.0208 43.7773 97.8528 44.188 97.5168 44.524C97.1808 44.86 96.7701 45.028 96.2848 45.028C95.7994 45.028 95.3888 44.86 95.0528 44.524C94.7168 44.188 94.5488 43.7773 94.5488 43.292C94.5488 40.436 94.6888 37.1693 94.9688 33.492C93.0834 33.492 91.6181 33.52 90.5728 33.576C90.6474 34.864 90.6848 35.8533 90.6848 36.544C90.6848 38.9333 90.4421 40.6133 89.9568 41.584C89.7514 42.0133 89.4621 42.4707 89.0888 42.956C88.7341 43.4227 88.3421 43.88 87.9128 44.328C87.5021 44.776 87.2594 45.0467 87.1848 45.14ZM106.943 45C105.879 44.8133 104.918 44.4773 104.059 43.992C103.145 43.4133 102.417 42.7227 101.875 41.92C101.353 41.0613 101.035 40.1933 100.923 39.316C100.811 38.42 100.83 37.5333 100.979 36.656C101.147 35.7787 101.437 34.948 101.847 34.164C102.277 33.38 102.809 32.68 103.443 32.064C104.078 31.4293 104.797 30.9253 105.599 30.552C106.402 30.16 107.298 29.9827 108.287 30.02C109.295 30.0387 110.294 30.3093 111.283 30.832C112.59 31.5227 113.57 32.4933 114.223 33.744C114.541 34.3227 114.727 35.032 114.783 35.872L114.839 36.684C114.839 36.9453 114.849 37.1507 114.867 37.3C114.923 37.636 114.877 37.9533 114.727 38.252C114.597 38.5507 114.382 38.784 114.083 38.952C113.766 39.1947 113.411 39.2973 113.019 39.26C109.995 39.092 107.093 39.0733 104.311 39.204C104.535 40.0253 105.03 40.6693 105.795 41.136C106.243 41.3973 106.794 41.5933 107.447 41.724C108.119 41.836 108.67 41.8267 109.099 41.696C109.267 41.64 109.491 41.5 109.771 41.276L110.359 40.8C110.602 40.576 110.835 40.3893 111.059 40.24C111.433 39.9787 111.843 39.8947 112.291 39.988C112.758 40.0813 113.122 40.324 113.383 40.716C113.645 41.0893 113.729 41.5 113.635 41.948C113.542 42.396 113.309 42.76 112.935 43.04C112.823 43.1147 112.674 43.2267 112.487 43.376L111.871 43.908C111.218 44.3933 110.602 44.72 110.023 44.888C109.034 45.1493 108.007 45.1867 106.943 45ZM104.759 35.816C106.925 35.7413 109.137 35.7413 111.395 35.816C111.377 35.5733 111.339 35.4053 111.283 35.312C110.929 34.6587 110.406 34.1453 109.715 33.772C108.763 33.2867 107.849 33.2307 106.971 33.604C106.094 33.9587 105.375 34.6587 104.815 35.704L104.759 35.816ZM128.606 48.024C128.606 47.7627 128.625 47.436 128.662 47.044L128.69 46.736C128.709 46.5493 128.718 46.4 128.718 46.288C128.755 45.8773 128.746 45.588 128.69 45.42C128.653 45.2893 128.522 45.1867 128.298 45.112C128.167 45.0747 127.934 45.0653 127.598 45.084C127.542 45.1027 127.477 45.112 127.402 45.112C127.327 45.112 127.243 45.112 127.15 45.112C127.075 45.1307 127.01 45.1493 126.954 45.168C126.618 45.1867 126.329 45.196 126.086 45.196H119.114L119.058 46.904C119.058 47.3707 118.881 47.772 118.526 48.108C118.171 48.444 117.751 48.6027 117.266 48.584C116.799 48.584 116.398 48.4067 116.062 48.052C115.726 47.6973 115.567 47.2773 115.586 46.792L115.67 43.572C115.67 43.1987 115.782 42.8627 116.006 42.564C116.286 42.0973 116.706 41.8173 117.266 41.724C118.965 38.308 119.889 34.976 120.038 31.728C120.057 31.2613 120.243 30.8693 120.598 30.552C120.953 30.216 121.373 30.0573 121.858 30.076C121.97 30.076 122.091 30.0947 122.222 30.132C122.241 30.132 122.455 30.1227 122.866 30.104C123.277 30.0853 123.734 30.0667 124.238 30.048C124.742 30.0293 125.218 30.02 125.666 30.02C126.562 29.9827 127.271 29.964 127.794 29.964C128.111 29.964 128.363 29.9733 128.55 29.992H128.886C128.961 30.0107 129.035 30.02 129.11 30.02C129.334 30.076 129.539 30.16 129.726 30.272C129.894 30.384 130.034 30.5147 130.146 30.664C130.277 30.8133 130.361 30.9347 130.398 31.028L130.454 31.168C130.491 31.2613 130.51 31.3547 130.51 31.448C130.529 31.5227 130.538 31.588 130.538 31.644C130.557 31.7 130.566 31.7653 130.566 31.84V32.148C130.547 32.372 130.538 32.708 130.538 33.156C130.519 33.436 130.501 33.9307 130.482 34.64C130.463 35.3493 130.445 35.8067 130.426 36.012C130.351 39.092 130.323 41.1733 130.342 42.256C131.163 42.7787 131.714 43.46 131.994 44.3C132.199 44.9347 132.274 45.6907 132.218 46.568L132.134 47.38C132.097 47.66 132.078 47.8747 132.078 48.024C132.078 48.5093 131.91 48.92 131.574 49.256C131.238 49.592 130.827 49.76 130.342 49.76C129.857 49.76 129.446 49.592 129.11 49.256C128.774 48.92 128.606 48.5093 128.606 48.024ZM126.086 41.724C126.217 41.724 126.394 41.7053 126.618 41.668H126.842C126.842 40.4173 126.879 38.4947 126.954 35.9L127.038 33.464C126.665 33.4827 126.235 33.492 125.75 33.492C125.078 33.5107 124.294 33.5387 123.398 33.576C123.118 36.208 122.362 38.924 121.13 41.724H126.086ZM136.353 50.376C135.98 50.6747 135.55 50.8053 135.065 50.768C134.598 50.7307 134.206 50.5253 133.889 50.152C133.59 49.7787 133.46 49.3493 133.497 48.864C133.534 48.3973 133.74 48.0053 134.113 47.688C134.486 47.3893 134.897 47.072 135.345 46.736C135.812 46.4 136.185 46.1107 136.465 45.868C136.764 45.6253 137.034 45.364 137.277 45.084V45.056C135.317 40.8747 133.768 36.628 132.629 32.316C132.498 31.8493 132.554 31.4107 132.797 31C133.04 30.5707 133.394 30.3 133.861 30.188C134.328 30.0573 134.766 30.1133 135.177 30.356C135.606 30.5987 135.877 30.9533 135.989 31.42C136.829 34.5187 137.874 37.58 139.125 40.604C140.432 37.2627 141.328 34.2387 141.813 31.532C141.888 31.0653 142.121 30.692 142.513 30.412C142.924 30.132 143.362 30.0387 143.829 30.132C144.296 30.2067 144.669 30.4493 144.949 30.86C145.229 31.252 145.322 31.6813 145.229 32.148C144.632 35.5267 143.4 39.4747 141.533 43.992C141.496 44.0667 141.421 44.2533 141.309 44.552L140.973 45.448C140.88 45.7093 140.74 46.0173 140.553 46.372C140.366 46.7267 140.17 47.0347 139.965 47.296C139.648 47.6693 139.256 48.052 138.789 48.444C138.341 48.836 137.856 49.228 137.333 49.62C136.81 50.012 136.484 50.264 136.353 50.376ZM158.82 44.944C157.401 44.8133 156.151 44.244 155.068 43.236C154.004 42.2467 153.239 41.0707 152.772 39.708C152.716 39.5027 152.66 39.2973 152.604 39.092H151.092L151.428 43.18C151.465 43.6467 151.335 44.0573 151.036 44.412C150.756 44.7667 150.383 44.9627 149.916 45C149.468 45.0373 149.067 44.916 148.712 44.636C148.357 44.3373 148.161 43.964 148.124 43.516C147.956 41.5747 147.816 39.624 147.704 37.664C147.685 37.5707 147.676 37.468 147.676 37.356V37.328C147.545 35.6107 147.433 33.7533 147.34 31.756C147.303 31.2893 147.443 30.8973 147.76 30.58C148.077 30.244 148.46 30.0667 148.908 30.048C149.375 30.0107 149.776 30.1507 150.112 30.468C150.467 30.7667 150.653 31.1493 150.672 31.616C150.728 33.072 150.803 34.444 150.896 35.732L152.38 35.76C152.585 34.1733 153.248 32.8573 154.368 31.812C154.853 31.364 155.516 31.028 156.356 30.804C156.468 30.7667 156.608 30.72 156.776 30.664C156.981 30.328 157.261 30.0947 157.616 29.964C157.989 29.8147 158.363 29.8053 158.736 29.936L159.156 30.048C159.268 30.0853 159.408 30.1133 159.576 30.132L159.968 30.216C160.677 30.4027 161.265 30.636 161.732 30.916C163.057 31.7373 164.037 32.932 164.672 34.5C165.325 36.0493 165.587 37.608 165.456 39.176C165.307 40.9307 164.709 42.34 163.664 43.404C162.432 44.6547 160.817 45.168 158.82 44.944ZM159.184 41.64C160.099 41.7333 160.799 41.5373 161.284 41.052C161.769 40.5667 162.059 39.848 162.152 38.896C162.227 37.8693 162.049 36.8613 161.62 35.872C161.209 34.8827 160.659 34.1733 159.968 33.744C159.819 33.632 159.557 33.5293 159.184 33.436L159.072 33.408L158.96 33.464C158.699 33.5573 158.391 33.66 158.036 33.772C158.017 33.772 157.924 33.8 157.756 33.856C157.588 33.912 157.448 33.9493 157.336 33.968C156.963 34.08 156.729 34.1827 156.636 34.276C155.945 34.9107 155.609 35.7787 155.628 36.88C155.703 37.0667 155.731 37.272 155.712 37.496V37.72C155.768 38.0187 155.833 38.308 155.908 38.588C156.225 39.4653 156.673 40.184 157.252 40.744C157.849 41.2853 158.493 41.584 159.184 41.64ZM188.986 46.316C188.967 46.7827 188.771 47.1747 188.398 47.492C188.043 47.828 187.623 47.9773 187.138 47.94C186.671 47.9213 186.27 47.7253 185.934 47.352C185.617 46.9973 185.477 46.5773 185.514 46.092L185.598 44.748C181.79 45.0653 176.834 45.084 170.73 44.804C170.301 44.7853 169.927 44.6267 169.61 44.328C169.237 44.0667 169.013 43.712 168.938 43.264C168.807 42.592 168.695 41.892 168.602 41.164C168.509 40.4173 168.434 39.7733 168.378 39.232C168.322 38.672 168.266 37.972 168.21 37.132C168.173 36.2733 168.145 35.6293 168.126 35.2C168.126 34.7707 168.107 34.2013 168.07 33.492C168.051 32.7827 168.042 32.2693 168.042 31.952C168.023 31.4667 168.173 31.0467 168.49 30.692C168.826 30.3373 169.237 30.16 169.722 30.16C170.207 30.1413 170.627 30.3 170.982 30.636C171.337 30.9533 171.514 31.3547 171.514 31.84C171.533 32.1387 171.551 32.708 171.57 33.548C171.607 34.3693 171.635 34.9853 171.654 35.396L171.738 37.272C171.775 38.0933 171.831 38.8213 171.906 39.456C171.981 40.0907 172.065 40.7347 172.158 41.388C173.689 41.4627 175.089 41.5093 176.358 41.528C176.302 40.52 176.265 39.4653 176.246 38.364C176.227 37.244 176.209 36.124 176.19 35.004C176.171 33.884 176.162 32.9787 176.162 32.288C176.143 31.8027 176.302 31.392 176.638 31.056C176.974 30.7013 177.385 30.524 177.87 30.524C178.355 30.5053 178.766 30.664 179.102 31C179.457 31.336 179.634 31.7467 179.634 32.232C179.653 32.9413 179.662 33.8653 179.662 35.004C179.681 36.124 179.699 37.244 179.718 38.364C179.755 39.4653 179.802 40.52 179.858 41.528C181.015 41.5093 182.126 41.472 183.19 41.416C183.731 37.72 184.133 34.5 184.394 31.756C184.431 31.2707 184.627 30.8693 184.982 30.552C185.337 30.2347 185.757 30.0947 186.242 30.132C186.727 30.1693 187.129 30.3653 187.446 30.72C187.763 31.0747 187.903 31.4947 187.866 31.98C187.679 34.276 187.315 37.3187 186.774 41.108H186.998C187.185 41.052 187.371 41.0333 187.558 41.052C188.025 41.0707 188.417 41.2667 188.734 41.64C189.07 41.9947 189.219 42.4147 189.182 42.9L188.986 46.316ZM192.289 44.748C191.692 44.3373 191.44 43.7773 191.533 43.068V42.9C191.328 39.0173 191.374 35.2653 191.673 31.644C191.71 31.1587 191.906 30.7667 192.261 30.468C192.634 30.1507 193.064 30.0107 193.549 30.048C194.034 30.0853 194.426 30.2907 194.725 30.664C195.042 31.0187 195.182 31.4387 195.145 31.924C194.977 34.108 194.893 36.1987 194.893 38.196L196.181 36.544C197.936 34.248 199.261 32.3533 200.157 30.86C200.456 30.3747 200.876 30.0947 201.417 30.02C201.622 29.9453 201.828 29.908 202.033 29.908C202.518 29.8893 202.938 30.048 203.293 30.384C203.648 30.7013 203.825 31.1027 203.825 31.588C203.862 32.7827 203.872 34.7147 203.853 37.384C203.834 39.8293 203.853 41.7707 203.909 43.208C203.928 43.6933 203.769 44.1133 203.433 44.468C203.116 44.8227 202.714 45.0093 202.229 45.028C201.762 45.0467 201.352 44.8973 200.997 44.58C200.642 44.244 200.456 43.8427 200.437 43.376C200.381 41.976 200.362 39.7827 200.381 36.796L198.953 38.672C196.321 42.144 194.902 44.02 194.697 44.3C194.436 44.7107 194.062 44.9533 193.577 45.028C193.11 45.1213 192.681 45.028 192.289 44.748ZM209.718 45.056C209.232 45.0933 208.803 44.9627 208.43 44.664C208.075 44.3467 207.879 43.9453 207.842 43.46C207.45 38.3267 207.244 34.4813 207.226 31.924C207.207 31.4387 207.366 31.028 207.702 30.692C208.056 30.3373 208.467 30.16 208.934 30.16C209.419 30.1413 209.83 30.3 210.166 30.636C210.52 30.9907 210.698 31.4013 210.698 31.868C210.716 33.884 210.819 36.1707 211.006 38.728L216.662 31.028L216.69 30.972C217.007 30.3373 217.52 30.02 218.23 30.02C218.715 30.0013 219.126 30.1693 219.462 30.524C219.816 30.86 219.994 31.2613 219.994 31.728C220.012 33.296 220.04 35.536 220.078 38.448C220.115 41.36 220.124 43.0027 220.106 43.376C220.106 43.8427 219.928 44.2533 219.574 44.608C219.238 44.944 218.827 45.1027 218.342 45.084C217.875 45.084 217.464 44.916 217.11 44.58C216.774 44.2253 216.615 43.8053 216.634 43.32C216.634 42.48 216.606 41.2947 216.55 39.764C216.494 38.2147 216.475 37.3467 216.494 37.16L211.426 43.824C211.332 43.9547 211.23 44.0667 211.118 44.16C210.819 44.7013 210.352 45 209.718 45.056ZM213.442 30.3C212.807 30.356 212.135 30.132 211.426 29.628C211.407 29.6467 211.183 29.5067 210.754 29.208L209.606 28.424C209.195 28.1627 208.934 27.7987 208.822 27.332C208.71 26.8467 208.784 26.408 209.046 26.016C209.307 25.6053 209.671 25.344 210.138 25.232C210.604 25.12 211.043 25.1947 211.454 25.456C211.566 25.5307 212.172 25.9413 213.274 26.688L213.554 26.52C214.45 26.0533 215.327 25.6333 216.186 25.26C216.634 25.092 217.082 25.1013 217.53 25.288C217.978 25.456 218.286 25.764 218.454 26.212C218.64 26.66 218.65 27.108 218.482 27.556C218.314 28.004 217.996 28.3213 217.53 28.508C216.746 28.844 215.962 29.2173 215.178 29.628C214.412 30.0387 213.834 30.2627 213.442 30.3ZM233.396 50.376C233.023 50.6747 232.593 50.8053 232.108 50.768C231.641 50.7307 231.249 50.5253 230.932 50.152C230.633 49.7787 230.503 49.3493 230.54 48.864C230.577 48.3973 230.783 48.0053 231.156 47.688C231.529 47.3893 231.94 47.072 232.388 46.736C232.855 46.4 233.228 46.1107 233.508 45.868C233.807 45.6253 234.077 45.364 234.32 45.084V45.056C232.36 40.8747 230.811 36.628 229.672 32.316C229.541 31.8493 229.597 31.4107 229.84 31C230.083 30.5707 230.437 30.3 230.904 30.188C231.371 30.0573 231.809 30.1133 232.22 30.356C232.649 30.5987 232.92 30.9533 233.032 31.42C233.872 34.5187 234.917 37.58 236.168 40.604C237.475 37.2627 238.371 34.2387 238.856 31.532C238.931 31.0653 239.164 30.692 239.556 30.412C239.967 30.132 240.405 30.0387 240.872 30.132C241.339 30.2067 241.712 30.4493 241.992 30.86C242.272 31.252 242.365 31.6813 242.272 32.148C241.675 35.5267 240.443 39.4747 238.576 43.992C238.539 44.0667 238.464 44.2533 238.352 44.552L238.016 45.448C237.923 45.7093 237.783 46.0173 237.596 46.372C237.409 46.7267 237.213 47.0347 237.008 47.296C236.691 47.6693 236.299 48.052 235.832 48.444C235.384 48.836 234.899 49.228 234.376 49.62C233.853 50.012 233.527 50.264 233.396 50.376ZM245.223 48.556C245.148 46.2227 245.027 42.4053 244.859 37.104C244.542 36.7867 244.364 36.404 244.327 35.956C244.308 35.508 244.439 35.1067 244.719 34.752L244.803 34.64L244.747 32.036C244.728 31.5507 244.878 31.1307 245.195 30.776C245.531 30.4213 245.942 30.244 246.427 30.244C247.118 30.2253 247.64 30.5333 247.995 31.168C249.992 29.7307 251.915 29.3293 253.763 29.964C254.771 30.3 255.62 30.8787 256.311 31.7C257.002 32.54 257.534 33.4827 257.907 34.528C258.728 36.6373 258.822 38.588 258.187 40.38C257.87 41.4627 257.31 42.4147 256.507 43.236C255.723 44.0387 254.734 44.5893 253.539 44.888C252.102 45.224 250.767 45.1213 249.535 44.58C249.236 44.4493 248.91 44.272 248.555 44.048C248.611 45.6347 248.658 47.1 248.695 48.444C248.714 48.9293 248.555 49.34 248.219 49.676C247.902 50.0307 247.5 50.2173 247.015 50.236C246.53 50.2547 246.11 50.096 245.755 49.76C245.419 49.4427 245.242 49.0413 245.223 48.556ZM252.699 41.472C253.726 41.2293 254.416 40.688 254.771 39.848C255.163 38.5227 255.107 37.132 254.603 35.676C254.136 34.3507 253.483 33.548 252.643 33.268C251.71 32.9507 250.552 33.436 249.171 34.724C248.928 34.948 248.648 35.284 248.331 35.732L248.443 39.428L249.311 40.212C249.666 40.548 249.955 40.8 250.179 40.968C250.403 41.1173 250.655 41.2573 250.935 41.388C251.439 41.612 252.027 41.64 252.699 41.472ZM263.893 44.216C262.717 43.5627 261.831 42.6107 261.233 41.36C260.636 40.1093 260.337 38.784 260.337 37.384C260.337 36.0027 260.627 34.6867 261.205 33.436C261.803 32.1853 262.689 31.224 263.865 30.552C264.425 30.2347 265.144 30.048 266.021 29.992C266.301 29.712 266.637 29.544 267.029 29.488C267.44 29.432 267.823 29.516 268.177 29.74C268.625 30.0387 269.288 30.4307 270.165 30.916C270.912 31.3453 271.463 31.7 271.817 31.98C272.377 32.484 272.797 33.0813 273.077 33.772C273.376 34.4627 273.609 35.3587 273.777 36.46C273.964 37.7667 273.852 39.0547 273.441 40.324C273.031 41.5933 272.368 42.648 271.453 43.488C270.464 44.4027 269.316 44.9347 268.009 45.084C266.703 45.2333 265.331 44.944 263.893 44.216ZM265.545 41.192C266.927 41.9573 268.112 41.8827 269.101 40.968C269.587 40.52 269.951 39.9413 270.193 39.232C270.436 38.504 270.492 37.7387 270.361 36.936C270.175 35.648 269.904 34.864 269.549 34.584C269.381 34.4347 269.036 34.2107 268.513 33.912L267.505 33.352C267.356 33.3707 267.179 33.38 266.973 33.38H266.665C266.479 33.38 266.339 33.3893 266.245 33.408C265.909 33.4267 265.685 33.464 265.573 33.52C265.032 33.8373 264.593 34.3413 264.257 35.032C263.94 35.7227 263.781 36.516 263.781 37.412C263.781 38.2893 263.94 39.0733 264.257 39.764C264.575 40.436 265.004 40.912 265.545 41.192ZM279.486 45.644C279.019 45.7373 278.59 45.644 278.198 45.364C277.806 45.1027 277.563 44.748 277.47 44.3L277.414 43.964C277.302 43.74 277.255 43.5067 277.274 43.264V43.208C276.919 41.0427 276.621 37.5707 276.378 32.792C276.322 32.6613 276.275 32.5307 276.238 32.4C276.201 32.1013 276.229 31.8213 276.322 31.56C276.378 31.1307 276.555 30.776 276.854 30.496C277.153 30.216 277.517 30.0667 277.946 30.048C278.263 30.0293 278.562 30.0947 278.842 30.244C280.335 30.02 281.623 29.908 282.706 29.908C283.938 29.9267 284.983 30.0947 285.842 30.412C287.167 30.8787 288.017 31.7 288.39 32.876C288.857 34.2947 288.605 35.564 287.634 36.684L287.382 36.908C288.054 37.3747 288.567 37.9067 288.922 38.504C289.333 39.344 289.445 40.1747 289.258 40.996C289.09 41.8173 288.642 42.592 287.914 43.32C286.887 44.3653 285.273 44.9533 283.07 45.084C282.398 45.1213 281.623 45.1213 280.746 45.084H280.466C280.205 45.3827 279.878 45.5693 279.486 45.644ZM282.902 41.668C284.209 41.5933 285.049 41.3507 285.422 40.94C285.795 40.5853 285.954 40.3333 285.898 40.184C285.711 39.848 285.217 39.54 284.414 39.26C283.947 39.092 283.182 39.064 282.118 39.176C281.633 39.232 281.017 39.3253 280.27 39.456C280.345 40.2213 280.429 40.9493 280.522 41.64H280.914C281.698 41.6773 282.361 41.6867 282.902 41.668ZM279.962 35.788C281.511 35.6387 282.743 35.4053 283.658 35.088C284.367 34.8827 284.843 34.64 285.086 34.36C285.161 34.2667 285.17 34.1173 285.114 33.912C285.114 33.8187 284.965 33.7253 284.666 33.632C284.199 33.4453 283.537 33.352 282.678 33.352C281.875 33.352 280.933 33.4267 279.85 33.576C279.906 34.5093 279.943 35.2467 279.962 35.788ZM296.928 45C295.864 44.8133 294.902 44.4773 294.044 43.992C293.129 43.4133 292.401 42.7227 291.86 41.92C291.337 41.0613 291.02 40.1933 290.908 39.316C290.796 38.42 290.814 37.5333 290.964 36.656C291.132 35.7787 291.421 34.948 291.832 34.164C292.261 33.38 292.793 32.68 293.428 32.064C294.062 31.4293 294.781 30.9253 295.584 30.552C296.386 30.16 297.282 29.9827 298.272 30.02C299.28 30.0387 300.278 30.3093 301.268 30.832C302.574 31.5227 303.554 32.4933 304.208 33.744C304.525 34.3227 304.712 35.032 304.768 35.872L304.824 36.684C304.824 36.9453 304.833 37.1507 304.852 37.3C304.908 37.636 304.861 37.9533 304.712 38.252C304.581 38.5507 304.366 38.784 304.068 38.952C303.75 39.1947 303.396 39.2973 303.004 39.26C299.98 39.092 297.077 39.0733 294.296 39.204C294.52 40.0253 295.014 40.6693 295.78 41.136C296.228 41.3973 296.778 41.5933 297.432 41.724C298.104 41.836 298.654 41.8267 299.084 41.696C299.252 41.64 299.476 41.5 299.756 41.276L300.344 40.8C300.586 40.576 300.82 40.3893 301.044 40.24C301.417 39.9787 301.828 39.8947 302.276 39.988C302.742 40.0813 303.106 40.324 303.368 40.716C303.629 41.0893 303.713 41.5 303.62 41.948C303.526 42.396 303.293 42.76 302.92 43.04C302.808 43.1147 302.658 43.2267 302.472 43.376L301.856 43.908C301.202 44.3933 300.586 44.72 300.008 44.888C299.018 45.1493 297.992 45.1867 296.928 45ZM294.744 35.816C296.909 35.7413 299.121 35.7413 301.38 35.816C301.361 35.5733 301.324 35.4053 301.268 35.312C300.913 34.6587 300.39 34.1453 299.7 33.772C298.748 33.2867 297.833 33.2307 296.956 33.604C296.078 33.9587 295.36 34.6587 294.8 35.704L294.744 35.816ZM310.722 44.356C310.405 44.7293 310.004 44.944 309.518 45C309.052 45.056 308.632 44.9347 308.258 44.636C307.885 44.3187 307.67 43.9267 307.614 43.46C307.54 42.7133 307.474 41.9667 307.418 41.22C307.362 40.4547 307.325 39.596 307.306 38.644L307.25 36.46C307.25 35.956 307.241 35.1533 307.222 34.052C307.222 32.9507 307.222 32.2507 307.222 31.952C307.204 31.4667 307.362 31.056 307.698 30.72C308.053 30.3653 308.464 30.188 308.93 30.188C309.416 30.1693 309.826 30.3373 310.162 30.692C310.517 31.028 310.694 31.4293 310.694 31.896C310.713 32.3627 310.722 33.0347 310.722 33.912V35.592C312.44 35.536 314.306 35.508 316.322 35.508L316.238 31.896C316.22 31.4107 316.378 30.9907 316.714 30.636C317.05 30.2813 317.452 30.104 317.918 30.104C318.404 30.0853 318.824 30.244 319.178 30.58C319.533 30.916 319.71 31.3173 319.71 31.784C319.878 37.552 319.972 41.3693 319.99 43.236C320.009 43.7213 319.85 44.1413 319.514 44.496C319.178 44.832 318.768 45 318.282 45C317.797 45.0187 317.377 44.86 317.022 44.524C316.686 44.188 316.518 43.7773 316.518 43.292C316.481 41.9853 316.453 40.548 316.434 38.98C314.381 38.9987 312.505 39.036 310.806 39.092C310.862 40.5107 310.956 41.836 311.086 43.068C311.142 43.5533 311.021 43.9827 310.722 44.356ZM325.512 45.252C325.026 45.2707 324.606 45.112 324.252 44.776C323.916 44.44 323.748 44.0293 323.748 43.544C323.71 42.088 323.626 40.0253 323.496 37.356C323.384 34.668 323.318 32.848 323.3 31.896C323.281 31.4107 323.43 30.9907 323.748 30.636C324.084 30.2813 324.494 30.104 324.98 30.104C325.465 30.0853 325.885 30.244 326.24 30.58C326.594 30.8973 326.772 31.2987 326.772 31.784L326.912 35.312C327.584 35.256 328.172 35.2093 328.676 35.172C329.46 35.116 330.132 35.1067 330.692 35.144C331.55 35.1813 332.222 35.34 332.708 35.62C333.38 35.9747 333.949 36.488 334.416 37.16C334.882 37.832 335.181 38.5413 335.312 39.288C335.573 40.968 335.209 42.3213 334.22 43.348C333.454 44.132 332.372 44.6267 330.972 44.832C329.87 45.0187 328.424 45.0187 326.632 44.832C326.314 45.112 325.941 45.252 325.512 45.252ZM327.164 41.388C328.564 41.5187 329.656 41.5187 330.44 41.388C331.074 41.2947 331.504 41.136 331.728 40.912C331.896 40.7253 331.933 40.3707 331.84 39.848C331.765 39.344 331.504 38.952 331.056 38.672H331C330.962 38.672 330.897 38.6627 330.804 38.644C330.729 38.6253 330.636 38.616 330.524 38.616C330.094 38.5973 329.553 38.6067 328.9 38.644C328.377 38.6813 327.77 38.7373 327.08 38.812C327.117 39.7827 327.145 40.6413 327.164 41.388Z" fill="#D7790C"/>
<defs>
<linearGradient id="paint0_linear" x1="183.5" y1="0" x2="183.5" y2="76" gradientUnits="userSpaceOnUse">
<stop stop-color="#FFF85B"/>
<stop offset="1" stop-color="#F6BB03"/>
</linearGradient>
</defs>
</svg>
