<svg width="42" height="42" viewBox="0 0 42 42" fill="none" xmlns="http://www.w3.org/2000/svg">
<path d="M19.5003 42C18.0464 42 16.5926 41.5391 15.255 40.5597C6.00845 33.6461 0.774568 25.5226 0.0767149 17.0535C-0.446675 10.716 1.87949 6.33745 1.87949 6.27983C1.87949 6.22222 4.14752 2.24691 8.45095 2.24691C10.6027 2.24691 12.8707 3.22633 15.3132 5.12757C15.8366 5.7037 16.5344 5.99177 17.2904 5.99177C18.8606 5.99177 20.2563 4.60905 20.3726 4.43621C20.4308 4.3786 24.4434 0 29.6192 0C33.2829 0 36.714 2.13168 39.7962 6.39506C49.3917 19.4156 24.5597 39.9835 24.3271 40.214C24.4434 40.214 22.3499 42 19.5003 42Z" fill="#707070"/>
<path d="M19.4421 41.8272C17.9882 41.8272 16.5344 41.3663 15.255 40.3868C5.95026 33.6461 0.832673 25.4074 0.192975 17.0535C-0.330415 10.7161 1.93761 6.39507 1.99577 6.33746C1.99577 6.27985 4.26378 2.30454 8.56721 2.30454C10.6608 2.30454 12.987 3.28396 15.4294 5.12758C15.9528 5.70371 16.6507 5.99178 17.4067 5.99178C18.9769 5.99178 20.3144 4.60906 20.4889 4.49383C20.547 4.43622 24.5015 0.115234 29.6773 0.115234C33.2828 0.115234 36.714 2.24692 39.7961 6.45268C49.3335 19.4156 24.676 39.8683 24.4434 40.0412C24.3271 40.0988 22.2335 41.8272 19.4421 41.8272Z" fill="#707070"/>
<path d="M19.384 41.6543C17.9301 41.6543 16.5344 41.1934 15.1969 40.214C5.95034 33.4733 0.890901 25.3498 0.251202 16.9959C-0.272187 10.7161 1.99584 6.39507 2.05399 6.33746C2.05399 6.27985 4.322 2.30454 8.56728 2.30454C10.6608 2.30454 12.9289 3.22634 15.3714 5.12758C15.8947 5.70371 16.5926 5.99178 17.3486 5.99178C18.9188 5.99178 20.2563 4.60906 20.4308 4.49383C20.4889 4.43622 24.4434 0.115234 29.561 0.115234C33.1666 0.115234 36.5396 2.24692 39.6217 6.39507C49.1009 19.3004 24.6179 39.5803 24.3853 39.8107C24.2108 39.9259 22.1173 41.6543 19.384 41.6543Z" fill="#707070"/>
<path d="M19.2676 41.5391C17.8138 41.5391 16.4181 41.0782 15.1387 40.1564C5.95026 33.4732 0.890819 25.3498 0.25112 17.1111C-0.214116 10.8889 1.99575 6.56789 1.99575 6.51028C1.99575 6.45267 4.26378 2.53498 8.4509 2.53498C10.5445 2.53498 12.8125 3.45678 15.1968 5.35802C15.7202 5.93415 16.4181 6.22221 17.1741 6.22221C18.7442 6.22221 20.0818 4.89712 20.1981 4.72428C20.2562 4.66666 24.1526 0.40329 29.2702 0.40329C32.8757 0.40329 36.1906 2.53497 39.2727 6.68312C48.6938 19.4732 24.327 39.6955 24.0944 39.8683C24.0944 39.8107 22.059 41.5391 19.2676 41.5391Z" fill="#7C7C7C"/>
<path d="M19.2095 41.3663C17.7557 41.3663 16.36 40.9054 15.0806 39.9836C5.95032 33.358 0.949046 25.2922 0.309347 17.0535C-0.155888 10.8313 2.05398 6.56792 2.05398 6.51031C2.05398 6.4527 4.26385 2.53501 8.45097 2.53501C10.5445 2.53501 12.7544 3.45682 15.1387 5.30044C15.6621 5.87657 16.36 6.16464 17.0578 6.16464C18.628 6.16464 19.9655 4.83953 20.0818 4.66669C20.14 4.60908 24.0363 0.345703 29.0958 0.345703C32.6432 0.345703 36.0162 2.41978 39.0402 6.56793C48.4031 19.3004 24.2108 39.3498 23.9782 39.5803C23.9782 39.6379 21.9428 41.3663 19.2095 41.3663Z" fill="#787878"/>
<path d="M19.1513 41.1934C17.7556 41.1934 16.3599 40.7325 15.0805 39.8107C6.00842 33.1852 1.06531 25.177 0.367453 16.9959C-0.0977825 10.8313 2.11209 6.56789 2.11209 6.51028C2.11209 6.45267 4.32195 2.59259 8.50907 2.59259C10.5445 2.59259 12.8125 3.5144 15.1968 5.35802C15.7202 5.93415 16.4181 6.22221 17.1159 6.22221C18.6861 6.22221 19.9655 4.89712 20.14 4.72428C20.1981 4.66666 24.0945 0.40329 29.0957 0.40329C32.6432 0.40329 35.958 2.47736 38.982 6.5679C48.2867 19.2428 24.2689 39.1769 24.0363 39.3498C23.8618 39.5226 21.8264 41.1934 19.1513 41.1934Z" fill="#787878"/>
<path d="M19.035 41.0782C17.6393 41.0782 16.2436 40.6173 14.9642 39.6955C5.95026 33.1276 1.00715 25.177 0.367451 17.0535C-0.0977844 10.9465 2.05393 6.68314 2.11208 6.68314C2.11208 6.62553 4.32195 2.76544 8.45091 2.76544C10.4863 2.76544 12.6962 3.68726 15.0805 5.53088C15.6039 6.10701 16.2436 6.39508 16.9996 6.39508C18.5116 6.39508 19.8492 5.06998 19.9655 4.89714C20.0236 4.83953 23.8618 0.633759 28.8631 0.633759C32.3524 0.633759 35.6672 2.70783 38.6331 6.79837C47.8215 19.358 23.9781 39.177 23.7455 39.4074C23.7455 39.3498 21.7683 41.0782 19.035 41.0782Z" fill="#787878"/>
<path d="M18.977 40.9054C17.5812 40.9054 16.1855 40.4445 14.9061 39.5227C5.95036 33.0124 1.06538 25.0618 0.425679 16.9959C-0.0395569 10.8889 2.11216 6.68314 2.17031 6.68314C2.17031 6.62553 4.38019 2.82306 8.451 2.82306C10.4864 2.82306 12.6963 3.74487 15.0224 5.53088C15.5458 6.10701 16.1855 6.39508 16.9415 6.39508C18.4536 6.39508 19.7911 5.06997 19.9074 4.95475C19.9656 4.89713 23.8038 0.691376 28.7469 0.691376C32.2362 0.691376 35.4928 2.76544 38.4587 6.79837C47.5889 19.3004 23.9201 39.0041 23.6874 39.177C23.6293 39.2346 21.6521 40.9054 18.977 40.9054Z" fill="#787878"/>
<path d="M18.9188 40.7325C17.5231 40.7325 16.1855 40.2716 14.9061 39.3498C6.00852 32.8395 1.12354 25.0041 0.483838 16.9959C0.0186026 10.9465 2.17031 6.79835 2.17031 6.74074C2.17031 6.68312 4.32204 2.88066 8.451 2.88066C10.4864 2.88066 12.6381 3.80247 14.9643 5.58847C15.4877 6.16461 16.1274 6.45267 16.8252 6.45267C18.3372 6.45267 19.6166 5.12757 19.7911 5.01234C19.8493 4.95473 23.6293 0.80658 28.5724 0.80658C32.0617 0.80658 35.3183 2.82304 38.2261 6.85596C47.2981 19.3004 23.8038 38.8313 23.5711 39.0617C23.513 39.0617 21.5357 40.7325 18.9188 40.7325Z" fill="#787878"/>
<path d="M18.8025 40.6173C17.4068 40.6173 16.0692 40.1564 14.7898 39.2346C5.95036 32.7819 1.12354 25.0041 0.483838 16.9959C0.0186026 10.9465 2.17031 6.85599 2.17031 6.79838C2.17031 6.74076 4.32203 2.9383 8.39284 2.9383C10.3701 2.9383 12.58 3.86011 14.9061 5.64611C15.4295 6.22225 16.0692 6.51031 16.7671 6.51031C18.2791 6.51031 19.5585 5.18521 19.6748 5.06998C19.733 5.01237 23.513 0.864227 28.398 0.864227C31.8291 0.864227 35.0857 2.88069 37.9934 6.91361C47.0074 19.2428 23.6293 38.7161 23.3967 38.8889C23.3967 38.9465 21.4776 40.6173 18.8025 40.6173Z" fill="#787878"/>
<path d="M18.7442 40.4445C17.3485 40.4445 16.011 39.9836 14.7897 39.1194C6.06656 32.7243 1.18159 24.9465 0.600049 17.0535C0.134814 11.0617 2.28652 6.97121 2.28652 6.9136C2.28652 6.85599 4.43824 3.11113 8.4509 3.11113C10.4281 3.11113 12.638 4.03294 14.906 5.81894C15.4294 6.39508 16.0691 6.68314 16.767 6.68314C18.279 6.68314 19.5584 5.41565 19.6747 5.24281C19.7328 5.1852 23.4547 1.09467 28.3397 1.09467C31.7708 1.09467 34.9693 3.11112 37.877 7.08643C46.8328 19.358 23.6292 38.6585 23.3966 38.8889C23.3384 38.7737 21.3612 40.4445 18.7442 40.4445Z" fill="#787878"/>
<path d="M18.6279 40.2716C17.2904 40.2716 15.9528 39.8107 14.6734 38.9465C6.0084 32.6091 1.18159 24.8889 0.541889 16.9959C0.0766531 11.0617 2.17021 6.9712 2.22836 6.91359C2.22836 6.85598 4.38008 3.11112 8.33458 3.11112C10.3118 3.11112 12.4635 4.03293 14.7316 5.76133C15.255 6.27985 15.8947 6.56791 16.5925 6.56791C18.1045 6.56791 19.3258 5.30042 19.5002 5.12758C19.5584 5.06996 23.2803 0.979431 28.1071 0.979431C31.48 0.979431 34.6785 2.99589 37.5863 6.91359C46.4839 19.07 23.4547 38.3128 23.2221 38.4856C23.2221 38.6584 21.2449 40.2716 18.6279 40.2716Z" fill="#787878"/>
<path d="M18.5698 40.0988C17.2322 40.0988 15.8947 39.6955 14.6734 38.7737C6.06657 32.4362 1.29792 24.7737 0.658222 16.9383C0.192986 11.0041 2.28654 6.97121 2.3447 6.9136C2.3447 6.85599 4.43826 3.16874 8.45091 3.16874C10.4282 3.16874 12.5799 4.03294 14.7897 5.81894C15.3131 6.33746 15.9528 6.62553 16.6507 6.62553C18.1045 6.62553 19.3839 5.35804 19.5003 5.1852C19.5584 5.12759 23.2221 1.09467 28.0489 1.09467C31.4219 1.09467 34.5622 3.11113 37.47 7.02882C46.3094 19.1276 23.3966 38.1975 23.164 38.428C23.1058 38.4856 21.1867 40.0988 18.5698 40.0988Z" fill="#787878"/>
<path d="M18.5116 39.9836C17.1741 39.9836 15.8365 39.5803 14.6153 38.6585C6.06661 32.3786 1.29793 24.7737 0.716385 16.9959C0.251149 11.1194 2.34472 7.08645 2.34472 7.02883C2.34472 7.02883 4.43827 3.28398 8.39278 3.28398C10.37 3.28398 12.4636 4.14817 14.7316 5.93418C15.255 6.4527 15.8365 6.74077 16.5344 6.74077C17.9883 6.74077 19.2677 5.47327 19.384 5.35805C19.4421 5.30043 23.1058 1.26752 27.8745 1.26752C31.2475 1.26752 34.3878 3.22636 37.2374 7.14406C46.0187 19.1852 23.2803 38.1399 23.0477 38.3128C22.9895 38.3704 21.0704 39.9836 18.5116 39.9836Z" fill="#969696"/>
<path d="M18.3953 39.8107C17.0578 39.8107 15.7202 39.4074 14.5571 38.4856C6.0666 32.2634 1.35608 24.6584 0.716385 16.9383C0.251149 11.1193 2.34472 7.08642 2.34472 7.08642C2.34472 7.08642 4.43827 3.39918 8.33462 3.39918C10.2537 3.39918 12.4054 4.26338 14.6153 5.99178C15.1387 6.51029 15.7202 6.79836 16.4181 6.79836C17.8719 6.79836 19.0932 5.53087 19.2677 5.41564C19.3258 5.35803 22.9895 1.38272 27.7001 1.38272C31.0149 1.38272 34.1552 3.34157 37.0048 7.20166C45.7279 19.1276 23.164 37.9671 22.9314 38.1975C22.8732 38.1975 20.9541 39.8107 18.3953 39.8107Z" fill="#969696"/>
<path d="M18.3373 39.6379C16.9997 39.6379 15.7203 39.2346 14.4991 38.3128C6.06667 32.0905 1.35616 24.6008 0.774612 16.9383C0.309377 11.1193 2.40295 7.14404 2.40295 7.14404C2.40295 7.14404 4.4965 3.4568 8.39284 3.4568C10.3119 3.4568 12.4055 4.321 14.6154 6.04939C15.1388 6.56791 15.7203 6.85597 16.4181 6.85597C17.872 6.85597 19.0933 5.58849 19.2096 5.47326C19.2677 5.41565 22.8733 1.44034 27.5838 1.44034C30.8986 1.44034 33.9808 3.39918 36.8304 7.25926C45.4954 19.1276 23.0478 37.8519 22.8151 38.0247C22.757 38.0823 20.896 39.6379 18.3373 39.6379Z" fill="#969696"/>
<path d="M18.2791 39.5227C16.9415 39.5227 15.6621 39.1194 14.499 38.2552C6.06664 32.0329 1.41428 24.6008 0.832737 16.9383C0.367502 11.177 2.4029 7.20167 2.46105 7.20167C2.46105 7.20167 4.49647 3.51442 8.39281 3.51442C10.3119 3.51442 12.4055 4.37861 14.5572 6.10701C15.0224 6.62553 15.6621 6.9136 16.36 6.9136C17.8138 6.9136 19.0351 5.6461 19.1514 5.53088C19.2095 5.47326 22.8151 1.55557 27.4675 1.55557C30.7241 1.55557 33.8063 3.51442 36.5977 7.31689C45.2046 19.1276 22.9314 37.679 22.6988 37.9095C22.6407 37.9095 20.7797 39.5227 18.2791 39.5227Z" fill="#969696"/>
<path d="M18.1627 39.3498C16.8252 39.3498 15.5458 38.9465 14.3827 38.0823C6.06663 31.9753 1.47244 24.5432 0.832737 16.9959C0.367502 11.2922 2.4029 7.37451 2.46105 7.3169C2.46105 7.3169 4.49646 3.68727 8.33465 3.68727C10.2537 3.68727 12.2892 4.55147 14.499 6.27986C14.9643 6.79838 15.604 7.08644 16.3018 7.08644C17.6975 7.08644 18.9188 5.87657 19.0932 5.70373C19.1514 5.64612 22.6988 1.72842 27.3512 1.72842C30.6078 1.72842 33.69 3.62966 36.4233 7.43213C44.972 19.1276 22.8733 37.6214 22.6406 37.7943C22.5243 37.7943 20.6634 39.3498 18.1627 39.3498Z" fill="#969696"/>
<path d="M18.1046 39.177C16.8252 39.177 15.5458 38.7737 14.3827 37.9095C6.12474 31.8601 1.53056 24.4856 0.949011 16.9383C0.483775 11.2346 2.51917 7.37448 2.51917 7.31687C2.51917 7.31687 4.55457 3.68724 8.33461 3.68724C10.1956 3.68724 12.2891 4.55143 14.4408 6.22221C14.9061 6.74073 15.5458 7.0288 16.1855 7.0288C17.5812 7.0288 18.8024 5.81892 18.9187 5.64608C18.9769 5.58847 22.5243 1.67078 27.1185 1.67078C30.3752 1.67078 33.3992 3.57201 36.1324 7.37448C44.623 19.0123 22.6406 37.3909 22.408 37.5638C22.408 37.6214 20.6052 39.177 18.1046 39.177Z" fill="#969696"/>
<path d="M18.0464 39.0617C16.767 39.0617 15.4876 38.6584 14.3245 37.7942C6.12472 31.7449 1.58866 24.428 1.00712 16.9383C0.54188 11.2922 2.57729 7.4321 2.57729 7.37449C2.57729 7.37449 4.6127 3.80247 8.39274 3.80247C10.2537 3.80247 12.2891 4.66667 14.4408 6.33746C14.906 6.85598 15.5457 7.14404 16.1854 7.14404C17.5811 7.14404 18.8024 5.93417 18.9187 5.76133C18.9768 5.70371 22.4661 1.84363 27.0603 1.84363C30.2588 1.84363 33.2828 3.74486 36.0161 7.48972C44.4485 19.07 22.6406 37.2757 22.408 37.4486C22.3498 37.5062 20.4889 39.0617 18.0464 39.0617Z" fill="#A6A6A6"/>
<path d="M17.9301 38.8889C16.6507 38.8889 15.3713 38.4856 14.2082 37.6214C6.06659 31.6297 1.53056 24.3704 0.949011 16.9383C0.483775 11.3498 2.51917 7.48976 2.51917 7.43214C2.51917 7.43214 4.49642 3.86013 8.27645 3.86013C10.1374 3.86013 12.1728 4.72432 14.2664 6.39511C14.7316 6.91362 15.3713 7.20169 16.011 7.20169C17.4067 7.20169 18.5698 5.99182 18.7443 5.87659C18.8024 5.81898 22.2917 1.95889 26.8277 1.95889C30.0262 1.95889 32.9921 3.86013 35.7254 7.54737C44.0996 19.0124 22.4661 37.1605 22.2335 37.3334C22.2335 37.3334 20.3726 38.8889 17.9301 38.8889Z" fill="#A6A6A6"/>
<path d="M17.872 38.7161C16.5926 38.7161 15.3713 38.3128 14.2082 37.4486C6.12478 31.5145 1.64689 24.2552 1.06534 16.8807C0.600108 11.2922 2.63552 7.48976 2.63552 7.43214C2.63552 7.43214 4.61276 3.86013 8.33465 3.86013C10.1956 3.86013 12.1728 4.72433 14.3246 6.3375C14.7898 6.85602 15.3713 7.14408 16.0692 7.14408C17.4649 7.14408 18.628 5.9342 18.7443 5.81897C18.8024 5.76136 22.2336 1.95889 26.7696 1.95889C29.9099 1.95889 32.934 3.86013 35.6091 7.54737C43.9251 18.9548 22.408 36.9301 22.1754 37.1029C22.1173 37.2182 20.3145 38.7161 17.872 38.7161Z" fill="#A6A6A6"/>
<path d="M17.7556 38.6009C16.4762 38.6009 15.255 38.1976 14.0919 37.3334C6.06657 31.3992 1.58869 24.2552 1.0653 16.9383C0.658216 11.4074 2.57732 7.60496 2.63547 7.54735C2.63547 7.54735 4.61272 4.03295 8.3346 4.03295C10.1374 4.03295 12.1728 4.83953 14.2664 6.51031C14.7316 7.02883 15.3131 7.25928 15.9528 7.25928C17.3485 7.25928 18.5116 6.0494 18.6279 5.93418C18.6861 5.87656 22.1172 2.0741 26.5951 2.0741C29.7354 2.0741 32.7013 3.91772 35.3764 7.60496C43.6343 18.9548 22.2917 36.8148 22.059 36.9877C22.0009 37.0453 20.1981 38.6009 17.7556 38.6009Z" fill="#A6A6A6"/>
<path d="M17.6975 38.428C16.4181 38.428 15.1968 38.0247 14.0919 37.2181C6.12473 31.3416 1.705 24.1975 1.12345 16.9383C0.716373 11.465 2.63547 7.66255 2.63547 7.66255C2.63547 7.66255 4.61271 4.14815 8.27644 4.14815C10.0792 4.14815 12.0565 4.95474 14.15 6.62552C14.6153 7.14404 15.1968 7.37449 15.8365 7.37449C17.1741 7.37449 18.3372 6.16462 18.5116 6.04939C18.5698 5.99178 22.0009 2.24692 26.4206 2.24692C29.561 2.24692 32.4687 4.09054 35.1438 7.72017C43.3436 18.9547 22.1753 36.6996 21.9427 36.8724C21.8846 36.93 20.0818 38.428 17.6975 38.428Z" fill="#A6A6A6"/>
<path d="M17.6394 38.2551C16.4181 38.2551 15.1969 37.8519 14.0338 37.0453C6.12481 31.2263 1.76323 24.1399 1.18168 16.9383C0.7746 11.465 2.6937 7.72017 2.6937 7.72017C2.6937 7.72017 4.61278 4.26338 8.27651 4.26338C10.0793 4.26338 12.0565 5.06996 14.092 6.68313C14.5572 7.20165 15.1387 7.4321 15.7784 7.4321C17.116 7.4321 18.2791 6.27984 18.3954 6.107C18.4535 6.04939 21.8265 2.30453 26.2462 2.30453C29.3284 2.30453 32.2361 4.14816 34.9112 7.77779C43.0529 18.9547 22.001 36.5844 21.8265 36.7572C21.7683 36.7572 20.0237 38.2551 17.6394 38.2551Z" fill="#A6A6A6"/>
<path d="M17.5231 38.0823C16.3018 38.0823 15.0806 37.679 13.9757 36.8724C6.12481 31.0535 1.76323 24.0823 1.18168 16.8807C0.7746 11.465 2.6937 7.72018 2.6937 7.72018C2.6937 7.72018 4.6128 4.26339 8.21837 4.26339C10.0212 4.26339 11.9403 5.06997 14.0338 6.68314C14.499 7.20166 15.0806 7.43211 15.7203 7.43211C17.0578 7.43211 18.2209 6.27985 18.3372 6.10701C18.3954 6.0494 21.7683 2.36215 26.1299 2.36215C29.2121 2.36215 32.0617 4.20578 34.6786 7.7778C42.7621 18.8971 21.8846 36.3539 21.652 36.5268C21.652 36.642 19.9074 38.0823 17.5231 38.0823Z" fill="#A6A6A6"/>
<path d="M17.4649 37.9671C16.2436 37.9671 15.0224 37.5638 13.9174 36.7572C6.12475 30.9959 1.82133 24.0247 1.23979 16.8806C0.832706 11.5226 2.75179 7.83539 2.75179 7.77778C2.75179 7.77778 4.67088 4.37859 8.27646 4.37859C10.0792 4.37859 11.9984 5.18518 14.0338 6.79834C14.499 7.31686 15.0805 7.54732 15.7202 7.54732C17.0578 7.54732 18.1627 6.39506 18.3372 6.27983C18.3953 6.22222 21.7101 2.53497 26.0717 2.53497C29.0957 2.53497 32.0035 4.32098 34.5623 7.95061C42.5876 18.9547 21.8264 36.3539 21.652 36.5267C21.5357 36.4691 19.791 37.9671 17.4649 37.9671Z" fill="#A6A6A6"/>
<path d="M17.4068 37.7942C16.1855 37.7942 15.0224 37.391 13.9175 36.5844C6.18296 30.8807 1.87953 23.9671 1.35614 16.8807C0.949061 11.5226 2.81001 7.89301 2.86816 7.83539C2.86816 7.83539 4.78725 4.43622 8.33467 4.43622C10.0793 4.43622 11.9984 5.2428 14.0338 6.85597C14.4991 7.31688 15.0806 7.60494 15.6621 7.60494C16.9997 7.60494 18.1046 6.45268 18.2209 6.33746C18.2791 6.27984 21.5939 2.65021 25.8973 2.65021C28.9213 2.65021 31.7709 4.43622 34.3297 8.00823C42.2969 18.9547 21.7102 36.1811 21.5357 36.3539C21.4194 36.2963 19.7329 37.7942 17.4068 37.7942Z" fill="#A6A6A6"/>
<path d="M17.2904 37.6214C16.0692 37.6214 14.9061 37.2181 13.8012 36.4115C6.12479 30.7655 1.87951 23.8519 1.29797 16.8231C0.890889 11.5227 2.75183 7.89303 2.75183 7.83541C2.75183 7.83541 4.61278 4.43624 8.1602 4.43624C9.90484 4.43624 11.8239 5.24282 13.8012 6.79838C14.2664 7.25928 14.7898 7.54735 15.4295 7.54735C16.7671 7.54735 17.872 6.39509 17.9883 6.27986C18.0465 6.22225 21.3031 2.59262 25.6065 2.59262C28.6306 2.59262 31.422 4.37863 33.9808 7.89303C41.8898 18.7819 21.4776 35.893 21.2449 36.0659C21.3031 36.1811 19.6166 37.6214 17.2904 37.6214Z" fill="#A6A6A6"/>
<path d="M17.2323 37.5062C16.0111 37.5062 14.848 37.1029 13.8012 36.2963C6.18296 30.6502 1.93769 23.8519 1.4143 16.8807C1.00722 11.6379 2.86816 8.00824 2.86816 7.95063C2.86816 7.95063 4.72911 4.60907 8.21838 4.60907C9.96301 4.60907 11.8239 5.41565 13.8593 6.97121C14.3246 7.43211 14.848 7.72018 15.4877 7.72018C16.7671 7.72018 17.872 6.56792 18.0465 6.45269C18.1046 6.39508 21.3613 2.76544 25.6065 2.76544C28.5724 2.76544 31.3638 4.55146 33.9226 8.06586C41.7735 18.8395 21.4776 35.8354 21.3031 36.0083C21.245 36.0083 19.5003 37.5062 17.2323 37.5062Z" fill="#A6A6A6"/>
<path d="M17.1741 37.3333C16.011 37.3333 14.8479 36.9301 13.743 36.1811C6.18292 30.5926 1.9958 23.7943 1.47241 16.8807C1.06533 11.6379 2.92627 8.06586 2.92627 8.00825C2.92627 8.00825 4.7872 4.66668 8.27647 4.66668C10.0211 4.66668 11.882 5.47327 13.8593 7.02882C14.3245 7.48973 14.8479 7.7778 15.4876 7.7778C16.767 7.7778 17.872 6.62553 17.9883 6.5103C18.0464 6.45269 21.2449 2.88068 25.4902 2.88068C28.4561 2.88068 31.2475 4.66668 33.7481 8.12347C41.4827 18.8395 21.4194 35.7202 21.2449 35.893C21.1286 35.893 19.4421 37.3333 17.1741 37.3333Z" fill="#A6A6A6"/>
<path d="M17.0578 37.1605C15.8947 37.1605 14.7317 36.7572 13.6267 36.0082C6.12481 30.4774 1.99585 23.7366 1.4143 16.8806C1.00722 11.6955 2.86816 8.12345 2.86816 8.06584C2.86816 8.06584 4.72911 4.78188 8.16022 4.78188C9.8467 4.78188 11.7076 5.58847 13.6849 7.08641C14.1501 7.54731 14.6735 7.83538 15.3132 7.83538C16.5926 7.83538 17.6975 6.74073 17.8139 6.56789C17.872 6.51028 21.0705 2.93826 25.2576 2.93826C28.1653 2.93826 30.9568 4.66666 33.4574 8.12345C41.1338 18.7243 21.245 35.4897 21.0124 35.6625C21.0124 35.7202 19.3259 37.1605 17.0578 37.1605Z" fill="#A6A6A6"/>
<path d="M16.9997 37.0453C15.8366 37.0453 14.6735 36.642 13.6267 35.893C6.18296 30.3621 2.05401 23.679 1.53062 16.8807C1.12354 11.7531 2.92632 8.18108 2.98448 8.18108C2.98448 8.18108 4.78726 4.89713 8.21838 4.89713C9.90485 4.89713 11.7658 5.6461 13.6849 7.20165C14.092 7.66256 14.6735 7.95062 15.255 7.95062C16.5344 7.95062 17.6394 6.85597 17.7557 6.74075C17.8139 6.68313 21.0123 3.16873 25.1413 3.16873C28.049 3.16873 30.7823 4.89713 33.2829 8.35392C40.9011 18.8971 21.1287 35.5473 20.9542 35.7202C20.896 35.6049 19.2095 37.0453 16.9997 37.0453Z" fill="#A6A6A6"/>
<path d="M16.8834 36.8724C15.7203 36.8724 14.5572 36.5268 13.5104 35.7202C6.1248 30.2469 2.05401 23.6214 1.53062 16.8231C1.12354 11.6955 2.92632 8.18108 2.98448 8.18108C2.98448 8.18108 4.78727 4.89713 8.21838 4.89713C9.90485 4.89713 11.7076 5.6461 13.6849 7.20165C14.092 7.66256 14.6735 7.89301 15.255 7.89301C16.5344 7.89301 17.5812 6.79836 17.6975 6.68313C17.7557 6.62552 20.896 3.11111 25.025 3.11111C27.9327 3.11111 30.6078 4.83951 33.1085 8.23868C40.6685 18.7243 21.0705 35.2016 20.896 35.3745C20.7797 35.4321 19.1514 36.8724 16.8834 36.8724Z" fill="#A6A6A6"/>
<path d="M16.8252 36.6996C15.6622 36.6996 14.5572 36.3539 13.5104 35.5473C6.18298 30.1317 2.11217 23.5638 1.58878 16.8231C1.1817 11.7531 2.9845 8.23869 2.9845 8.23869C2.9845 8.23869 4.78729 5.01236 8.16024 5.01236C9.84672 5.01236 11.6495 5.76133 13.5686 7.25927C13.9757 7.72018 14.5572 7.95063 15.1388 7.95063C16.4182 7.95063 17.4649 6.85598 17.5812 6.74076C17.6394 6.68314 20.7797 3.22635 24.8505 3.22635C27.7001 3.22635 30.4334 4.95475 32.8177 8.29631C40.3196 18.6667 20.8961 35.0864 20.6634 35.2593C20.6634 35.3169 19.0351 36.6996 16.8252 36.6996Z" fill="#A6A6A6"/>
<path d="M16.767 36.5844C15.604 36.5844 14.499 36.2387 13.4522 35.4321C6.18294 30.0165 2.17028 23.5062 1.64689 16.8231C1.23981 11.8107 3.04259 8.35392 3.04259 8.29631C3.04259 8.29631 4.84539 5.06997 8.16019 5.06997C9.78851 5.06997 11.5913 5.81895 13.5104 7.31689C13.9175 7.77779 14.499 8.00824 15.0806 8.00824C16.3018 8.00824 17.4067 6.91359 17.5231 6.79836C17.5812 6.74075 20.6634 3.28397 24.7342 3.28397C27.5838 3.28397 30.2589 4.95475 32.6432 8.35393C40.087 18.6667 20.7797 34.9136 20.6052 35.0864C20.5471 35.144 18.9188 36.5844 16.767 36.5844Z" fill="#A6A6A6"/>
<path d="M16.6507 36.4115C15.5458 36.4115 14.3827 36.0659 13.394 35.2593C6.18289 29.9013 2.17023 23.4486 1.70499 16.8231C1.29791 11.8107 3.1007 8.41155 3.1007 8.35394C3.1007 8.35394 4.84534 5.18521 8.16014 5.18521C9.78846 5.18521 11.5913 5.93418 13.4522 7.43212C13.8593 7.89303 14.3827 8.12348 14.9642 8.12348C16.1854 8.12348 17.2322 7.02883 17.3485 6.91361C17.4067 6.85599 20.4889 3.45682 24.5015 3.45682C27.2929 3.45682 29.9681 5.1276 32.3524 8.46916C39.738 18.7243 20.6052 34.856 20.4307 35.0288C20.4307 35.0288 18.8606 36.4115 16.6507 36.4115Z" fill="#A6A6A6"/>
<path d="M16.5926 36.2387C15.4877 36.2387 14.3827 35.893 13.3359 35.1441C6.18295 29.8437 2.22845 23.391 1.70506 16.8231C1.29798 11.8683 3.04261 8.46917 3.10077 8.41155C3.10077 8.41155 4.84541 5.24283 8.16021 5.24283C9.78853 5.24283 11.5332 5.99181 13.4523 7.48975C13.8593 7.95065 14.3827 8.18111 14.9643 8.18111C16.1855 8.18111 17.2323 7.08645 17.3486 6.97123C17.4068 6.91361 20.4308 3.51443 24.4434 3.51443C27.2349 3.51443 29.8518 5.18522 32.2361 8.46917C39.5636 18.6091 20.6053 34.6256 20.3726 34.7984C20.3145 34.856 18.7443 36.2387 16.5926 36.2387Z" fill="#A6A6A6"/>
<path d="M16.5345 36.0659C15.4295 36.0659 14.3246 35.7202 13.336 34.9712C6.24113 29.7284 2.34479 23.3334 1.8214 16.8231C1.41432 11.9259 3.15894 8.52676 3.2171 8.46915C3.2171 8.46915 4.96173 5.35803 8.21838 5.35803C9.84671 5.35803 11.5913 6.10701 13.4523 7.54734C13.8594 8.00824 14.3827 8.23869 14.9643 8.23869C16.1855 8.23869 17.2323 7.20166 17.3486 7.02882C17.4068 6.97121 20.4308 3.62964 24.3853 3.62964C27.1767 3.62964 29.7355 5.30042 32.1198 8.58438C39.3891 18.6667 20.5471 34.5679 20.3727 34.7408C20.2563 34.7408 18.628 36.0659 16.5345 36.0659Z" fill="#A6A6A6"/>
<path d="M16.4181 35.9506C15.3132 35.9506 14.2082 35.605 13.2196 34.856C6.18291 29.6132 2.28658 23.2757 1.82134 16.8231C1.41426 11.9259 3.15889 8.58437 3.15889 8.52676C3.15889 8.52676 4.90352 5.41565 8.10201 5.41565C9.73033 5.41565 11.475 6.16462 13.2778 7.60495C13.6848 8.06586 14.2082 8.29631 14.7898 8.29631C16.011 8.29631 16.9996 7.25927 17.1159 7.14405C17.1741 7.08643 20.1981 3.74487 24.0945 3.74487C26.8277 3.74487 29.4447 5.41566 31.7709 8.64199C38.982 18.6667 20.3144 34.3951 20.14 34.5679C20.14 34.5679 18.5698 35.9506 16.4181 35.9506Z" fill="#A6A6A6"/>
<path d="M16.3599 35.7778C15.255 35.7778 14.2082 35.4321 13.2196 34.6831C6.24102 29.4979 2.40283 23.2181 1.87944 16.823C1.53052 11.9835 3.21701 8.64198 3.21701 8.64198C3.21701 8.64198 4.90348 5.53086 8.16013 5.53086C9.7303 5.53086 11.4749 6.27984 13.2777 7.72017C13.6848 8.18107 14.2082 8.41152 14.7897 8.41152C15.9528 8.41152 16.9996 7.37449 17.1159 7.25926C17.1741 7.20165 20.1399 3.91769 24.0363 3.91769C26.7695 3.91769 29.3283 5.53087 31.6545 8.75721C38.8075 18.6667 20.3144 34.3375 20.0818 34.5103C20.0236 34.4527 18.4535 35.7778 16.3599 35.7778Z" fill="#A6A6A6"/>
<path d="M16.3018 35.6049C15.1969 35.6049 14.1501 35.2593 13.1615 34.5103C6.24111 29.3827 2.40291 23.1029 1.93767 16.7654C1.58874 11.9835 3.27523 8.64198 3.27523 8.64198C3.27523 8.64198 4.96171 5.58848 8.1602 5.58848C9.73037 5.58848 11.475 6.33745 13.2778 7.72017C13.6849 8.18107 14.2083 8.41152 14.7316 8.41152C15.8947 8.41152 16.9415 7.37449 16.9997 7.25926C17.0578 7.20165 20.0237 3.91769 23.8619 3.91769C26.537 3.91769 29.0958 5.53087 31.422 8.75721C38.5168 18.6091 20.14 34.1646 19.9655 34.2798C19.9074 34.2798 18.3372 35.6049 16.3018 35.6049Z" fill="#A6A6A6"/>
<path d="M16.1855 35.4897C15.0806 35.4897 14.0338 35.1441 13.1034 34.3951C6.24114 29.2675 2.4611 23.1029 1.99586 16.7655C1.64694 11.9836 3.27525 8.69962 3.33341 8.69962C3.33341 8.69962 5.0199 5.64612 8.16024 5.64612C9.73041 5.64612 11.4169 6.33749 13.2197 7.77781C13.6267 8.23872 14.1501 8.46917 14.6735 8.46917C15.8366 8.46917 16.8252 7.43213 16.9416 7.31691C16.9997 7.25929 19.9074 3.97534 23.7456 3.97534C26.4207 3.97534 28.9214 5.58851 31.2475 8.75724C38.2842 18.5515 20.0819 33.9342 19.9074 34.107C19.7911 34.1646 18.2791 35.4897 16.1855 35.4897Z" fill="#A6A6A6"/>
<path d="M16.1274 35.3169C15.0806 35.3169 14.0338 34.9712 13.0452 34.2799C6.24114 29.2099 2.51925 23.1029 1.99586 16.8231C1.64694 12.0988 3.27525 8.81482 3.33341 8.81482C3.33341 8.81482 5.01989 5.81894 8.10208 5.81894C9.67225 5.81894 11.3587 6.5103 13.1034 7.95063C13.5104 8.41153 13.9757 8.64199 14.5572 8.58438C15.7203 8.58438 16.7089 7.54734 16.8252 7.43211C16.8834 7.3745 19.7911 4.14816 23.5712 4.14816C26.2463 4.14816 28.7469 5.76133 30.9568 8.87244C37.9353 18.5515 19.9074 33.8766 19.6748 33.9918C19.6748 33.9918 18.1628 35.3169 16.1274 35.3169Z" fill="#A6A6A6"/>
<path d="M16.011 35.1441C14.9642 35.1441 13.9174 34.7984 12.9288 34.107C6.18291 29.0947 2.46103 22.9877 1.99579 16.7654C1.64687 12.0988 3.2752 8.87244 3.2752 8.81482C3.2752 8.81482 4.90351 5.81894 8.04385 5.81894C9.55586 5.81894 11.2423 6.5103 12.987 7.95063C13.3941 8.35392 13.8593 8.58438 14.4408 8.58438C15.6039 8.58438 16.5926 7.54734 16.6507 7.43211C16.7089 7.3745 19.5584 4.14816 23.3385 4.14816C25.9554 4.14816 28.456 5.70372 30.6659 8.87244C37.5863 18.4938 19.6747 33.6461 19.5003 33.8189C19.5584 33.8766 18.0464 35.1441 16.011 35.1441Z" fill="#A6A6A6"/>
<path d="M15.9528 35.0288C14.906 35.0288 13.8592 34.6832 12.9288 33.9918C6.24101 29.0371 2.57729 22.9877 2.0539 16.8231C1.70497 12.1564 3.33329 8.98769 3.33329 8.93008C3.33329 8.93008 4.96161 5.9918 8.0438 5.9918C9.55581 5.9918 11.2423 6.68316 12.9869 8.06588C13.394 8.46917 13.8592 8.69962 14.3826 8.69962C15.5457 8.69962 16.4762 7.7202 16.5925 7.60497C16.6507 7.54736 19.5002 4.37863 23.2221 4.37863C25.8391 4.37863 28.2815 5.93419 30.4914 9.0453C37.3536 18.6091 19.6165 33.6461 19.4421 33.7614C19.4421 33.7037 17.9882 35.0288 15.9528 35.0288Z" fill="#A6A6A6"/>
<path d="M15.8947 34.856C14.8479 34.856 13.8593 34.5103 12.8707 33.819C6.24109 28.8642 2.57736 22.8725 2.11213 16.7655C1.7632 12.1564 3.39151 8.98769 3.39151 8.93008C3.39151 8.93008 5.01984 5.9918 8.04387 5.9918C9.55588 5.9918 11.1842 6.68316 12.9288 8.06588C13.3359 8.46917 13.8012 8.69962 14.3246 8.69962C15.4295 8.69962 16.4181 7.7202 16.5344 7.60497C16.5926 7.54736 19.384 4.37863 23.1059 4.37863C25.6647 4.37863 28.1072 5.93419 30.317 8.98769C37.1211 18.4362 19.5584 33.3581 19.384 33.5309C19.3258 33.5885 17.872 34.856 15.8947 34.856Z" fill="#A6A6A6"/>
<path d="M15.7784 34.6831C14.7317 34.6831 13.743 34.3375 12.8126 33.6461C6.24111 28.749 2.63552 22.8148 2.17029 16.7654C1.82136 12.214 3.39154 9.04528 3.44969 8.98767C3.44969 8.98767 5.07802 6.0494 8.10205 6.0494C9.61406 6.0494 11.2424 6.74075 12.9289 8.12347C13.3359 8.52676 13.8012 8.75722 14.3246 8.75722C15.4295 8.75722 16.4181 7.77779 16.4763 7.66256C16.5344 7.60495 19.3259 4.49384 22.9896 4.49384C25.5484 4.49384 27.9327 6.04939 30.1426 9.10289C36.8885 18.4938 19.4422 33.3004 19.2677 33.4157C19.2677 33.4157 17.7557 34.6831 15.7784 34.6831Z" fill="#A6A6A6"/>
<path d="M15.7203 34.5679C14.6735 34.5679 13.6849 34.2222 12.7544 33.5309C6.2411 28.6914 2.63552 22.7572 2.17029 16.7654C1.82136 12.214 3.39154 9.10289 3.44969 9.04528C3.44969 9.04528 5.01986 6.16462 8.04389 6.16462C9.49775 6.16462 11.1261 6.85598 12.8126 8.18108C13.2196 8.58438 13.6849 8.81482 14.2083 8.81482C15.3132 8.81482 16.2437 7.8354 16.36 7.72018C16.4181 7.66256 19.2095 4.55145 22.8151 4.55145C25.3739 4.55145 27.7582 6.107 29.91 9.10289C36.5977 18.4362 19.3258 33.07 19.1514 33.2428C19.1514 33.3004 17.6975 34.5679 15.7203 34.5679Z" fill="#A6A6A6"/>
<path d="M15.6621 34.3951C14.6734 34.3951 13.6848 34.0494 12.7544 33.358C6.29921 28.5185 2.75179 22.6996 2.28656 16.7078C1.93763 12.214 3.5078 9.1029 3.5078 9.1029C3.5078 9.1029 5.07796 6.22224 8.04384 6.22224C9.4977 6.22224 11.126 6.9136 12.8125 8.2387C13.1614 8.64199 13.6848 8.87245 14.2082 8.87245C15.3131 8.87245 16.2436 7.89303 16.3599 7.7778C16.4181 7.72019 19.1513 4.66669 22.7569 4.66669C25.2576 4.66669 27.6419 6.16463 29.7936 9.16052C36.4232 18.3786 19.3258 32.9548 19.1513 33.07C19.035 33.1276 17.5812 34.3951 15.6621 34.3951Z" fill="#A6A6A6"/>
<path d="M15.5458 34.2222C14.5571 34.2222 13.5685 33.8765 12.638 33.2428C6.24105 28.4609 2.75179 22.6996 2.28656 16.7654C1.93763 12.2716 3.5078 9.21811 3.5078 9.21811C3.5078 9.21811 5.07796 6.39506 7.98568 6.39506C9.43954 6.39506 11.0097 7.08642 12.6962 8.41152C13.0451 8.81482 13.5104 9.04527 14.0338 9.04527C15.1387 9.04527 16.0691 8.06584 16.1273 7.95062C16.1855 7.893 18.9187 4.83951 22.4661 4.83951C24.9668 4.83951 27.293 6.33745 29.4447 9.33334C36.0161 18.4938 19.035 32.8971 18.8606 33.07C18.9187 33.0123 17.4649 34.2222 15.5458 34.2222Z" fill="#A6A6A6"/>
<path d="M15.4877 34.0494C14.4991 34.0494 13.5104 33.7037 12.6381 33.07C6.29927 28.3457 2.81002 22.5844 2.34478 16.7079C1.99586 12.2716 3.56603 9.21814 3.56603 9.21814C3.56603 9.21814 5.13619 6.39509 8.04391 6.39509C9.49777 6.39509 11.0679 7.08646 12.6963 8.35395C13.0452 8.75724 13.5104 8.98769 14.0338 8.98769C15.1388 8.98769 16.0111 8.00826 16.1274 7.95065C16.1855 7.89303 18.8606 4.89716 22.4081 4.89716C24.9087 4.89716 27.1767 6.3951 29.3284 9.33337C35.8417 18.3786 19.0351 32.7243 18.8606 32.8395C18.8025 32.8395 17.4068 34.0494 15.4877 34.0494Z" fill="#A6A6A6"/>
<path d="M15.4295 33.9342C14.4409 33.9342 13.4522 33.5885 12.5799 32.9547C6.29924 28.2305 2.86813 22.5844 2.40289 16.7654C2.05396 12.3868 3.62412 9.33335 3.62412 9.33335C3.62412 9.33335 5.13614 6.5103 8.04386 6.5103C9.49772 6.5103 11.0097 7.14405 12.6381 8.46915C12.987 8.87244 13.4522 9.10289 13.9756 9.10289C15.0224 9.10289 15.9529 8.18109 16.0692 8.06586C16.1273 8.00825 18.8024 5.01236 22.2917 5.01236C24.7342 5.01236 27.0604 6.5103 29.1539 9.39096C35.6091 18.3786 18.9769 32.5514 18.8024 32.7243C18.6861 32.7243 17.2904 33.9342 15.4295 33.9342Z" fill="#A6A6A6"/>
<path d="M15.3132 33.7613C14.3245 33.7613 13.3941 33.4156 12.5218 32.7819C6.29923 28.1152 2.86811 22.4691 2.46103 16.7078C2.1121 12.3292 3.62412 9.39094 3.68227 9.33333C3.68227 9.33333 5.19429 6.56789 8.04385 6.56789C9.43956 6.56789 11.0097 7.20163 12.6381 8.52674C12.987 8.93003 13.4522 9.16049 13.9756 9.16049C15.0224 9.16049 15.9529 8.23867 16.011 8.12345C16.0692 8.06583 18.6861 5.06995 22.1754 5.06995C24.6179 5.06995 26.8859 6.51028 28.9213 9.44855C35.2601 18.3786 18.8024 32.4362 18.628 32.5514C18.5698 32.5514 17.1741 33.7613 15.3132 33.7613Z" fill="#A6A6A6"/>
<path d="M15.2549 33.5885C14.2663 33.5885 13.3359 33.3004 12.4635 32.609C6.29917 28 2.9262 22.4115 2.46097 16.7078C2.11204 12.3868 3.62406 9.44855 3.62406 9.39093C3.62406 9.39093 5.13607 6.62551 7.98564 6.62551C9.38134 6.62551 10.8934 7.25925 12.5217 8.58435C12.8706 8.98765 13.3358 9.16049 13.8592 9.16049C14.906 9.16049 15.7783 8.23867 15.8946 8.12345C15.9528 8.06583 18.5697 5.12756 22.0009 5.12756C24.3852 5.12756 26.6532 6.56789 28.6886 9.44855C34.9693 18.2634 18.6861 32.2058 18.5116 32.3786C18.4534 32.4362 17.1159 33.5885 15.2549 33.5885Z" fill="#A6A6A6"/>
<path d="M15.1387 33.4733C14.2082 33.4733 13.2196 33.1852 12.4054 32.4939C6.29923 27.9424 2.92628 22.3539 2.5192 16.7078C2.17027 12.4445 3.68228 9.5062 3.68228 9.44858C3.68228 9.44858 5.1943 6.74077 7.98571 6.74077C9.38141 6.74077 10.8934 7.37451 12.4636 8.642C12.8125 9.04529 13.2778 9.21813 13.743 9.21813C14.7898 9.21813 15.6621 8.29632 15.7784 8.18109C15.8366 8.12348 18.3954 5.18521 21.8265 5.18521C24.2108 5.18521 26.4207 6.62554 28.4561 9.44858C34.6786 18.2058 18.5117 32.0329 18.3954 32.1482C18.3372 32.2634 16.9997 33.4733 15.1387 33.4733Z" fill="#A6A6A6"/>
<path d="M15.0805 33.3004C14.15 33.3004 13.2196 33.0124 12.3472 32.321C6.29918 27.7696 2.98438 22.2963 2.5773 16.6502C2.22837 12.3869 3.74039 9.5062 3.74039 9.44859C3.74039 9.44859 5.19424 6.74077 7.98566 6.74077C9.38136 6.74077 10.8352 7.37452 12.4054 8.64201C12.7543 9.0453 13.2196 9.21814 13.6848 9.21814C14.7316 9.21814 15.6039 8.29633 15.662 8.1811C15.7202 8.12349 18.279 5.24283 21.6519 5.24283C24.0363 5.24283 26.2462 6.68316 28.2234 9.50621C34.3878 18.2058 18.3953 31.8601 18.2208 32.033C18.2208 32.1482 16.8833 33.3004 15.0805 33.3004Z" fill="#A6A6A6"/>
<path d="M15.0223 33.1276C14.0919 33.1276 13.1614 32.8395 12.2891 32.2058C6.29919 27.7119 3.04254 22.2387 2.5773 16.7078C2.22837 12.5021 3.74039 9.62141 3.74039 9.62141C3.74039 9.62141 5.19426 6.9712 7.92752 6.9712C9.26507 6.9712 10.7771 7.60495 12.3472 8.87244C12.6962 9.27573 13.1614 9.44857 13.6266 9.44857C14.6734 9.44857 15.4876 8.52676 15.6039 8.41153C15.662 8.35392 18.2208 5.47327 21.5356 5.47327C23.8618 5.47327 26.0717 6.91359 28.0489 9.67902C34.1551 18.2634 18.3371 31.8601 18.1627 31.9753C18.1627 31.9753 16.8251 33.1276 15.0223 33.1276Z" fill="#A6A6A6"/>
<path d="M14.9061 33.0123C13.9756 33.0123 13.0451 32.7243 12.231 32.0905C6.29924 27.6543 3.04259 22.2387 2.63551 16.7078C2.34474 12.5597 3.74044 9.679 3.7986 9.679C3.7986 9.679 5.25245 7.0288 7.9857 7.0288C9.32326 7.0288 10.7771 7.66254 12.3473 8.87242C12.6962 9.27571 13.1033 9.44855 13.6267 9.44855C14.6153 9.44855 15.4876 8.52674 15.6039 8.46913C15.6621 8.41152 18.1627 5.58847 21.4775 5.58847C23.8037 5.58847 25.9554 6.97118 27.9327 9.73662C33.9807 18.2634 18.279 31.6872 18.1627 31.8601C18.0464 31.8601 16.7089 33.0123 14.9061 33.0123Z" fill="#A6A6A6"/>
<path d="M14.8479 32.8395C13.9175 32.8395 13.0451 32.5515 12.1728 31.9177C6.29923 27.4815 3.10074 22.1811 2.69366 16.7079C2.40289 12.5597 3.79859 9.73666 3.79859 9.73666C3.79859 9.73666 5.25246 7.08645 7.92756 7.08645C9.26511 7.08645 10.719 7.7202 12.231 8.93008C12.5799 9.33337 12.987 9.50621 13.4522 9.50621C14.4409 9.50621 15.3132 8.642 15.3713 8.52678C15.4295 8.46916 17.9301 5.64612 21.1868 5.64612C23.4548 5.64612 25.6065 7.02884 27.5837 9.79427C33.5737 18.2634 18.0464 31.5721 17.872 31.6873C17.9301 31.6873 16.5926 32.8395 14.8479 32.8395Z" fill="#A6A6A6"/>
<path d="M14.7897 32.6667C13.8593 32.6667 12.987 32.3786 12.1728 31.7449C6.35735 27.3663 3.15885 22.0658 2.75177 16.6502C2.46099 12.5597 3.85671 9.73663 3.85671 9.73663C3.85671 9.73663 5.25242 7.14403 7.92752 7.14403C9.26508 7.14403 10.6608 7.77778 12.1728 8.98765C12.5217 9.39095 12.9288 9.56379 13.394 9.56379C14.3827 9.56379 15.255 8.69959 15.3131 8.58436C15.3713 8.52675 17.8138 5.76132 21.0704 5.76132C23.3384 5.76132 25.432 7.14403 27.4093 9.85185C33.341 18.2058 17.9882 31.3992 17.8138 31.572C17.8138 31.572 16.5344 32.6667 14.7897 32.6667Z" fill="#A6A6A6"/>
<path d="M14.6734 32.5514C13.8011 32.5514 12.8706 32.2634 12.0565 31.6296C6.29919 27.3086 3.15885 22.0658 2.75177 16.7078C2.46099 12.6749 3.85671 9.85183 3.85671 9.85183C3.85671 9.85183 5.25242 7.25924 7.92752 7.25924C9.20692 7.25924 10.6608 7.89298 12.1728 9.10286C12.5217 9.44854 12.9288 9.67899 13.394 9.67899C14.3827 9.67899 15.1968 8.81479 15.3131 8.69957C15.3713 8.64195 17.8138 5.87653 21.0123 5.87653C23.2803 5.87653 25.3738 7.25924 27.2929 9.90945C33.1665 18.2057 17.9301 31.2839 17.8138 31.3992C17.6975 31.3992 16.4181 32.5514 14.6734 32.5514Z" fill="#A6A6A6"/>
<path d="M14.6153 32.3786C13.743 32.3786 12.8707 32.0906 12.0565 31.4568C6.35736 27.1934 3.21703 21.9506 2.8681 16.6502C2.57733 12.6173 3.97303 9.90948 3.97303 9.85187C3.97303 9.85187 5.36873 7.31689 7.98568 7.31689C9.26508 7.31689 10.6608 7.95063 12.1728 9.1029C12.5217 9.44858 12.9288 9.67903 13.3941 9.67903C14.3827 9.67903 15.1968 8.81483 15.255 8.69961C15.3131 8.64199 17.6975 5.93417 20.896 5.93417C23.1058 5.93417 25.1994 7.25928 27.0603 9.9671C32.8758 18.2058 17.8138 31.1111 17.6393 31.284C17.5812 31.284 16.3018 32.3786 14.6153 32.3786Z" fill="#A6A6A6"/>
<path d="M14.5571 32.2058C13.6848 32.2058 12.8125 31.9177 11.9983 31.284C6.35736 27.0206 3.27517 21.893 2.86809 16.5926C2.57732 12.6173 3.91487 9.90948 3.97302 9.85187C3.97302 9.85187 5.36874 7.31689 7.92753 7.31689C9.20693 7.31689 10.6026 7.89302 12.0565 9.1029C12.4054 9.44858 12.8125 9.67903 13.2777 9.67903C14.2082 9.67903 15.0805 8.81483 15.1387 8.69961C15.1968 8.64199 17.5812 5.93417 20.7215 5.93417C22.9314 5.93417 24.9668 7.25928 26.8277 9.90949C32.585 18.0329 17.6975 30.8807 17.523 30.9959C17.4649 31.1111 16.2436 32.2058 14.5571 32.2058Z" fill="#A6A6A6"/>
<path d="M14.4408 32.0329C13.5685 32.0329 12.6962 31.7449 11.9402 31.1687C6.35736 26.963 3.33333 21.8354 2.92625 16.6502C2.63548 12.7325 3.97302 10.0247 3.97302 9.96708C3.97302 9.96708 5.31058 7.4321 7.86938 7.4321C9.14878 7.4321 10.4863 8.00823 11.9402 9.21811C12.2891 9.56379 12.6962 9.79424 13.1033 9.79424C14.0337 9.79424 14.8479 8.93004 14.9642 8.87243C15.0224 8.81482 17.3485 6.10699 20.4889 6.10699C22.6406 6.10699 24.676 7.4321 26.537 10.0247C32.2361 18.0905 17.4649 30.8231 17.3485 30.9383C17.3485 30.9959 16.1273 32.0329 14.4408 32.0329Z" fill="#A6A6A6"/>
<path d="M14.3827 31.9177C13.5103 31.9177 12.6962 31.6296 11.882 31.0535C6.35736 26.9054 3.33333 21.8354 2.92625 16.6502C2.63548 12.7325 3.97302 10.0823 3.97302 10.0247C3.97302 10.0247 5.31058 7.54732 7.86938 7.54732C9.09062 7.54732 10.4863 8.12346 11.9402 9.27572C12.2891 9.6214 12.638 9.79424 13.1033 9.79424C14.0337 9.79424 14.8479 8.93004 14.9061 8.87243C14.9642 8.81482 17.2904 6.16461 20.3726 6.16461C22.5243 6.16461 24.5597 7.48972 26.3625 10.0823C32.0035 18.0905 17.4067 30.6502 17.2322 30.7654C17.2322 30.823 16.011 31.9177 14.3827 31.9177Z" fill="#A6A6A6"/>
<path d="M14.3246 31.7449C13.4522 31.7449 12.6381 31.4568 11.8821 30.8807C6.41555 26.7325 3.44966 21.7202 3.04258 16.6502C2.75181 12.7901 4.08937 10.1399 4.08937 10.1399C4.08937 10.1399 5.42693 7.66256 7.92757 7.66256C9.14881 7.66256 10.4864 8.23869 11.9402 9.39095C12.231 9.73663 12.6381 9.90948 13.1033 9.90948C14.0338 9.90948 14.8479 9.10289 14.9061 8.98766C14.9643 8.93005 17.2904 6.27985 20.3145 6.27985C22.4662 6.27985 24.4434 7.60495 26.2462 10.1399C31.829 18.0329 17.4067 30.535 17.2323 30.6502C17.1741 30.7078 15.9529 31.7449 14.3246 31.7449Z" fill="#A6A6A6"/>
<path d="M14.2082 31.572C13.3359 31.572 12.5218 31.284 11.7657 30.7078C6.35739 26.6173 3.39151 21.6626 3.04258 16.5926C2.75181 12.7901 4.08937 10.1399 4.08937 10.1399C4.08937 10.1399 5.42693 7.72019 7.86941 7.72019C9.09065 7.72019 10.4282 8.29632 11.8239 9.44858C12.1147 9.79426 12.5218 9.9671 12.987 9.9671C13.9175 9.9671 14.6735 9.16052 14.7898 9.04529C14.8479 8.98768 17.116 6.39508 20.14 6.39508C22.2336 6.39508 24.2108 7.66257 26.0136 10.1976C31.5382 18.0329 17.2323 30.3622 17.116 30.4774C17.0578 30.535 15.8366 31.572 14.2082 31.572Z" fill="#A6A6A6"/>
<path d="M14.1501 31.4568C13.336 31.4568 12.5218 31.1687 11.7658 30.5926C6.41559 26.5597 3.50787 21.6626 3.10079 16.6502C2.81002 12.8478 4.08943 10.2552 4.14758 10.2552C4.14758 10.2552 5.42698 7.83541 7.92762 7.83541C9.14886 7.83541 10.4282 8.41155 11.824 9.5062C12.1147 9.85188 12.5218 10.0247 12.9289 10.0247C13.8594 10.0247 14.6154 9.21812 14.6735 9.1029C14.7317 9.04529 16.9997 6.4527 19.9656 6.4527C22.0591 6.4527 23.9782 7.72018 25.781 10.2552C31.2475 18.0329 17.116 30.2469 16.9997 30.3622C16.9415 30.4198 15.7203 31.4568 14.1501 31.4568Z" fill="#A6A6A6"/>
<path d="M14.0338 31.2839C13.2196 31.2839 12.4054 30.9959 11.6494 30.4198C6.35739 26.3868 3.50781 21.5473 3.10073 16.5926C2.80996 12.8477 4.08936 10.2551 4.08936 10.2551C4.08936 10.2551 5.36876 7.89301 7.81124 7.89301C9.03249 7.89301 10.3119 8.46913 11.7076 9.56378C11.9984 9.90946 12.4054 10.0823 12.8125 10.0823C13.6848 10.0823 14.499 9.27572 14.5572 9.16049C14.6153 9.10288 16.8252 6.5679 19.7911 6.5679C21.8265 6.5679 23.8037 7.83539 25.5483 10.3128C30.9567 17.9753 16.9996 30.0741 16.8252 30.1893C16.8252 30.2469 15.6621 31.2839 14.0338 31.2839Z" fill="#A6A6A6"/>
<path d="M13.9757 31.1111C13.1615 31.1111 12.3474 30.8231 11.5913 30.3045C6.35745 26.3292 3.50789 21.5473 3.15896 16.5926C2.86819 12.9054 4.14759 10.3128 4.14759 10.3128C4.14759 10.3128 5.42698 7.95062 7.81131 7.95062C8.9744 7.95062 10.312 8.52676 11.6495 9.62141C11.9403 9.96709 12.3474 10.1399 12.7544 10.1399C13.6268 10.1399 14.3828 9.33334 14.4991 9.27573C14.5572 9.21812 16.7671 6.68314 19.6748 6.68314C21.7102 6.68314 23.6293 7.95063 25.374 10.3704C30.7242 17.9753 16.8834 29.9589 16.7671 30.0741C16.7089 30.1317 15.5459 31.1111 13.9757 31.1111Z" fill="#A6A6A6"/>
<path d="M13.9175 30.9959C13.1033 30.9959 12.2892 30.7078 11.5913 30.1893C6.41555 26.2716 3.62415 21.4897 3.21706 16.6502C2.92629 12.963 4.20568 10.4856 4.20568 10.428C4.20568 10.428 5.48508 8.06584 7.81126 8.06584C8.97435 8.06584 10.2537 8.64197 11.5913 9.73662C11.8821 10.0823 12.2891 10.2551 12.6962 10.2551C13.5685 10.2551 14.3245 9.44855 14.3827 9.39093C14.4409 9.33332 16.5926 6.85596 19.5003 6.85596C21.5357 6.85596 23.3967 8.06583 25.0831 10.5432C30.3752 18.0329 16.7089 29.9012 16.5926 30.0164C16.5926 29.9588 15.4295 30.9959 13.9175 30.9959Z" fill="#A6A6A6"/>
<path d="M13.8012 30.823C12.987 30.823 12.231 30.535 11.475 30.0164C6.41555 26.0411 3.56599 21.4321 3.21706 16.5926C2.92629 12.9629 4.20568 10.4856 4.20568 10.428C4.20568 10.428 5.42693 8.12345 7.81126 8.12345C8.97435 8.12345 10.2537 8.69958 11.5331 9.73662C11.8239 10.0823 12.231 10.2551 12.6381 10.2551C13.5104 10.2551 14.2664 9.44855 14.3246 9.39093C14.3827 9.33332 16.5344 6.85596 19.384 6.85596C21.3612 6.85596 23.2222 8.06584 24.9087 10.4856C30.1426 17.9177 16.6507 29.6708 16.4763 29.786C16.4763 29.8436 15.3713 30.823 13.8012 30.823Z" fill="#A6A6A6"/>
<path opacity="0.15" d="M10.6027 6.04939C10.6027 6.04939 13.2196 7.8354 14.499 8.06585C15.8366 8.2963 16.4181 6.9712 15.6621 6.27984C14.9061 5.58848 10.6027 6.04939 10.6027 6.04939Z" fill="white"/>
<path opacity="0.15" d="M21.9427 4.66664C23.8618 1.95882 30.317 -2.59262 36.714 4.14813C44.3322 12.0987 38.3423 22.1811 38.3423 22.1811C38.3423 22.1811 34.7949 29.6131 29.2702 34.7407C32.585 28.6913 31.5964 31.5144 35.7835 21.3745C39.9706 11.2345 33.8644 5.93413 33.8644 5.93413C33.8644 5.93413 30.5496 0.633718 21.9427 4.66664Z" fill="white"/>
<path d="M16.6507 6.5679C16.6507 6.79835 16.3018 7.02881 15.9529 7.02881C15.5458 7.02881 15.255 6.79835 15.255 6.5679C15.255 6.33745 15.6039 6.10699 15.9529 6.10699C16.3018 6.04938 16.6507 6.27984 16.6507 6.5679Z" fill="white"/>
<path d="M14.6734 5.99176C14.6734 6.39506 13.9174 6.74074 13.0451 6.74074C12.1147 6.74074 11.4168 6.39506 11.4168 5.99176C11.4168 5.58847 12.1728 5.24279 13.0451 5.24279C13.9174 5.24279 14.6734 5.58847 14.6734 5.99176Z" fill="white"/>
<path d="M26.9441 1.84362C27.4093 1.84362 29.0958 0.691356 31.2475 1.49794C33.3992 2.30452 36.3069 3.97531 37.2956 5.47325C38.2842 7.02881 39.9706 13.0782 40.087 15.037C40.2033 16.9959 38.9239 20.3951 38.226 19.0123C37.5282 17.6872 37.5282 15.4403 37.5282 13.1358C37.5282 10.8313 37.1792 8.2963 36.1906 7.02881C35.202 5.76132 33.8063 4.49383 32.2361 3.68724C30.6659 2.88066 28.3398 2.82304 27.293 2.6502C26.2462 2.47736 26.9441 1.84362 26.9441 1.84362Z" fill="white"/>
<path opacity="0.15" d="M2.46105 6.79835C2.46105 6.74073 4.67092 2.88066 8.85804 2.88066C10.8934 2.88066 13.1615 3.80246 15.5458 5.64608C16.0692 6.22221 16.767 6.51028 17.4649 6.51028C19.0351 6.51028 20.3145 5.18518 20.4889 5.01234C20.5471 4.95473 24.3853 0.748962 29.4447 0.748962C32.9921 0.748962 36.3069 2.82304 39.331 6.91358C42.8202 11.6955 41.599 17.5144 38.6913 22.93C31.2475 17.3992 22.8151 14.8642 14.2082 20.856C9.38143 24.2551 6.06662 25.5226 3.04259 25.7531C1.7632 22.9877 0.949033 20.1646 0.716415 17.2839C0.193026 11.0617 2.40289 6.79835 2.46105 6.79835Z" fill="white"/>
<path opacity="0.5" d="M14.0919 6.04936C14.0919 6.04936 11.475 1.26746 6.06664 6.79832C0.658282 12.3292 6.06664 24.428 6.06664 24.428C6.06664 24.428 10.1375 32.321 16.36 36.6419C22.5825 40.9629 28.3398 35.0864 28.3398 35.0864C28.3398 35.0864 22.3499 44.4773 15.4295 39.0041C10.3119 35.3168 5.65957 28.4609 3.56601 25.0617C1.47245 21.6625 -1.1445 11.1769 3.56601 5.30039C9.73038 -1.44036 14.0919 6.04936 14.0919 6.04936Z" fill="#676767"/>
</svg>
