<?xml version="1.0" encoding="utf-8"?>
<!-- Generator: Adobe Illustrator 24.1.2, SVG Export Plug-In . SVG Version: 6.00 Build 0)  -->
<svg version="1.1" id="Layer_1" xmlns="http://www.w3.org/2000/svg" xmlns:xlink="http://www.w3.org/1999/xlink" x="0px" y="0px"
	 viewBox="0 0 4000 4000" style="enable-background:new 0 0 4000 4000;" xml:space="preserve">
<style type="text/css">
	.st0{fill:#FFD7E0;}
	.st1{fill:#FCAEBF;}
	.st2{fill:#FFF3F6;}
	.st3{opacity:0.92;clip-path:url(#SVGID_2_);fill:#23A888;}
	.st4{clip-path:url(#SVGID_2_);}
	.st5{fill:#A7DCCF;}
	.st6{opacity:0.57;clip-path:url(#SVGID_2_);fill:#1A7E66;}
	.st7{fill:#F76F86;}
	.st8{fill:#F2F2F2;}
	.st9{fill:#F54B68;}
</style>
<g>
	<g>
		<path class="st0" d="M2773.3,1450.9c0,338.2-239.6,641.3-569.1,718.3c-339.7,79.4-695.7-97.3-840.2-413.9
			c-117.2-256.8-73.4-566.4,109-781.4c184.5-217.5,485.5-310.2,760.6-233.8C2549,827.8,2773.3,1123.9,2773.3,1450.9z"/>
		<path class="st1" d="M2772.9,1427.3L2629.2,1889c-81,109.6-191.6,195.9-320,247.2c-107.3,23.9-236.7,44.5-368.2,46.4
			c-4-0.5-8-1-12.1-1.6c-252.5-36.6-468.1-199.2-569.9-423.7c-19.8-43.7-41.2-129-53.6-205.6c377.8,165.8,737,3.6,809.1-100.7
			c36.1-52.2,101.8-117.7,198.6-152.2c88.1-31.4,238.8-270.7,98-482.9C2621.6,940.5,2764.7,1166.9,2772.9,1427.3z"/>
		<path class="st2" d="M2126.8,799.5c-62.8-26-337.8-47.1-493.6,163.9s18.6,376,125.4,204.4c106.7-171.6,192.8-279,318.2-292.2
			C2202.1,862.4,2159.7,813.1,2126.8,799.5z"/>
	</g>
	<g>
		<defs>
			<path id="SVGID_1_" d="M2661.4,1843.7l-489,1628.6c-36.4,121.1-207.8,121.1-244.1,0l-489-1628.6H2661.4z"/>
		</defs>
		<use xlink:href="#SVGID_1_"  style="overflow:visible;fill:#4FB9A0;"/>
		<clipPath id="SVGID_2_">
			<use xlink:href="#SVGID_1_"  style="overflow:visible;"/>
		</clipPath>
		<path class="st3" d="M3318,1433.5l-6.4,1.4l-8.1-28.3l-2139.2,461.8l8.1,28.3l-24,5.2l566.3,1990.2l24-5.2l0.8,3l2139.2-461.8
			l-0.8-3l6.4-1.4L3318,1433.5z M2492.2,2682.3l41.1,144.5l-155.3,33.5l-41.1-144.5L2492.2,2682.3z M2322,2663.7l-41.1-144.5
			l155.3-33.5l41.1,144.5L2322,2663.7z M2548.2,2670.2l155.3-33.5l41.1,144.5l-155.3,33.5L2548.2,2670.2z M2533.4,2618l-41.1-144.5
			l155.3-33.5l41.1,144.5L2533.4,2618z M2477.4,2421.4l-41.1-144.5l155.3-33.5l41.1,144.5L2477.4,2421.4z M2421.4,2433.5
			l-155.3,33.5l-41.1-144.5l155.3-33.5L2421.4,2433.5z M2210,2479.1l-155.3,33.5l-41.1-144.5l155.3-33.5L2210,2479.1z
			 M2224.8,2531.3l41.1,144.5l-155.3,33.5l-41.1-144.5L2224.8,2531.3z M2280.8,2727.9l41.1,144.5l-155.3,33.5l-41.1-144.5
			L2280.8,2727.9z M2336.7,2924.5l41.1,144.5l-155.3,33.5l-41.1-144.5L2336.7,2924.5z M2392.8,2912.4l155.3-33.5l41.1,144.5
			l-155.3,33.5L2392.8,2912.4z M2604.1,2866.8l155.3-33.5l41.1,144.5l-155.3,33.5L2604.1,2866.8z M2815.5,2821.2l155.3-33.5
			l41.1,144.5l-155.3,33.5L2815.5,2821.2z M2800.7,2769l-41.1-144.5l155.3-33.5l41.1,144.5L2800.7,2769z M2744.7,2572.4l-41.1-144.5
			l155.3-33.5l41.1,144.5L2744.7,2572.4z M2688.8,2375.8l-41.1-144.5l155.3-33.5l41.1,144.5L2688.8,2375.8z M2632.8,2179.1
			l-41.5-146l155.3-33.5l41.5,146L2632.8,2179.1z M2576.8,2191.2l-155.3,33.5l-41.5-146l155.3-33.5L2576.8,2191.2z M2365.4,2236.9
			l-155.3,33.5l-41.5-146l155.3-33.5L2365.4,2236.9z M2154.1,2282.5l-155.3,33.5l-41.5-146l155.3-33.5L2154.1,2282.5z
			 M1942.7,2328.1l-155.3,33.5l-41.5-146l155.3-33.5L1942.7,2328.1z M1957.5,2380.3l41.1,144.5l-155.3,33.5l-41.1-144.5
			L1957.5,2380.3z M2013.5,2576.9l41.1,144.5l-155.3,33.5l-41.1-144.5L2013.5,2576.9z M2069.4,2773.5l41.1,144.5l-155.3,33.5
			l-41.1-144.5L2069.4,2773.5z M2125.4,2970.2l41.1,144.5l-155.3,33.5l-41.1-144.5L2125.4,2970.2z M2181.3,3166.8l41.5,146
			l-155.3,33.5l-41.5-146L2181.3,3166.8z M2237.4,3154.7l155.3-33.5l41.5,146l-155.3,33.5L2237.4,3154.7z M2448.7,3109.1l155.3-33.5
			l41.5,146l-155.3,33.5L2448.7,3109.1z M2660.1,3063.4l155.3-33.5l41.5,146l-155.3,33.5L2660.1,3063.4z M2871.5,3017.8l155.3-33.5
			l41.5,146l-155.3,33.5L2871.5,3017.8z M3082.8,2972.2l155.3-33.5l41.5,146l-155.3,33.5L3082.8,2972.2z M3068,2920l-41.1-144.5
			l155.3-33.5l41.1,144.5L3068,2920z M3012,2723.4l-41.1-144.5l155.3-33.5l41.1,144.5L3012,2723.4z M2956.1,2526.8l-41.1-144.5
			l155.3-33.5l41.1,144.5L2956.1,2526.8z M2900.1,2330.1l-41.1-144.5l155.3-33.5l41.1,144.5L2900.1,2330.1z M2844.2,2133.5
			l-41.5-146L2958,1954l41.5,146L2844.2,2133.5z M2787.8,1935.4l-41.1-144.5l155.3-33.5l41.1,144.5L2787.8,1935.4z M2731.8,1947.5
			l-155.3,33.5l-41.1-144.5l155.3-33.5L2731.8,1947.5z M2520.4,1993.1l-155.3,33.5l-41.1-144.5l155.3-33.5L2520.4,1993.1z
			 M2309.1,2038.8l-155.3,33.5l-41.1-144.5l155.3-33.5L2309.1,2038.8z M2097.7,2084.4l-155.3,33.5l-41.1-144.5l155.3-33.5
			L2097.7,2084.4z M1886.3,2130l-155.3,33.5l-41.1-144.5l155.3-33.5L1886.3,2130z M1675,2175.7l-155.3,33.5l-41.1-144.5l155.3-33.5
			L1675,2175.7z M1689.8,2227.8l41.5,146l-155.3,33.5l-41.5-146L1689.8,2227.8z M1746.2,2425.9l41.1,144.5l-155.3,33.5l-41.1-144.5
			L1746.2,2425.9z M1802.1,2622.5l41.1,144.5l-155.3,33.5l-41.1-144.5L1802.1,2622.5z M1858.1,2819.2l41.1,144.5l-155.3,33.5
			l-41.1-144.5L1858.1,2819.2z M1914,3015.8l41.1,144.5l-155.3,33.5l-41.1-144.5L1914,3015.8z M1970,3212.4l41.5,146l-155.3,33.5
			l-41.5-146L1970,3212.4z M2026.3,3410.6l41.1,144.5l-155.3,33.5l-41.1-144.5L2026.3,3410.6z M2082.4,3398.5l155.3-33.5l41.1,144.5
			l-155.3,33.5L2082.4,3398.5z M2293.7,3352.8l155.3-33.5l41.1,144.5l-155.3,33.5L2293.7,3352.8z M2505.1,3307.2l155.3-33.5
			l41.1,144.5l-155.3,33.5L2505.1,3307.2z M2716.5,3261.6l155.3-33.5l41.1,144.5l-155.3,33.5L2716.5,3261.6z M2927.8,3215.9
			l155.3-33.5l41.1,144.5l-155.3,33.5L2927.8,3215.9z M3139.2,3170.3l155.3-33.5l41.1,144.5l-155.3,33.5L3139.2,3170.3z
			 M3350.5,3124.7l155.3-33.5l41.1,144.5l-155.3,33.5L3350.5,3124.7z M3335.7,3072.5l-41.5-146l155.3-33.5l41.5,146L3335.7,3072.5z
			 M3279.3,2874.4l-41.1-144.5l155.3-33.5l41.1,144.5L3279.3,2874.4z M3223.4,2677.8l-41.1-144.5l155.3-33.5l41.1,144.5
			L3223.4,2677.8z M3167.4,2481.2l-41.1-144.5l155.3-33.5l41.1,144.5L3167.4,2481.2z M3111.5,2284.5l-41.1-144.5l155.3-33.5
			l41.1,144.5L3111.5,2284.5z M3055.5,2087.9l-41.5-146l155.3-33.5l41.5,146L3055.5,2087.9z M2999.2,1889.8l-41.1-144.5l155.3-33.5
			l41.1,144.5L2999.2,1889.8z M2943.2,1693.1l-41.1-144.5l155.3-33.5l41.1,144.5L2943.2,1693.1z M2887.2,1705.2l-155.3,33.5
			l-41.1-144.5l155.3-33.5L2887.2,1705.2z M2675.8,1750.9l-155.3,33.5l-41.1-144.5l155.3-33.5L2675.8,1750.9z M2464.5,1796.5
			l-155.3,33.5l-41.1-144.5l155.3-33.5L2464.5,1796.5z M2253.1,1842.1l-155.3,33.5l-41.1-144.5l155.3-33.5L2253.1,1842.1z
			 M2041.7,1887.8l-155.3,33.5l-41.1-144.5l155.3-33.5L2041.7,1887.8z M1830.4,1933.4l-155.3,33.5l-41.1-144.5l155.3-33.5
			L1830.4,1933.4z M1619,1979l-155.3,33.5l-41.1-144.5l155.3-33.5L1619,1979z M1407.7,2024.7l-155.3,33.5l-41.1-144.5l155.3-33.5
			L1407.7,2024.7z M1422.5,2076.8l41.1,144.5l-155.3,33.5l-41.1-144.5L1422.5,2076.8z M1478.4,2273.4l41.5,146l-155.3,33.5
			l-41.5-146L1478.4,2273.4z M1534.8,2471.5l41.1,144.5l-155.3,33.5l-41.1-144.5L1534.8,2471.5z M1590.8,2668.2l41.1,144.5
			l-155.3,33.5l-41.1-144.5L1590.8,2668.2z M1646.7,2864.8l41.1,144.5l-155.3,33.5l-41.1-144.5L1646.7,2864.8z M1702.7,3061.4
			l41.1,144.5l-155.3,33.5l-41.1-144.5L1702.7,3061.4z M1758.6,3258.1l41.5,146l-155.3,33.5l-41.5-146L1758.6,3258.1z M1815,3456.2
			l41.1,144.5l-155.3,33.5l-41.1-144.5L1815,3456.2z M1870.9,3652.8l41.1,144.5l-155.3,33.5l-41.1-144.5L1870.9,3652.8z
			 M1927,3640.7l155.3-33.5l41.1,144.5l-155.3,33.5L1927,3640.7z M2138.3,3595.1l155.3-33.5l41.1,144.5l-155.3,33.5L2138.3,3595.1z
			 M2349.7,3549.5l155.3-33.5l41.1,144.5l-155.3,33.5L2349.7,3549.5z M2561.1,3503.8l155.3-33.5l41.1,144.5l-155.3,33.5
			L2561.1,3503.8z M2772.4,3458.2l155.3-33.5l41.1,144.5l-155.3,33.5L2772.4,3458.2z M2983.8,3412.6l155.3-33.5l41.1,144.5
			l-155.3,33.5L2983.8,3412.6z M3195.1,3366.9l155.3-33.5l41.1,144.5l-155.3,33.5L3195.1,3366.9z M3406.5,3321.3l155.3-33.5
			l41.1,144.5l-155.3,33.5L3406.5,3321.3z M3617.8,3275.7l155.3-33.5l41.1,144.5l-155.3,33.5L3617.8,3275.7z M3603,3223.5
			l-41.1-144.5l155.3-33.5l41.1,144.5L3603,3223.5z M3547.1,3026.9l-41.5-146l155.3-33.5l41.5,146L3547.1,3026.9z M3490.7,2828.8
			l-41.1-144.5l155.3-33.5l41.1,144.5L3490.7,2828.8z M3434.7,2632.2l-41.1-144.5l155.3-33.5l41.1,144.5L3434.7,2632.2z
			 M3378.8,2435.5l-41.1-144.5l155.3-33.5l41.1,144.5L3378.8,2435.5z M3322.8,2238.9l-41.1-144.5l155.3-33.5l41.1,144.5
			L3322.8,2238.9z M3266.9,2042.3l-41.5-146l155.3-33.5l41.5,146L3266.9,2042.3z M3210.5,1844.1l-41.1-144.5l155.3-33.5l41.1,144.5
			L3210.5,1844.1z M3154.6,1647.5l-41.1-144.5l155.3-33.5l41.1,144.5L3154.6,1647.5z"/>
		<g class="st4">
			<path class="st5" d="M3276.1,1409.8l-6.4,1.4l-8.1-28.3l-2139.2,461.8l8.1,28.3l-24,5.2l566.3,1990.2l24-5.2l0.8,3l2139.2-461.8
				l-0.8-3l6.4-1.4L3276.1,1409.8z M2450.2,2658.5l41.1,144.5l-155.3,33.5l-41.1-144.5L2450.2,2658.5z M2280,2639.9l-41.1-144.5
				l155.3-33.5l41.1,144.5L2280,2639.9z M2506.2,2646.4l155.3-33.5l41.1,144.5l-155.3,33.5L2506.2,2646.4z M2491.4,2594.3
				l-41.1-144.5l155.3-33.5l41.1,144.5L2491.4,2594.3z M2435.4,2397.7l-41.1-144.5l155.3-33.5l41.1,144.5L2435.4,2397.7z
				 M2379.4,2409.8l-155.3,33.5l-41.1-144.5l155.3-33.5L2379.4,2409.8z M2168,2455.4l-155.3,33.5l-41.1-144.5l155.3-33.5
				L2168,2455.4z M2182.9,2507.5L2224,2652l-155.3,33.5l-41.1-144.5L2182.9,2507.5z M2238.8,2704.2l41.1,144.5l-155.3,33.5
				l-41.1-144.5L2238.8,2704.2z M2294.8,2900.8l41.1,144.5l-155.3,33.5l-41.1-144.5L2294.8,2900.8z M2350.8,2888.7l155.3-33.5
				l41.1,144.5l-155.3,33.5L2350.8,2888.7z M2562.2,2843.1l155.3-33.5l41.1,144.5l-155.3,33.5L2562.2,2843.1z M2773.5,2797.5
				l155.3-33.5l41.1,144.5l-155.3,33.5L2773.5,2797.5z M2758.7,2745.3l-41.1-144.5l155.3-33.5l41.1,144.5L2758.7,2745.3z
				 M2702.7,2548.7l-41.1-144.5l155.3-33.5l41.1,144.5L2702.7,2548.7z M2646.8,2352l-41.1-144.5L2761,2174l41.1,144.5L2646.8,2352z
				 M2590.8,2155.4l-41.5-146l155.3-33.5l41.5,146L2590.8,2155.4z M2534.8,2167.5l-155.3,33.5l-41.5-146l155.3-33.5L2534.8,2167.5z
				 M2323.4,2213.1l-155.3,33.5l-41.5-146l155.3-33.5L2323.4,2213.1z M2112.1,2258.8l-155.3,33.5l-41.5-146l155.3-33.5
				L2112.1,2258.8z M1900.7,2304.4l-155.3,33.5l-41.5-146l155.3-33.5L1900.7,2304.4z M1915.5,2356.5l41.1,144.5l-155.3,33.5
				l-41.1-144.5L1915.5,2356.5z M1971.5,2553.2l41.1,144.5l-155.3,33.5l-41.1-144.5L1971.5,2553.2z M2027.4,2749.8l41.1,144.5
				l-155.3,33.5l-41.1-144.5L2027.4,2749.8z M2083.4,2946.4l41.1,144.5l-155.3,33.5l-41.1-144.5L2083.4,2946.4z M2139.3,3143.1
				l41.5,146l-155.3,33.5l-41.5-146L2139.3,3143.1z M2195.4,3131l155.3-33.5l41.5,146l-155.3,33.5L2195.4,3131z M2406.7,3085.3
				l155.3-33.5l41.5,146l-155.3,33.5L2406.7,3085.3z M2618.1,3039.7l155.3-33.5l41.5,146l-155.3,33.5L2618.1,3039.7z M2829.5,2994.1
				l155.3-33.5l41.5,146l-155.3,33.5L2829.5,2994.1z M3040.8,2948.5l155.3-33.5l41.5,146l-155.3,33.5L3040.8,2948.5z M3026,2896.3
				l-41.1-144.5l155.3-33.5l41.1,144.5L3026,2896.3z M2970,2699.7l-41.1-144.5l155.3-33.5l41.1,144.5L2970,2699.7z M2914.1,2503
				l-41.1-144.5l155.3-33.5l41.1,144.5L2914.1,2503z M2858.1,2306.4l-41.1-144.5l155.3-33.5l41.1,144.5L2858.1,2306.4z
				 M2802.2,2109.8l-41.5-146l155.3-33.5l41.5,146L2802.2,2109.8z M2745.8,1911.7l-41.1-144.5l155.3-33.5l41.1,144.5L2745.8,1911.7z
				 M2689.8,1923.8l-155.3,33.5l-41.1-144.5l155.3-33.5L2689.8,1923.8z M2478.4,1969.4l-155.3,33.5l-41.1-144.5l155.3-33.5
				L2478.4,1969.4z M2267.1,2015l-155.3,33.5l-41.1-144.5l155.3-33.5L2267.1,2015z M2055.7,2060.7l-155.3,33.5l-41.1-144.5
				l155.3-33.5L2055.7,2060.7z M1844.3,2106.3l-155.3,33.5l-41.1-144.5l155.3-33.5L1844.3,2106.3z M1633,2151.9l-155.3,33.5
				l-41.1-144.5l155.3-33.5L1633,2151.9z M1647.8,2204.1l41.5,146l-155.3,33.5l-41.5-146L1647.8,2204.1z M1704.2,2402.2l41.1,144.5
				l-155.3,33.5l-41.1-144.5L1704.2,2402.2z M1760.1,2598.8l41.1,144.5l-155.3,33.5l-41.1-144.5L1760.1,2598.8z M1816.1,2795.4
				l41.1,144.5l-155.3,33.5l-41.1-144.5L1816.1,2795.4z M1872,2992.1l41.1,144.5l-155.3,33.5l-41.1-144.5L1872,2992.1z M1928,3188.7
				l41.5,146l-155.3,33.5l-41.5-146L1928,3188.7z M1984.4,3386.8l41.1,144.5l-155.3,33.5l-41.1-144.5L1984.4,3386.8z M2040.4,3374.7
				l155.3-33.5l41.1,144.5l-155.3,33.5L2040.4,3374.7z M2251.8,3329.1l155.3-33.5l41.1,144.5l-155.3,33.5L2251.8,3329.1z
				 M2463.1,3283.5l155.3-33.5l41.1,144.5l-155.3,33.5L2463.1,3283.5z M2674.5,3237.8l155.3-33.5l41.1,144.5l-155.3,33.5
				L2674.5,3237.8z M2885.8,3192.2l155.3-33.5l41.1,144.5l-155.3,33.5L2885.8,3192.2z M3097.2,3146.6l155.3-33.5l41.1,144.5
				l-155.3,33.5L3097.2,3146.6z M3308.6,3100.9l155.3-33.5l41.1,144.5l-155.3,33.5L3308.6,3100.9z M3293.7,3048.8l-41.5-146
				l155.3-33.5l41.5,146L3293.7,3048.8z M3237.3,2850.7l-41.1-144.5l155.3-33.5l41.1,144.5L3237.3,2850.7z M3181.4,2654l-41.1-144.5
				l155.3-33.5l41.1,144.5L3181.4,2654z M3125.4,2457.4l-41.1-144.5l155.3-33.5l41.1,144.5L3125.4,2457.4z M3069.5,2260.8
				l-41.1-144.5l155.3-33.5l41.1,144.5L3069.5,2260.8z M3013.6,2064.2l-41.5-146l155.3-33.5l41.5,146L3013.6,2064.2z M2957.2,1866
				l-41.1-144.5l155.3-33.5l41.1,144.5L2957.2,1866z M2901.2,1669.4l-41.1-144.5l155.3-33.5l41.1,144.5L2901.2,1669.4z
				 M2845.2,1681.5l-155.3,33.5l-41.1-144.5l155.3-33.5L2845.2,1681.5z M2633.8,1727.1l-155.3,33.5l-41.1-144.5l155.3-33.5
				L2633.8,1727.1z M2422.5,1772.8l-155.3,33.5l-41.1-144.5l155.3-33.5L2422.5,1772.8z M2211.1,1818.4l-155.3,33.5l-41.1-144.5
				l155.3-33.5L2211.1,1818.4z M1999.8,1864l-155.3,33.5l-41.1-144.5l155.3-33.5L1999.8,1864z M1788.4,1909.7l-155.3,33.5
				l-41.1-144.5l155.3-33.5L1788.4,1909.7z M1577,1955.3l-155.3,33.5l-41.1-144.5l155.3-33.5L1577,1955.3z M1365.7,2000.9
				l-155.3,33.5l-41.1-144.5l155.3-33.5L1365.7,2000.9z M1380.5,2053.1l41.1,144.5l-155.3,33.5l-41.1-144.5L1380.5,2053.1z
				 M1436.5,2249.7l41.5,146l-155.3,33.5l-41.5-146L1436.5,2249.7z M1492.8,2447.8l41.1,144.5l-155.3,33.5l-41.1-144.5
				L1492.8,2447.8z M1548.8,2644.4l41.1,144.5l-155.3,33.5l-41.1-144.5L1548.8,2644.4z M1604.7,2841.1l41.1,144.5l-155.3,33.5
				l-41.1-144.5L1604.7,2841.1z M1660.7,3037.7l41.1,144.5l-155.3,33.5l-41.1-144.5L1660.7,3037.7z M1716.6,3234.3l41.5,146
				l-155.3,33.5l-41.5-146L1716.6,3234.3z M1773,3432.5l41.1,144.5l-155.3,33.5l-41.1-144.5L1773,3432.5z M1828.9,3629.1l41.1,144.5
				l-155.3,33.5l-41.1-144.5L1828.9,3629.1z M1885,3617l155.3-33.5l41.1,144.5l-155.3,33.5L1885,3617z M2096.3,3571.4l155.3-33.5
				l41.1,144.5l-155.3,33.5L2096.3,3571.4z M2307.7,3525.7l155.3-33.5l41.1,144.5l-155.3,33.5L2307.7,3525.7z M2519.1,3480.1
				l155.3-33.5l41.1,144.5l-155.3,33.5L2519.1,3480.1z M2730.4,3434.5l155.3-33.5l41.1,144.5l-155.3,33.5L2730.4,3434.5z
				 M2941.8,3388.8l155.3-33.5l41.1,144.5l-155.3,33.5L2941.8,3388.8z M3153.1,3343.2l155.3-33.5l41.1,144.5l-155.3,33.5
				L3153.1,3343.2z M3364.5,3297.6l155.3-33.5l41.1,144.5l-155.3,33.5L3364.5,3297.6z M3575.9,3251.9l155.3-33.5l41.1,144.5
				l-155.3,33.5L3575.9,3251.9z M3561,3199.8l-41.1-144.5l155.3-33.5l41.1,144.5L3561,3199.8z M3505.1,3003.2l-41.5-146l155.3-33.5
				l41.5,146L3505.1,3003.2z M3448.7,2805.1l-41.1-144.5l155.3-33.5l41.1,144.5L3448.7,2805.1z M3392.8,2608.4l-41.1-144.5
				l155.3-33.5l41.1,144.5L3392.8,2608.4z M3336.8,2411.8l-41.1-144.5l155.3-33.5l41.1,144.5L3336.8,2411.8z M3280.9,2215.2
				l-41.1-144.5l155.3-33.5l41.1,144.5L3280.9,2215.2z M3224.9,2018.5l-41.5-146l155.3-33.5l41.5,146L3224.9,2018.5z M3168.5,1820.4
				l-41.1-144.5l155.3-33.5l41.1,144.5L3168.5,1820.4z M3112.6,1623.8l-41.1-144.5l155.3-33.5l41.1,144.5L3112.6,1623.8z"/>
			<path class="st5" d="M1672.7,3873.9c-2.4,0-4.6-1.6-5.3-4l-566.3-1990.2c-0.4-1.5-0.2-3,0.6-4.3c0.8-1.3,2.1-2.2,3.5-2.5l18.3-4
				l-6.5-22.7c-0.4-1.5-0.2-3,0.6-4.3c0.8-1.3,2.1-2.2,3.5-2.5l2139.2-461.8c2.8-0.6,5.6,1.1,6.4,3.9l6.6,23.4l1.4-0.3
				c2.8-0.6,5.6,1.1,6.4,3.9l566.3,1990.2c0.4,1.5,0.2,3-0.6,4.3c-0.8,1.3-2.1,2.2-3.5,2.5l-1.4,0.3c-0.1,0.5-0.3,1-0.6,1.5
				c-0.8,1.3-2.1,2.2-3.5,2.5l-2139.2,461.8c-2.1,0.5-4.2-0.4-5.5-2l-19.4,4.2C1673.5,3873.8,1673.1,3873.9,1672.7,3873.9z
				 M1113.3,1882.3l563.3,1979.6l19-4.1c2.1-0.5,4.2,0.4,5.5,2l2129.6-459.8c0.1-0.5,0.3-1,0.6-1.5c0.8-1.3,2.1-2.2,3.5-2.5l0.7-0.1
				l-563.3-1979.6l-1.4,0.3c-2.8,0.6-5.6-1.1-6.4-3.9l-6.6-23.4l-2128.5,459.5l6.5,22.7c0.4,1.5,0.2,3-0.6,4.3
				c-0.8,1.3-2.1,2.2-3.5,2.5L1113.3,1882.3z M1714.7,3812.6c-2.4,0-4.6-1.6-5.3-4l-41.1-144.5c-0.4-1.5-0.2-3,0.6-4.3
				c0.8-1.3,2.1-2.2,3.5-2.5l155.3-33.5c2.8-0.6,5.6,1.1,6.4,3.9l41.1,144.5c0.4,1.5,0.2,3-0.6,4.3c-0.8,1.3-2.1,2.2-3.5,2.5
				l-155.3,33.5C1715.5,3812.6,1715.1,3812.6,1714.7,3812.6z M1680.5,3666.7l38.1,133.9l144.6-31.2l-38.1-133.9L1680.5,3666.7z
				 M1926.1,3767c-2.4,0-4.6-1.6-5.3-4l-41.1-144.5c-0.4-1.5-0.2-3,0.6-4.3c0.8-1.3,2.1-2.2,3.5-2.5l155.3-33.5
				c2.8-0.6,5.6,1.1,6.4,3.9l41.1,144.5c0.4,1.5,0.2,3-0.6,4.3c-0.8,1.3-2.1,2.2-3.5,2.5l-155.3,33.5
				C1926.9,3766.9,1926.5,3767,1926.1,3767z M1891.9,3621.1l38.1,133.9l144.6-31.2l-38.1-133.9L1891.9,3621.1z M2137.5,3721.3
				c-2.4,0-4.6-1.6-5.3-4l-41.1-144.5c-0.4-1.5-0.2-3,0.6-4.3c0.8-1.3,2.1-2.2,3.5-2.5l155.3-33.5c2.8-0.6,5.6,1.1,6.4,3.9
				l41.1,144.5c0.4,1.5,0.2,3-0.6,4.3c-0.8,1.3-2.1,2.2-3.5,2.5l-155.3,33.5C2138.2,3721.3,2137.8,3721.3,2137.5,3721.3z
				 M2103.2,3575.5l38.1,133.9l144.6-31.2l-38.1-133.9L2103.2,3575.5z M2348.8,3675.7c-2.4,0-4.6-1.6-5.3-4l-41.1-144.5
				c-0.4-1.5-0.2-3,0.6-4.3s2.1-2.2,3.5-2.5l155.3-33.5c2.8-0.6,5.6,1.1,6.4,3.9l41.1,144.5c0.4,1.5,0.2,3-0.6,4.3
				c-0.8,1.3-2.1,2.2-3.5,2.5l-155.3,33.5C2349.6,3675.7,2349.2,3675.7,2348.8,3675.7z M2314.6,3529.9l38.1,133.9l144.6-31.2
				l-38.1-133.9L2314.6,3529.9z M2560.2,3630.1c-2.4,0-4.6-1.6-5.3-4l-41.1-144.5c-0.4-1.5-0.2-3,0.6-4.3c0.8-1.3,2.1-2.2,3.5-2.5
				l155.3-33.5c2.8-0.6,5.6,1.1,6.4,3.9l41.1,144.5c0.4,1.5,0.2,3-0.6,4.3s-2.1,2.2-3.5,2.5l-155.3,33.5
				C2560.9,3630,2560.6,3630.1,2560.2,3630.1z M2525.9,3484.2l38.1,133.9l144.6-31.2l-38.1-133.9L2525.9,3484.2z M1658.8,3616
				c-2.4,0-4.6-1.6-5.3-4l-41.1-144.5c-0.4-1.5-0.2-3,0.6-4.3c0.8-1.3,2.1-2.2,3.5-2.5l155.3-33.5c2.8-0.6,5.6,1.1,6.4,3.9
				l41.1,144.5c0.4,1.5,0.2,3-0.6,4.3c-0.8,1.3-2.1,2.2-3.5,2.5l-155.3,33.5C1659.6,3615.9,1659.2,3616,1658.8,3616z M1624.5,3470.1
				l38.1,133.9l144.6-31.2l-38.1-133.9L1624.5,3470.1z M2771.5,3584.4c-2.4,0-4.6-1.6-5.3-4l-41.1-144.5c-0.4-1.5-0.2-3,0.6-4.3
				c0.8-1.3,2.1-2.2,3.5-2.5l155.3-33.5c2.8-0.6,5.6,1.1,6.4,3.9l41.1,144.5c0.4,1.5,0.2,3-0.6,4.3c-0.8,1.3-2.1,2.2-3.5,2.5
				l-155.3,33.5C2772.3,3584.4,2771.9,3584.4,2771.5,3584.4z M2737.3,3438.6l38.1,133.9l144.6-31.2l-38.1-133.9L2737.3,3438.6z
				 M1870.1,3570.3c-2.4,0-4.6-1.6-5.3-4l-41.1-144.5c-0.4-1.5-0.2-3,0.6-4.3c0.8-1.3,2.1-2.2,3.5-2.5l155.3-33.5
				c2.8-0.6,5.6,1.1,6.4,3.9l41.1,144.5c0.4,1.5,0.2,3-0.6,4.3s-2.1,2.2-3.5,2.5l-155.3,33.5
				C1870.9,3570.3,1870.5,3570.3,1870.1,3570.3z M1835.9,3424.5l38.1,133.9l144.6-31.2l-38.1-133.9L1835.9,3424.5z M2982.9,3538.8
				c-2.4,0-4.6-1.6-5.3-4l-41.1-144.5c-0.4-1.5-0.2-3,0.6-4.3c0.8-1.3,2.1-2.2,3.5-2.5l155.3-33.5c2.8-0.6,5.6,1.1,6.4,3.9
				l41.1,144.5c0.4,1.5,0.2,3-0.6,4.3c-0.8,1.3-2.1,2.2-3.5,2.5l-155.3,33.5C2983.7,3538.8,2983.3,3538.8,2982.9,3538.8z
				 M2948.6,3393l38.1,133.9l144.6-31.2l-38.1-133.9L2948.6,3393z M2081.5,3524.7c-2.4,0-4.6-1.6-5.3-4l-41.1-144.5
				c-0.4-1.5-0.2-3,0.6-4.3c0.8-1.3,2.1-2.2,3.5-2.5l155.3-33.5c2.8-0.6,5.6,1.1,6.4,3.9l41.1,144.5c0.4,1.5,0.2,3-0.6,4.3
				c-0.8,1.3-2.1,2.2-3.5,2.5l-155.3,33.5C2082.3,3524.7,2081.9,3524.7,2081.5,3524.7z M2047.3,3378.9l38.1,133.9l144.6-31.2
				l-38.1-133.9L2047.3,3378.9z M3194.3,3493.2c-2.4,0-4.6-1.6-5.3-4l-41.1-144.5c-0.4-1.5-0.2-3,0.6-4.3s2.1-2.2,3.5-2.5
				l155.3-33.5c2.8-0.6,5.6,1.1,6.4,3.9l41.1,144.5c0.4,1.5,0.2,3-0.6,4.3c-0.8,1.3-2.1,2.2-3.5,2.5l-155.3,33.5
				C3195,3493.1,3194.6,3493.2,3194.3,3493.2z M3160,3347.3l38.1,133.9l144.6-31.2l-38.1-133.9L3160,3347.3z M2292.9,3479.1
				c-2.4,0-4.6-1.6-5.3-4l-41.1-144.5c-0.4-1.5-0.2-3,0.6-4.3c0.8-1.3,2.1-2.2,3.5-2.5l155.3-33.5c2.8-0.6,5.6,1.1,6.4,3.9
				l41.1,144.5c0.4,1.5,0.2,3-0.6,4.3c-0.8,1.3-2.1,2.2-3.5,2.5l-155.3,33.5C2293.6,3479,2293.2,3479.1,2292.9,3479.1z
				 M2258.6,3333.2l38.1,133.9l144.6-31.2l-38.1-133.9L2258.6,3333.2z M3405.6,3447.5c-2.4,0-4.6-1.6-5.3-4l-41.1-144.5
				c-0.4-1.5-0.2-3,0.6-4.3c0.8-1.3,2.1-2.2,3.5-2.5l155.3-33.5c2.8-0.6,5.6,1.1,6.4,3.9l41.1,144.5c0.4,1.5,0.2,3-0.6,4.3
				c-0.8,1.3-2.1,2.2-3.5,2.5l-155.3,33.5C3406.4,3447.5,3406,3447.5,3405.6,3447.5z M3371.4,3301.7l38.1,133.9l144.6-31.2
				l-38.1-133.9L3371.4,3301.7z M2504.2,3433.4c-2.4,0-4.6-1.6-5.3-4l-41.1-144.5c-0.4-1.5-0.2-3,0.6-4.3c0.8-1.3,2.1-2.2,3.5-2.5
				l155.3-33.5c2.8-0.6,5.6,1.1,6.4,3.9l41.1,144.5c0.4,1.5,0.2,3-0.6,4.3c-0.8,1.3-2.1,2.2-3.5,2.5l-155.3,33.5
				C2505,3433.4,2504.6,3433.4,2504.2,3433.4z M2470,3287.6l38.1,133.9l144.6-31.2l-38.1-133.9L2470,3287.6z M1602.8,3419.3
				c-2.4,0-4.6-1.6-5.3-4l-41.5-146c-0.4-1.5-0.2-3,0.6-4.3c0.8-1.3,2.1-2.2,3.5-2.5l155.3-33.5c2.8-0.6,5.6,1.1,6.4,3.9l41.5,146
				c0.4,1.5,0.2,3-0.6,4.3c-0.8,1.3-2.1,2.2-3.5,2.5l-155.3,33.5C1603.6,3419.3,1603.2,3419.3,1602.8,3419.3z M1568.2,3272
				l38.5,135.4l144.6-31.2l-38.5-135.4L1568.2,3272z M3617,3401.9c-2.4,0-4.6-1.6-5.3-4l-41.1-144.5c-0.4-1.5-0.2-3,0.6-4.3
				c0.8-1.3,2.1-2.2,3.5-2.5l155.3-33.5c2.8-0.6,5.6,1.1,6.4,3.9l41.1,144.5c0.4,1.5,0.2,3-0.6,4.3c-0.8,1.3-2.1,2.2-3.5,2.5
				l-155.3,33.5C3617.7,3401.9,3617.4,3401.9,3617,3401.9z M3582.7,3256.1l38.1,133.9l144.6-31.2l-38.1-133.9L3582.7,3256.1z
				 M2715.6,3387.8c-2.4,0-4.6-1.6-5.3-4l-41.1-144.5c-0.4-1.5-0.2-3,0.6-4.3c0.8-1.3,2.1-2.2,3.5-2.5l155.3-33.5
				c2.8-0.6,5.6,1.1,6.4,3.9l41.1,144.5c0.4,1.5,0.2,3-0.6,4.3c-0.8,1.3-2.1,2.2-3.5,2.5l-155.3,33.5
				C2716.4,3387.8,2716,3387.8,2715.6,3387.8z M2681.3,3242l38.1,133.9l144.6-31.2l-38.1-133.9L2681.3,3242z M1814.2,3373.7
				c-2.4,0-4.6-1.6-5.3-4l-41.5-146c-0.4-1.5-0.2-3,0.6-4.3c0.8-1.3,2.1-2.2,3.5-2.5l155.3-33.5c2.8-0.6,5.6,1.1,6.4,3.9l41.5,146
				c0.4,1.5,0.2,3-0.6,4.3c-0.8,1.3-2.1,2.2-3.5,2.5l-155.3,33.5C1815,3373.7,1814.6,3373.7,1814.2,3373.7z M1779.5,3226.4
				l38.5,135.4l144.6-31.2l-38.5-135.4L1779.5,3226.4z M2926.9,3342.2c-2.4,0-4.6-1.6-5.3-4l-41.1-144.5c-0.4-1.5-0.2-3,0.6-4.3
				c0.8-1.3,2.1-2.2,3.5-2.5l155.3-33.5c2.8-0.6,5.6,1.1,6.4,3.9l41.1,144.5c0.4,1.5,0.2,3-0.6,4.3c-0.8,1.3-2.1,2.2-3.5,2.5
				l-155.3,33.5C2927.7,3342.1,2927.3,3342.2,2926.9,3342.2z M2892.7,3196.3l38.1,133.9l144.6-31.2l-38.1-133.9L2892.7,3196.3z
				 M2025.6,3328.1c-2.4,0-4.6-1.6-5.3-4l-41.5-146c-0.4-1.5-0.2-3,0.6-4.3c0.8-1.3,2.1-2.2,3.5-2.5l155.3-33.5
				c2.8-0.6,5.6,1.1,6.4,3.9l41.5,146c0.4,1.5,0.2,3-0.6,4.3c-0.8,1.3-2.1,2.2-3.5,2.5l-155.3,33.5
				C2026.3,3328,2025.9,3328.1,2025.6,3328.1z M1990.9,3180.7l38.5,135.4l144.6-31.2l-38.5-135.4L1990.9,3180.7z M3138.3,3296.5
				c-2.4,0-4.6-1.6-5.3-4l-41.1-144.5c-0.4-1.5-0.2-3,0.6-4.3c0.8-1.3,2.1-2.2,3.5-2.5l155.3-33.5c2.8-0.6,5.6,1.1,6.4,3.9
				l41.1,144.5c0.4,1.5,0.2,3-0.6,4.3c-0.8,1.3-2.1,2.2-3.5,2.5l-155.3,33.5C3139.1,3296.5,3138.7,3296.5,3138.3,3296.5z
				 M3104.1,3150.7l38.1,133.9l144.6-31.2l-38.1-133.9L3104.1,3150.7z M2236.9,3282.4c-2.4,0-4.6-1.6-5.3-4l-41.5-146
				c-0.4-1.5-0.2-3,0.6-4.3s2.1-2.2,3.5-2.5l155.3-33.5c2.8-0.6,5.6,1.1,6.4,3.9l41.5,146c0.4,1.5,0.2,3-0.6,4.3
				c-0.8,1.3-2.1,2.2-3.5,2.5l-155.3,33.5C2237.7,3282.4,2237.3,3282.4,2236.9,3282.4z M2202.3,3135.1l38.5,135.4l144.6-31.2
				l-38.5-135.4L2202.3,3135.1z M3349.7,3250.9c-2.4,0-4.6-1.6-5.3-4l-41.1-144.5c-0.4-1.5-0.2-3,0.6-4.3c0.8-1.3,2.1-2.2,3.5-2.5
				l155.3-33.5c2.8-0.6,5.6,1.1,6.4,3.9l41.1,144.5c0.4,1.5,0.2,3-0.6,4.3s-2.1,2.2-3.5,2.5l-155.3,33.5
				C3350.4,3250.9,3350,3250.9,3349.7,3250.9z M3315.4,3105.1l38.1,133.9l144.6-31.2l-38.1-133.9L3315.4,3105.1z M2448.3,3236.8
				c-2.4,0-4.6-1.6-5.3-4l-41.5-146c-0.4-1.5-0.2-3,0.6-4.3s2.1-2.2,3.5-2.5l155.3-33.5c2.8-0.6,5.6,1.1,6.4,3.9l41.5,146
				c0.4,1.5,0.2,3-0.6,4.3s-2.1,2.2-3.5,2.5l-155.3,33.5C2449,3236.8,2448.7,3236.8,2448.3,3236.8z M2413.6,3089.5l38.5,135.4
				l144.6-31.2l-38.5-135.4L2413.6,3089.5z M1546.5,3221.2c-2.4,0-4.6-1.6-5.3-4l-41.1-144.5c-0.4-1.5-0.2-3,0.6-4.3
				c0.8-1.3,2.1-2.2,3.5-2.5l155.3-33.5c2.8-0.6,5.6,1.1,6.4,3.9l41.1,144.5c0.4,1.5,0.2,3-0.6,4.3c-0.8,1.3-2.1,2.2-3.5,2.5
				l-155.3,33.5C1547.2,3221.2,1546.8,3221.2,1546.5,3221.2z M1512.2,3075.4l38.1,133.9l144.6-31.2l-38.1-133.9L1512.2,3075.4z
				 M3561,3205.3c-2.4,0-4.6-1.6-5.3-4l-41.1-144.5c-0.4-1.5-0.2-3,0.6-4.3c0.8-1.3,2.1-2.2,3.5-2.5l155.3-33.5
				c2.8-0.6,5.6,1.1,6.4,3.9l41.1,144.5c0.4,1.5,0.2,3-0.6,4.3s-2.1,2.2-3.5,2.5l-155.3,33.5
				C3561.8,3205.2,3561.4,3205.3,3561,3205.3z M3526.8,3059.4l38.1,133.9l144.6-31.2l-38.1-133.9L3526.8,3059.4z M2659.6,3191.2
				c-2.4,0-4.6-1.6-5.3-4l-41.5-146c-0.4-1.5-0.2-3,0.6-4.3c0.8-1.3,2.1-2.2,3.5-2.5l155.3-33.5c2.8-0.6,5.6,1.1,6.4,3.9l41.5,146
				c0.4,1.5,0.2,3-0.6,4.3s-2.1,2.2-3.5,2.5l-155.3,33.5C2660.4,3191.1,2660,3191.2,2659.6,3191.2z M2625,3043.8l38.5,135.4
				l144.6-31.2l-38.5-135.4L2625,3043.8z M1757.8,3175.6c-2.4,0-4.6-1.6-5.3-4l-41.1-144.5c-0.4-1.5-0.2-3,0.6-4.3
				c0.8-1.3,2.1-2.2,3.5-2.5l155.3-33.5c2.8-0.6,5.6,1.1,6.4,3.9l41.1,144.5c0.4,1.5,0.2,3-0.6,4.3s-2.1,2.2-3.5,2.5l-155.3,33.5
				C1758.6,3175.5,1758.2,3175.6,1757.8,3175.6z M1723.6,3029.7l38.1,133.9l144.6-31.2l-38.1-133.9L1723.6,3029.7z M2871,3145.5
				c-2.4,0-4.6-1.6-5.3-4l-41.5-146c-0.4-1.5-0.2-3,0.6-4.3c0.8-1.3,2.1-2.2,3.5-2.5l155.3-33.5c2.8-0.6,5.6,1.1,6.4,3.9l41.5,146
				c0.4,1.5,0.2,3-0.6,4.3c-0.8,1.3-2.1,2.2-3.5,2.5l-155.3,33.5C2871.8,3145.5,2871.4,3145.5,2871,3145.5z M2836.3,2998.2
				l38.5,135.4l144.6-31.2l-38.5-135.4L2836.3,2998.2z M1969.2,3129.9c-2.4,0-4.6-1.6-5.3-4l-41.1-144.5c-0.4-1.5-0.2-3,0.6-4.3
				c0.8-1.3,2.1-2.2,3.5-2.5l155.3-33.5c2.8-0.6,5.6,1.1,6.4,3.9l41.1,144.5c0.4,1.5,0.2,3-0.6,4.3c-0.8,1.3-2.1,2.2-3.5,2.5
				l-155.3,33.5C1970,3129.9,1969.6,3129.9,1969.2,3129.9z M1934.9,2984.1l38.1,133.9l144.6-31.2l-38.1-133.9L1934.9,2984.1z
				 M3082.4,3099.9c-2.4,0-4.6-1.6-5.3-4l-41.5-146c-0.4-1.5-0.2-3,0.6-4.3s2.1-2.2,3.5-2.5l155.3-33.5c2.8-0.6,5.6,1.1,6.4,3.9
				l41.5,146c0.4,1.5,0.2,3-0.6,4.3c-0.8,1.3-2.1,2.2-3.5,2.5l-155.3,33.5C3083.1,3099.9,3082.7,3099.9,3082.4,3099.9z
				 M3047.7,2952.6l38.5,135.4l144.6-31.2l-38.5-135.4L3047.7,2952.6z M2180.5,3084.3c-2.4,0-4.6-1.6-5.3-4l-41.1-144.5
				c-0.4-1.5-0.2-3,0.6-4.3c0.8-1.3,2.1-2.2,3.5-2.5l155.3-33.5c2.8-0.6,5.6,1.1,6.4,3.9l41.1,144.5c0.4,1.5,0.2,3-0.6,4.3
				c-0.8,1.3-2.1,2.2-3.5,2.5l-155.3,33.5C2181.3,3084.3,2180.9,3084.3,2180.5,3084.3z M2146.3,2938.5l38.1,133.9l144.6-31.2
				l-38.1-133.9L2146.3,2938.5z M3293.7,3054.3c-2.4,0-4.6-1.6-5.3-4l-41.5-146c-0.4-1.5-0.2-3,0.6-4.3c0.8-1.3,2.1-2.2,3.5-2.5
				l155.3-33.5c2.8-0.6,5.6,1.1,6.4,3.9l41.5,146c0.4,1.5,0.2,3-0.6,4.3c-0.8,1.3-2.1,2.2-3.5,2.5l-155.3,33.5
				C3294.5,3054.2,3294.1,3054.3,3293.7,3054.3z M3259,2906.9l38.5,135.4l144.6-31.2l-38.5-135.4L3259,2906.9z M2391.9,3038.7
				c-2.4,0-4.6-1.6-5.3-4l-41.1-144.5c-0.4-1.5-0.2-3,0.6-4.3c0.8-1.3,2.1-2.2,3.5-2.5l155.3-33.5c2.8-0.6,5.6,1.1,6.4,3.9
				l41.1,144.5c0.4,1.5,0.2,3-0.6,4.3c-0.8,1.3-2.1,2.2-3.5,2.5l-155.3,33.5C2392.7,3038.6,2392.3,3038.7,2391.9,3038.7z
				 M2357.7,2892.8l38.1,133.9l144.6-31.2l-38.1-133.9L2357.7,2892.8z M1490.5,3024.6c-2.4,0-4.6-1.6-5.3-4l-41.1-144.5
				c-0.4-1.5-0.2-3,0.6-4.3c0.8-1.3,2.1-2.2,3.5-2.5l155.3-33.5c2.8-0.6,5.6,1.1,6.4,3.9l41.1,144.5c0.4,1.5,0.2,3-0.6,4.3
				c-0.8,1.3-2.1,2.2-3.5,2.5l-155.3,33.5C1491.3,3024.5,1490.9,3024.6,1490.5,3024.6z M1456.3,2878.7l38.1,133.9l144.6-31.2
				l-38.1-133.9L1456.3,2878.7z M3505.1,3008.7c-2.4,0-4.6-1.6-5.3-4l-41.5-146c-0.4-1.5-0.2-3,0.6-4.3c0.8-1.3,2.1-2.2,3.5-2.5
				l155.3-33.5c2.8-0.6,5.6,1.1,6.4,3.9l41.5,146c0.4,1.5,0.2,3-0.6,4.3c-0.8,1.3-2.1,2.2-3.5,2.5l-155.3,33.5
				C3505.8,3008.6,3505.5,3008.7,3505.1,3008.7z M3470.4,2861.3l38.5,135.4l144.6-31.2l-38.5-135.4L3470.4,2861.3z M2603.3,2993.1
				c-2.4,0-4.6-1.6-5.3-4l-41.1-144.5c-0.4-1.5-0.2-3,0.6-4.3c0.8-1.3,2.1-2.2,3.5-2.5l155.3-33.5c2.8-0.6,5.6,1.1,6.4,3.9
				l41.1,144.5c0.4,1.5,0.2,3-0.6,4.3s-2.1,2.2-3.5,2.5l-155.3,33.5C2604,2993,2603.6,2993.1,2603.3,2993.1z M2569,2847.2
				l38.1,133.9l144.6-31.2l-38.1-133.9L2569,2847.2z M1701.9,2978.9c-2.4,0-4.6-1.6-5.3-4l-41.1-144.5c-0.4-1.5-0.2-3,0.6-4.3
				c0.8-1.3,2.1-2.2,3.5-2.5l155.3-33.5c2.8-0.6,5.6,1.1,6.4,3.9l41.1,144.5c0.4,1.5,0.2,3-0.6,4.3s-2.1,2.2-3.5,2.5l-155.3,33.5
				C1702.6,2978.9,1702.3,2978.9,1701.9,2978.9z M1667.6,2833.1l38.1,133.9l144.6-31.2l-38.1-133.9L1667.6,2833.1z M2814.6,2947.4
				c-2.4,0-4.6-1.6-5.3-4l-41.1-144.5c-0.4-1.5-0.2-3,0.6-4.3c0.8-1.3,2.1-2.2,3.5-2.5l155.3-33.5c2.8-0.6,5.6,1.1,6.4,3.9
				l41.1,144.5c0.4,1.5,0.2,3-0.6,4.3c-0.8,1.3-2.1,2.2-3.5,2.5l-155.3,33.5C2815.4,2947.4,2815,2947.4,2814.6,2947.4z
				 M2780.4,2801.6l38.1,133.9l144.6-31.2l-38.1-133.9L2780.4,2801.6z M1913.2,2933.3c-2.4,0-4.6-1.6-5.3-4l-41.1-144.5
				c-0.4-1.5-0.2-3,0.6-4.3c0.8-1.3,2.1-2.2,3.5-2.5l155.3-33.5c2.8-0.6,5.6,1.1,6.4,3.9l41.1,144.5c0.4,1.5,0.2,3-0.6,4.3
				c-0.8,1.3-2.1,2.2-3.5,2.5l-155.3,33.5C1914,2933.3,1913.6,2933.3,1913.2,2933.3z M1879,2787.5l38.1,133.9l144.6-31.2
				l-38.1-133.9L1879,2787.5z M3026,2901.8c-2.4,0-4.6-1.6-5.3-4l-41.1-144.5c-0.4-1.5-0.2-3,0.6-4.3c0.8-1.3,2.1-2.2,3.5-2.5
				l155.3-33.5c2.8-0.6,5.6,1.1,6.4,3.9l41.1,144.5c0.4,1.5,0.2,3-0.6,4.3c-0.8,1.3-2.1,2.2-3.5,2.5l-155.3,33.5
				C3026.8,2901.8,3026.4,2901.8,3026,2901.8z M2991.7,2755.9l38.1,133.9l144.6-31.2l-38.1-133.9L2991.7,2755.9z M2124.6,2887.7
				c-2.4,0-4.6-1.6-5.3-4l-41.1-144.5c-0.4-1.5-0.2-3,0.6-4.3c0.8-1.3,2.1-2.2,3.5-2.5l155.3-33.5c2.8-0.6,5.6,1.1,6.4,3.9
				l41.1,144.5c0.4,1.5,0.2,3-0.6,4.3c-0.8,1.3-2.1,2.2-3.5,2.5l-155.3,33.5C2125.4,2887.6,2125,2887.7,2124.6,2887.7z
				 M2090.4,2741.8l38.1,133.9l144.6-31.2l-38.1-133.9L2090.4,2741.8z M3237.3,2856.2c-2.4,0-4.6-1.6-5.3-4l-41.1-144.5
				c-0.4-1.5-0.2-3,0.6-4.3c0.8-1.3,2.1-2.2,3.5-2.5l155.3-33.5c2.8-0.6,5.6,1.1,6.4,3.9l41.1,144.5c0.4,1.5,0.2,3-0.6,4.3
				c-0.8,1.3-2.1,2.2-3.5,2.5l-155.3,33.5C3238.1,2856.1,3237.7,2856.2,3237.3,2856.2z M3203.1,2710.3l38.1,133.9l144.6-31.2
				l-38.1-133.9L3203.1,2710.3z M2336,2842.1c-2.4,0-4.6-1.6-5.3-4l-41.1-144.5c-0.4-1.5-0.2-3,0.6-4.3c0.8-1.3,2.1-2.2,3.5-2.5
				l155.3-33.5c2.8-0.6,5.6,1.1,6.4,3.9l41.1,144.5c0.4,1.5,0.2,3-0.6,4.3c-0.8,1.3-2.1,2.2-3.5,2.5l-155.3,33.5
				C2336.7,2842,2336.3,2842.1,2336,2842.1z M2301.7,2696.2l38.1,133.9l144.6-31.2l-38.1-133.9L2301.7,2696.2z M1434.6,2827.9
				c-2.4,0-4.6-1.6-5.3-4l-41.1-144.5c-0.4-1.5-0.2-3,0.6-4.3c0.8-1.3,2.1-2.2,3.5-2.5l155.3-33.5c2.8-0.6,5.6,1.1,6.4,3.9
				l41.1,144.5c0.4,1.5,0.2,3-0.6,4.3c-0.8,1.3-2.1,2.2-3.5,2.5l-155.3,33.5C1435.3,2827.9,1435,2827.9,1434.6,2827.9z
				 M1400.3,2682.1l38.1,133.9l144.6-31.2l-38.1-133.9L1400.3,2682.1z M3448.7,2810.5c-2.4,0-4.6-1.6-5.3-4l-41.1-144.5
				c-0.4-1.5-0.2-3,0.6-4.3c0.8-1.3,2.1-2.2,3.5-2.5l155.3-33.5c2.8-0.6,5.6,1.1,6.4,3.9l41.1,144.5c0.4,1.5,0.2,3-0.6,4.3
				c-0.8,1.3-2.1,2.2-3.5,2.5l-155.3,33.5C3449.5,2810.5,3449.1,2810.5,3448.7,2810.5z M3414.5,2664.7l38.1,133.9l144.6-31.2
				l-38.1-133.9L3414.5,2664.7z M2547.3,2796.4c-2.4,0-4.6-1.6-5.3-4l-41.1-144.5c-0.4-1.5-0.2-3,0.6-4.3c0.8-1.3,2.1-2.2,3.5-2.5
				l155.3-33.5c2.8-0.6,5.6,1.1,6.4,3.9l41.1,144.5c0.4,1.5,0.2,3-0.6,4.3s-2.1,2.2-3.5,2.5l-155.3,33.5
				C2548.1,2796.4,2547.7,2796.4,2547.3,2796.4z M2513.1,2650.6l38.1,133.9l144.6-31.2l-38.1-133.9L2513.1,2650.6z M1645.9,2782.3
				c-2.4,0-4.6-1.6-5.3-4l-41.1-144.5c-0.4-1.5-0.2-3,0.6-4.3c0.8-1.3,2.1-2.2,3.5-2.5l155.3-33.5c2.8-0.6,5.6,1.1,6.4,3.9
				l41.1,144.5c0.4,1.5,0.2,3-0.6,4.3c-0.8,1.3-2.1,2.2-3.5,2.5l-155.3,33.5C1646.7,2782.3,1646.3,2782.3,1645.9,2782.3z
				 M1611.7,2636.5l38.1,133.9l144.6-31.2l-38.1-133.9L1611.7,2636.5z M2758.7,2750.8c-2.4,0-4.6-1.6-5.3-4l-41.1-144.5
				c-0.4-1.5-0.2-3,0.6-4.3c0.8-1.3,2.1-2.2,3.5-2.5l155.3-33.5c2.8-0.6,5.6,1.1,6.4,3.9l41.1,144.5c0.4,1.5,0.2,3-0.6,4.3
				c-0.8,1.3-2.1,2.2-3.5,2.5l-155.3,33.5C2759.4,2750.8,2759.1,2750.8,2758.7,2750.8z M2724.4,2604.9l38.1,133.9l144.6-31.2
				l-38.1-133.9L2724.4,2604.9z M1857.3,2736.7c-2.4,0-4.6-1.6-5.3-4l-41.1-144.5c-0.4-1.5-0.2-3,0.6-4.3c0.8-1.3,2.1-2.2,3.5-2.5
				l155.3-33.5c2.8-0.6,5.6,1.1,6.4,3.9l41.1,144.5c0.4,1.5,0.2,3-0.6,4.3c-0.8,1.3-2.1,2.2-3.5,2.5l-155.3,33.5
				C1858.1,2736.6,1857.7,2736.7,1857.3,2736.7z M1823,2590.8l38.1,133.9l144.6-31.2l-38.1-133.9L1823,2590.8z M2970,2705.2
				c-2.4,0-4.6-1.6-5.3-4l-41.1-144.5c-0.4-1.5-0.2-3,0.6-4.3c0.8-1.3,2.1-2.2,3.5-2.5l155.3-33.5c2.8-0.6,5.6,1.1,6.4,3.9
				l41.1,144.5c0.4,1.5,0.2,3-0.6,4.3c-0.8,1.3-2.1,2.2-3.5,2.5l-155.3,33.5C2970.8,2705.1,2970.4,2705.2,2970,2705.2z
				 M2935.8,2559.3l38.1,133.9l144.6-31.2l-38.1-133.9L2935.8,2559.3z M2068.6,2691.1c-2.4,0-4.6-1.6-5.3-4l-41.1-144.5
				c-0.4-1.5-0.2-3,0.6-4.3c0.8-1.3,2.1-2.2,3.5-2.5l155.3-33.5c2.8-0.6,5.6,1.1,6.4,3.9l41.1,144.5c0.4,1.5,0.2,3-0.6,4.3
				c-0.8,1.3-2.1,2.2-3.5,2.5l-155.3,33.5C2069.4,2691,2069,2691.1,2068.6,2691.1z M2034.4,2545.2l38.1,133.9l144.6-31.2L2179,2514
				L2034.4,2545.2z M3181.4,2659.5c-2.4,0-4.6-1.6-5.3-4l-41.1-144.5c-0.4-1.5-0.2-3,0.6-4.3c0.8-1.3,2.1-2.2,3.5-2.5l155.3-33.5
				c2.8-0.6,5.6,1.1,6.4,3.9L3342,2619c0.4,1.5,0.2,3-0.6,4.3c-0.8,1.3-2.1,2.2-3.5,2.5l-155.3,33.5
				C3182.2,2659.5,3181.8,2659.5,3181.4,2659.5z M3147.2,2513.7l38.1,133.9l144.6-31.2l-38.1-133.9L3147.2,2513.7z M2280,2645.4
				c-2.4,0-4.6-1.6-5.3-4l-41.1-144.5c-0.4-1.5-0.2-3,0.6-4.3c0.8-1.3,2.1-2.2,3.5-2.5l155.3-33.5c2.8-0.6,5.6,1.1,6.4,3.9
				l41.1,144.5c0.4,1.5,0.2,3-0.6,4.3c-0.8,1.3-2.1,2.2-3.5,2.5l-155.3,33.5C2280.8,2645.4,2280.4,2645.4,2280,2645.4z
				 M2245.8,2499.6l38.1,133.9l144.6-31.2l-38.1-133.9L2245.8,2499.6z M1378.6,2631.3c-2.4,0-4.6-1.6-5.3-4l-41.1-144.5
				c-0.4-1.5-0.2-3,0.6-4.3c0.8-1.3,2.1-2.2,3.5-2.5l155.3-33.5c2.8-0.6,5.6,1.1,6.4,3.9l41.1,144.5c0.4,1.5,0.2,3-0.6,4.3
				c-0.8,1.3-2.1,2.2-3.5,2.5l-155.3,33.5C1379.4,2631.3,1379,2631.3,1378.6,2631.3z M1344.4,2485.5l38.1,133.9l144.6-31.2
				l-38.1-133.9L1344.4,2485.5z M3392.8,2613.9c-2.4,0-4.6-1.6-5.3-4l-41.1-144.5c-0.4-1.5-0.2-3,0.6-4.3c0.8-1.3,2.1-2.2,3.5-2.5
				l155.3-33.5c2.8-0.6,5.6,1.1,6.4,3.9l41.1,144.5c0.4,1.5,0.2,3-0.6,4.3s-2.1,2.2-3.5,2.5l-155.3,33.5
				C3393.5,2613.9,3393.1,2613.9,3392.8,2613.9z M3358.5,2468l38.1,133.9l144.6-31.2l-38.1-133.9L3358.5,2468z M2491.4,2599.8
				c-2.4,0-4.6-1.6-5.3-4l-41.1-144.5c-0.4-1.5-0.2-3,0.6-4.3c0.8-1.3,2.1-2.2,3.5-2.5l155.3-33.5c2.8-0.6,5.6,1.1,6.4,3.9
				l41.1,144.5c0.4,1.5,0.2,3-0.6,4.3s-2.1,2.2-3.5,2.5l-155.3,33.5C2492.1,2599.7,2491.8,2599.8,2491.4,2599.8z M2457.1,2453.9
				l38.1,133.9l144.6-31.2l-38.1-133.9L2457.1,2453.9z M1590,2585.7c-2.4,0-4.6-1.6-5.3-4l-41.1-144.5c-0.4-1.5-0.2-3,0.6-4.3
				c0.8-1.3,2.1-2.2,3.5-2.5l155.3-33.5c2.8-0.6,5.6,1.1,6.4,3.9l41.1,144.5c0.4,1.5,0.2,3-0.6,4.3s-2.1,2.2-3.5,2.5l-155.3,33.5
				C1590.8,2585.6,1590.4,2585.7,1590,2585.7z M1555.7,2439.8l38.1,133.9l144.6-31.2l-38.1-133.9L1555.7,2439.8z M2702.7,2554.2
				c-2.4,0-4.6-1.6-5.3-4l-41.1-144.5c-0.4-1.5-0.2-3,0.6-4.3c0.8-1.3,2.1-2.2,3.5-2.5l155.3-33.5c2.8-0.6,5.6,1.1,6.4,3.9
				l41.1,144.5c0.4,1.5,0.2,3-0.6,4.3c-0.8,1.3-2.1,2.2-3.5,2.5l-155.3,33.5C2703.5,2554.1,2703.1,2554.2,2702.7,2554.2z
				 M2668.5,2408.3l38.1,133.9l144.6-31.2l-38.1-133.9L2668.5,2408.3z M1801.3,2540.1c-2.4,0-4.6-1.6-5.3-4l-41.1-144.5
				c-0.4-1.5-0.2-3,0.6-4.3c0.8-1.3,2.1-2.2,3.5-2.5l155.3-33.5c2.8-0.6,5.6,1.1,6.4,3.9l41.1,144.5c0.4,1.5,0.2,3-0.6,4.3
				c-0.8,1.3-2.1,2.2-3.5,2.5l-155.3,33.5C1802.1,2540,1801.7,2540.1,1801.3,2540.1z M1767.1,2394.2l38.1,133.9l144.6-31.2
				l-38.1-133.9L1767.1,2394.2z M2914.1,2508.5c-2.4,0-4.6-1.6-5.3-4l-41.1-144.5c-0.4-1.5-0.2-3,0.6-4.3c0.8-1.3,2.1-2.2,3.5-2.5
				l155.3-33.5c2.8-0.6,5.6,1.1,6.4,3.9l41.1,144.5c0.4,1.5,0.2,3-0.6,4.3c-0.8,1.3-2.1,2.2-3.5,2.5l-155.3,33.5
				C2914.9,2508.5,2914.5,2508.5,2914.1,2508.5z M2879.8,2362.7l38.1,133.9l144.6-31.2l-38.1-133.9L2879.8,2362.7z M2012.7,2494.4
				c-2.4,0-4.6-1.6-5.3-4l-41.1-144.5c-0.4-1.5-0.2-3,0.6-4.3c0.8-1.3,2.1-2.2,3.5-2.5l155.3-33.5c2.8-0.6,5.6,1.1,6.4,3.9
				l41.1,144.5c0.4,1.5,0.2,3-0.6,4.3c-0.8,1.3-2.1,2.2-3.5,2.5l-155.3,33.5C2013.5,2494.4,2013.1,2494.4,2012.7,2494.4z
				 M1978.5,2348.6l38.1,133.9l144.6-31.2l-38.1-133.9L1978.5,2348.6z M3125.4,2462.9c-2.4,0-4.6-1.6-5.3-4l-41.1-144.5
				c-0.4-1.5-0.2-3,0.6-4.3c0.8-1.3,2.1-2.2,3.5-2.5l155.3-33.5c2.8-0.6,5.6,1.1,6.4,3.9l41.1,144.5c0.4,1.5,0.2,3-0.6,4.3
				c-0.8,1.3-2.1,2.2-3.5,2.5l-155.3,33.5C3126.2,2462.9,3125.8,2462.9,3125.4,2462.9z M3091.2,2317l38.1,133.9l144.6-31.2
				l-38.1-133.9L3091.2,2317z M2224.1,2448.8c-2.4,0-4.6-1.6-5.3-4l-41.1-144.5c-0.4-1.5-0.2-3,0.6-4.3c0.8-1.3,2.1-2.2,3.5-2.5
				l155.3-33.5c2.8-0.6,5.6,1.1,6.4,3.9l41.1,144.5c0.4,1.5,0.2,3-0.6,4.3c-0.8,1.3-2.1,2.2-3.5,2.5l-155.3,33.5
				C2224.8,2448.7,2224.4,2448.8,2224.1,2448.8z M2189.8,2302.9l38.1,133.9l144.6-31.2l-38.1-133.9L2189.8,2302.9z M1322.7,2434.7
				c-2.4,0-4.6-1.6-5.3-4l-41.5-146c-0.4-1.5-0.2-3,0.6-4.3c0.8-1.3,2.1-2.2,3.5-2.5l155.3-33.5c2.8-0.6,5.6,1.1,6.4,3.9l41.5,146
				c0.4,1.5,0.2,3-0.6,4.3s-2.1,2.2-3.5,2.5l-155.3,33.5C1323.4,2434.6,1323.1,2434.7,1322.7,2434.7z M1288,2287.3l38.5,135.4
				l144.6-31.2l-38.5-135.4L1288,2287.3z M3336.8,2417.3c-2.4,0-4.6-1.6-5.3-4l-41.1-144.5c-0.4-1.5-0.2-3,0.6-4.3
				c0.8-1.3,2.1-2.2,3.5-2.5l155.3-33.5c2.8-0.6,5.6,1.1,6.4,3.9l41.1,144.5c0.4,1.5,0.2,3-0.6,4.3s-2.1,2.2-3.5,2.5l-155.3,33.5
				C3337.6,2417.2,3337.2,2417.3,3336.8,2417.3z M3302.6,2271.4l38.1,133.9l144.6-31.2l-38.1-133.9L3302.6,2271.4z M2435.4,2403.2
				c-2.4,0-4.6-1.6-5.3-4l-41.1-144.5c-0.4-1.5-0.2-3,0.6-4.3c0.8-1.3,2.1-2.2,3.5-2.5l155.3-33.5c2.8-0.6,5.6,1.1,6.4,3.9
				l41.1,144.5c0.4,1.5,0.2,3-0.6,4.3s-2.1,2.2-3.5,2.5l-155.3,33.5C2436.2,2403.1,2435.8,2403.2,2435.4,2403.2z M2401.2,2257.3
				l38.1,133.9l144.6-31.2l-38.1-133.9L2401.2,2257.3z M1534,2389.1c-2.4,0-4.6-1.6-5.3-4l-41.5-146c-0.4-1.5-0.2-3,0.6-4.3
				c0.8-1.3,2.1-2.2,3.5-2.5l155.3-33.5c2.8-0.6,5.6,1.1,6.4,3.9l41.5,146c0.4,1.5,0.2,3-0.6,4.3c-0.8,1.3-2.1,2.2-3.5,2.5
				l-155.3,33.5C1534.8,2389,1534.4,2389.1,1534,2389.1z M1499.4,2241.7l38.5,135.4l144.6-31.2l-38.5-135.4L1499.4,2241.7z
				 M2646.8,2357.5c-2.4,0-4.6-1.6-5.3-4l-41.1-144.5c-0.4-1.5-0.2-3,0.6-4.3s2.1-2.2,3.5-2.5l155.3-33.5c2.8-0.6,5.6,1.1,6.4,3.9
				l41.1,144.5c0.4,1.5,0.2,3-0.6,4.3c-0.8,1.3-2.1,2.2-3.5,2.5l-155.3,33.5C2647.6,2357.5,2647.2,2357.5,2646.8,2357.5z
				 M2612.5,2211.7l38.1,133.9l144.6-31.2l-38.1-133.9L2612.5,2211.7z M1745.4,2343.4c-2.4,0-4.6-1.6-5.3-4l-41.5-146
				c-0.4-1.5-0.2-3,0.6-4.3c0.8-1.3,2.1-2.2,3.5-2.5l155.3-33.5c2.8-0.6,5.6,1.1,6.4,3.9l41.5,146c0.4,1.5,0.2,3-0.6,4.3
				c-0.8,1.3-2.1,2.2-3.5,2.5l-155.3,33.5C1746.2,2343.4,1745.8,2343.4,1745.4,2343.4z M1710.7,2196.1l38.5,135.4l144.6-31.2
				l-38.5-135.4L1710.7,2196.1z M2858.1,2311.9c-2.4,0-4.6-1.6-5.3-4l-41.1-144.5c-0.4-1.5-0.2-3,0.6-4.3s2.1-2.2,3.5-2.5
				l155.3-33.5c2.8-0.6,5.6,1.1,6.4,3.9l41.1,144.5c0.4,1.5,0.2,3-0.6,4.3c-0.8,1.3-2.1,2.2-3.5,2.5l-155.3,33.5
				C2858.9,2311.9,2858.5,2311.9,2858.1,2311.9z M2823.9,2166L2862,2300l144.6-31.2l-38.1-133.9L2823.9,2166z M1956.8,2297.8
				c-2.4,0-4.6-1.6-5.3-4l-41.5-146c-0.4-1.5-0.2-3,0.6-4.3c0.8-1.3,2.1-2.2,3.5-2.5l155.3-33.5c2.8-0.6,5.6,1.1,6.4,3.9l41.5,146
				c0.4,1.5,0.2,3-0.6,4.3c-0.8,1.3-2.1,2.2-3.5,2.5l-155.3,33.5C1957.5,2297.7,1957.1,2297.8,1956.8,2297.8z M1922.1,2150.4
				l38.5,135.4l144.6-31.2l-38.5-135.4L1922.1,2150.4z M3069.5,2266.3c-2.4,0-4.6-1.6-5.3-4l-41.1-144.5c-0.4-1.5-0.2-3,0.6-4.3
				c0.8-1.3,2.1-2.2,3.5-2.5l155.3-33.5c2.8-0.6,5.6,1.1,6.4,3.9l41.1,144.5c0.4,1.5,0.2,3-0.6,4.3c-0.8,1.3-2.1,2.2-3.5,2.5
				l-155.3,33.5C3070.3,2266.2,3069.9,2266.3,3069.5,2266.3z M3035.3,2120.4l38.1,133.9l144.6-31.2l-38.1-133.9L3035.3,2120.4z
				 M2168.1,2252.2c-2.4,0-4.6-1.6-5.3-4l-41.5-146c-0.4-1.5-0.2-3,0.6-4.3c0.8-1.3,2.1-2.2,3.5-2.5l155.3-33.5
				c2.8-0.6,5.6,1.1,6.4,3.9l41.5,146c0.4,1.5,0.2,3-0.6,4.3c-0.8,1.3-2.1,2.2-3.5,2.5l-155.3,33.5
				C2168.9,2252.1,2168.5,2252.2,2168.1,2252.2z M2133.4,2104.8l38.5,135.4l144.6-31.2l-38.5-135.4L2133.4,2104.8z M1266.3,2236.6
				c-2.4,0-4.6-1.6-5.3-4l-41.1-144.5c-0.4-1.5-0.2-3,0.6-4.3c0.8-1.3,2.1-2.2,3.5-2.5l155.3-33.5c2.8-0.6,5.6,1.1,6.4,3.9
				l41.1,144.5c0.4,1.5,0.2,3-0.6,4.3c-0.8,1.3-2.1,2.2-3.5,2.5l-155.3,33.5C1267.1,2236.5,1266.7,2236.6,1266.3,2236.6z
				 M1232.1,2090.7l38.1,133.9l144.6-31.2l-38.1-133.9L1232.1,2090.7z M3280.9,2220.6c-2.4,0-4.6-1.6-5.3-4l-41.1-144.5
				c-0.4-1.5-0.2-3,0.6-4.3c0.8-1.3,2.1-2.2,3.5-2.5l155.3-33.5c2.8-0.6,5.6,1.1,6.4,3.9l41.1,144.5c0.4,1.5,0.2,3-0.6,4.3
				c-0.8,1.3-2.1,2.2-3.5,2.5l-155.3,33.5C3281.6,2220.6,3281.2,2220.6,3280.9,2220.6z M3246.6,2074.8l38.1,133.9l144.6-31.2
				l-38.1-133.9L3246.6,2074.8z M2379.5,2206.5c-2.4,0-4.6-1.6-5.3-4l-41.5-146c-0.4-1.5-0.2-3,0.6-4.3c0.8-1.3,2.1-2.2,3.5-2.5
				l155.3-33.5c2.8-0.6,5.6,1.1,6.4,3.9l41.5,146c0.4,1.5,0.2,3-0.6,4.3c-0.8,1.3-2.1,2.2-3.5,2.5l-155.3,33.5
				C2380.2,2206.5,2379.9,2206.5,2379.5,2206.5z M2344.8,2059.2l38.5,135.4l144.6-31.2l-38.5-135.4L2344.8,2059.2z M1477.7,2190.9
				c-2.4,0-4.6-1.6-5.3-4l-41.1-144.5c-0.4-1.5-0.2-3,0.6-4.3c0.8-1.3,2.1-2.2,3.5-2.5l155.3-33.5c2.8-0.6,5.6,1.1,6.4,3.9
				l41.1,144.5c0.4,1.5,0.2,3-0.6,4.3s-2.1,2.2-3.5,2.5l-155.3,33.5C1478.4,2190.9,1478,2190.9,1477.7,2190.9z M1443.4,2045.1
				l38.1,133.9l144.6-31.2l-38.1-133.9L1443.4,2045.1z M2590.8,2160.9c-2.4,0-4.6-1.6-5.3-4l-41.5-146c-0.4-1.5-0.2-3,0.6-4.3
				c0.8-1.3,2.1-2.2,3.5-2.5l155.3-33.5c2.8-0.6,5.6,1.1,6.4,3.9l41.5,146c0.4,1.5,0.2,3-0.6,4.3c-0.8,1.3-2.1,2.2-3.5,2.5
				l-155.3,33.5C2591.6,2160.9,2591.2,2160.9,2590.8,2160.9z M2556.2,2013.6l38.5,135.4l144.6-31.2l-38.5-135.4L2556.2,2013.6z
				 M1689,2145.3c-2.4,0-4.6-1.6-5.3-4l-41.1-144.5c-0.4-1.5-0.2-3,0.6-4.3c0.8-1.3,2.1-2.2,3.5-2.5l155.3-33.5
				c2.8-0.6,5.6,1.1,6.4,3.9l41.1,144.5c0.4,1.5,0.2,3-0.6,4.3c-0.8,1.3-2.1,2.2-3.5,2.5l-155.3,33.5
				C1689.8,2145.3,1689.4,2145.3,1689,2145.3z M1654.8,1999.4l38.1,133.9l144.6-31.2l-38.1-133.9L1654.8,1999.4z M2802.2,2115.3
				c-2.4,0-4.6-1.6-5.3-4l-41.5-146c-0.4-1.5-0.2-3,0.6-4.3c0.8-1.3,2.1-2.2,3.5-2.5l155.3-33.5c2.8-0.6,5.6,1.1,6.4,3.9l41.5,146
				c0.4,1.5,0.2,3-0.6,4.3c-0.8,1.3-2.1,2.2-3.5,2.5l-155.3,33.5C2803,2115.2,2802.6,2115.3,2802.2,2115.3z M2767.5,1967.9
				l38.5,135.4l144.6-31.2l-38.5-135.4L2767.5,1967.9z M1900.4,2099.7c-2.4,0-4.6-1.6-5.3-4l-41.1-144.5c-0.4-1.5-0.2-3,0.6-4.3
				c0.8-1.3,2.1-2.2,3.5-2.5l155.3-33.5c2.8-0.6,5.6,1.1,6.4,3.9l41.1,144.5c0.4,1.5,0.2,3-0.6,4.3c-0.8,1.3-2.1,2.2-3.5,2.5
				l-155.3,33.5C1901.2,2099.6,1900.8,2099.7,1900.4,2099.7z M1866.1,1953.8l38.1,133.9l144.6-31.2l-38.1-133.9L1866.1,1953.8z
				 M3013.5,2069.6c-2.4,0-4.6-1.6-5.3-4l-41.5-146c-0.4-1.5-0.2-3,0.6-4.3c0.8-1.3,2.1-2.2,3.5-2.5l155.3-33.5
				c2.8-0.6,5.6,1.1,6.4,3.9l41.5,146c0.4,1.5,0.2,3-0.6,4.3c-0.8,1.3-2.1,2.2-3.5,2.5l-155.3,33.5
				C3014.3,2069.6,3013.9,2069.6,3013.5,2069.6z M2978.9,1922.3l38.5,135.4l144.6-31.2l-38.5-135.4L2978.9,1922.3z M2111.7,2054
				c-2.4,0-4.6-1.6-5.3-4l-41.1-144.5c-0.4-1.5-0.2-3,0.6-4.3c0.8-1.3,2.1-2.2,3.5-2.5l155.3-33.5c2.8-0.6,5.6,1.1,6.4,3.9
				l41.1,144.5c0.4,1.5,0.2,3-0.6,4.3c-0.8,1.3-2.1,2.2-3.5,2.5l-155.3,33.5C2112.5,2054,2112.1,2054,2111.7,2054z M2077.5,1908.2
				l38.1,133.9l144.6-31.2l-38.1-133.9L2077.5,1908.2z M1210.4,2039.9c-2.4,0-4.6-1.6-5.3-4l-41.1-144.5c-0.4-1.5-0.2-3,0.6-4.3
				c0.8-1.3,2.1-2.2,3.5-2.5l155.3-33.5c2.8-0.6,5.6,1.1,6.4,3.9l41.1,144.5c0.4,1.5,0.2,3-0.6,4.3c-0.8,1.3-2.1,2.2-3.5,2.5
				l-155.3,33.5C1211.1,2039.9,1210.7,2039.9,1210.4,2039.9z M1176.1,1894.1l38.1,133.9l144.6-31.2l-38.1-133.9L1176.1,1894.1z
				 M3224.9,2024c-2.4,0-4.6-1.6-5.3-4l-41.5-146c-0.4-1.5-0.2-3,0.6-4.3c0.8-1.3,2.1-2.2,3.5-2.5l155.3-33.5
				c2.8-0.6,5.6,1.1,6.4,3.9l41.5,146c0.4,1.5,0.2,3-0.6,4.3c-0.8,1.3-2.1,2.2-3.5,2.5l-155.3,33.5
				C3225.7,2024,3225.3,2024,3224.9,2024z M3190.2,1876.7l38.5,135.4l144.6-31.2l-38.5-135.4L3190.2,1876.7z M2323.1,2008.4
				c-2.4,0-4.6-1.6-5.3-4l-41.1-144.5c-0.4-1.5-0.2-3,0.6-4.3c0.8-1.3,2.1-2.2,3.5-2.5l155.3-33.5c2.8-0.6,5.6,1.1,6.4,3.9
				l41.1,144.5c0.4,1.5,0.2,3-0.6,4.3c-0.8,1.3-2.1,2.2-3.5,2.5l-155.3,33.5C2323.9,2008.4,2323.5,2008.4,2323.1,2008.4z
				 M2288.9,1862.6l38.1,133.9l144.6-31.2l-38.1-133.9L2288.9,1862.6z M1421.7,1994.3c-2.4,0-4.6-1.6-5.3-4l-41.1-144.5
				c-0.4-1.5-0.2-3,0.6-4.3c0.8-1.3,2.1-2.2,3.5-2.5l155.3-33.5c2.8-0.6,5.6,1.1,6.4,3.9l41.1,144.5c0.4,1.5,0.2,3-0.6,4.3
				c-0.8,1.3-2.1,2.2-3.5,2.5l-155.3,33.5C1422.5,1994.3,1422.1,1994.3,1421.7,1994.3z M1387.5,1848.4l38.1,133.9l144.6-31.2
				l-38.1-133.9L1387.5,1848.4z M2534.5,1962.8c-2.4,0-4.6-1.6-5.3-4l-41.1-144.5c-0.4-1.5-0.2-3,0.6-4.3c0.8-1.3,2.1-2.2,3.5-2.5
				l155.3-33.5c2.8-0.6,5.6,1.1,6.4,3.9l41.1,144.5c0.4,1.5,0.2,3-0.6,4.3c-0.8,1.3-2.1,2.2-3.5,2.5l-155.3,33.5
				C2535.2,1962.7,2534.8,1962.8,2534.5,1962.8z M2500.2,1816.9l38.1,133.9l144.6-31.2l-38.1-133.9L2500.2,1816.9z M1633.1,1948.7
				c-2.4,0-4.6-1.6-5.3-4l-41.1-144.5c-0.4-1.5-0.2-3,0.6-4.3c0.8-1.3,2.1-2.2,3.5-2.5l155.3-33.5c2.8-0.6,5.6,1.1,6.4,3.9
				l41.1,144.5c0.4,1.5,0.2,3-0.6,4.3c-0.8,1.3-2.1,2.2-3.5,2.5l-155.3,33.5C1633.8,1948.6,1633.5,1948.7,1633.1,1948.7z
				 M1598.8,1802.8l38.1,133.9l144.6-31.2l-38.1-133.9L1598.8,1802.8z M2745.8,1917.1c-2.4,0-4.6-1.6-5.3-4l-41.1-144.5
				c-0.4-1.5-0.2-3,0.6-4.3c0.8-1.3,2.1-2.2,3.5-2.5l155.3-33.5c2.8-0.6,5.6,1.1,6.4,3.9l41.1,144.5c0.4,1.5,0.2,3-0.6,4.3
				c-0.8,1.3-2.1,2.2-3.5,2.5L2747,1917C2746.6,1917.1,2746.2,1917.1,2745.8,1917.1z M2711.6,1771.3l38.1,133.9l144.6-31.2
				l-38.1-133.9L2711.6,1771.3z M1844.4,1903c-2.4,0-4.6-1.6-5.3-4l-41.1-144.5c-0.4-1.5-0.2-3,0.6-4.3c0.8-1.3,2.1-2.2,3.5-2.5
				l155.3-33.5c2.8-0.6,5.6,1.1,6.4,3.9l41.1,144.5c0.4,1.5,0.2,3-0.6,4.3c-0.8,1.3-2.1,2.2-3.5,2.5l-155.3,33.5
				C1845.2,1903,1844.8,1903,1844.4,1903z M1810.2,1757.2l38.1,133.9l144.6-31.2l-38.1-133.9L1810.2,1757.2z M2957.2,1871.5
				c-2.4,0-4.6-1.6-5.3-4l-41.1-144.5c-0.4-1.5-0.2-3,0.6-4.3c0.8-1.3,2.1-2.2,3.5-2.5l155.3-33.5c2.8-0.6,5.6,1.1,6.4,3.9
				l41.1,144.5c0.4,1.5,0.2,3-0.6,4.3c-0.8,1.3-2.1,2.2-3.5,2.5l-155.3,33.5C2957.9,1871.5,2957.6,1871.5,2957.2,1871.5z
				 M2922.9,1725.7l38.1,133.9l144.6-31.2l-38.1-133.9L2922.9,1725.7z M2055.8,1857.4c-2.4,0-4.6-1.6-5.3-4l-41.1-144.5
				c-0.4-1.5-0.2-3,0.6-4.3c0.8-1.3,2.1-2.2,3.5-2.5l155.3-33.5c2.8-0.6,5.6,1.1,6.4,3.9l41.1,144.5c0.4,1.5,0.2,3-0.6,4.3
				c-0.8,1.3-2.1,2.2-3.5,2.5l-155.3,33.5C2056.6,1857.4,2056.2,1857.4,2055.8,1857.4z M2021.5,1711.6l38.1,133.9l144.6-31.2
				l-38.1-133.9L2021.5,1711.6z M3168.5,1825.9c-2.4,0-4.6-1.6-5.3-4l-41.1-144.5c-0.4-1.5-0.2-3,0.6-4.3c0.8-1.3,2.1-2.2,3.5-2.5
				l155.3-33.5c2.8-0.6,5.6,1.1,6.4,3.9l41.1,144.5c0.4,1.5,0.2,3-0.6,4.3c-0.8,1.3-2.1,2.2-3.5,2.5l-155.3,33.5
				C3169.3,1825.8,3168.9,1825.9,3168.5,1825.9z M3134.3,1680l38.1,133.9l144.6-31.2l-38.1-133.9L3134.3,1680z M2267.2,1811.8
				c-2.4,0-4.6-1.6-5.3-4l-41.1-144.5c-0.4-1.5-0.2-3,0.6-4.3c0.8-1.3,2.1-2.2,3.5-2.5l155.3-33.5c2.8-0.6,5.6,1.1,6.4,3.9
				l41.1,144.5c0.4,1.5,0.2,3-0.6,4.3c-0.8,1.3-2.1,2.2-3.5,2.5l-155.3,33.5C2267.9,1811.7,2267.5,1811.8,2267.2,1811.8z
				 M2232.9,1665.9l38.1,133.9l144.6-31.2l-38.1-133.9L2232.9,1665.9z M2478.5,1766.1c-2.4,0-4.6-1.6-5.3-4l-41.1-144.5
				c-0.4-1.5-0.2-3,0.6-4.3c0.8-1.3,2.1-2.2,3.5-2.5l155.3-33.5c2.8-0.6,5.6,1.1,6.4,3.9l41.1,144.5c0.4,1.5,0.2,3-0.6,4.3
				c-0.8,1.3-2.1,2.2-3.5,2.5l-155.3,33.5C2479.3,1766.1,2478.9,1766.1,2478.5,1766.1z M2444.3,1620.3l38.1,133.9L2627,1723
				l-38.1-133.9L2444.3,1620.3z M2689.9,1720.5c-2.4,0-4.6-1.6-5.3-4l-41.1-144.5c-0.4-1.5-0.2-3,0.6-4.3c0.8-1.3,2.1-2.2,3.5-2.5
				l155.3-33.5c2.8-0.6,5.6,1.1,6.4,3.9l41.1,144.5c0.4,1.5,0.2,3-0.6,4.3c-0.8,1.3-2.1,2.2-3.5,2.5l-155.3,33.5
				C2690.6,1720.5,2690.3,1720.5,2689.9,1720.5z M2655.6,1574.7l38.1,133.9l144.6-31.2l-38.1-133.9L2655.6,1574.7z M2901.2,1674.9
				c-2.4,0-4.6-1.6-5.3-4l-41.1-144.5c-0.4-1.5-0.2-3,0.6-4.3c0.8-1.3,2.1-2.2,3.5-2.5l155.3-33.5c2.8-0.6,5.6,1.1,6.4,3.9
				l41.1,144.5c0.4,1.5,0.2,3-0.6,4.3c-0.8,1.3-2.1,2.2-3.5,2.5l-155.3,33.5C2902,1674.8,2901.6,1674.9,2901.2,1674.9z M2867,1529
				l38.1,133.9l144.6-31.2l-38.1-133.9L2867,1529z M3112.6,1629.2c-2.4,0-4.6-1.6-5.3-4l-41.1-144.5c-0.4-1.5-0.2-3,0.6-4.3
				c0.8-1.3,2.1-2.2,3.5-2.5l155.3-33.5c2.8-0.6,5.6,1.1,6.4,3.9l41.1,144.5c0.4,1.5,0.2,3-0.6,4.3c-0.8,1.3-2.1,2.2-3.5,2.5
				l-155.3,33.5C3113.4,1629.2,3113,1629.2,3112.6,1629.2z M3078.3,1483.4l38.1,133.9l144.6-31.2l-38.1-133.9L3078.3,1483.4z"/>
		</g>
		<path class="st6" d="M2549,1666c-146-92-233.7,1651.3-783,1756.5c323,454.7,794.2,203.2,794.2,203.2L2826.5,1666H2549z"/>
	</g>
	<g>
		<path class="st7" d="M2606.3,1918.3c-41.3-52.9-93.3-31-119.2,0c-30.2,36.1-50.4,74.3-69.9,102c-30.7,43.7-59.4,61.8-121.9,6.3
			c-101.8-90.5-214.8-192.1-339.7-54.4c-54.9,60.6-70.4,130.5-54.2,210.5c12.5,61.7,66.5,154.1,15.8,212.8
			c-35.7,41.2-99,37.4-132.4-3.9c-59.7-73.8,11-185.3,20.6-262.4c6.1-49.2,2.2-136.6-60.8-150.1c-85.4-18.3-76,91-77,141.1
			c-1.1,61.3-44.2,158.7-116.4,92.8c-57-52-22.6-123.3-6.2-182.1c8-28.7-15.6-77.2-63.5-46.8c-40.9,25.9-176-46.6-140.4-276.1
			c144.3,237.4,761.6,200.8,997.4,15.4c21-16.5,50.7-46.4,70.1-67.3c144.6-155.6,241.9-419.9,244.2-603c0-2.2,0-4.3,0-6.4
			c0.6,0.9,1.1,1.7,1.7,2.6C2891.2,1407.3,2777.8,2138.3,2606.3,1918.3z"/>
		<path class="st8" d="M1827.4,2217.8c-0.2-7.6-10.7-9.1-13-1.9c-29.1,91.2-33.8,172.8,14,172.4
			C1851.5,2388.1,1829.2,2305.2,1827.4,2217.8z"/>
		<path class="st8" d="M1569.5,2102.7c1-4.3-5.5-6.3-7.6-2.3c-29.3,56.4-3.9,106.3,14.4,92.4
			C1600,2174.9,1558.2,2152.5,1569.5,2102.7z"/>
		<path class="st1" d="M1363.5,1773.8c13.2-66.7,69.8-12.6,82.4-15.3c128.4-27.7,112.2-34.4,166.9-42.6c49.6-7.4,640.6-53,729-99.6
			c3.4,16.9,62.8,66.8-34.5,132.6c-73,49.4-178.7,106.5-322.1,115.7c-93.3,6-81,58.1-146.3,59.9c-52,1.5-76.7-90.7-141.2-31.3
			c-56.7,52.2-70,127-113.9,104.9c-36.1-18.2-36.2-136.3-104.2-109C1444.5,1903.3,1338.3,1901.3,1363.5,1773.8z"/>
		<path class="st7" d="M1346.1,1750.9c20.1,26.6,107.8,54.7,152.6,41.2c59.3-17.9-89.3,10.9-154.9-79.7
			C1330.3,1736.3,1346.1,1750.9,1346.1,1750.9z"/>
	</g>
	<path class="st9" d="M2606.3,1918.3c-44.3-50.4-93.3-31-119.2,0c-30.2,36.1-47.3,72.2-65.9,96.2c50-86.4,9.2-172.3,165.7-235.5
		c107.6-43.4,175.8-162.7,192-358.2C2809.9,1616.4,2772.9,2107.8,2606.3,1918.3z"/>
</g>
</svg>
