<svg width="35" height="800" viewBox="0 0 35 800" fill="none" xmlns="http://www.w3.org/2000/svg">
<mask id="mask0" mask-type="alpha" maskUnits="userSpaceOnUse" x="0" y="0" width="35" height="800">
<rect width="35" height="800" fill="#C4C4C4"/>
</mask>
<g mask="url(#mask0)">
<mask id="mask1" mask-type="alpha" maskUnits="userSpaceOnUse" x="0" y="622" width="26" height="48">
<rect y="622" width="26" height="48" fill="#C4C4C4"/>
</mask>
<g mask="url(#mask1)">
<path d="M26 646.007C26 659.388 15.3847 670 2 670C-11.3847 670 -22 659.388 -22 646.007C-22 632.627 -11.3847 622.014 2 622.014C15.3847 621.553 26 632.627 26 646.007Z" fill="url(#paint0_radial)"/>
</g>
<mask id="mask2" mask-type="alpha" maskUnits="userSpaceOnUse" x="0" y="254" width="35" height="52">
<rect y="254" width="35" height="52" fill="#C4C4C4"/>
</mask>
<g mask="url(#mask2)">
<path d="M35 280.008C35 294.504 23.5001 306 9 306C-5.50014 306 -17 294.504 -17 280.008C-17 265.512 -5.50014 254.015 9 254.015C23.5001 253.515 35 265.512 35 280.008Z" fill="url(#paint1_radial)"/>
</g>
</g>
<defs>
<radialGradient id="paint0_radial" cx="0" cy="0" r="1" gradientUnits="userSpaceOnUse" gradientTransform="translate(2 646) rotate(90) scale(24)">
<stop offset="0.180208" stop-color="#00FF47"/>
<stop offset="0.648958" stop-color="#00C2FF" stop-opacity="0"/>
</radialGradient>
<radialGradient id="paint1_radial" cx="0" cy="0" r="1" gradientUnits="userSpaceOnUse" gradientTransform="translate(9 280) rotate(90) scale(26)">
<stop offset="0.482292" stop-color="#554B92"/>
<stop offset="1" stop-color="#554B92" stop-opacity="0"/>
</radialGradient>
</defs>
</svg>
