<svg width="312" height="311" viewBox="0 0 312 311" fill="none" xmlns="http://www.w3.org/2000/svg">
<g filter="url(#filter0_f)">
<ellipse cx="155.979" cy="155.263" rx="74.5208" ry="73.7374" fill="#0B081F"/>
</g>
<path d="M153.976 33.0677C155.85 31.9972 158.15 31.9972 160.024 33.0677L236.766 76.9092C238.666 77.9944 239.838 80.0145 239.838 82.2024V169.737C239.838 171.925 238.666 173.945 236.766 175.03L160.024 218.872C158.15 219.942 155.85 219.942 153.976 218.872L77.2337 175.03C75.334 173.945 74.1615 171.925 74.1615 169.737V82.2024C74.1615 80.0145 75.334 77.9944 77.2337 76.9092L153.976 33.0677Z" stroke="url(#paint0_linear)" stroke-width="4.06404"/>
<path d="M152.968 35.3437C155.467 33.9164 158.534 33.9164 161.032 35.3437L234.238 77.165C236.771 78.612 238.334 81.3054 238.334 84.2226V167.717C238.334 170.634 236.771 173.327 234.238 174.774L161.032 216.596C158.534 218.023 155.467 218.023 152.968 216.596L79.7622 174.774C77.2292 173.327 75.6659 170.634 75.6659 167.717V84.2226C75.6659 81.3054 77.2292 78.612 79.7622 77.165L152.968 35.3437Z" fill="url(#paint1_linear)"/>
<g filter="url(#filter1_d)">
<path d="M152.968 41.4044C155.467 39.9771 158.534 39.9771 161.032 41.4044L228.934 80.1953C231.467 81.6424 233.03 84.3358 233.03 87.2529V164.687C233.03 167.604 231.467 170.297 228.934 171.744L161.032 210.535C158.534 211.962 155.467 211.962 152.968 210.535L85.0666 171.744C82.5336 170.297 80.9704 167.604 80.9704 164.687V87.2529C80.9704 84.3358 82.5336 81.6424 85.0666 80.1953L152.968 41.4044Z" fill="url(#paint2_linear)"/>
</g>
<g filter="url(#filter2_i)">
<path d="M152.968 55.5458C155.467 54.1185 158.533 54.1185 161.032 55.5458L216.557 87.266C219.09 88.713 220.653 91.4064 220.653 94.3236V157.616C220.653 160.533 219.09 163.226 216.557 164.673L161.032 196.394C158.533 197.821 155.467 197.821 152.968 196.394L97.4433 164.673C94.9104 163.226 93.3471 160.533 93.3471 157.616V94.3236C93.3471 91.4064 94.9104 88.713 97.4433 87.266L152.968 55.5458Z" fill="url(#paint3_linear)"/>
</g>
<path d="M152.968 63.6266C155.466 62.1993 158.533 62.1993 161.032 63.6266L209.484 91.3064C212.017 92.7534 213.58 95.4468 213.58 98.364V153.575C213.58 156.493 212.017 159.186 209.484 160.633L161.032 188.313C158.533 189.74 155.466 189.74 152.968 188.313L104.516 160.633C101.983 159.186 100.42 156.493 100.42 153.575V98.364C100.42 95.4468 101.983 92.7534 104.516 91.3064L152.968 63.6266Z" fill="url(#paint4_linear)"/>
<g filter="url(#filter3_i)">
<path d="M166.086 156.162C166.021 158.047 165.306 159.641 163.94 160.941C162.575 162.241 160.949 162.859 159.064 162.794C157.178 162.729 155.585 162.014 154.284 160.648C152.984 159.283 152.366 157.657 152.431 155.772C152.626 149.529 152.626 136.784 152.431 117.537L147.554 120.756C145.994 121.796 144.271 122.154 142.385 121.829C140.564 121.439 139.134 120.463 138.093 118.903C137.053 117.342 136.695 115.651 137.02 113.831C137.41 111.945 138.386 110.482 139.946 109.441L142.97 107.491C144.075 106.775 144.791 106.32 145.116 106.125C145.441 105.865 145.896 105.508 146.481 105.052C147.067 104.532 147.554 104.012 147.944 103.492L149.407 101.443C149.798 101.053 149.993 100.273 149.993 99.1026C150.448 97.4119 151.066 96.0464 151.846 95.006C153.732 92.5351 156.203 91.3972 159.259 91.5922C161.665 91.7873 163.485 92.9252 164.721 95.006C164.981 95.5262 165.208 96.0789 165.404 96.6642C165.469 96.9893 165.534 97.3794 165.599 97.8346C165.664 98.2898 165.729 98.81 165.794 99.3952C165.859 100.371 165.891 101.736 165.891 103.492C165.956 106.028 166.021 109.702 166.086 114.513C166.216 137.922 166.216 151.805 166.086 156.162Z" fill="url(#paint5_linear)"/>
</g>
<g opacity="0.4" filter="url(#filter4_f)">
<ellipse rx="21.3582" ry="3.04171" transform="matrix(0.807289 -0.590156 0.598281 0.801286 151.562 104.648)" fill="white"/>
</g>
<g opacity="0.4" filter="url(#filter5_f)">
<ellipse cx="159.041" cy="129" rx="27.2727" ry="2.04167" transform="rotate(-90 159.041 129)" fill="white"/>
</g>
<g opacity="0.6" filter="url(#filter6_f)">
<ellipse rx="27.4903" ry="2.02559" transform="matrix(0.868299 -0.496042 0.503968 0.863722 177.808 193.881)" fill="white"/>
</g>
<g opacity="0.2" filter="url(#filter7_f)">
<ellipse rx="27.4903" ry="19.2512" transform="matrix(0.868299 -0.496042 0.503968 0.863722 149.738 67.3449)" fill="white"/>
</g>
<defs>
<filter id="filter0_f" x="0.177711" y="0.244484" width="311.603" height="310.036" filterUnits="userSpaceOnUse" color-interpolation-filters="sRGB">
<feFlood flood-opacity="0" result="BackgroundImageFix"/>
<feBlend mode="normal" in="SourceGraphic" in2="BackgroundImageFix" result="shape"/>
<feGaussianBlur stdDeviation="40.6404" result="effect1_foregroundBlur"/>
</filter>
<filter id="filter1_d" x="72.8423" y="40.3339" width="168.316" height="187.528" filterUnits="userSpaceOnUse" color-interpolation-filters="sRGB">
<feFlood flood-opacity="0" result="BackgroundImageFix"/>
<feColorMatrix in="SourceAlpha" type="matrix" values="0 0 0 0 0 0 0 0 0 0 0 0 0 0 0 0 0 0 127 0"/>
<feOffset dy="8.12808"/>
<feGaussianBlur stdDeviation="4.06404"/>
<feColorMatrix type="matrix" values="0 0 0 0 0 0 0 0 0 0 0 0 0 0 0 0 0 0 0.25 0"/>
<feBlend mode="normal" in2="BackgroundImageFix" result="effect1_dropShadow"/>
<feBlend mode="normal" in="SourceGraphic" in2="effect1_dropShadow" result="shape"/>
</filter>
<filter id="filter2_i" x="93.3472" y="54.4752" width="127.306" height="151.117" filterUnits="userSpaceOnUse" color-interpolation-filters="sRGB">
<feFlood flood-opacity="0" result="BackgroundImageFix"/>
<feBlend mode="normal" in="SourceGraphic" in2="BackgroundImageFix" result="shape"/>
<feColorMatrix in="SourceAlpha" type="matrix" values="0 0 0 0 0 0 0 0 0 0 0 0 0 0 0 0 0 0 127 0" result="hardAlpha"/>
<feOffset dy="8.12808"/>
<feGaussianBlur stdDeviation="4.06404"/>
<feComposite in2="hardAlpha" operator="arithmetic" k2="-1" k3="1"/>
<feColorMatrix type="matrix" values="0 0 0 0 0 0 0 0 0 0 0 0 0 0 0 0 0 0 0.25 0"/>
<feBlend mode="normal" in2="shape" result="effect1_innerShadow"/>
</filter>
<filter id="filter3_i" x="136.904" y="91.5708" width="29.2797" height="79.3561" filterUnits="userSpaceOnUse" color-interpolation-filters="sRGB">
<feFlood flood-opacity="0" result="BackgroundImageFix"/>
<feBlend mode="normal" in="SourceGraphic" in2="BackgroundImageFix" result="shape"/>
<feColorMatrix in="SourceAlpha" type="matrix" values="0 0 0 0 0 0 0 0 0 0 0 0 0 0 0 0 0 0 127 0" result="hardAlpha"/>
<feOffset dy="8.12808"/>
<feGaussianBlur stdDeviation="4.06404"/>
<feComposite in2="hardAlpha" operator="arithmetic" k2="-1" k3="1"/>
<feColorMatrix type="matrix" values="0 0 0 0 0 0 0 0 0 0 0 0 0 0 0 0 0 0 0.25 0"/>
<feBlend mode="normal" in2="shape" result="effect1_innerShadow"/>
</filter>
<filter id="filter4_f" x="126.094" y="83.6794" width="50.935" height="41.9372" filterUnits="userSpaceOnUse" color-interpolation-filters="sRGB">
<feFlood flood-opacity="0" result="BackgroundImageFix"/>
<feBlend mode="normal" in="SourceGraphic" in2="BackgroundImageFix" result="shape"/>
<feGaussianBlur stdDeviation="4.06404" result="effect1_foregroundBlur"/>
</filter>
<filter id="filter5_f" x="148.871" y="93.5992" width="20.3395" height="70.8016" filterUnits="userSpaceOnUse" color-interpolation-filters="sRGB">
<feFlood flood-opacity="0" result="BackgroundImageFix"/>
<feBlend mode="normal" in="SourceGraphic" in2="BackgroundImageFix" result="shape"/>
<feGaussianBlur stdDeviation="4.06404" result="effect1_foregroundBlur"/>
</filter>
<filter id="filter6_f" x="145.788" y="172.003" width="64.0403" height="43.7554" filterUnits="userSpaceOnUse" color-interpolation-filters="sRGB">
<feFlood flood-opacity="0" result="BackgroundImageFix"/>
<feBlend mode="normal" in="SourceGraphic" in2="BackgroundImageFix" result="shape"/>
<feGaussianBlur stdDeviation="4.06404" result="effect1_foregroundBlur"/>
</filter>
<filter id="filter7_f" x="103.645" y="25.5198" width="92.1864" height="83.6501" filterUnits="userSpaceOnUse" color-interpolation-filters="sRGB">
<feFlood flood-opacity="0" result="BackgroundImageFix"/>
<feBlend mode="normal" in="SourceGraphic" in2="BackgroundImageFix" result="shape"/>
<feGaussianBlur stdDeviation="10.1601" result="effect1_foregroundBlur"/>
</filter>
<linearGradient id="paint0_linear" x1="157" y1="29" x2="157" y2="222.939" gradientUnits="userSpaceOnUse">
<stop stop-color="#FFB052"/>
<stop offset="1" stop-color="#FFA34E"/>
</linearGradient>
<linearGradient id="paint1_linear" x1="157" y1="33.0404" x2="157" y2="218.899" gradientUnits="userSpaceOnUse">
<stop stop-color="#FF9317"/>
<stop offset="1" stop-color="#FF9B25"/>
</linearGradient>
<linearGradient id="paint2_linear" x1="157.02" y1="212.862" x2="157.02" y2="39.1408" gradientUnits="userSpaceOnUse">
<stop stop-color="#E07F0D"/>
<stop offset="1" stop-color="#FFF076"/>
</linearGradient>
<linearGradient id="paint3_linear" x1="157" y1="53.2424" x2="157" y2="198.697" gradientUnits="userSpaceOnUse">
<stop stop-color="#FF8A00"/>
<stop offset="1" stop-color="#9F4E02"/>
</linearGradient>
<linearGradient id="paint4_linear" x1="157.015" y1="190.634" x2="157.015" y2="61.3528" gradientUnits="userSpaceOnUse">
<stop stop-color="#E29602"/>
<stop offset="1" stop-color="#FFE93B"/>
</linearGradient>
<linearGradient id="paint5_linear" x1="153.938" y1="69.4041" x2="153.938" y2="160.313" gradientUnits="userSpaceOnUse">
<stop stop-color="#FF8A00"/>
<stop offset="1" stop-color="#9F4E02"/>
</linearGradient>
</defs>
</svg>
