<svg width="164" height="164" viewBox="0 0 164 164" fill="none" xmlns="http://www.w3.org/2000/svg">
<mask id="mask0" mask-type="alpha" maskUnits="userSpaceOnUse" x="0" y="0" width="164" height="164">
<rect width="164" height="164" fill="#C4C4C4"/>
</mask>
<g mask="url(#mask0)">
<path d="M126.05 105.943C122.789 111.562 118.488 116.557 113.215 120.65C111.897 121.656 110.544 122.628 109.122 123.495C107.284 124.674 105.376 125.715 103.364 126.651C96.1491 129.981 88.5179 131.473 81.0948 131.334C72.0414 131.161 63.2308 128.559 55.5648 123.911C52.3736 121.968 49.3558 119.644 46.6155 117.008C42.1755 112.742 38.464 107.573 35.7583 101.642C34.8218 99.6298 34.024 97.5485 33.3996 95.502C32.0121 91.0273 31.249 86.4833 31.1102 81.9739C30.9368 76.7361 31.5959 71.4983 32.9834 66.5033C34.4749 61.1268 36.8683 55.993 40.0596 51.3796C42.8346 47.3212 46.2339 43.6443 50.1536 40.4531C51.8533 39.1003 53.657 37.8168 55.5302 36.6721C57.1952 35.6662 58.9295 34.7296 60.7333 33.8971C83.4535 23.4215 109.92 31.0875 123.795 50.9287C125.529 53.3915 127.056 56.0624 128.374 58.9068C129.033 60.3636 129.622 61.8552 130.177 63.3468C135.207 77.8461 133.334 93.3514 126.05 105.943Z" fill="url(#paint0_linear)"/>
<path d="M77.3841 113.054C74.7479 114.719 72.1117 116.349 69.4754 118.014C70.4814 116.731 71.4179 115.343 72.2504 113.956C72.5279 113.505 72.8054 113.019 72.7013 112.499C72.5973 112.013 72.181 111.666 71.7648 111.354C66.5617 107.504 60.3526 105.006 53.9355 104.209C53.4498 107.677 53.2417 111.181 53.3805 114.684C53.4845 117.875 53.9355 121.205 55.5311 123.876C52.3398 121.934 49.322 119.61 46.5817 116.973C46.5471 116.765 46.5123 116.592 46.4777 116.418C45.6105 110.66 45.1596 104.833 45.1942 99.0054C55.2883 99.8379 65.8679 101.642 73.742 107.989C75.3723 109.342 76.9332 110.973 77.3841 113.054Z" fill="url(#paint1_linear)"/>
<path d="M109.089 123.495C107.25 124.674 105.342 125.715 103.331 126.651C96.1156 129.981 88.4843 131.473 81.0612 131.334C83.1425 129.079 85.1197 126.721 86.9234 124.258C87.6865 123.183 88.4843 122.038 88.6925 120.72C88.9006 119.402 88.5537 118.083 88.1721 116.8C85.6053 108.267 81.2347 100.324 75.4766 93.5248C74.5747 92.4842 73.6381 91.4436 72.4241 90.8539C71.4181 90.3682 70.3081 90.1601 69.1981 90.0214C58.6879 88.6339 48.1082 90.611 38.1182 93.837C36.5226 94.3573 34.927 94.9123 33.3314 95.502C31.9439 91.0273 31.1807 86.4833 31.042 81.9739C31.5276 81.8698 32.0133 81.8005 32.4642 81.7311C35.8636 81.2108 39.3323 81.2802 42.7664 81.2108C51.2995 81.072 59.7632 80.1702 68.2269 79.2336C70.1694 79.0255 72.1466 78.8173 74.0891 78.6092C75.8928 78.4011 78.4597 77.638 80.194 77.9849C83.2812 78.5399 84.7728 81.9739 86.4378 84.2286C88.415 86.9342 89.7678 90.0907 91.2593 93.1086C94.6587 99.9073 98.1621 106.671 102.776 112.707C104.51 114.996 106.452 117.182 107.736 119.748C108.464 120.963 108.915 122.281 109.089 123.495Z" fill="url(#paint2_linear)"/>
<path d="M126.049 105.943C122.788 111.562 118.487 116.557 113.214 120.65C113.145 104.972 113.076 89.2582 113.006 73.5795C113.006 72.8164 112.972 71.9839 112.555 71.2901C112.208 70.7351 111.584 70.3883 111.029 70.0761C103.329 66.0177 94.622 64.2833 85.9848 63.208C68.2942 61.0574 50.0487 61.5777 32.9131 66.4339C34.4046 61.0574 36.7981 55.9236 39.9893 51.3102C51.5055 52.4549 63.1605 51.9693 74.6767 53.0446C88.4823 54.2933 101.976 57.7967 115.4 61.2308C117.758 61.8552 120.187 62.4795 122.372 63.5548C123.239 63.9711 124.106 64.5261 124.661 65.3586C125.216 66.1911 125.286 67.2664 125.39 68.2723C126.396 80.7945 126.604 93.386 126.049 105.943Z" fill="url(#paint3_linear)"/>
<path d="M130.073 63.3467C128.651 62.4449 127.159 61.6124 125.633 60.8493C123.032 59.6005 120.326 58.5599 117.724 57.2765C115.227 56.0277 112.834 54.5361 110.44 53.0446C104.647 49.4371 98.8545 45.8296 93.0617 42.1874C92.8189 42.0487 92.5761 41.8752 92.3333 41.7365C90.1827 40.3837 87.9974 39.0309 85.5346 38.3371C82.5514 37.5046 79.4296 37.7128 76.3424 37.9209C67.5665 38.6146 58.7906 39.4124 50.0146 40.3837C51.7143 39.0309 53.5181 37.7474 55.3912 36.6028H55.4606C58.964 36.5334 62.4674 36.2906 65.9709 35.9784C72.8736 35.354 79.8111 34.0706 86.7139 34.5909C88.587 34.7296 90.3561 35.5275 92.0905 36.2906C95.0736 37.6087 98.0567 38.9615 101.04 40.2796C107.7 43.2627 114.325 46.2459 120.846 49.4371C121.783 49.888 122.719 50.3737 123.656 50.8246C125.39 53.2874 126.917 55.9583 128.235 58.8027C128.963 60.3636 129.553 61.8552 130.073 63.3467Z" fill="url(#paint4_linear)"/>
<path d="M91.8826 60.3983C62.4677 45.6909 34.2669 35.4928 18.276 33.8278C14.8766 33.4809 4.50507 32.4056 0.89758 39.6899C-4.09741 49.6799 12.5525 64.4567 31.0756 76.8055C31.7694 71.2208 32.5672 67.752 33.9547 63.1039C23.0628 55.5421 16.9578 49.9574 14.1135 46.3152C14.8766 46.3152 15.8132 46.3846 16.9578 46.4887C31.2837 47.9802 58.4787 57.9008 86.1939 71.7758C123.552 90.4723 144.261 106.949 149.845 114.129C149.082 114.129 148.146 114.06 147.001 113.956C141.208 113.366 133.716 111.493 124.489 108.406C122.373 111.493 115.886 118.534 115.262 118.916C127.645 123.356 137.843 125.853 145.683 126.651C149.082 126.998 159.454 128.073 163.061 120.789C172.288 102.37 110.926 69.9027 91.8826 60.3983Z" fill="url(#paint5_linear)"/>
</g>
<defs>
<linearGradient id="paint0_linear" x1="40.2814" y1="114.112" x2="128.687" y2="42.3627" gradientUnits="userSpaceOnUse">
<stop offset="0.0574713" stop-color="#FFDF2E"/>
<stop offset="0.6667" stop-color="#00B36B"/>
<stop offset="1" stop-color="#0057F9"/>
</linearGradient>
<linearGradient id="paint1_linear" x1="47.3107" y1="120.908" x2="119.144" y2="44.3901" gradientUnits="userSpaceOnUse">
<stop offset="0.0574713" stop-color="#FFC224"/>
<stop offset="0.5249" stop-color="#00904A"/>
<stop offset="1" stop-color="#0057A9"/>
</linearGradient>
<linearGradient id="paint2_linear" x1="50.3415" y1="123.72" x2="122.175" y2="47.2016" gradientUnits="userSpaceOnUse">
<stop offset="0.0574713" stop-color="#FFC224"/>
<stop offset="0.5249" stop-color="#00904A"/>
<stop offset="1" stop-color="#0057A9"/>
</linearGradient>
<linearGradient id="paint3_linear" x1="45.7219" y1="119.333" x2="117.527" y2="42.8447" gradientUnits="userSpaceOnUse">
<stop offset="0.0574713" stop-color="#FFC224"/>
<stop offset="0.5249" stop-color="#00904A"/>
<stop offset="1" stop-color="#0057A9"/>
</linearGradient>
<linearGradient id="paint4_linear" x1="35.6777" y1="109.834" x2="107.459" y2="33.3708" gradientUnits="userSpaceOnUse">
<stop offset="0.0574713" stop-color="#FFC224"/>
<stop offset="0.5249" stop-color="#00904A"/>
<stop offset="1" stop-color="#0057A9"/>
</linearGradient>
<linearGradient id="paint5_linear" x1="-2.94624" y1="71.4192" x2="166.952" y2="89.0991" gradientUnits="userSpaceOnUse">
<stop stop-color="#6CE3FF"/>
<stop offset="0.5019" stop-color="#F0FF6F"/>
<stop offset="1" stop-color="#00CB52"/>
</linearGradient>
</defs>
</svg>
