<svg width="162" height="31" viewBox="0 0 162 31" fill="none" xmlns="http://www.w3.org/2000/svg">
<path d="M10.9808 23.744C10.0208 23.9573 9.06075 24.064 8.10075 24.064C7.14075 24.0853 6.17009 23.9573 5.18875 23.68C4.22875 23.3813 3.40742 22.944 2.72475 22.368C2.27675 21.92 1.87142 21.3013 1.50875 20.512L1.15675 19.776C1.05009 19.5413 0.954086 19.36 0.868753 19.232C0.612753 18.8267 0.548753 18.3787 0.676753 17.888C0.804753 17.3973 1.07142 17.0347 1.47675 16.8C1.90342 16.544 2.36209 16.48 2.85275 16.608C3.34342 16.736 3.71675 17.0027 3.97275 17.408L4.42075 18.24L4.74075 18.944C4.91142 19.3067 5.07142 19.552 5.22075 19.68C5.58342 20.0213 6.20209 20.256 7.07675 20.384C7.95142 20.512 9.00742 20.4587 10.2448 20.224C11.3541 19.968 12.2714 19.6053 12.9968 19.136C13.7221 18.6453 14.1701 18.1547 14.3408 17.664C14.4688 17.2373 14.3408 16.6507 13.9568 15.904C13.5514 15.0933 13.0821 14.528 12.5488 14.208C12.3141 14.08 11.7488 13.9307 10.8528 13.76H10.8208C10.7781 13.7813 10.5008 13.824 9.98875 13.888C9.49809 13.9307 9.08209 13.9093 8.74075 13.824C7.93009 13.5893 7.40742 13.0773 7.17275 12.288C6.95942 11.6267 7.07675 11.0507 7.52475 10.56C7.67409 10.3467 7.87675 10.1867 8.13275 10.08C8.28209 10.016 8.44209 9.96267 8.61275 9.92C8.71942 9.92 8.85809 9.90933 9.02875 9.888C9.49809 9.824 9.82875 9.78133 10.0208 9.76C10.9168 9.61067 11.5994 9.38667 12.0688 9.088C12.5594 8.768 12.8581 8.48 12.9648 8.224C13.0714 7.94667 13.0714 7.392 12.9648 6.56C12.9008 5.94133 12.5701 5.44 11.9728 5.056C11.3968 4.672 10.5754 4.48 9.50875 4.48C8.39942 4.48 7.40742 4.68267 6.53275 5.088C5.67942 5.49333 5.11409 5.96267 4.83675 6.496V6.752C4.83675 6.79467 4.82609 6.83733 4.80475 6.88C4.80475 6.92267 4.80475 6.976 4.80475 7.04V7.168C4.78342 7.424 4.75142 7.63733 4.70875 7.808C4.62342 8.27733 4.36742 8.66133 3.94075 8.96C3.51409 9.23733 3.06609 9.344 2.59675 9.28C2.12742 9.19467 1.74342 8.94933 1.44475 8.544C1.16742 8.11733 1.07142 7.65867 1.15675 7.168C1.15675 7.104 1.16742 7.008 1.18875 6.88C1.21009 6.56 1.22075 6.38933 1.22075 6.368C1.28475 5.792 1.42342 5.30133 1.63675 4.896C2.27675 3.552 3.34342 2.54933 4.83675 1.888C6.35142 1.20533 7.90875 0.863998 9.50875 0.863998C10.2768 0.863998 11.0234 0.959998 11.7488 1.152C12.4954 1.344 13.2101 1.632 13.8928 2.016C14.5968 2.37867 15.1941 2.93333 15.6848 3.68C16.1754 4.40533 16.4634 5.216 16.5488 6.112C16.7194 7.52 16.6554 8.65067 16.3568 9.504C16.0581 10.2507 15.5674 10.912 14.8848 11.488C15.8234 12.1707 16.5808 13.088 17.1568 14.24C18.0101 15.8827 18.2128 17.3867 17.7648 18.752C17.3381 20.0533 16.4848 21.1307 15.2048 21.984C13.9461 22.816 12.5381 23.4027 10.9808 23.744ZM28.8778 23.808C27.7898 24.1493 26.7764 24.2133 25.8378 24C24.8991 23.7653 24.0564 23.3493 23.3098 22.752C22.5844 22.1547 21.9871 21.4613 21.5178 20.672C21.0698 19.8613 20.7924 19.04 20.6858 18.208C20.4724 16.6293 20.5578 15.072 20.9418 13.536C21.3471 11.9787 22.0298 10.6453 22.9898 9.536C24.0564 8.256 25.3684 7.44533 26.9258 7.104C28.4831 6.74133 30.2431 6.93333 32.2058 7.68C32.8671 7.936 33.5711 8.384 34.3178 9.024C34.4031 9.13067 34.5311 9.25867 34.7018 9.408L35.2138 9.856C35.3631 9.984 35.5124 10.1013 35.6618 10.208C36.0884 10.528 36.3338 10.9653 36.3978 11.52C36.4831 12.0533 36.3658 12.5333 36.0458 12.96C35.7898 13.28 35.4591 13.504 35.0538 13.632L35.0858 13.664C35.2564 14.048 35.3524 14.5493 35.3738 15.168C35.3951 15.424 35.3951 15.6693 35.3738 15.904C35.3738 16.1173 35.3738 16.2453 35.3738 16.288C35.3738 16.3307 35.3844 16.4053 35.4058 16.512C35.5551 17.1733 35.7151 17.9307 35.8858 18.784C35.9284 19.04 35.9604 19.2 35.9818 19.264C36.0244 19.328 36.0778 19.392 36.1418 19.456L37.5178 20.8C37.9231 21.2053 38.1151 21.6853 38.0938 22.24C38.0938 22.7733 37.8911 23.232 37.4858 23.616C37.1018 24 36.6431 24.1813 36.1098 24.16C35.5764 24.16 35.1178 23.968 34.7338 23.584L33.3898 22.272C32.9204 21.8027 32.5898 21.376 32.3978 20.992L32.3658 20.896C32.3444 20.9387 32.2591 21.056 32.1098 21.248L31.7578 21.696L31.3098 22.176C31.1391 22.368 30.9684 22.5387 30.7978 22.688L30.2218 23.104C30.0084 23.2533 29.7844 23.392 29.5498 23.52C29.3364 23.6267 29.1124 23.7227 28.8778 23.808ZM27.5978 20.096C27.6831 20.0747 27.7684 20.0427 27.8538 20C27.9391 19.936 28.0138 19.8827 28.0778 19.84C28.1418 19.776 28.2271 19.68 28.3338 19.552C28.4404 19.424 28.5364 19.3173 28.6218 19.232C28.7071 19.1467 28.8458 18.9973 29.0378 18.784L29.4538 18.24C29.6031 18.0693 29.8058 17.6747 30.0618 17.056C30.0831 16.992 30.0938 16.9173 30.0938 16.832C30.1151 16.7467 30.1258 16.5973 30.1258 16.384C30.1471 16.1493 30.1791 15.8933 30.2218 15.616C30.3711 14.144 30.9684 13.152 32.0138 12.64C32.0991 12.5973 32.1844 12.5653 32.2698 12.544L31.7578 12.032C31.3311 11.6693 30.9791 11.4347 30.7018 11.328C28.6964 10.496 27.1284 10.752 25.9978 12.096C25.4218 12.736 25.0058 13.568 24.7498 14.592C24.4938 15.5947 24.4404 16.64 24.5898 17.728C24.6964 18.5173 25.0804 19.1573 25.7418 19.648C26.4031 20.1387 27.0218 20.288 27.5978 20.096ZM40.9435 22.176C40.7728 19.7013 40.6875 15.36 40.6875 9.152C40.6875 8.896 40.7302 8.65067 40.8155 8.416C40.9222 7.98933 41.1568 7.648 41.5195 7.392C41.8822 7.11467 42.2875 6.976 42.7355 6.976H49.1995C49.7542 6.976 50.2235 7.168 50.6075 7.552C50.9915 7.936 51.1835 8.40533 51.1835 8.96C51.1835 9.51467 50.9915 9.984 50.6075 10.368C50.2235 10.752 49.7542 10.944 49.1995 10.944H44.6555C44.6555 15.8507 44.7408 19.5093 44.9115 21.92C44.9542 22.4747 44.7942 22.9653 44.4315 23.392C44.0688 23.7973 43.6102 24.0107 43.0555 24.032C42.5008 24.0747 42.0102 23.9147 41.5835 23.552C41.1782 23.1893 40.9648 22.7307 40.9435 22.176ZM54.8455 28.064C54.7602 25.3973 54.6215 21.0347 54.4295 14.976C54.0668 14.6133 53.8642 14.176 53.8215 13.664C53.8002 13.152 53.9495 12.6933 54.2695 12.288L54.3655 12.16L54.3015 9.184C54.2802 8.62933 54.4508 8.14933 54.8135 7.744C55.1975 7.33867 55.6668 7.136 56.2215 7.136C57.0108 7.11467 57.6082 7.46667 58.0135 8.192C60.2962 6.54933 62.4935 6.09067 64.6055 6.816C65.7575 7.2 66.7282 7.86133 67.5175 8.8C68.3068 9.76 68.9148 10.8373 69.3415 12.032C70.2802 14.4427 70.3868 16.672 69.6615 18.72C69.2988 19.9573 68.6588 21.0453 67.7415 21.984C66.8455 22.9013 65.7148 23.5307 64.3495 23.872C62.7068 24.256 61.1815 24.1387 59.7735 23.52C59.4322 23.3707 59.0588 23.168 58.6535 22.912C58.7175 24.7253 58.7708 26.4 58.8135 27.936C58.8348 28.4907 58.6535 28.96 58.2695 29.344C57.9068 29.7493 57.4482 29.9627 56.8935 29.984C56.3388 30.0053 55.8588 29.824 55.4535 29.44C55.0695 29.0773 54.8668 28.6187 54.8455 28.064ZM63.3895 19.968C64.5628 19.6907 65.3522 19.072 65.7575 18.112C66.2055 16.5973 66.1415 15.008 65.5655 13.344C65.0322 11.8293 64.2855 10.912 63.3255 10.592C62.2588 10.2293 60.9362 10.784 59.3575 12.256C59.0802 12.512 58.7602 12.896 58.3975 13.408L58.5255 17.632L59.5175 18.528C59.9228 18.912 60.2535 19.2 60.5095 19.392C60.7655 19.5627 61.0535 19.7227 61.3735 19.872C61.9495 20.128 62.6215 20.16 63.3895 19.968ZM76.1875 30.144C75.7608 30.4853 75.2702 30.6347 74.7155 30.592C74.1822 30.5493 73.7342 30.3147 73.3715 29.888C73.0302 29.4613 72.8808 28.9707 72.9235 28.416C72.9662 27.8827 73.2008 27.4347 73.6275 27.072C74.0542 26.7307 74.5235 26.368 75.0355 25.984C75.5688 25.6 75.9955 25.2693 76.3155 24.992C76.6568 24.7147 76.9662 24.416 77.2435 24.096V24.064C75.0035 19.2853 73.2328 14.432 71.9315 9.504C71.7822 8.97067 71.8462 8.46933 72.1235 8C72.4008 7.50933 72.8062 7.2 73.3395 7.072C73.8728 6.92267 74.3742 6.98667 74.8435 7.264C75.3342 7.54133 75.6435 7.94667 75.7715 8.48C76.7315 12.0213 77.9262 15.52 79.3555 18.976C80.8488 15.1573 81.8728 11.7013 82.4275 8.608C82.5128 8.07467 82.7795 7.648 83.2275 7.328C83.6968 7.008 84.1982 6.90133 84.7315 7.008C85.2648 7.09333 85.6915 7.37067 86.0115 7.84C86.3315 8.288 86.4382 8.77867 86.3315 9.312C85.6488 13.1733 84.2408 17.6853 82.1075 22.848C82.0648 22.9333 81.9795 23.1467 81.8515 23.488L81.4675 24.512C81.3608 24.8107 81.2008 25.1627 80.9875 25.568C80.7742 25.9733 80.5502 26.3253 80.3155 26.624C79.9528 27.0507 79.5048 27.488 78.9715 27.936C78.4595 28.384 77.9048 28.832 77.3075 29.28C76.7102 29.728 76.3368 30.016 76.1875 30.144ZM95.1763 24.416C93.7896 24.416 92.5843 24.1707 91.5603 23.68C90.5363 23.168 89.7576 22.5493 89.2243 21.824C88.6909 21.0987 88.4243 20.416 88.4243 19.776C88.4243 19.2213 88.5843 18.7627 88.9043 18.4C89.2243 18.016 89.6403 17.824 90.1523 17.824C90.6856 17.824 91.1763 18.1013 91.6243 18.656C92.0296 19.168 92.3709 19.5627 92.6483 19.84C92.9256 20.1173 93.2989 20.3627 93.7683 20.576C94.2376 20.7893 94.8029 20.896 95.4643 20.896C96.2109 20.896 96.8296 20.6933 97.3203 20.288C97.8323 19.8827 98.0883 19.424 98.0883 18.912C98.0883 18.336 97.8216 17.8667 97.2883 17.504C96.7763 17.12 96.1043 16.928 95.2723 16.928C94.6109 16.928 94.0776 16.768 93.6723 16.448C93.2883 16.1067 93.0963 15.6907 93.0963 15.2C93.0963 14.688 93.2776 14.2827 93.6403 13.984C94.0029 13.664 94.4509 13.504 94.9843 13.504C95.8163 13.504 96.4776 13.3333 96.9683 12.992C97.4589 12.6293 97.7043 12.1813 97.7043 11.648C97.7043 11.2 97.5016 10.848 97.0963 10.592C96.6909 10.3147 96.1256 10.176 95.4003 10.176C94.5256 10.176 93.8003 10.3893 93.2243 10.816C92.6483 11.2213 92.2856 11.7653 92.1363 12.448C92.0296 12.9387 91.8376 13.3227 91.5603 13.6C91.2829 13.8773 90.9309 14.016 90.5043 14.016C90.0136 14.016 89.6296 13.856 89.3523 13.536C89.0749 13.1947 88.9363 12.7787 88.9363 12.288C88.9363 11.328 89.2136 10.4427 89.7682 9.632C90.3229 8.82133 91.0909 8.18133 92.0723 7.712C93.0749 7.22133 94.2056 6.976 95.4643 6.976C96.4456 6.976 97.3949 7.18933 98.3123 7.616C99.2509 8.02133 100.008 8.58667 100.584 9.312C101.182 10.0373 101.48 10.848 101.48 11.744C101.48 12.512 101.256 13.2373 100.808 13.92C100.382 14.6027 99.7736 15.1573 98.9843 15.584V14.656C100.926 15.488 101.896 16.8107 101.896 18.624C101.896 19.6267 101.619 20.576 101.064 21.472C100.51 22.3467 99.7203 23.0613 98.6963 23.616C97.6723 24.1493 96.4989 24.416 95.1763 24.416ZM117.212 23.36C115.057 21.056 113.265 18.9227 111.836 16.96L109.564 19.04C109.649 19.9573 109.756 20.8747 109.884 21.792C109.948 22.3467 109.82 22.848 109.5 23.296C109.18 23.7227 108.742 23.968 108.188 24.032C107.633 24.1173 107.132 24 106.684 23.68C106.257 23.36 106.001 22.9227 105.916 22.368C105.382 18.5707 105.222 14.08 105.436 8.896C105.457 8.34133 105.67 7.88267 106.076 7.52C106.481 7.136 106.961 6.96533 107.516 7.008C108.07 7.02933 108.529 7.24267 108.892 7.648C109.276 8.05333 109.446 8.53333 109.404 9.088C109.34 10.816 109.308 12.4053 109.308 13.856L116.316 7.456C116.742 7.072 117.222 6.90133 117.756 6.944C118.31 6.96533 118.769 7.18933 119.132 7.616C119.516 8.02133 119.686 8.50133 119.644 9.056C119.622 9.58933 119.409 10.0373 119.004 10.4L114.812 14.24C116.198 16.224 118.001 18.368 120.22 20.672C120.582 21.0987 120.742 21.5893 120.7 22.144C120.678 22.6773 120.454 23.136 120.028 23.52C119.622 23.8827 119.142 24.0427 118.588 24C118.054 23.9787 117.596 23.7653 117.212 23.36ZM130.468 23.808C129.38 24.1493 128.366 24.2133 127.428 24C126.489 23.7653 125.646 23.3493 124.9 22.752C124.174 22.1547 123.577 21.4613 123.108 20.672C122.66 19.8613 122.382 19.04 122.276 18.208C122.062 16.6293 122.148 15.072 122.532 13.536C122.937 11.9787 123.62 10.6453 124.58 9.536C125.646 8.256 126.958 7.44533 128.516 7.104C130.073 6.74133 131.833 6.93333 133.796 7.68C134.457 7.936 135.161 8.384 135.908 9.024C135.993 9.13067 136.121 9.25867 136.292 9.408L136.804 9.856C136.953 9.984 137.102 10.1013 137.252 10.208C137.678 10.528 137.924 10.9653 137.988 11.52C138.073 12.0533 137.956 12.5333 137.636 12.96C137.38 13.28 137.049 13.504 136.644 13.632L136.676 13.664C136.846 14.048 136.942 14.5493 136.964 15.168C136.985 15.424 136.985 15.6693 136.964 15.904C136.964 16.1173 136.964 16.2453 136.964 16.288C136.964 16.3307 136.974 16.4053 136.996 16.512C137.145 17.1733 137.305 17.9307 137.476 18.784C137.518 19.04 137.55 19.2 137.572 19.264C137.614 19.328 137.668 19.392 137.732 19.456L139.108 20.8C139.513 21.2053 139.705 21.6853 139.684 22.24C139.684 22.7733 139.481 23.232 139.076 23.616C138.692 24 138.233 24.1813 137.7 24.16C137.166 24.16 136.708 23.968 136.324 23.584L134.98 22.272C134.51 21.8027 134.18 21.376 133.988 20.992L133.956 20.896C133.934 20.9387 133.849 21.056 133.7 21.248L133.348 21.696L132.9 22.176C132.729 22.368 132.558 22.5387 132.388 22.688L131.812 23.104C131.598 23.2533 131.374 23.392 131.14 23.52C130.926 23.6267 130.702 23.7227 130.468 23.808ZM129.188 20.096C129.273 20.0747 129.358 20.0427 129.444 20C129.529 19.936 129.604 19.8827 129.668 19.84C129.732 19.776 129.817 19.68 129.924 19.552C130.03 19.424 130.126 19.3173 130.212 19.232C130.297 19.1467 130.436 18.9973 130.628 18.784L131.044 18.24C131.193 18.0693 131.396 17.6747 131.652 17.056C131.673 16.992 131.684 16.9173 131.684 16.832C131.705 16.7467 131.716 16.5973 131.716 16.384C131.737 16.1493 131.769 15.8933 131.812 15.616C131.961 14.144 132.558 13.152 133.604 12.64C133.689 12.5973 133.774 12.5653 133.86 12.544L133.348 12.032C132.921 11.6693 132.569 11.4347 132.292 11.328C130.286 10.496 128.718 10.752 127.588 12.096C127.012 12.736 126.596 13.568 126.34 14.592C126.084 15.5947 126.03 16.64 126.18 17.728C126.286 18.5173 126.67 19.1573 127.332 19.648C127.993 20.1387 128.612 20.288 129.188 20.096ZM145.573 20.032C146.043 20.5013 146.277 21.0667 146.277 21.728C146.277 22.3893 146.043 22.9547 145.573 23.424C145.104 23.8933 144.539 24.128 143.877 24.128C143.216 24.128 142.651 23.8933 142.181 23.424C141.712 22.9547 141.477 22.3893 141.477 21.728C141.477 21.0667 141.712 20.5013 142.181 20.032C142.651 19.5627 143.216 19.328 143.877 19.328C144.539 19.328 145.104 19.5627 145.573 20.032ZM153.245 20.032C153.714 20.5013 153.949 21.0667 153.949 21.728C153.949 22.3893 153.714 22.9547 153.245 23.424C152.775 23.8933 152.21 24.128 151.549 24.128C150.887 24.128 150.322 23.8933 149.853 23.424C149.383 22.9547 149.149 22.3893 149.149 21.728C149.149 21.0667 149.383 20.5013 149.853 20.032C150.322 19.5627 150.887 19.328 151.549 19.328C152.21 19.328 152.775 19.5627 153.245 20.032ZM160.916 20.032C161.385 20.5013 161.62 21.0667 161.62 21.728C161.62 22.3893 161.385 22.9547 160.916 23.424C160.447 23.8933 159.881 24.128 159.22 24.128C158.559 24.128 157.993 23.8933 157.524 23.424C157.055 22.9547 156.82 22.3893 156.82 21.728C156.82 21.0667 157.055 20.5013 157.524 20.032C157.993 19.5627 158.559 19.328 159.22 19.328C159.881 19.328 160.447 19.5627 160.916 20.032Z" fill="url(#paint0_linear)"/>
<defs>
<linearGradient id="paint0_linear" x1="81" y1="-7" x2="81" y2="35" gradientUnits="userSpaceOnUse">
<stop stop-color="#FAFF00"/>
<stop offset="1" stop-color="#FFC700"/>
</linearGradient>
</defs>
</svg>
