<svg width="173" height="252" viewBox="0 0 173 252" fill="none" xmlns="http://www.w3.org/2000/svg">
<g filter="url(#filter0_d)">
<mask id="mask0" mask-type="alpha" maskUnits="userSpaceOnUse" x="4" y="0" width="169" height="252">
<rect x="4" width="169" height="252" fill="#C4C4C4"/>
</mask>
<g mask="url(#mask0)">
<path d="M205.19 123.008C205.19 168.077 168.729 204.592 123.767 204.592C117.031 204.592 110.509 203.736 104.254 202.239C99.6558 201.117 95.2185 199.62 90.9415 197.695C80.0886 192.937 70.5189 185.88 62.7668 177.112C60.7353 174.867 58.8641 172.461 57.1533 170.002C56.5118 169.039 55.8702 168.13 55.2286 167.168C54.8544 166.633 54.4801 166.099 54.1594 165.511C53.5178 164.388 52.8763 163.265 52.2347 162.143C49.8824 157.866 47.9577 153.375 46.4073 148.67C45.5519 146.104 44.8035 143.484 44.2154 140.758C43.36 136.908 42.8254 133.006 42.5046 128.996C42.3442 127.018 42.2373 124.986 42.2373 122.955C42.2373 78.4206 77.8432 42.2801 122.163 41.4247C122.698 41.4247 123.179 41.4247 123.714 41.4247C124.462 41.4247 125.264 41.4247 126.013 41.4781C130.45 41.5851 134.781 42.0128 138.951 42.8682C141.677 43.3493 144.35 44.0443 146.97 44.7928C148.467 45.2205 149.964 45.7551 151.461 46.2898C164.559 51.0479 176.053 59.0673 185.035 69.3855C197.599 83.7134 205.19 102.479 205.19 123.008Z" fill="url(#paint0_linear)"/>
<path opacity="0.59" d="M205.191 123.008C205.191 168.077 168.73 204.592 123.768 204.592C117.032 204.592 110.509 203.736 104.254 202.239C99.6563 201.117 95.2189 199.62 90.9419 197.695C104.896 196.679 118.689 194.113 130.451 186.842C140.822 180.48 148.842 170.75 154.134 159.683C156.647 154.497 158.518 148.937 159.748 143.324C163.49 126.43 161.94 108.627 166.645 92.0001C168.462 85.638 171.242 79.3829 176 74.7852C178.567 72.3259 181.721 70.4013 185.089 69.3855C197.599 83.7134 205.191 102.479 205.191 123.008Z" fill="url(#paint1_linear)"/>
<path d="M134.407 170.322C140.312 170.322 145.1 165.535 145.1 159.63C145.1 153.725 140.312 148.937 134.407 148.937C128.502 148.937 123.715 153.725 123.715 159.63C123.715 165.535 128.502 170.322 134.407 170.322Z" fill="url(#paint2_linear)"/>
<path d="M255.018 77.0306C249.19 61.3127 220.749 56.8754 179.903 63.9858C182.951 66.8728 186.158 70.3479 188.725 73.9298C208.345 72.3794 218.182 75.6406 221.123 83.5531C226.897 99.0571 189.152 127.499 136.866 147.013C84.58 166.527 37.4796 169.841 31.7057 154.337C29.2999 147.868 32.1334 141.292 42.719 131.936C42.3447 127.659 42.2912 122.794 42.3447 118.41C13.5285 137.817 -0.104349 156.369 5.0815 170.376C13.6889 193.525 76.614 191.333 145.58 165.564C214.707 139.849 263.625 100.18 255.018 77.0306Z" fill="url(#paint3_linear)"/>
<mask id="mask1" mask-type="alpha" maskUnits="userSpaceOnUse" x="42" y="41" width="98" height="112">
<path d="M139.004 42.9216C133.658 44.2582 128.472 46.1828 123.607 48.749C119.865 50.6737 116.283 52.9726 113.128 55.7526C105.59 62.5423 100.992 72.1121 99.0143 82.056C97.0362 92 97.5173 102.265 99.0143 112.262C99.7093 116.807 100.565 121.297 100.297 125.895C99.0677 148.135 70.7327 159.844 52.502 148.67C49.2408 146.692 46.5143 143.912 44.2154 140.811C43.36 136.962 42.8254 133.059 42.5046 129.049C42.3442 127.071 42.2373 125.04 42.2373 123.008C42.2373 78.4741 77.8432 42.3335 122.163 41.4781C122.698 41.4781 123.179 41.4781 123.714 41.4781C124.462 41.4781 125.264 41.4782 126.013 41.5316C130.45 41.6385 134.781 42.1197 139.004 42.9216Z" fill="url(#paint4_linear)"/>
</mask>
<g mask="url(#mask1)">
<path opacity="0.3" d="M139.004 42.9216C133.658 44.2582 128.472 46.1828 123.607 48.749C119.865 50.6737 116.283 52.9726 113.128 55.7526C105.59 62.5423 100.992 72.1121 99.0143 82.056C97.0362 92 97.5173 102.265 99.0143 112.262C99.7093 116.807 100.565 121.297 100.297 125.895C99.0677 148.135 70.7327 159.844 52.502 148.67C49.2408 146.692 46.5143 143.912 44.2154 140.811C43.36 136.962 42.8254 133.059 42.5046 129.049C42.3442 127.071 42.2373 125.04 42.2373 123.008C42.2373 78.4741 77.8432 42.3335 122.163 41.4781C122.698 41.4781 123.179 41.4781 123.714 41.4781C124.462 41.4781 125.264 41.4782 126.013 41.5316C130.45 41.6385 134.781 42.1197 139.004 42.9216Z" fill="url(#paint5_linear)"/>
</g>
<mask id="mask2" mask-type="alpha" maskUnits="userSpaceOnUse" x="83" y="87" width="30" height="29">
<path d="M97.9448 115.737C105.828 115.737 112.219 109.346 112.219 101.463C112.219 93.5794 105.828 87.1885 97.9448 87.1885C90.0613 87.1885 83.6704 93.5794 83.6704 101.463C83.6704 109.346 90.0613 115.737 97.9448 115.737Z" fill="url(#paint6_linear)"/>
</mask>
<g mask="url(#mask2)">
<path d="M97.9448 115.737C105.828 115.737 112.219 109.346 112.219 101.463C112.219 93.5794 105.828 87.1885 97.9448 87.1885C90.0613 87.1885 83.6704 93.5794 83.6704 101.463C83.6704 109.346 90.0613 115.737 97.9448 115.737Z" fill="url(#paint7_linear)"/>
</g>
<mask id="mask3" mask-type="alpha" maskUnits="userSpaceOnUse" x="95" y="65" width="14" height="14">
<path d="M101.688 78.8482C105.32 78.8482 108.264 75.8802 108.264 72.2189C108.264 68.5576 105.32 65.5896 101.688 65.5896C98.0561 65.5896 95.1121 68.5576 95.1121 72.2189C95.1121 75.8802 98.0561 78.8482 101.688 78.8482Z" fill="url(#paint8_linear)"/>
</mask>
<g mask="url(#mask3)">
<path d="M101.688 78.8482C105.32 78.8482 108.264 75.8802 108.264 72.2189C108.264 68.5576 105.32 65.5896 101.688 65.5896C98.0561 65.5896 95.1121 68.5576 95.1121 72.2189C95.1121 75.8802 98.0561 78.8482 101.688 78.8482Z" fill="url(#paint9_linear)"/>
</g>
</g>
</g>
<defs>
<filter id="filter0_d" x="0" y="41.4247" width="177" height="171.167" filterUnits="userSpaceOnUse" color-interpolation-filters="sRGB">
<feFlood flood-opacity="0" result="BackgroundImageFix"/>
<feColorMatrix in="SourceAlpha" type="matrix" values="0 0 0 0 0 0 0 0 0 0 0 0 0 0 0 0 0 0 127 0"/>
<feOffset dy="4"/>
<feGaussianBlur stdDeviation="2"/>
<feColorMatrix type="matrix" values="0 0 0 0 0 0 0 0 0 0 0 0 0 0 0 0 0 0 0.25 0"/>
<feBlend mode="normal" in2="BackgroundImageFix" result="effect1_dropShadow"/>
<feBlend mode="normal" in="SourceGraphic" in2="effect1_dropShadow" result="shape"/>
</filter>
<linearGradient id="paint0_linear" x1="40.5887" y1="38.9732" x2="212.222" y2="212.524" gradientUnits="userSpaceOnUse">
<stop offset="0.045977" stop-color="#C161FF"/>
<stop offset="0.4636" stop-color="#594CC5"/>
<stop offset="1" stop-color="#0043AC"/>
</linearGradient>
<linearGradient id="paint1_linear" x1="197.431" y1="184.944" x2="64.6475" y2="70.0972" gradientUnits="userSpaceOnUse">
<stop offset="0.045977" stop-color="#C161FF"/>
<stop offset="0.4636" stop-color="#594CC5"/>
<stop offset="1" stop-color="#0043AC"/>
</linearGradient>
<linearGradient id="paint2_linear" x1="145.708" y1="169.437" x2="107.198" y2="136.128" gradientUnits="userSpaceOnUse">
<stop stop-color="#594CC5"/>
<stop offset="1" stop-color="#0043AC"/>
</linearGradient>
<linearGradient id="paint3_linear" x1="130.029" y1="186.426" x2="130.029" y2="60.7231" gradientUnits="userSpaceOnUse">
<stop stop-color="#FFE305"/>
<stop offset="1" stop-color="#F1A901"/>
</linearGradient>
<linearGradient id="paint4_linear" x1="68.503" y1="150.065" x2="102.498" y2="37.6403" gradientUnits="userSpaceOnUse">
<stop offset="0.00383142" stop-color="white"/>
<stop offset="1"/>
</linearGradient>
<linearGradient id="paint5_linear" x1="68.503" y1="150.065" x2="102.498" y2="37.6403" gradientUnits="userSpaceOnUse">
<stop offset="0.00383142" stop-color="#C995FF"/>
<stop offset="1" stop-color="#9CFFFF"/>
</linearGradient>
<linearGradient id="paint6_linear" x1="94.0666" y1="114.216" x2="101.704" y2="88.9578" gradientUnits="userSpaceOnUse">
<stop offset="0.00383142" stop-color="white"/>
<stop offset="1"/>
</linearGradient>
<linearGradient id="paint7_linear" x1="97.9481" y1="115.741" x2="97.9481" y2="87.195" gradientUnits="userSpaceOnUse">
<stop stop-color="#F1A901"/>
<stop offset="1" stop-color="#FFE305"/>
</linearGradient>
<linearGradient id="paint8_linear" x1="99.8857" y1="78.1354" x2="103.418" y2="66.4536" gradientUnits="userSpaceOnUse">
<stop offset="0.00383142" stop-color="white"/>
<stop offset="1"/>
</linearGradient>
<linearGradient id="paint9_linear" x1="101.689" y1="78.8501" x2="101.689" y2="65.5926" gradientUnits="userSpaceOnUse">
<stop stop-color="#F1A901"/>
<stop offset="1" stop-color="#FFE305"/>
</linearGradient>
</defs>
</svg>
