<svg width="136" height="42" viewBox="0 0 136 42" fill="none" xmlns="http://www.w3.org/2000/svg">
<rect x="14" width="122" height="42" rx="10" fill="#0F0A31"/>
<path d="M67.0478 27.464C67.0318 27.928 66.8558 28.32 66.5198 28.64C66.1838 28.96 65.7838 29.112 65.3198 29.096C64.8558 29.08 64.4638 28.904 64.1438 28.568C63.8238 28.232 63.6718 27.832 63.6878 27.368C63.7358 25.832 63.7358 22.696 63.6878 17.96L62.4878 18.752C62.1038 19.008 61.6798 19.096 61.2158 19.016C60.7678 18.92 60.4158 18.68 60.1598 18.296C59.9038 17.912 59.8158 17.496 59.8958 17.048C59.9918 16.584 60.2318 16.224 60.6158 15.968L61.3598 15.488C61.6318 15.312 61.8078 15.2 61.8878 15.152C61.9678 15.088 62.0798 15 62.2238 14.888C62.3678 14.76 62.4878 14.632 62.5838 14.504L62.9438 14C63.0398 13.904 63.0878 13.712 63.0878 13.424C63.1998 13.008 63.3518 12.672 63.5438 12.416C64.0078 11.808 64.6158 11.528 65.3678 11.576C65.9598 11.624 66.4078 11.904 66.7118 12.416C66.7758 12.544 66.8318 12.68 66.8798 12.824C66.8958 12.904 66.9118 13 66.9278 13.112C66.9438 13.224 66.9598 13.352 66.9758 13.496C66.9918 13.736 66.9998 14.072 66.9998 14.504C67.0158 15.128 67.0318 16.032 67.0478 17.216C67.0798 22.976 67.0798 26.392 67.0478 27.464ZM78.2421 27.416C77.9381 27.096 77.6661 26.664 77.4261 26.12L77.2101 25.616C77.1461 25.456 77.0901 25.336 77.0421 25.256C76.8501 24.872 76.8181 24.472 76.9461 24.056C77.0741 23.64 77.3301 23.336 77.7141 23.144C78.1141 22.936 78.5221 22.896 78.9381 23.024C79.3541 23.152 79.6661 23.416 79.8741 23.816C79.9541 23.976 80.0421 24.168 80.1381 24.392L80.3301 24.848C80.4101 25.056 80.4821 25.192 80.5461 25.256C80.7701 25.48 81.1061 25.656 81.5541 25.784C82.0181 25.912 82.5301 25.944 83.0901 25.88C83.6661 25.816 84.1621 25.672 84.5781 25.448C84.9941 25.224 85.2821 24.968 85.4421 24.68C85.5381 24.504 85.5701 24.136 85.5381 23.576C85.4581 22.36 84.4981 21.56 82.6581 21.176C82.1461 21.304 81.6901 21.192 81.2901 20.84C81.0341 20.68 80.8341 20.464 80.6901 20.192C80.5621 19.904 80.5141 19.608 80.5461 19.304C80.6101 18.872 80.8101 18.52 81.1461 18.248C81.4981 17.976 81.8901 17.864 82.3221 17.912C82.3861 17.928 82.4581 17.944 82.5381 17.96C82.6501 17.928 82.7701 17.904 82.8981 17.888C83.0261 17.856 83.1141 17.84 83.1621 17.84C83.2261 17.824 83.2981 17.808 83.3781 17.792C83.4581 17.76 83.5381 17.72 83.6181 17.672C84.0981 17.4 84.3541 17.104 84.3861 16.784C84.4021 16.416 84.2261 16.032 83.8581 15.632C83.3941 15.136 82.8421 14.84 82.2021 14.744C81.5621 14.632 80.8981 14.784 80.2101 15.2L80.0661 15.368L79.8501 15.704C79.7221 15.896 79.6181 16.048 79.5381 16.16C79.2661 16.496 78.9061 16.696 78.4581 16.76C78.0261 16.808 77.6421 16.696 77.3061 16.424C76.9701 16.152 76.7701 15.8 76.7061 15.368C76.6581 14.92 76.7701 14.528 77.0421 14.192C77.0901 14.144 77.1461 14.072 77.2101 13.976L77.4501 13.592C77.7541 13.144 78.0821 12.8 78.4341 12.56C79.3461 11.952 80.3061 11.616 81.3141 11.552C82.3381 11.488 83.2581 11.632 84.0741 11.984C84.8901 12.336 85.5941 12.832 86.1861 13.472C87.1781 14.544 87.6261 15.72 87.5301 17C87.4821 17.912 87.1381 18.712 86.4981 19.4C87.8581 20.376 88.5941 21.704 88.7061 23.384C88.7861 24.568 88.6101 25.528 88.1781 26.264C87.7141 27.08 87.0501 27.72 86.1861 28.184C85.3221 28.632 84.4101 28.912 83.4501 29.024C82.4901 29.136 81.5381 29.064 80.5941 28.808C79.6661 28.552 78.8821 28.088 78.2421 27.416ZM96.8178 29.024C95.5858 29.072 94.5778 28.96 93.7938 28.688C93.5858 28.608 93.3618 28.504 93.1217 28.376L91.5378 27.584C91.1378 27.376 90.8658 27.056 90.7218 26.624C90.5938 26.192 90.6258 25.776 90.8178 25.376C91.0258 24.976 91.3458 24.712 91.7778 24.584C92.2098 24.44 92.6258 24.464 93.0258 24.656L93.8418 25.112C94.1298 25.256 94.3378 25.36 94.4658 25.424C94.6098 25.488 94.7538 25.544 94.8978 25.592C95.2818 25.736 95.8738 25.792 96.6738 25.76C97.0098 25.744 97.3618 25.64 97.7298 25.448C98.5458 25.016 99.0258 24.512 99.1698 23.936C99.2978 23.44 99.1938 22.912 98.8578 22.352C98.4738 21.696 97.9218 21.192 97.2018 20.84C96.4978 20.488 95.8018 20.384 95.1138 20.528C95.0498 20.528 94.9378 20.576 94.7778 20.672C94.2338 20.992 93.9458 21.16 93.9138 21.176C93.7218 21.272 93.5138 21.328 93.2898 21.344C93.0978 21.392 92.8978 21.408 92.6898 21.392C92.2418 21.328 91.8738 21.12 91.5858 20.768C91.3138 20.416 91.2018 20.016 91.2498 19.568C91.4738 17.776 91.7058 15.784 91.9458 13.592C91.9778 13.368 92.0578 13.16 92.1858 12.968C92.2818 12.616 92.4738 12.336 92.7617 12.128C93.0498 11.904 93.3778 11.792 93.7458 11.792C95.3138 11.776 97.5778 11.768 100.538 11.768C101.002 11.768 101.394 11.936 101.714 12.272C102.05 12.592 102.218 12.984 102.218 13.448C102.218 13.912 102.05 14.312 101.714 14.648C101.394 14.968 101.002 15.128 100.538 15.128H95.0178C94.8898 16.408 94.8178 17.12 94.8018 17.264C96.1938 17.056 97.5138 17.296 98.7618 17.984C100.026 18.656 100.994 19.56 101.666 20.696C102.45 22.04 102.674 23.392 102.338 24.752C101.954 26.256 100.93 27.448 99.2658 28.328C98.4498 28.76 97.6338 28.992 96.8178 29.024ZM110.261 29.048C109.205 28.776 108.285 28.32 107.501 27.68C106.717 27.024 106.117 26.264 105.701 25.4C105.285 24.536 104.981 23.632 104.789 22.688C104.613 21.744 104.557 20.8 104.621 19.856C104.669 18.928 104.829 18.016 105.101 17.12C105.389 16.224 105.773 15.376 106.253 14.576C106.733 13.776 107.373 13.104 108.173 12.56C108.957 12.016 109.837 11.688 110.813 11.576C111.277 11.528 111.693 11.528 112.061 11.576C112.461 11.608 112.845 11.712 113.213 11.888C113.581 12.064 113.853 12.208 114.029 12.32C114.205 12.416 114.469 12.6 114.821 12.872C115.189 13.128 115.389 13.264 115.421 13.28C115.805 13.536 116.037 13.904 116.117 14.384C116.213 14.848 116.133 15.28 115.877 15.68C115.621 16.064 115.261 16.304 114.797 16.4C114.349 16.496 113.933 16.408 113.549 16.136L113.021 15.752C112.829 15.624 112.693 15.528 112.613 15.464L112.277 15.248C112.133 15.168 112.037 15.128 111.989 15.128C111.957 15.112 111.877 15.08 111.749 15.032C111.621 14.984 111.525 14.976 111.461 15.008C111.413 15.024 111.309 15.024 111.149 15.008C110.493 15.088 109.885 15.448 109.325 16.088C108.781 16.728 108.397 17.568 108.173 18.608C108.349 18.48 108.533 18.36 108.725 18.248C109.509 17.832 110.389 17.664 111.365 17.744C112.357 17.824 113.237 18.072 114.005 18.488C114.773 18.904 115.373 19.424 115.805 20.048C116.237 20.672 116.541 21.352 116.717 22.088C116.909 22.808 116.957 23.544 116.861 24.296C116.781 25.032 116.573 25.728 116.237 26.384C115.901 27.04 115.445 27.616 114.869 28.112C114.309 28.592 113.637 28.92 112.853 29.096C112.085 29.272 111.221 29.256 110.261 29.048ZM111.029 25.688C111.733 25.864 112.309 25.768 112.757 25.4C113.205 25.064 113.469 24.56 113.549 23.888C113.629 23.2 113.469 22.6 113.069 22.088C112.685 21.56 112.029 21.264 111.101 21.2C110.765 21.168 110.501 21.208 110.309 21.32C110.005 21.48 109.621 21.792 109.157 22.256L108.365 23.072C108.877 24.496 109.765 25.368 111.029 25.688Z" fill="#FFE305"/>
<path d="M22.96 0.0406748C20.72 0.0406748 18.8533 -0.0508435 17.1733 0.0406748C7.6533 0.406748 0 9.65012 0 20.9984C0 30.8824 5.78664 39.2105 13.6266 41.407C16.24 42.2306 19.1333 41.9561 22.96 41.9561C34.5333 41.9561 42 32.6212 42 20.9984C42 9.37556 34.5333 0.0406748 22.96 0.0406748Z" fill="#4C2D03"/>
<path d="M41.9999 20.9984C41.9999 32.5297 34.5332 41.9561 22.9599 41.9561C18.2932 41.9561 15.0266 42.3221 12.0399 40.6748C5.3199 37.1056 2.05322 28.9605 2.05322 20.9984C2.05322 12.7617 5.41327 4.52508 12.5999 1.13891C15.4933 -0.233869 18.4799 0.0406752 22.9599 0.0406752C34.5332 0.0406752 41.9999 9.37556 41.9999 20.9984Z" fill="#FFA905"/>
<path d="M17.8271 41.9561C27.6209 41.9561 35.5604 32.573 35.5604 20.9984C35.5604 9.42377 27.6209 0.0406647 17.8271 0.0406647C8.03323 0.0406647 0.09375 9.42377 0.09375 20.9984C0.09375 32.573 8.03323 41.9561 17.8271 41.9561Z" fill="#FFE305"/>
<path d="M29.3067 21.822C29.3067 29.9672 24.1733 36.465 17.8267 36.465C11.48 36.465 6.34668 29.8756 6.34668 21.822C6.34668 13.6769 11.48 7.17911 17.8267 7.17911C24.1733 7.17911 29.3067 13.7684 29.3067 21.822Z" fill="#FFFF05"/>
<path d="M28.7466 20.9984C28.7466 29.1435 23.5199 35.8243 16.9865 35.8243C10.5465 35.8243 5.22656 29.235 5.22656 20.9984C5.22656 12.8533 10.4532 6.17241 16.9865 6.17241C23.4265 6.17241 28.7466 12.8533 28.7466 20.9984Z" fill="#EA9000"/>
<path d="M28.7467 21.456C28.7467 29.3265 23.8934 35.7328 18.0134 35.7328C12.1334 35.7328 7.28003 29.3265 7.28003 21.456C7.28003 13.5854 12.1334 7.17911 18.0134 7.17911C23.8934 7.17911 28.7467 13.5854 28.7467 21.456Z" fill="#FFC005"/>
<path d="M28.28 21.1814C28.28 27.5877 24.1733 32.7127 19.04 32.7127C14 32.7127 9.80005 27.4962 9.80005 21.1814C9.80005 14.7751 13.9067 9.6501 19.04 9.6501C24.08 9.55858 28.28 14.7751 28.28 21.1814Z" fill="#EA9000"/>
<path d="M26.3199 21.1814C26.3199 27.5877 22.3999 32.7127 17.6399 32.7127C12.7866 32.7127 8.95996 27.4962 8.95996 21.1814C8.95996 14.7751 12.8799 9.6501 17.6399 9.6501C22.3999 9.55858 26.3199 14.7751 26.3199 21.1814Z" fill="#FFE305"/>
<path d="M24.36 38.7529C23.4267 39.3936 22.4 39.5766 22.12 39.119C21.84 38.6614 22.3067 37.8377 23.24 37.1971C24.1734 36.5565 25.2 36.3734 25.48 36.831C25.76 37.1971 25.2934 38.1123 24.36 38.7529Z" fill="white"/>
</svg>
