<svg width="35" height="800" viewBox="0 0 35 800" fill="none" xmlns="http://www.w3.org/2000/svg">
<mask id="mask0" mask-type="alpha" maskUnits="userSpaceOnUse" x="0" y="0" width="35" height="800">
<rect width="35" height="800" fill="#C4C4C4"/>
</mask>
<g mask="url(#mask0)">
<mask id="mask1" mask-type="alpha" maskUnits="userSpaceOnUse" x="11" y="143" width="24" height="48">
<rect x="11" y="143" width="24" height="48" fill="#C4C4C4"/>
</mask>
<g mask="url(#mask1)">
<path d="M59 167.007C59 180.388 48.3847 191 35 191C21.6153 191 11 180.388 11 167.007C11 153.627 21.6153 143.014 35 143.014C48.3847 142.553 59 153.627 59 167.007Z" fill="url(#paint0_radial)"/>
</g>
<mask id="mask2" mask-type="alpha" maskUnits="userSpaceOnUse" x="9" y="581" width="26" height="52">
<rect x="9" y="581" width="26" height="52" fill="#C4C4C4"/>
</mask>
<g mask="url(#mask2)">
<path d="M61 607.008C61 621.504 49.5001 633 35 633C20.4999 633 9 621.504 9 607.008C9 592.512 20.4999 581.015 35 581.015C49.5001 580.515 61 592.512 61 607.008Z" fill="url(#paint1_radial)"/>
</g>
</g>
<defs>
<radialGradient id="paint0_radial" cx="0" cy="0" r="1" gradientUnits="userSpaceOnUse" gradientTransform="translate(35 167) rotate(90) scale(24)">
<stop offset="0.180208" stop-color="#00FF47"/>
<stop offset="0.648958" stop-color="#00C2FF" stop-opacity="0"/>
</radialGradient>
<radialGradient id="paint1_radial" cx="0" cy="0" r="1" gradientUnits="userSpaceOnUse" gradientTransform="translate(35 607) rotate(90) scale(26)">
<stop offset="0.482292" stop-color="#554B92"/>
<stop offset="1" stop-color="#554B92" stop-opacity="0"/>
</radialGradient>
</defs>
</svg>
