<svg width="78" height="130" viewBox="0 0 78 130" fill="none" xmlns="http://www.w3.org/2000/svg">
<path d="M10.1052 31.646L10.6953 28.959C10.6953 28.959 16.7225 24.5395 38.9628 24.6129C61.2031 24.6863 68.2278 29.1499 68.2278 29.1499L68.2138 32.0278L10.1052 31.646Z" fill="#433E96"/>
<path d="M70.5584 30.2508C35.8533 18.0217 8.33634 29.901 7.88708 30.0409C16.3247 7.024 39.321 0 39.321 0C39.321 0 62.2612 7.17792 70.5584 30.2508Z" fill="url(#paint0_radial)"/>
<path d="M59.4393 104.437L18.5148 104.311C18.5148 104.311 0.390112 70.4919 5.61272 40.5769C5.62676 40.5069 5.62676 40.465 5.62676 40.465C6.16026 37.4707 6.91838 34.6863 7.87305 32.0977C8.33634 31.9438 36.1622 22.6531 70.5444 32.3076C71.485 34.8961 72.2291 37.6805 72.7345 40.6888C72.9451 41.9621 73.1276 43.2494 73.254 44.5366V44.5646C76.2864 73.4722 59.4393 104.437 59.4393 104.437Z" fill="url(#paint1_radial)"/>
<path opacity="0.5" d="M39.0824 27.8581C39.0824 27.8581 40.4583 65.9724 38.9841 101.834L39.0824 27.8581Z" fill="url(#paint2_linear)"/>
<path d="M57.9652 53.7014C57.9371 64.0695 49.4855 73.0664 39.0823 73.0244C28.6792 72.9964 20.2838 63.9436 20.3118 53.5755C20.3399 43.2074 28.8056 34.8402 39.1947 34.8681C49.5978 34.9101 58.0073 43.3473 57.9652 53.7014Z" fill="url(#paint3_radial)"/>
<path opacity="0.5" d="M38.6472 27.8581C38.6472 27.8581 37.889 79.6007 38.8437 101.834C38.8437 101.834 39.3351 46.4116 39.0824 27.8581H38.6472Z" fill="url(#paint4_linear)"/>
<path d="M57.9792 52.3162C57.9511 62.6843 49.4855 71.0516 39.0964 71.0236C28.6933 70.9956 20.2978 62.5584 20.3259 52.2043C20.354 41.8362 28.8196 33.469 39.2087 33.4969C49.6118 33.5249 58.0073 41.9481 57.9792 52.3162Z" fill="url(#paint5_radial)"/>
<path opacity="0.5" d="M20.6207 52.68C20.6488 42.3119 29.3672 33.7908 39.7703 33.8188C44.3892 33.8327 48.8818 35.9316 52.1529 38.688C48.7835 35.4838 44.2348 33.4969 39.2087 33.4829C28.8056 33.455 20.3539 41.8222 20.3259 52.1903C20.3118 57.955 22.9091 63.1181 26.9945 66.5741C23.3864 63.1601 20.6066 58.039 20.6207 52.68Z" fill="url(#paint6_linear)"/>
<path d="M39.1525 67.2597C47.4645 67.2597 54.2026 60.5442 54.2026 52.2603C54.2026 43.9763 47.4645 37.2608 39.1525 37.2608C30.8406 37.2608 24.1024 43.9763 24.1024 52.2603C24.1024 60.5442 30.8406 67.2597 39.1525 67.2597Z" fill="url(#paint7_radial)"/>
<path d="M53.7815 53.1697C53.7534 61.2291 47.183 67.7354 39.0964 67.7074C31.0098 67.6795 24.4815 61.1312 24.5096 53.0718C24.5377 45.0124 31.1081 39.5555 39.1947 39.5835C47.2673 39.6114 53.8096 45.1103 53.7815 53.1697Z" fill="url(#paint8_linear)"/>
<path d="M40.5986 69.1626C40.5986 69.6803 40.1774 70.1001 39.6579 70.1001C39.1385 70.1001 38.7173 69.6803 38.7173 69.1626C38.7173 68.6449 39.1385 68.2252 39.6579 68.2252C40.1774 68.2252 40.5986 68.6449 40.5986 69.1626Z" fill="url(#paint9_radial)"/>
<path d="M40.4591 69.0227C40.4591 69.4705 40.0941 69.8202 39.6589 69.8202C39.2096 69.8202 38.8586 69.4565 38.8586 69.0227C38.8586 68.575 39.2237 68.2252 39.6589 68.2252C40.1081 68.2252 40.4591 68.589 40.4591 69.0227Z" fill="url(#paint10_linear)"/>
<path d="M40.6969 35.8196C40.6969 36.3373 40.2758 36.7571 39.7563 36.7571C39.2369 36.7571 38.8157 36.3373 38.8157 35.8196C38.8157 35.3019 39.2369 34.8822 39.7563 34.8822C40.2898 34.8822 40.6969 35.3019 40.6969 35.8196Z" fill="url(#paint11_radial)"/>
<path d="M40.5706 35.6797C40.5706 36.1274 40.2055 36.4772 39.7703 36.4772C39.3211 36.4772 38.9701 36.1135 38.9701 35.6797C38.9701 35.232 39.3351 34.8822 39.7703 34.8822C40.2055 34.8822 40.5706 35.246 40.5706 35.6797Z" fill="url(#paint12_linear)"/>
<path d="M23.4286 54.5269C23.4286 55.0446 23.0074 55.4644 22.488 55.4644C21.9685 55.4644 21.5474 55.0446 21.5474 54.5269C21.5474 54.0092 21.9685 53.5895 22.488 53.5895C23.0215 53.5895 23.4427 54.0092 23.4286 54.5269Z" fill="url(#paint13_radial)"/>
<path d="M23.3023 54.387C23.3023 54.8348 22.9372 55.1846 22.502 55.1846C22.0668 55.1846 21.7018 54.8208 21.7018 54.387C21.7018 53.9393 22.0668 53.5895 22.502 53.5895C22.9372 53.5895 23.3023 53.9533 23.3023 54.387Z" fill="url(#paint14_linear)"/>
<path d="M52.5882 41.1086C52.5882 41.6263 52.167 42.0461 51.6475 42.0461C51.1281 42.0461 50.7069 41.6263 50.7069 41.1086C50.7069 40.5909 51.1281 40.1711 51.6475 40.1711C52.167 40.1711 52.5882 40.5909 52.5882 41.1086Z" fill="url(#paint15_radial)"/>
<path d="M52.4486 40.9687C52.4486 41.4164 52.0836 41.7662 51.6484 41.7662C51.1991 41.7662 50.8481 41.4024 50.8481 40.9687C50.8481 40.5209 51.2132 40.1711 51.6484 40.1711C52.0976 40.1711 52.4486 40.5349 52.4486 40.9687Z" fill="url(#paint16_linear)"/>
<path d="M27.5702 41.0247C27.5702 41.5424 27.1491 41.9621 26.6296 41.9621C26.1101 41.9621 25.689 41.5424 25.689 41.0247C25.689 40.5069 26.1101 40.0872 26.6296 40.0872C27.1491 40.0872 27.5702 40.5069 27.5702 41.0247Z" fill="url(#paint17_radial)"/>
<path d="M27.4308 40.8989C27.4308 41.3466 27.0658 41.6964 26.6306 41.6964C26.1813 41.6964 25.8303 41.3326 25.8303 40.8989C25.8303 40.4511 26.1953 40.1013 26.6306 40.1013C27.0798 40.0873 27.4308 40.4511 27.4308 40.8989Z" fill="url(#paint18_linear)"/>
<path d="M52.518 63.272C52.518 63.7897 52.0968 64.2095 51.5774 64.2095C51.0579 64.2095 50.6367 63.7897 50.6367 63.272C50.6367 62.7543 51.0579 62.3345 51.5774 62.3345C52.0968 62.3345 52.518 62.7543 52.518 63.272Z" fill="url(#paint19_radial)"/>
<path d="M52.3785 63.1321C52.3785 63.5798 52.0135 63.9296 51.5783 63.9296C51.1291 63.9296 50.7781 63.5658 50.7781 63.1321C50.7781 62.6843 51.1431 62.3345 51.5783 62.3345C52.0135 62.3345 52.3785 62.6843 52.3785 63.1321Z" fill="url(#paint20_linear)"/>
<path d="M27.4999 63.188C27.4999 63.7058 27.0787 64.1255 26.5593 64.1255C26.0398 64.1255 25.6187 63.7058 25.6187 63.188C25.6187 62.6703 26.0398 62.2506 26.5593 62.2506C27.0787 62.2506 27.4999 62.6703 27.4999 63.188Z" fill="url(#paint21_radial)"/>
<path d="M27.3605 63.0481C27.3605 63.4958 26.9955 63.8456 26.5603 63.8456C26.111 63.8456 25.76 63.4819 25.76 63.0481C25.76 62.6004 26.125 62.2505 26.5603 62.2505C26.9955 62.2505 27.3605 62.6143 27.3605 63.0481Z" fill="url(#paint22_linear)"/>
<path d="M56.7858 54.0093C56.7858 54.527 56.3646 54.9467 55.8452 54.9467C55.3257 54.9467 54.9045 54.527 54.9045 54.0093C54.9045 53.4916 55.3257 53.0718 55.8452 53.0718C56.3787 53.0718 56.7998 53.4916 56.7858 54.0093Z" fill="url(#paint23_radial)"/>
<path d="M56.6594 53.8835C56.6594 54.3312 56.2944 54.681 55.8592 54.681C55.4099 54.681 55.059 54.3172 55.059 53.8835C55.059 53.4357 55.424 53.0859 55.8592 53.0859C56.2944 53.0859 56.6594 53.4357 56.6594 53.8835Z" fill="url(#paint24_linear)"/>
<path d="M41.6796 87.912C41.6796 89.577 40.3178 90.9203 38.6471 90.9203C36.9764 90.9203 35.6287 89.563 35.6287 87.898C35.6287 86.2329 36.9905 84.8897 38.6611 84.8897C40.3459 84.8897 41.6936 86.2469 41.6796 87.912Z" fill="url(#paint25_radial)"/>
<path d="M41.6944 87.4502C41.6944 89.1152 40.3326 90.4585 38.6619 90.4585C36.9912 90.4585 35.6434 89.1013 35.6434 87.4362C35.6434 85.7712 37.0052 84.4279 38.6759 84.4279C40.3466 84.4279 41.6944 85.7851 41.6944 87.4502Z" fill="url(#paint26_radial)"/>
<path d="M41.2865 87.3383C41.2865 88.7795 40.1072 89.9548 38.6471 89.9548C37.201 89.9548 36.0217 88.7795 36.0217 87.3243C36.0217 85.8832 37.201 84.7078 38.6611 84.7078C40.1212 84.7218 41.3005 85.8971 41.2865 87.3383Z" fill="url(#paint27_linear)"/>
<path opacity="0.2" d="M59.4393 104.437L18.5148 104.311C18.5148 104.311 0.390112 70.4918 5.61272 40.5769C5.36002 42.2979 2.29945 64.8531 13.6572 81.0418C25.4923 97.8743 51.6896 96.489 61.5592 83.8962C70.8813 71.989 73.2259 53.5335 73.268 44.5506C76.2864 73.4721 59.4393 104.437 59.4393 104.437Z" fill="#31328A"/>
<path opacity="0.5" d="M6.56738 70.1701L7.74669 69.2746C7.74669 69.2746 16.4089 92.7672 20.719 103.163L20.1574 103.317C20.1574 103.317 8.46269 87.744 6.56738 70.1701Z" fill="#31328A"/>
<path opacity="0.5" d="M71.5973 70.3799L70.418 69.4704C70.418 69.4704 61.6154 92.9071 57.2351 103.275L57.7967 103.429C57.7967 103.429 69.5756 87.9399 71.5973 70.3799Z" fill="#31328A"/>
<path opacity="0.5" d="M25.9417 6.96805C25.9417 6.96805 41.2023 3.69391 54.3431 8.32527C54.3431 8.31128 40.1634 1.03542 25.9417 6.96805Z" fill="#31328A"/>
<path d="M25.9417 6.96817C25.9417 6.96817 40.8092 2.40676 54.3431 8.32539C54.3431 8.32539 45.0491 1.24542 39.3211 0.0141253C39.3211 0.000133308 32.2172 2.57467 25.9417 6.96817Z" fill="url(#paint28_radial)"/>
<path d="M25.8012 50.3433C26.0118 52.778 37.524 47.391 43.6592 47.8108C49.7943 48.2445 51.3948 51.7565 52.4197 50.917C53.4445 50.0635 49.1766 40.7028 39.7422 40.6748C30.3218 40.6329 25.6889 48.9721 25.8012 50.3433Z" fill="url(#paint29_linear)"/>
<path opacity="0.2" d="M7.88708 30.0409C7.88708 30.0409 43.5609 15.0834 70.5584 30.2508C70.5584 30.2508 38.8858 18.3016 7.88708 30.0409Z" fill="url(#paint30_linear)"/>
<path d="M7.87305 32.0977C7.87305 32.0977 39.0262 25.0178 70.5584 32.2936C70.5584 32.3076 38.7735 22.4432 7.87305 32.0977Z" fill="url(#paint31_linear)"/>
<path d="M26.2645 9.05285C26.0118 7.45776 19.7222 14.2719 20.031 15.0135C20.3399 15.755 26.6014 11.1377 26.2645 9.05285Z" fill="white"/>
<path d="M19.5256 15.4052C19.1044 15.0414 18.1919 17.0283 18.599 17.1822C19.0062 17.3361 19.8626 15.6991 19.5256 15.4052Z" fill="white"/>
<path d="M31.6416 35.218C31.5012 34.6583 29.5357 35.7777 29.7884 36.1554C30.0271 36.5332 31.7399 35.6797 31.6416 35.218Z" fill="white"/>
<path d="M65.1252 26.1791C64.9708 26.5429 64.5496 26.7108 64.1846 26.5569C63.8196 26.403 63.6511 25.9832 63.8055 25.6194C63.96 25.2556 64.3812 25.0877 64.7462 25.2416C65.1112 25.3955 65.2797 25.8153 65.1252 26.1791Z" fill="url(#paint32_linear)"/>
<path d="M65.4762 33.0212C65.3218 33.385 64.9006 33.5529 64.5356 33.399C64.1705 33.2451 64.0021 32.8253 64.1565 32.4615C64.3109 32.0977 64.7321 31.9298 65.0971 32.0837C65.4762 32.2237 65.6447 32.6574 65.4762 33.0212Z" fill="url(#paint33_linear)"/>
<path d="M41.5532 77.8796C41.3988 78.2434 40.9776 78.4113 40.6126 78.2574C40.2476 78.1035 40.0791 77.6837 40.2335 77.32C40.388 76.9562 40.8091 76.7883 41.1742 76.9422C41.5392 77.0821 41.7076 77.5158 41.5532 77.8796Z" fill="url(#paint34_linear)"/>
<path d="M57.4738 10.9418C57.4738 10.9418 63.8055 10.0323 63.8055 17.8259L57.4738 10.9418Z" fill="url(#paint35_linear)"/>
<path d="M16.8301 15.0974C16.8301 15.0974 16.7459 8.47918 23.3022 8.95491C23.3022 8.95491 18.0515 13.6562 16.8301 15.0974Z" fill="url(#paint36_linear)"/>
<path d="M27.5842 47.0132C27.3034 47.363 26.0259 49.5598 26.5734 50.0775C26.8401 50.3293 27.135 49.7277 28.4968 48.5104C29.8586 47.2791 30.9256 46.2297 30.4342 45.7539C29.9428 45.2782 28.23 46.2017 27.5842 47.0132Z" fill="white"/>
<path d="M35.376 107.781L38.1979 128.433L40.023 128.447L42.55 107.795L35.376 107.781Z" fill="url(#paint37_radial)"/>
<path d="M59.4533 104.702C59.4533 106.102 50.2716 110.705 38.97 110.663C27.6684 110.621 18.5148 105.962 18.5288 104.562C18.5288 103.163 27.6965 102.058 38.9981 102.1C50.2997 102.142 59.4533 103.303 59.4533 104.702Z" fill="#206CB4"/>
<path d="M48.0394 108.984C48.0394 109.684 43.968 110.229 38.97 110.215C33.958 110.201 29.9006 109.614 29.9006 108.928C29.9006 108.228 33.972 107.683 38.97 107.697C43.982 107.697 48.0394 108.284 48.0394 108.984Z" fill="url(#paint38_radial)"/>
<path d="M45.9195 108.97C45.9195 109.53 42.7888 111.992 38.956 111.978C35.1093 111.964 32.0066 109.488 32.0066 108.914C32.0066 108.354 35.1233 107.907 38.9701 107.907C42.8168 107.935 45.9195 108.41 45.9195 108.97Z" fill="url(#paint39_linear)"/>
<path d="M20.1574 103.317C20.1574 103.317 14.2469 117.071 14.2329 128.699L10.7792 129.818C10.7792 129.818 -9.69007 98.392 6.58145 70.1701L7.76075 69.2746C7.76075 69.2746 8.63119 72.8845 10.0772 77.9077C10.0772 77.9077 10.0772 77.9216 10.0772 77.9356C12.3656 85.7852 16.086 97.0767 20.1574 103.317Z" fill="url(#paint40_radial)"/>
<path d="M10.7651 129.818L11.7479 129.776C11.7479 129.776 -6.76994 98.1401 7.74668 69.2746L6.56738 70.1701C6.56738 70.1701 -10.7009 94.5022 10.7651 129.818Z" fill="url(#paint41_radial)"/>
<path d="M57.7966 103.429C57.7966 103.429 63.6089 117.225 63.5668 128.853L67.0204 130C67.0204 130 87.7003 98.6998 71.6113 70.3799L70.432 69.4704C70.432 69.4704 69.5335 73.0804 68.0593 78.0895C68.0593 78.0895 68.0593 78.1035 68.0593 78.1175C65.6867 85.9531 61.9101 97.2306 57.7966 103.429Z" fill="url(#paint42_radial)"/>
<path d="M67.0064 130L66.0237 129.944C66.0237 129.944 84.738 98.42 70.418 69.4705L71.5973 70.3799C71.5973 70.3799 88.6971 94.824 67.0064 130Z" fill="url(#paint43_radial)"/>
<defs>
<radialGradient id="paint0_radial" cx="0" cy="0" r="1" gradientUnits="userSpaceOnUse" gradientTransform="translate(19.0186 21.9794) rotate(23.3029) scale(55.0413 54.9142)">
<stop stop-color="#998CFF"/>
<stop offset="1" stop-color="#7673B4"/>
</radialGradient>
<radialGradient id="paint1_radial" cx="0" cy="0" r="1" gradientUnits="userSpaceOnUse" gradientTransform="translate(19.0168 21.9822) rotate(23.3029) scale(76.968 76.7902)">
<stop stop-color="#887AF1"/>
<stop offset="0.6872" stop-color="#7673B4"/>
<stop offset="0.7421" stop-color="#7377B8"/>
<stop offset="0.8254" stop-color="#6B84C1"/>
<stop offset="0.9263" stop-color="#5A96D0"/>
<stop offset="0.9749" stop-color="#4D9FD8"/>
</radialGradient>
<linearGradient id="paint2_linear" x1="39.0269" y1="154.604" x2="39.2679" y2="80.6325" gradientUnits="userSpaceOnUse">
<stop stop-color="#020203"/>
<stop offset="0.0970165" stop-color="#101017"/>
<stop offset="0.4322" stop-color="#463D54"/>
<stop offset="0.7045" stop-color="#746188"/>
<stop offset="0.9001" stop-color="#9479AC"/>
<stop offset="1" stop-color="#A084BB"/>
</linearGradient>
<radialGradient id="paint3_radial" cx="0" cy="0" r="1" gradientUnits="userSpaceOnUse" gradientTransform="translate(40.1126 69.8677) rotate(0.186658) scale(18.9845 18.9206)">
<stop stop-color="#6B4897"/>
<stop offset="1" stop-color="#28338A"/>
</radialGradient>
<linearGradient id="paint4_linear" x1="38.6262" y1="101.834" x2="38.8622" y2="27.8622" gradientUnits="userSpaceOnUse">
<stop stop-color="#2C3B90"/>
<stop offset="1" stop-color="#31328A" stop-opacity="0.2"/>
</linearGradient>
<radialGradient id="paint5_radial" cx="0" cy="0" r="1" gradientUnits="userSpaceOnUse" gradientTransform="translate(39.4575 41.6527) rotate(0.186658) scale(24.6252 24.5424)">
<stop stop-color="#A36E9F"/>
<stop offset="1" stop-color="#5858A3"/>
</radialGradient>
<linearGradient id="paint6_linear" x1="20.3241" y1="49.9966" x2="52.1157" y2="50.1008" gradientUnits="userSpaceOnUse">
<stop stop-color="#A084BB"/>
<stop offset="0.0998558" stop-color="#9479AC"/>
<stop offset="0.2955" stop-color="#746188"/>
<stop offset="0.5678" stop-color="#463D54"/>
<stop offset="0.903" stop-color="#101017"/>
<stop offset="1" stop-color="#020203"/>
</linearGradient>
<radialGradient id="paint7_radial" cx="0" cy="0" r="1" gradientUnits="userSpaceOnUse" gradientTransform="translate(39.8654 42.062) rotate(0.186658) scale(15.055 15.0044)">
<stop stop-color="#378CB9"/>
<stop offset="1" stop-color="#28338A"/>
</radialGradient>
<linearGradient id="paint8_linear" x1="39.0964" y1="67.7035" x2="39.1881" y2="39.5824" gradientUnits="userSpaceOnUse">
<stop stop-color="#6CC5D1"/>
<stop offset="1" stop-color="#51A0D9"/>
</linearGradient>
<radialGradient id="paint9_radial" cx="0" cy="0" r="1" gradientUnits="userSpaceOnUse" gradientTransform="translate(39.6553 69.1571) rotate(0.186657) scale(0.938153 0.934992)">
<stop stop-color="#6B4897"/>
<stop offset="1" stop-color="#28338A"/>
</radialGradient>
<linearGradient id="paint10_linear" x1="39.6541" y1="69.8201" x2="39.6593" y2="68.2221" gradientUnits="userSpaceOnUse">
<stop stop-color="#6CC5D1"/>
<stop offset="1" stop-color="#51A0D9"/>
</linearGradient>
<radialGradient id="paint11_radial" cx="0" cy="0" r="1" gradientUnits="userSpaceOnUse" gradientTransform="translate(39.7633 35.8186) rotate(0.186658) scale(0.938165 0.935008)">
<stop stop-color="#6B4897"/>
<stop offset="1" stop-color="#28338A"/>
</radialGradient>
<linearGradient id="paint12_linear" x1="39.7611" y1="36.4816" x2="39.7663" y2="34.8836" gradientUnits="userSpaceOnUse">
<stop stop-color="#6CC5D1"/>
<stop offset="1" stop-color="#51A0D9"/>
</linearGradient>
<radialGradient id="paint13_radial" cx="0" cy="0" r="1" gradientUnits="userSpaceOnUse" gradientTransform="translate(22.4963 54.5244) rotate(0.186658) scale(0.938109 0.934952)">
<stop stop-color="#6B4897"/>
<stop offset="1" stop-color="#28338A"/>
</radialGradient>
<linearGradient id="paint14_linear" x1="22.4942" y1="55.1875" x2="22.4994" y2="53.5895" gradientUnits="userSpaceOnUse">
<stop stop-color="#6CC5D1"/>
<stop offset="1" stop-color="#51A0D9"/>
</linearGradient>
<radialGradient id="paint15_radial" cx="0" cy="0" r="1" gradientUnits="userSpaceOnUse" gradientTransform="translate(51.6501 41.1062) rotate(0.186658) scale(0.938163 0.935008)">
<stop stop-color="#6B4897"/>
<stop offset="1" stop-color="#28338A"/>
</radialGradient>
<linearGradient id="paint16_linear" x1="51.6487" y1="41.7693" x2="51.6539" y2="40.1713" gradientUnits="userSpaceOnUse">
<stop stop-color="#6CC5D1"/>
<stop offset="1" stop-color="#51A0D9"/>
</linearGradient>
<radialGradient id="paint17_radial" cx="0" cy="0" r="1" gradientUnits="userSpaceOnUse" gradientTransform="translate(26.6329 41.0258) rotate(0.186658) scale(0.938123 0.934966)">
<stop stop-color="#6B4897"/>
<stop offset="1" stop-color="#28338A"/>
</radialGradient>
<linearGradient id="paint18_linear" x1="26.6317" y1="41.689" x2="26.6369" y2="40.091" gradientUnits="userSpaceOnUse">
<stop stop-color="#6CC5D1"/>
<stop offset="1" stop-color="#51A0D9"/>
</linearGradient>
<radialGradient id="paint19_radial" cx="0" cy="0" r="1" gradientUnits="userSpaceOnUse" gradientTransform="translate(51.5784 63.2639) rotate(0.186658) scale(0.938107 0.934952)">
<stop stop-color="#6B4897"/>
<stop offset="1" stop-color="#28338A"/>
</radialGradient>
<linearGradient id="paint20_linear" x1="51.5772" y1="63.9269" x2="51.5824" y2="62.3289" gradientUnits="userSpaceOnUse">
<stop stop-color="#6CC5D1"/>
<stop offset="1" stop-color="#51A0D9"/>
</linearGradient>
<radialGradient id="paint21_radial" cx="0" cy="0" r="1" gradientUnits="userSpaceOnUse" gradientTransform="translate(26.5611 63.1835) rotate(0.186658) scale(0.938137 0.93498)">
<stop stop-color="#6B4897"/>
<stop offset="1" stop-color="#28338A"/>
</radialGradient>
<linearGradient id="paint22_linear" x1="26.5598" y1="63.8465" x2="26.565" y2="62.2485" gradientUnits="userSpaceOnUse">
<stop stop-color="#6CC5D1"/>
<stop offset="1" stop-color="#51A0D9"/>
</linearGradient>
<radialGradient id="paint23_radial" cx="0" cy="0" r="1" gradientUnits="userSpaceOnUse" gradientTransform="translate(55.8545 54.0099) rotate(0.186658) scale(0.938167 0.935008)">
<stop stop-color="#6B4897"/>
<stop offset="1" stop-color="#28338A"/>
</radialGradient>
<linearGradient id="paint24_linear" x1="55.8523" y1="54.6729" x2="55.8575" y2="53.0749" gradientUnits="userSpaceOnUse">
<stop stop-color="#6CC5D1"/>
<stop offset="1" stop-color="#51A0D9"/>
</linearGradient>
<radialGradient id="paint25_radial" cx="0" cy="0" r="1" gradientUnits="userSpaceOnUse" gradientTransform="translate(38.6618 87.9008) rotate(0.186658) scale(3.02477 3.01459)">
<stop stop-color="#878CC4"/>
<stop offset="1" stop-color="#B6ABD5"/>
</radialGradient>
<radialGradient id="paint26_radial" cx="0" cy="0" r="1" gradientUnits="userSpaceOnUse" gradientTransform="translate(38.706 89.9999) rotate(0.186658) scale(3.02475 3.01457)">
<stop stop-color="#D78087"/>
<stop offset="1" stop-color="#28338A"/>
</radialGradient>
<linearGradient id="paint27_linear" x1="38.655" y1="89.9551" x2="38.672" y2="84.7172" gradientUnits="userSpaceOnUse">
<stop stop-color="#F6EA56"/>
<stop offset="1" stop-color="#F7A418"/>
</linearGradient>
<radialGradient id="paint28_radial" cx="0" cy="0" r="1" gradientUnits="userSpaceOnUse" gradientTransform="translate(40.1557 4.1383) rotate(0.186658) scale(10.4638 10.4286)">
<stop stop-color="#FBFBFE"/>
<stop offset="1" stop-color="#C3BEE0"/>
</radialGradient>
<linearGradient id="paint29_linear" x1="25.8179" y1="45.7967" x2="52.5883" y2="45.8845" gradientUnits="userSpaceOnUse">
<stop stop-color="#55C2E4"/>
<stop offset="0.4638" stop-color="#70C9E6"/>
<stop offset="1" stop-color="#90D2EA"/>
</linearGradient>
<linearGradient id="paint30_linear" x1="7.8948" y1="26.6929" x2="70.5697" y2="26.8985" gradientUnits="userSpaceOnUse">
<stop stop-color="#E5DBEE"/>
<stop offset="1" stop-color="#2C3B90"/>
</linearGradient>
<linearGradient id="paint31_linear" x1="-36.8349" y1="29.7854" x2="25.8455" y2="29.991" gradientUnits="userSpaceOnUse">
<stop stop-color="#020203"/>
<stop offset="0.0970165" stop-color="#101017"/>
<stop offset="0.4322" stop-color="#463D54"/>
<stop offset="0.7045" stop-color="#746188"/>
<stop offset="0.9001" stop-color="#9479AC"/>
<stop offset="1" stop-color="#A084BB"/>
</linearGradient>
<linearGradient id="paint32_linear" x1="64.1739" y1="26.5607" x2="64.7425" y2="25.2407" gradientUnits="userSpaceOnUse">
<stop stop-color="#52519E"/>
<stop offset="1" stop-color="#CAC2E1"/>
</linearGradient>
<linearGradient id="paint33_linear" x1="64.5286" y1="33.3933" x2="65.0971" y2="32.0734" gradientUnits="userSpaceOnUse">
<stop stop-color="#52519E"/>
<stop offset="1" stop-color="#CAC2E1"/>
</linearGradient>
<linearGradient id="paint34_linear" x1="40.5983" y1="78.2515" x2="41.167" y2="76.9314" gradientUnits="userSpaceOnUse">
<stop stop-color="#52519E"/>
<stop offset="1" stop-color="#CAC2E1"/>
</linearGradient>
<linearGradient id="paint35_linear" x1="56.8628" y1="12.3332" x2="64.7061" y2="15.7344" gradientUnits="userSpaceOnUse">
<stop stop-color="#F6EA56"/>
<stop offset="1" stop-color="#F7A418"/>
</linearGradient>
<linearGradient id="paint36_linear" x1="17.9156" y1="11.1006" x2="21.6635" y2="12.7258" gradientUnits="userSpaceOnUse">
<stop stop-color="#F6EA56"/>
<stop offset="1" stop-color="#F7A418"/>
</linearGradient>
<radialGradient id="paint37_radial" cx="0" cy="0" r="1" gradientUnits="userSpaceOnUse" gradientTransform="translate(39.1718 106.694) rotate(0.186658) scale(16.548 16.4923)">
<stop stop-color="#BFBBDE"/>
<stop offset="1" stop-color="#7673B4"/>
</radialGradient>
<radialGradient id="paint38_radial" cx="0" cy="0" r="1" gradientUnits="userSpaceOnUse" gradientTransform="translate(38.9611 108.948) rotate(0.184545) scale(6.48458 6.12236)">
<stop stop-color="#4F3B90"/>
<stop offset="0.6313" stop-color="#59348B"/>
<stop offset="0.9804" stop-color="#342E88"/>
</radialGradient>
<linearGradient id="paint39_linear" x1="32.0034" y1="109.932" x2="45.919" y2="109.978" gradientUnits="userSpaceOnUse">
<stop stop-color="#6CC5D1"/>
<stop offset="1" stop-color="#51A0D9"/>
</linearGradient>
<radialGradient id="paint40_radial" cx="0" cy="0" r="1" gradientUnits="userSpaceOnUse" gradientTransform="translate(10.8772 66.074) rotate(0.186658) scale(48.4397 48.2767)">
<stop stop-color="#D0CDE8"/>
<stop offset="1" stop-color="#7673B4"/>
</radialGradient>
<radialGradient id="paint41_radial" cx="0" cy="0" r="1" gradientUnits="userSpaceOnUse" gradientTransform="translate(6.35389 66.0611) rotate(0.186658) scale(48.1076 47.9457)">
<stop stop-color="#FBFBFE"/>
<stop offset="1" stop-color="#C3BEE0"/>
</radialGradient>
<radialGradient id="paint42_radial" cx="0" cy="0" r="1" gradientUnits="userSpaceOnUse" gradientTransform="translate(67.3106 66.255) rotate(-179.813) scale(48.44 48.277)">
<stop stop-color="#B2DEEA"/>
<stop offset="1" stop-color="#C3BEE0"/>
</radialGradient>
<radialGradient id="paint43_radial" cx="0" cy="0" r="1" gradientUnits="userSpaceOnUse" gradientTransform="translate(71.8352 66.2718) rotate(-179.813) scale(48.1077 47.9458)">
<stop stop-color="#D0CDE8"/>
<stop offset="1" stop-color="#7673B4"/>
</radialGradient>
</defs>
</svg>
