<svg width="42" height="42" viewBox="0 0 42 42" fill="none" xmlns="http://www.w3.org/2000/svg">
<path d="M22.96 0.0406748C20.72 0.0406748 18.8533 -0.0508435 17.1733 0.0406748C7.6533 0.406748 0 9.65012 0 20.9984C0 30.8824 5.78664 39.2105 13.6266 41.407C16.24 42.2306 19.1333 41.9561 22.96 41.9561C34.5333 41.9561 42 32.6212 42 20.9984C42 9.37556 34.5333 0.0406748 22.96 0.0406748Z" fill="#4C2D03"/>
<path d="M41.9999 20.9984C41.9999 32.5297 34.5332 41.9561 22.9599 41.9561C18.2932 41.9561 15.0266 42.3221 12.0399 40.6748C5.3199 37.1056 2.05322 28.9605 2.05322 20.9984C2.05322 12.7617 5.41327 4.52507 12.5999 1.13889C15.4933 -0.233884 18.4799 0.0406599 22.9599 0.0406599C34.5332 0.0406599 41.9999 9.37555 41.9999 20.9984Z" fill="#FFA905"/>
<path d="M17.8271 41.956C27.6209 41.956 35.5604 32.573 35.5604 20.9984C35.5604 9.42375 27.6209 0.0406494 17.8271 0.0406494C8.03323 0.0406494 0.09375 9.42375 0.09375 20.9984C0.09375 32.573 8.03323 41.956 17.8271 41.956Z" fill="#FFE305"/>
<path d="M29.3067 21.822C29.3067 29.9672 24.1733 36.465 17.8267 36.465C11.48 36.465 6.34668 29.8756 6.34668 21.822C6.34668 13.6769 11.48 7.17911 17.8267 7.17911C24.1733 7.17911 29.3067 13.7684 29.3067 21.822Z" fill="#FFFF05"/>
<path d="M28.7466 20.9984C28.7466 29.1435 23.5199 35.8243 16.9865 35.8243C10.5465 35.8243 5.22656 29.235 5.22656 20.9984C5.22656 12.8533 10.4532 6.17242 16.9865 6.17242C23.4265 6.17242 28.7466 12.8533 28.7466 20.9984Z" fill="#EA9000"/>
<path d="M28.7467 21.456C28.7467 29.3265 23.8934 35.7328 18.0134 35.7328C12.1334 35.7328 7.28003 29.3265 7.28003 21.456C7.28003 13.5854 12.1334 7.17911 18.0134 7.17911C23.8934 7.17911 28.7467 13.5854 28.7467 21.456Z" fill="#FFC005"/>
<path d="M28.28 21.1814C28.28 27.5877 24.1733 32.7127 19.04 32.7127C14 32.7127 9.80005 27.4962 9.80005 21.1814C9.80005 14.7751 13.9067 9.65011 19.04 9.65011C24.08 9.55859 28.28 14.7751 28.28 21.1814Z" fill="#EA9000"/>
<path d="M26.3199 21.1814C26.3199 27.5877 22.3999 32.7127 17.6399 32.7127C12.7866 32.7127 8.95996 27.4962 8.95996 21.1814C8.95996 14.7751 12.8799 9.65011 17.6399 9.65011C22.3999 9.55859 26.3199 14.7751 26.3199 21.1814Z" fill="#FFE305"/>
<path d="M24.36 38.7529C23.4267 39.3936 22.4 39.5766 22.12 39.119C21.84 38.6614 22.3067 37.8377 23.24 37.1971C24.1734 36.5565 25.2 36.3734 25.48 36.831C25.76 37.1971 25.2934 38.1123 24.36 38.7529Z" fill="white"/>
</svg>
