<svg width="62" height="54" viewBox="0 0 62 54" fill="none" xmlns="http://www.w3.org/2000/svg">
<path d="M1.13098 46.1719C3.26207 54.5368 55.5449 57.4078 59.9847 48.7239C63.9982 40.8198 61.3344 10.1604 57.9246 4.52473C53.2362 -3.13126 7.45323 -0.0121479 3.65278 6.04885C0.100959 11.6491 -1.10667 37.5235 1.13098 46.1719Z" fill="url(#paint0_radial)"/>
<path d="M1.27345 44.6832C3.40454 52.7291 55.3677 53.8279 59.772 45.463C63.7855 37.8425 61.1927 10.2667 57.7474 4.84373C53.0945 -2.56415 7.45362 0.413179 3.68869 6.22606C0.2079 11.6845 -0.928679 36.3538 1.27345 44.6832Z" fill="url(#paint1_linear)"/>
<path d="M1.91251 43.9743C4.00808 51.7721 54.8702 52.8709 59.1679 44.7541C63.0749 37.3817 60.5176 10.5503 57.1789 5.26905C52.6325 -1.92616 7.98613 0.873949 4.29223 6.54506C0.882483 11.8263 -0.218587 35.893 1.91251 43.9743Z" fill="url(#paint2_linear)"/>
<path d="M37.0625 14.5617L36.9685 13.2601C32.7453 9.45669 28.2677 8.97212 25.9571 9.02283C25.0948 8.92704 24.3651 9.16369 24.3651 9.16369C24.1385 10.3188 23.9063 12.0599 23.6797 14.0827C23.1877 18.427 22.7234 24.0504 22.4359 27.8425C22.06 27.0818 21.5736 26.417 21.0042 25.9211C17.4167 22.7713 8.65509 27.7186 8.02492 32.9869C7.38922 38.2553 19.1026 38.554 21.7062 35.5902C22.6128 34.559 23.0827 33.3138 23.2098 32.046C25.2385 27.048 26.8305 18.5003 27.6099 13.7785C32.3252 13.7221 37.0625 14.5617 37.0625 14.5617Z" fill="#8C86C8"/>
<rect x="35.0687" y="17" width="23.1455" height="4.33978" rx="2.16989" transform="rotate(45 35.0687 17)" fill="#8C86C8"/>
<rect width="23.1455" height="4.33978" rx="2.16989" transform="matrix(-0.707107 0.707107 0.707107 0.707107 48.3663 17)" fill="#8C86C8"/>
<defs>
<radialGradient id="paint0_radial" cx="0" cy="0" r="1" gradientUnits="userSpaceOnUse" gradientTransform="translate(31.9932 50.1629) scale(23.9566 44.8281)">
<stop stop-color="#D0CDE8"/>
<stop offset="1" stop-color="#7673B4"/>
</radialGradient>
<linearGradient id="paint1_linear" x1="30.9879" y1="51.258" x2="30.9879" y2="0.461597" gradientUnits="userSpaceOnUse">
<stop stop-color="#CCDAF1"/>
<stop offset="1" stop-color="white"/>
</linearGradient>
<linearGradient id="paint2_linear" x1="30.988" y1="50.3597" x2="30.988" y2="0.975744" gradientUnits="userSpaceOnUse">
<stop stop-color="#CDCDFF"/>
<stop offset="1" stop-color="#B4AAEC"/>
</linearGradient>
</defs>
</svg>
