<svg width="390" height="678" viewBox="0 0 390 678" fill="none" xmlns="http://www.w3.org/2000/svg">
<path d="M373 673.002C373 675.789 370.788 678 368 678C365.212 678 363 675.789 363 673.002C363 670.214 365.212 668.003 368 668.003C370.788 667.907 373 670.214 373 673.002Z" fill="#FFFDFC"/>
<path d="M328 544.002C328 546.789 325.788 549 323 549C320.212 549 318 546.789 318 544.002C318 541.214 320.212 539.003 323 539.003C325.788 538.907 328 541.214 328 544.002Z" fill="#FFFDFC"/>
<path d="M89 46.003C89 48.7915 86.7885 51.003 84 51.003C81.2115 51.003 79 48.7915 79 46.003C79 43.2145 81.2115 41.0029 84 41.0029C86.7885 40.9067 89 43.2145 89 46.003Z" fill="#0094FF"/>
<g filter="url(#filter0_d)">
<path d="M89 418.002C89 420.789 86.7885 423 84 423C81.2115 423 79 420.789 79 418.002C79 415.214 81.2115 413.003 84 413.003C86.7885 412.907 89 415.214 89 418.002Z" fill="url(#paint0_radial)"/>
</g>
<path d="M351 391C351 392.688 349.687 394 348 394C346.312 394 345 392.688 345 391C345 389.312 346.312 388 348 388C349.687 388 351 389.312 351 391Z" fill="#00FF48"/>
<path d="M170 202C170 203.688 168.687 205 167 205C165.312 205 164 203.688 164 202C164 200.312 165.312 199 167 199C168.687 199 170 200.312 170 202Z" fill="#0085FF"/>
<path d="M164 130C164 131.688 162.687 133 161 133C159.312 133 158 131.688 158 130C158 128.312 159.312 127 161 127C162.687 127 164 128.312 164 130Z" fill="#FFFDFC"/>
<g opacity="0.5" filter="url(#filter1_d)">
<path d="M51 177.002C51 179.789 48.7885 182 46 182C43.2115 182 41 179.789 41 177.002C41 174.214 43.2115 172.003 46 172.003C48.7885 171.907 51 174.214 51 177.002Z" fill="url(#paint1_radial)"/>
</g>
<path opacity="0.5" d="M309 62.9999C309 64.6874 307.687 65.9999 306 65.9999C304.312 65.9999 303 64.6874 303 62.9999C303 61.3124 304.312 60 306 60C307.687 60 309 61.3124 309 62.9999Z" fill="#FFFDFC"/>
<path d="M228 473C228 474.688 226.687 476 225 476C223.312 476 222 474.688 222 473C222 471.312 223.312 470 225 470C226.687 470 228 471.312 228 473Z" fill="#00E0FF"/>
<g opacity="0.5" filter="url(#filter2_d)">
<path d="M177 287C177 288.688 175.687 290 174 290C172.312 290 171 288.688 171 287C171 285.312 172.312 284 174 284C175.687 284 177 285.312 177 287Z" fill="url(#paint2_radial)"/>
</g>
<path opacity="0.5" d="M328 457.002C328 459.789 325.788 462 323 462C320.212 462 318 459.789 318 457.002C318 454.214 320.212 452.003 323 452.003C325.788 451.907 328 454.214 328 457.002Z" fill="#554B92"/>
<path opacity="0.5" d="M6 385C6 386.688 4.68744 388 2.99994 388C1.31245 388 0 386.688 0 385C0 383.312 1.31245 382 2.99994 382C4.68744 382 6 383.312 6 385Z" fill="#00FF48"/>
<path d="M262 628.002C262 630.789 259.788 633 257 633C254.212 633 252 630.789 252 628.002C252 625.214 254.212 623.003 257 623.003C259.788 622.907 262 625.214 262 628.002Z" fill="#554B92"/>
<g filter="url(#filter3_d)">
<path d="M289 185C289 186.688 287.687 188 286 188C284.312 188 283 186.688 283 185C283 183.312 284.312 182 286 182C287.687 182 289 183.312 289 185Z" fill="url(#paint3_radial)"/>
</g>
<path d="M6 669C6 670.688 4.68744 672 2.99994 672C1.31245 672 0 670.688 0 669C0 667.312 1.31245 666 2.99994 666C4.68744 666 6 667.312 6 669Z" fill="#6A59D2"/>
<path d="M255 2.99994C255 4.68744 253.687 5.99989 252 5.99989C250.312 5.99989 249 4.68744 249 2.99994C249 1.31245 250.312 0 252 0C253.687 0 255 1.31245 255 2.99994Z" fill="#6A59D2"/>
<path d="M184 544.002C184 546.789 181.788 549 179 549C176.212 549 174 546.789 174 544.002C174 541.214 176.212 539.003 179 539.003C181.788 538.907 184 541.214 184 544.002Z" fill="url(#paint4_radial)"/>
<path d="M33 52C33 52.5625 32.5625 53 32 53C31.4375 53 31 52.5625 31 52C31 51.4375 31.4375 51 32 51C32.5313 51 33 51.4375 33 52Z" fill="#0A59A5"/>
<path opacity="0.5" d="M390 188C390 189.688 388.687 191 387 191C385.312 191 384 189.688 384 188C384 186.312 385.312 185 387 185C388.687 185 390 186.312 390 188Z" fill="url(#paint5_radial)"/>
<g opacity="0.5" filter="url(#filter4_d)">
<path d="M283 322C283 322.562 282.563 323 282 323C281.438 323 281 322.562 281 322C281 321.437 281.438 321 282 321C282.531 321 283 321.437 283 322Z" fill="url(#paint6_radial)"/>
</g>
<g filter="url(#filter5_d)">
<path d="M79 318C79 318.562 78.5625 319 78 319C77.4375 319 77 318.562 77 318C77 317.437 77.4375 317 78 317C78.5313 317 79 317.437 79 318Z" fill="url(#paint7_radial)"/>
</g>
<g filter="url(#filter6_d)">
<path d="M55 576C55 576.562 54.5625 577 54 577C53.4375 577 53 576.562 53 576C53 575.437 53.4375 575 54 575C54.5313 575 55 575.437 55 576Z" fill="#00F0FF"/>
</g>
<path opacity="0.5" d="M132 15C132 15.5625 131.563 16 131 16C130.438 16 130 15.5625 130 15C130 14.4375 130.438 14 131 14C131.531 14 132 14.4375 132 15Z" fill="#FFFDFC"/>
<path opacity="0.5" d="M189 389.002C189 391.789 186.788 394 184 394C181.212 394 179 391.789 179 389.002C179 386.214 181.212 384.003 184 384.003C186.788 383.907 189 386.214 189 389.002Z" fill="#0A59A5"/>
<path d="M138 652C138 653.688 136.687 655 135 655C133.312 655 132 653.688 132 652C132 650.312 133.312 649 135 649C136.687 649 138 650.312 138 652Z" fill="url(#paint8_radial)"/>
<defs>
<filter id="filter0_d" x="75" y="413" width="18" height="18" filterUnits="userSpaceOnUse" color-interpolation-filters="sRGB">
<feFlood flood-opacity="0" result="BackgroundImageFix"/>
<feColorMatrix in="SourceAlpha" type="matrix" values="0 0 0 0 0 0 0 0 0 0 0 0 0 0 0 0 0 0 127 0"/>
<feOffset dy="4"/>
<feGaussianBlur stdDeviation="2"/>
<feColorMatrix type="matrix" values="0 0 0 0 0 0 0 0 0 0 0 0 0 0 0 0 0 0 0.25 0"/>
<feBlend mode="normal" in2="BackgroundImageFix" result="effect1_dropShadow"/>
<feBlend mode="normal" in="SourceGraphic" in2="effect1_dropShadow" result="shape"/>
</filter>
<filter id="filter1_d" x="37" y="172" width="18" height="18" filterUnits="userSpaceOnUse" color-interpolation-filters="sRGB">
<feFlood flood-opacity="0" result="BackgroundImageFix"/>
<feColorMatrix in="SourceAlpha" type="matrix" values="0 0 0 0 0 0 0 0 0 0 0 0 0 0 0 0 0 0 127 0"/>
<feOffset dy="4"/>
<feGaussianBlur stdDeviation="2"/>
<feColorMatrix type="matrix" values="0 0 0 0 0 0 0 0 0 0 0 0 0 0 0 0 0 0 0.25 0"/>
<feBlend mode="normal" in2="BackgroundImageFix" result="effect1_dropShadow"/>
<feBlend mode="normal" in="SourceGraphic" in2="effect1_dropShadow" result="shape"/>
</filter>
<filter id="filter2_d" x="167" y="284" width="14" height="14" filterUnits="userSpaceOnUse" color-interpolation-filters="sRGB">
<feFlood flood-opacity="0" result="BackgroundImageFix"/>
<feColorMatrix in="SourceAlpha" type="matrix" values="0 0 0 0 0 0 0 0 0 0 0 0 0 0 0 0 0 0 127 0"/>
<feOffset dy="4"/>
<feGaussianBlur stdDeviation="2"/>
<feColorMatrix type="matrix" values="0 0 0 0 0 0 0 0 0 0 0 0 0 0 0 0 0 0 0.25 0"/>
<feBlend mode="normal" in2="BackgroundImageFix" result="effect1_dropShadow"/>
<feBlend mode="normal" in="SourceGraphic" in2="effect1_dropShadow" result="shape"/>
</filter>
<filter id="filter3_d" x="279" y="182" width="14" height="14" filterUnits="userSpaceOnUse" color-interpolation-filters="sRGB">
<feFlood flood-opacity="0" result="BackgroundImageFix"/>
<feColorMatrix in="SourceAlpha" type="matrix" values="0 0 0 0 0 0 0 0 0 0 0 0 0 0 0 0 0 0 127 0"/>
<feOffset dy="4"/>
<feGaussianBlur stdDeviation="2"/>
<feColorMatrix type="matrix" values="0 0 0 0 0 0 0 0 0 0 0 0 0 0 0 0 0 0 0.25 0"/>
<feBlend mode="normal" in2="BackgroundImageFix" result="effect1_dropShadow"/>
<feBlend mode="normal" in="SourceGraphic" in2="effect1_dropShadow" result="shape"/>
</filter>
<filter id="filter4_d" x="277" y="321" width="10" height="10" filterUnits="userSpaceOnUse" color-interpolation-filters="sRGB">
<feFlood flood-opacity="0" result="BackgroundImageFix"/>
<feColorMatrix in="SourceAlpha" type="matrix" values="0 0 0 0 0 0 0 0 0 0 0 0 0 0 0 0 0 0 127 0"/>
<feOffset dy="4"/>
<feGaussianBlur stdDeviation="2"/>
<feColorMatrix type="matrix" values="0 0 0 0 0 0 0 0 0 0 0 0 0 0 0 0 0 0 0.25 0"/>
<feBlend mode="normal" in2="BackgroundImageFix" result="effect1_dropShadow"/>
<feBlend mode="normal" in="SourceGraphic" in2="effect1_dropShadow" result="shape"/>
</filter>
<filter id="filter5_d" x="73" y="317" width="10" height="10" filterUnits="userSpaceOnUse" color-interpolation-filters="sRGB">
<feFlood flood-opacity="0" result="BackgroundImageFix"/>
<feColorMatrix in="SourceAlpha" type="matrix" values="0 0 0 0 0 0 0 0 0 0 0 0 0 0 0 0 0 0 127 0"/>
<feOffset dy="4"/>
<feGaussianBlur stdDeviation="2"/>
<feColorMatrix type="matrix" values="0 0 0 0 0 0 0 0 0 0 0 0 0 0 0 0 0 0 0.25 0"/>
<feBlend mode="normal" in2="BackgroundImageFix" result="effect1_dropShadow"/>
<feBlend mode="normal" in="SourceGraphic" in2="effect1_dropShadow" result="shape"/>
</filter>
<filter id="filter6_d" x="49" y="575" width="10" height="10" filterUnits="userSpaceOnUse" color-interpolation-filters="sRGB">
<feFlood flood-opacity="0" result="BackgroundImageFix"/>
<feColorMatrix in="SourceAlpha" type="matrix" values="0 0 0 0 0 0 0 0 0 0 0 0 0 0 0 0 0 0 127 0"/>
<feOffset dy="4"/>
<feGaussianBlur stdDeviation="2"/>
<feColorMatrix type="matrix" values="0 0 0 0 0 0 0 0 0 0 0 0 0 0 0 0 0 0 0.25 0"/>
<feBlend mode="normal" in2="BackgroundImageFix" result="effect1_dropShadow"/>
<feBlend mode="normal" in="SourceGraphic" in2="effect1_dropShadow" result="shape"/>
</filter>
<radialGradient id="paint0_radial" cx="0" cy="0" r="1" gradientUnits="userSpaceOnUse" gradientTransform="translate(84 418) rotate(90) scale(5)">
<stop offset="0.419792" stop-color="#FFFDFC"/>
<stop offset="1" stop-color="#FFFDFC" stop-opacity="0"/>
</radialGradient>
<radialGradient id="paint1_radial" cx="0" cy="0" r="1" gradientUnits="userSpaceOnUse" gradientTransform="translate(46 177) rotate(90) scale(5)">
<stop offset="0.419792" stop-color="#FFFDFC"/>
<stop offset="1" stop-color="#FFFDFC" stop-opacity="0"/>
</radialGradient>
<radialGradient id="paint2_radial" cx="0" cy="0" r="1" gradientUnits="userSpaceOnUse" gradientTransform="translate(174 287) rotate(90) scale(3)">
<stop offset="0.419792" stop-color="#FFFDFC"/>
<stop offset="1" stop-color="#FFFDFC" stop-opacity="0"/>
</radialGradient>
<radialGradient id="paint3_radial" cx="0" cy="0" r="1" gradientUnits="userSpaceOnUse" gradientTransform="translate(286 185) rotate(90) scale(3)">
<stop offset="0.419792" stop-color="#00FC49"/>
<stop offset="1" stop-color="#FFFDFC" stop-opacity="0"/>
</radialGradient>
<radialGradient id="paint4_radial" cx="0" cy="0" r="1" gradientUnits="userSpaceOnUse" gradientTransform="translate(179 544) rotate(90) scale(5)">
<stop offset="0.435417" stop-color="#554B92"/>
<stop offset="1" stop-color="#554B92" stop-opacity="0"/>
</radialGradient>
<radialGradient id="paint5_radial" cx="0" cy="0" r="1" gradientUnits="userSpaceOnUse" gradientTransform="translate(387 188) rotate(90) scale(3)">
<stop offset="0.435417" stop-color="#554B92"/>
<stop offset="1" stop-color="#554B92" stop-opacity="0"/>
</radialGradient>
<radialGradient id="paint6_radial" cx="0" cy="0" r="1" gradientUnits="userSpaceOnUse" gradientTransform="translate(282 322) rotate(90)">
<stop offset="0.419792" stop-color="#FFFDFC"/>
<stop offset="1" stop-color="#FFFDFC" stop-opacity="0"/>
</radialGradient>
<radialGradient id="paint7_radial" cx="0" cy="0" r="1" gradientUnits="userSpaceOnUse" gradientTransform="translate(78 318) rotate(90)">
<stop offset="0.419792" stop-color="#FFFDFC"/>
<stop offset="1" stop-color="#FFFDFC" stop-opacity="0"/>
</radialGradient>
<radialGradient id="paint8_radial" cx="0" cy="0" r="1" gradientUnits="userSpaceOnUse" gradientTransform="translate(135 652) rotate(90) scale(3)">
<stop offset="0.435417" stop-color="#554B92"/>
<stop offset="1" stop-color="#554B92" stop-opacity="0"/>
</radialGradient>
</defs>
</svg>
