<svg width="276" height="112" viewBox="0 0 276 112" fill="none" xmlns="http://www.w3.org/2000/svg">
<g filter="url(#filter0_d)">
<rect x="18" y="14" width="240" height="76" rx="20.2667" fill="url(#paint0_linear)"/>
<path fill-rule="evenodd" clip-rule="evenodd" d="M38.2667 14C27.0737 14 18 23.0737 18 34.2667V69.7333C18 69.768 18.0001 69.8026 18.0003 69.8372V41.8667C18.0003 30.6737 27.074 21.6 38.2669 21.6H237.734C248.892 21.6 257.944 30.6177 258 41.763V34.2667C258 23.0737 248.926 14 237.733 14H38.2667Z" fill="#FFF6BF"/>
<path fill-rule="evenodd" clip-rule="evenodd" d="M38.2667 90C27.0737 90 18 80.9263 18 69.7333V34.2667C18 34.232 18.0001 34.1974 18.0003 34.1628V62.1333C18.0003 73.3263 27.074 82.4 38.2669 82.4H237.734C248.892 82.4 257.944 73.3823 258 62.237V69.7333C258 80.9263 248.926 90 237.733 90H38.2667Z" fill="#DC6B02" fill-opacity="0.6"/>
<path d="M58.248 58.776C57.408 58.9627 56.568 59.056 55.728 59.056C54.888 59.0747 54.0387 58.9627 53.18 58.72C52.34 58.4587 51.6213 58.076 51.024 57.572C50.632 57.18 50.2773 56.6387 49.96 55.948L49.652 55.304C49.5587 55.0987 49.4747 54.94 49.4 54.828C49.176 54.4733 49.12 54.0813 49.232 53.652C49.344 53.2227 49.5773 52.9053 49.932 52.7C50.3053 52.476 50.7067 52.42 51.136 52.532C51.5653 52.644 51.892 52.8773 52.116 53.232L52.508 53.96L52.788 54.576C52.9373 54.8933 53.0773 55.108 53.208 55.22C53.5253 55.5187 54.0667 55.724 54.832 55.836C55.5973 55.948 56.5213 55.9013 57.604 55.696C58.5747 55.472 59.3773 55.1547 60.012 54.744C60.6467 54.3147 61.0387 53.8853 61.188 53.456C61.3 53.0827 61.188 52.5693 60.852 51.916C60.4973 51.2067 60.0867 50.712 59.62 50.432C59.4147 50.32 58.92 50.1893 58.136 50.04H58.108C58.0707 50.0587 57.828 50.096 57.38 50.152C56.9507 50.1893 56.5867 50.1707 56.288 50.096C55.5787 49.8907 55.1213 49.4427 54.916 48.752C54.7293 48.1733 54.832 47.6693 55.224 47.24C55.3547 47.0533 55.532 46.9133 55.756 46.82C55.8867 46.764 56.0267 46.7173 56.176 46.68C56.2693 46.68 56.3907 46.6707 56.54 46.652C56.9507 46.596 57.24 46.5587 57.408 46.54C58.192 46.4093 58.7893 46.2133 59.2 45.952C59.6293 45.672 59.8907 45.42 59.984 45.196C60.0773 44.9533 60.0773 44.468 59.984 43.74C59.928 43.1987 59.6387 42.76 59.116 42.424C58.612 42.088 57.8933 41.92 56.96 41.92C55.9893 41.92 55.1213 42.0973 54.356 42.452C53.6093 42.8067 53.1147 43.2173 52.872 43.684V43.908C52.872 43.9453 52.8627 43.9827 52.844 44.02C52.844 44.0573 52.844 44.104 52.844 44.16V44.272C52.8253 44.496 52.7973 44.6827 52.76 44.832C52.6853 45.2427 52.4613 45.5787 52.088 45.84C51.7147 46.0827 51.3227 46.176 50.912 46.12C50.5013 46.0453 50.1653 45.8307 49.904 45.476C49.6613 45.1027 49.5773 44.7013 49.652 44.272C49.652 44.216 49.6613 44.132 49.68 44.02C49.6987 43.74 49.708 43.5907 49.708 43.572C49.764 43.068 49.8853 42.6387 50.072 42.284C50.632 41.108 51.5653 40.2307 52.872 39.652C54.1973 39.0547 55.56 38.756 56.96 38.756C57.632 38.756 58.2853 38.84 58.92 39.008C59.5733 39.176 60.1987 39.428 60.796 39.764C61.412 40.0813 61.9347 40.5667 62.364 41.22C62.7933 41.8547 63.0453 42.564 63.12 43.348C63.2693 44.58 63.2133 45.5693 62.952 46.316C62.6907 46.9693 62.2613 47.548 61.664 48.052C62.4853 48.6493 63.148 49.452 63.652 50.46C64.3987 51.8973 64.576 53.2133 64.184 54.408C63.8107 55.5467 63.064 56.4893 61.944 57.236C60.8427 57.964 59.6107 58.4773 58.248 58.776ZM73.3479 58.832C72.3959 59.1307 71.5092 59.1867 70.6879 59C69.8665 58.7947 69.1292 58.4307 68.4759 57.908C67.8412 57.3853 67.3185 56.7787 66.9079 56.088C66.5159 55.3787 66.2732 54.66 66.1799 53.932C65.9932 52.5507 66.0679 51.188 66.4039 49.844C66.7585 48.4813 67.3559 47.3147 68.1959 46.344C69.1292 45.224 70.2772 44.5147 71.6399 44.216C73.0025 43.8987 74.5425 44.0667 76.2599 44.72C76.8385 44.944 77.4545 45.336 78.1079 45.896C78.1825 45.9893 78.2945 46.1013 78.4439 46.232L78.8919 46.624C79.0225 46.736 79.1532 46.8387 79.2839 46.932C79.6572 47.212 79.8719 47.5947 79.9279 48.08C80.0025 48.5467 79.8999 48.9667 79.6199 49.34C79.3959 49.62 79.1065 49.816 78.7519 49.928L78.7799 49.956C78.9292 50.292 79.0132 50.7307 79.0319 51.272C79.0505 51.496 79.0505 51.7107 79.0319 51.916C79.0319 52.1027 79.0319 52.2147 79.0319 52.252C79.0319 52.2893 79.0412 52.3547 79.0599 52.448C79.1905 53.0267 79.3305 53.6893 79.4799 54.436C79.5172 54.66 79.5452 54.8 79.5639 54.856C79.6012 54.912 79.6479 54.968 79.7039 55.024L80.9079 56.2C81.2625 56.5547 81.4305 56.9747 81.4119 57.46C81.4119 57.9267 81.2345 58.328 80.8799 58.664C80.5439 59 80.1425 59.1587 79.6759 59.14C79.2092 59.14 78.8079 58.972 78.4719 58.636L77.2959 57.488C76.8852 57.0773 76.5959 56.704 76.4279 56.368L76.3999 56.284C76.3812 56.3213 76.3065 56.424 76.1759 56.592L75.8679 56.984L75.4759 57.404C75.3265 57.572 75.1772 57.7213 75.0279 57.852L74.5239 58.216C74.3372 58.3467 74.1412 58.468 73.9359 58.58C73.7492 58.6733 73.5532 58.7573 73.3479 58.832ZM72.2279 55.584C72.3025 55.5653 72.3772 55.5373 72.4519 55.5C72.5265 55.444 72.5919 55.3973 72.6479 55.36C72.7039 55.304 72.7785 55.22 72.8719 55.108C72.9652 54.996 73.0492 54.9027 73.1239 54.828C73.1985 54.7533 73.3199 54.6227 73.4879 54.436L73.8519 53.96C73.9825 53.8107 74.1599 53.4653 74.3839 52.924C74.4025 52.868 74.4119 52.8027 74.4119 52.728C74.4305 52.6533 74.4399 52.5227 74.4399 52.336C74.4585 52.1307 74.4865 51.9067 74.5239 51.664C74.6545 50.376 75.1772 49.508 76.0919 49.06C76.1665 49.0227 76.2412 48.9947 76.3159 48.976L75.8679 48.528C75.4945 48.2107 75.1865 48.0053 74.9439 47.912C73.1892 47.184 71.8172 47.408 70.8279 48.584C70.3239 49.144 69.9599 49.872 69.7359 50.768C69.5119 51.6453 69.4652 52.56 69.5959 53.512C69.6892 54.2027 70.0252 54.7627 70.6039 55.192C71.1825 55.6213 71.7239 55.752 72.2279 55.584ZM90.8494 58.916C88.8147 59.196 87.0974 58.7947 85.6974 57.712C84.5214 56.7973 83.6627 55.472 83.1214 53.736C82.6921 52.168 82.4867 50.628 82.5054 49.116C82.5427 47.604 82.7387 46.1947 83.0934 44.888C83.5041 43.3947 84.0174 42.256 84.6334 41.472C85.3987 40.5013 86.5187 39.7453 87.9934 39.204C88.4974 39.0173 89.2161 38.9333 90.1494 38.952C90.6161 38.952 90.9054 38.9333 91.0174 38.896C91.1854 38.84 91.4001 38.6813 91.6614 38.42L92.1934 37.944C92.4361 37.7013 92.6507 37.5053 92.8374 37.356C93.2294 37.0573 93.6587 36.936 94.1254 36.992C94.6107 37.048 95.0027 37.272 95.3014 37.664C95.6001 38.0373 95.7214 38.4667 95.6654 38.952C95.6094 39.4187 95.3947 39.8013 95.0214 40.1L94.5734 40.492L94.0134 40.996C93.4347 41.5373 92.8654 41.92 92.3054 42.144C91.7641 42.3493 91.0267 42.452 90.0934 42.452C89.5894 42.4333 89.2814 42.452 89.1694 42.508C88.3294 42.8067 87.7321 43.18 87.3774 43.628C87.2094 43.852 87.0601 44.1227 86.9294 44.44C88.1427 43.7867 89.3467 43.5253 90.5414 43.656C91.7361 43.768 92.8467 44.2067 93.8734 44.972C95.0494 45.868 95.9081 47.0533 96.4494 48.528C96.9907 50.0027 97.0654 51.552 96.6734 53.176C96.2441 54.8373 95.5907 56.116 94.7134 57.012C93.6867 58.0573 92.3987 58.692 90.8494 58.916ZM90.3454 55.444C91.1294 55.332 91.7641 55.0333 92.2494 54.548C92.6601 54.1187 92.9961 53.3813 93.2574 52.336C93.5001 51.4027 93.4721 50.5253 93.1734 49.704C92.8747 48.8827 92.3987 48.2293 91.7454 47.744C91.2041 47.296 90.5881 47.0813 89.8974 47.1C89.2254 47.1187 88.6001 47.4173 88.0214 47.996C87.8347 48.164 87.6481 48.472 87.4614 48.92C87.4241 48.9947 87.3867 49.0787 87.3494 49.172C87.3121 49.2653 87.2654 49.368 87.2094 49.48C87.1721 49.5733 87.1441 49.6573 87.1254 49.732C86.9574 50.1053 86.8081 50.4227 86.6774 50.684C86.5467 50.9267 86.3694 51.132 86.1454 51.3C86.2201 51.804 86.3227 52.2707 86.4534 52.7C86.7894 53.7453 87.2467 54.492 87.8254 54.94C88.4601 55.4253 89.3001 55.5933 90.3454 55.444ZM100.227 62.556C100.152 60.2227 100.031 56.4053 99.863 51.104C99.5457 50.7867 99.3683 50.404 99.331 49.956C99.3123 49.508 99.443 49.1067 99.723 48.752L99.807 48.64L99.751 46.036C99.7323 45.5507 99.8817 45.1307 100.199 44.776C100.535 44.4213 100.946 44.244 101.431 44.244C102.122 44.2253 102.644 44.5333 102.999 45.168C104.996 43.7307 106.919 43.3293 108.767 43.964C109.775 44.3 110.624 44.8787 111.315 45.7C112.006 46.54 112.538 47.4827 112.911 48.528C113.732 50.6373 113.826 52.588 113.191 54.38C112.874 55.4627 112.314 56.4147 111.511 57.236C110.727 58.0387 109.738 58.5893 108.543 58.888C107.106 59.224 105.771 59.1213 104.539 58.58C104.24 58.4493 103.914 58.272 103.559 58.048C103.615 59.6347 103.662 61.1 103.699 62.444C103.718 62.9293 103.559 63.34 103.223 63.676C102.906 64.0307 102.504 64.2173 102.019 64.236C101.534 64.2547 101.114 64.096 100.759 63.76C100.423 63.4427 100.246 63.0413 100.227 62.556ZM107.703 55.472C108.73 55.2293 109.42 54.688 109.775 53.848C110.167 52.5227 110.111 51.132 109.607 49.676C109.14 48.3507 108.487 47.548 107.647 47.268C106.714 46.9507 105.556 47.436 104.175 48.724C103.932 48.948 103.652 49.284 103.335 49.732L103.447 53.428L104.315 54.212C104.67 54.548 104.959 54.8 105.183 54.968C105.407 55.1173 105.659 55.2573 105.939 55.388C106.443 55.612 107.031 55.64 107.703 55.472ZM122.621 58.832C121.669 59.1307 120.783 59.1867 119.961 59C119.14 58.7947 118.403 58.4307 117.749 57.908C117.115 57.3853 116.592 56.7787 116.181 56.088C115.789 55.3787 115.547 54.66 115.453 53.932C115.267 52.5507 115.341 51.188 115.677 49.844C116.032 48.4813 116.629 47.3147 117.469 46.344C118.403 45.224 119.551 44.5147 120.913 44.216C122.276 43.8987 123.816 44.0667 125.533 44.72C126.112 44.944 126.728 45.336 127.381 45.896C127.456 45.9893 127.568 46.1013 127.717 46.232L128.165 46.624C128.296 46.736 128.427 46.8387 128.557 46.932C128.931 47.212 129.145 47.5947 129.201 48.08C129.276 48.5467 129.173 48.9667 128.893 49.34C128.669 49.62 128.38 49.816 128.025 49.928L128.053 49.956C128.203 50.292 128.287 50.7307 128.305 51.272C128.324 51.496 128.324 51.7107 128.305 51.916C128.305 52.1027 128.305 52.2147 128.305 52.252C128.305 52.2893 128.315 52.3547 128.333 52.448C128.464 53.0267 128.604 53.6893 128.753 54.436C128.791 54.66 128.819 54.8 128.837 54.856C128.875 54.912 128.921 54.968 128.977 55.024L130.181 56.2C130.536 56.5547 130.704 56.9747 130.685 57.46C130.685 57.9267 130.508 58.328 130.153 58.664C129.817 59 129.416 59.1587 128.949 59.14C128.483 59.14 128.081 58.972 127.745 58.636L126.569 57.488C126.159 57.0773 125.869 56.704 125.701 56.368L125.673 56.284C125.655 56.3213 125.58 56.424 125.449 56.592L125.141 56.984L124.749 57.404C124.6 57.572 124.451 57.7213 124.301 57.852L123.797 58.216C123.611 58.3467 123.415 58.468 123.209 58.58C123.023 58.6733 122.827 58.7573 122.621 58.832ZM121.501 55.584C121.576 55.5653 121.651 55.5373 121.725 55.5C121.8 55.444 121.865 55.3973 121.921 55.36C121.977 55.304 122.052 55.22 122.145 55.108C122.239 54.996 122.323 54.9027 122.397 54.828C122.472 54.7533 122.593 54.6227 122.761 54.436L123.125 53.96C123.256 53.8107 123.433 53.4653 123.657 52.924C123.676 52.868 123.685 52.8027 123.685 52.728C123.704 52.6533 123.713 52.5227 123.713 52.336C123.732 52.1307 123.76 51.9067 123.797 51.664C123.928 50.376 124.451 49.508 125.365 49.06C125.44 49.0227 125.515 48.9947 125.589 48.976L125.141 48.528C124.768 48.2107 124.46 48.0053 124.217 47.912C122.463 47.184 121.091 47.408 120.101 48.584C119.597 49.144 119.233 49.872 119.009 50.768C118.785 51.6453 118.739 52.56 118.869 53.512C118.963 54.2027 119.299 54.7627 119.877 55.192C120.456 55.6213 120.997 55.752 121.501 55.584ZM138.975 57.32C138.975 57.7867 138.798 58.1973 138.443 58.552C138.107 58.888 137.696 59.0467 137.211 59.028C136.744 59.028 136.334 58.86 135.979 58.524C135.643 58.1693 135.484 57.7493 135.503 57.264C135.54 53.736 135.531 50.544 135.475 47.688C133.982 47.688 132.992 47.6787 132.507 47.66C132.04 47.66 131.63 47.492 131.275 47.156C130.939 46.8013 130.771 46.3907 130.771 45.924C130.79 45.4387 130.967 45.028 131.303 44.692C131.658 44.3373 132.078 44.1693 132.563 44.188C137.939 44.2253 141.14 44.244 142.167 44.244C142.652 44.2253 143.063 44.3933 143.399 44.748C143.754 45.084 143.931 45.4947 143.931 45.98C143.95 46.4467 143.782 46.8573 143.427 47.212C143.091 47.548 142.69 47.716 142.223 47.716C141.906 47.7347 140.823 47.744 138.975 47.744C139.012 50.6187 139.012 53.8107 138.975 57.32ZM147.84 59.252C147.355 59.2707 146.935 59.112 146.58 58.776C146.244 58.44 146.076 58.0293 146.076 57.544C146.039 56.088 145.955 54.0253 145.824 51.356C145.712 48.668 145.647 46.848 145.628 45.896C145.609 45.4107 145.759 44.9907 146.076 44.636C146.412 44.2813 146.823 44.104 147.308 44.104C147.793 44.0853 148.213 44.244 148.568 44.58C148.923 44.8973 149.1 45.2987 149.1 45.784L149.24 49.312C149.912 49.256 150.5 49.2093 151.004 49.172C151.788 49.116 152.46 49.1067 153.02 49.144C153.879 49.1813 154.551 49.34 155.036 49.62C155.708 49.9747 156.277 50.488 156.744 51.16C157.211 51.832 157.509 52.5413 157.64 53.288C157.901 54.968 157.537 56.3213 156.548 57.348C155.783 58.132 154.7 58.6267 153.3 58.832C152.199 59.0187 150.752 59.0187 148.96 58.832C148.643 59.112 148.269 59.252 147.84 59.252ZM149.492 55.388C150.892 55.5187 151.984 55.5187 152.768 55.388C153.403 55.2947 153.832 55.136 154.056 54.912C154.224 54.7253 154.261 54.3707 154.168 53.848C154.093 53.344 153.832 52.952 153.384 52.672H153.328C153.291 52.672 153.225 52.6627 153.132 52.644C153.057 52.6253 152.964 52.616 152.852 52.616C152.423 52.5973 151.881 52.6067 151.228 52.644C150.705 52.6813 150.099 52.7373 149.408 52.812C149.445 53.7827 149.473 54.6413 149.492 55.388ZM167.784 57.376C167.766 56.6667 167.747 55.724 167.728 54.548C167.71 53.372 167.7 52.5973 167.7 52.224C167.663 50.096 167.57 48.3227 167.42 46.904C167.402 46.6427 167.43 46.4 167.504 46.176C167.486 46.0827 167.476 45.9893 167.476 45.896C167.458 45.4107 167.616 45 167.952 44.664C168.288 44.3093 168.699 44.132 169.184 44.132C169.24 44.132 169.763 44.1133 170.752 44.076C171.742 44.0387 172.6 44.0107 173.328 43.992C174.411 43.9733 175.298 43.9733 175.988 43.992C176.418 43.992 176.772 44.0107 177.052 44.048C177.5 44.0853 177.855 44.1507 178.116 44.244C179.162 44.6733 179.955 45.616 180.496 47.072C180.608 47.3333 180.674 47.7067 180.692 48.192C180.711 48.5093 180.72 48.92 180.72 49.424C180.72 50.208 180.702 51.2533 180.664 52.56C180.646 53.176 180.618 53.8293 180.58 54.52C180.543 55.2107 180.506 55.808 180.468 56.312C180.45 56.816 180.44 57.1613 180.44 57.348C180.44 57.8147 180.263 58.2253 179.908 58.58C179.572 58.916 179.162 59.0747 178.676 59.056C178.21 59.056 177.799 58.888 177.444 58.552C177.108 58.1973 176.95 57.7773 176.968 57.292C176.968 57.124 176.978 56.7787 176.996 56.256C177.015 55.7333 177.043 55.1173 177.08 54.408C177.118 53.6987 177.146 53.036 177.164 52.42C177.202 51.1507 177.22 50.152 177.22 49.424V48.388C177.202 48.3133 177.192 48.248 177.192 48.192C177.062 47.8747 176.94 47.6507 176.828 47.52H176.744C176.539 47.5013 176.259 47.4827 175.904 47.464C175.27 47.464 174.43 47.4733 173.384 47.492C172.712 47.5107 171.91 47.5293 170.976 47.548C171.088 48.8547 171.163 50.3947 171.2 52.168C171.2 52.56 171.2 53.3347 171.2 54.492C171.219 55.6493 171.238 56.5733 171.256 57.264C171.275 57.7493 171.116 58.1693 170.78 58.524C170.463 58.8787 170.062 59.056 169.576 59.056C169.091 59.0747 168.671 58.9253 168.316 58.608C167.962 58.272 167.784 57.8613 167.784 57.376ZM184.665 62.556C184.59 60.2227 184.469 56.4053 184.301 51.104C183.983 50.7867 183.806 50.404 183.769 49.956C183.75 49.508 183.881 49.1067 184.16 48.752L184.245 48.64L184.189 46.036C184.17 45.5507 184.319 45.1307 184.637 44.776C184.973 44.4213 185.383 44.244 185.869 44.244C186.559 44.2253 187.082 44.5333 187.437 45.168C189.434 43.7307 191.357 43.3293 193.205 43.964C194.213 44.3 195.062 44.8787 195.753 45.7C196.443 46.54 196.975 47.4827 197.349 48.528C198.17 50.6373 198.263 52.588 197.629 54.38C197.311 55.4627 196.751 56.4147 195.949 57.236C195.165 58.0387 194.175 58.5893 192.981 58.888C191.543 59.224 190.209 59.1213 188.977 58.58C188.678 58.4493 188.351 58.272 187.997 58.048C188.053 59.6347 188.099 61.1 188.137 62.444C188.155 62.9293 187.997 63.34 187.661 63.676C187.343 64.0307 186.942 64.2173 186.457 64.236C185.971 64.2547 185.551 64.096 185.197 63.76C184.861 63.4427 184.683 63.0413 184.665 62.556ZM192.141 55.472C193.167 55.2293 193.858 54.688 194.213 53.848C194.605 52.5227 194.549 51.132 194.045 49.676C193.578 48.3507 192.925 47.548 192.085 47.268C191.151 46.9507 189.994 47.436 188.613 48.724C188.37 48.948 188.09 49.284 187.773 49.732L187.885 53.428L188.753 54.212C189.107 54.548 189.397 54.8 189.621 54.968C189.845 55.1173 190.097 55.2573 190.377 55.388C190.881 55.612 191.469 55.64 192.141 55.472ZM201.375 58.748C200.777 58.3373 200.525 57.7773 200.619 57.068V56.9C200.413 53.0173 200.46 49.2653 200.759 45.644C200.796 45.1587 200.992 44.7667 201.347 44.468C201.72 44.1507 202.149 44.0107 202.635 44.048C203.12 44.0853 203.512 44.2907 203.811 44.664C204.128 45.0187 204.268 45.4387 204.231 45.924C204.063 48.108 203.979 50.1987 203.979 52.196L205.267 50.544C207.021 48.248 208.347 46.3533 209.243 44.86C209.541 44.3747 209.961 44.0947 210.503 44.02C210.708 43.9453 210.913 43.908 211.119 43.908C211.604 43.8893 212.024 44.048 212.379 44.384C212.733 44.7013 212.911 45.1027 212.911 45.588C212.948 46.7827 212.957 48.7147 212.939 51.384C212.92 53.8293 212.939 55.7707 212.995 57.208C213.013 57.6933 212.855 58.1133 212.519 58.468C212.201 58.8227 211.8 59.0093 211.315 59.028C210.848 59.0467 210.437 58.8973 210.083 58.58C209.728 58.244 209.541 57.8427 209.523 57.376C209.467 55.976 209.448 53.7827 209.467 50.796L208.039 52.672C205.407 56.144 203.988 58.02 203.783 58.3C203.521 58.7107 203.148 58.9533 202.663 59.028C202.196 59.1213 201.767 59.028 201.375 58.748ZM221.268 59.364C220.054 59.364 219 59.1493 218.104 58.72C217.208 58.272 216.526 57.7307 216.06 57.096C215.593 56.4613 215.36 55.864 215.36 55.304C215.36 54.8187 215.5 54.4173 215.78 54.1C216.06 53.764 216.424 53.596 216.872 53.596C217.338 53.596 217.768 53.8387 218.16 54.324C218.514 54.772 218.813 55.1173 219.056 55.36C219.298 55.6027 219.625 55.8173 220.036 56.004C220.446 56.1907 220.941 56.284 221.52 56.284C222.173 56.284 222.714 56.1067 223.144 55.752C223.592 55.3973 223.816 54.996 223.816 54.548C223.816 54.044 223.582 53.6333 223.116 53.316C222.668 52.98 222.08 52.812 221.352 52.812C220.773 52.812 220.306 52.672 219.952 52.392C219.616 52.0933 219.448 51.7293 219.448 51.3C219.448 50.852 219.606 50.4973 219.924 50.236C220.241 49.956 220.633 49.816 221.1 49.816C221.828 49.816 222.406 49.6667 222.836 49.368C223.265 49.0507 223.48 48.6587 223.48 48.192C223.48 47.8 223.302 47.492 222.948 47.268C222.593 47.0253 222.098 46.904 221.464 46.904C220.698 46.904 220.064 47.0907 219.56 47.464C219.056 47.8187 218.738 48.2947 218.608 48.892C218.514 49.3213 218.346 49.6573 218.104 49.9C217.861 50.1427 217.553 50.264 217.18 50.264C216.75 50.264 216.414 50.124 216.172 49.844C215.929 49.5453 215.808 49.1813 215.808 48.752C215.808 47.912 216.05 47.1373 216.535 46.428C217.021 45.7187 217.693 45.1587 218.552 44.748C219.429 44.3187 220.418 44.104 221.52 44.104C222.378 44.104 223.209 44.2907 224.012 44.664C224.833 45.0187 225.496 45.5133 226 46.148C226.522 46.7827 226.784 47.492 226.784 48.276C226.784 48.948 226.588 49.5827 226.196 50.18C225.822 50.7773 225.29 51.2627 224.6 51.636V50.824C226.298 51.552 227.148 52.7093 227.148 54.296C227.148 55.1733 226.905 56.004 226.42 56.788C225.934 57.5533 225.244 58.1787 224.348 58.664C223.452 59.1307 222.425 59.364 221.268 59.364Z" fill="#D7790C"/>
</g>
<defs>
<filter id="filter0_d" x="0" y="0" width="276" height="112" filterUnits="userSpaceOnUse" color-interpolation-filters="sRGB">
<feFlood flood-opacity="0" result="BackgroundImageFix"/>
<feColorMatrix in="SourceAlpha" type="matrix" values="0 0 0 0 0 0 0 0 0 0 0 0 0 0 0 0 0 0 127 0"/>
<feOffset dy="4"/>
<feGaussianBlur stdDeviation="9"/>
<feColorMatrix type="matrix" values="0 0 0 0 0 0 0 0 0 0 0 0 0 0 0 0 0 0 0.25 0"/>
<feBlend mode="normal" in2="BackgroundImageFix" result="effect1_dropShadow"/>
<feBlend mode="normal" in="SourceGraphic" in2="effect1_dropShadow" result="shape"/>
</filter>
<linearGradient id="paint0_linear" x1="138" y1="14" x2="138" y2="90" gradientUnits="userSpaceOnUse">
<stop stop-color="#FFF85B"/>
<stop offset="1" stop-color="#F6BB03"/>
</linearGradient>
</defs>
</svg>
