<svg width="16" height="16" viewBox="0 0 16 16" fill="none" xmlns="http://www.w3.org/2000/svg">
<path d="M10.7091 7.99971L15.4387 3.27047C16.1871 2.52211 16.1871 1.30895 15.4387 0.56098C14.6911 -0.186993 13.4772 -0.186993 12.7296 0.56098L8 5.29099L3.27037 0.56098C2.52278 -0.186993 1.30886 -0.186993 0.561267 0.56098C-0.187089 1.30934 -0.187089 2.52249 0.561267 3.27047L5.29051 7.99971L0.561267 12.729C-0.187089 13.4773 -0.187089 14.6905 0.561267 15.4384C0.934871 15.8128 1.42573 15.9994 1.91582 15.9994C2.40553 15.9994 2.89677 15.8128 3.27037 15.4384L8 10.7092L12.7296 15.4388C13.1036 15.8132 13.5941 15.9998 14.0842 15.9998C14.5743 15.9998 15.0651 15.8132 15.4387 15.4388C16.1871 14.6905 16.1871 13.4773 15.4387 12.7293L10.7091 7.99971Z" fill="#8780B8"/>
</svg>
