<svg width="97" height="97" viewBox="0 0 97 97" fill="none" xmlns="http://www.w3.org/2000/svg">
<mask id="mask0" mask-type="alpha" maskUnits="userSpaceOnUse" x="0" y="0" width="97" height="97">
<rect width="97" height="97" fill="#C4C4C4"/>
</mask>
<g mask="url(#mask0)">
<path d="M77.4408 47.3484C77.4408 64.6963 63.4061 78.7515 46.0994 78.7515C43.5065 78.7515 40.9959 78.4223 38.5881 77.8461C36.8184 77.4139 35.1103 76.8377 33.464 76.0969C29.2865 74.2654 25.603 71.549 22.619 68.1741C21.837 67.3098 21.1168 66.3837 20.4583 65.4371C20.2113 65.0667 19.9644 64.7168 19.7174 64.3464C19.5734 64.1406 19.4293 63.9349 19.3058 63.7085C19.0589 63.2763 18.812 62.8442 18.565 62.412C17.6595 60.7657 16.9187 59.0371 16.3219 57.2262C15.9927 56.2384 15.7046 55.23 15.4782 54.1805C15.1489 52.6989 14.9432 51.1966 14.8197 49.6532C14.758 48.8918 14.7168 48.1098 14.7168 47.3278C14.7168 30.1857 28.4222 16.2745 45.482 15.9452C45.6878 15.9452 45.873 15.9452 46.0788 15.9452C46.3669 15.9452 46.6756 15.9452 46.9637 15.9658C48.6717 16.0069 50.3386 16.1716 51.9438 16.5008C52.9933 16.686 54.0222 16.9536 55.0306 17.2417C55.6068 17.4063 56.183 17.6121 56.7592 17.8179C61.801 19.6494 66.2254 22.7362 69.6826 26.7079C74.5186 32.223 77.4408 39.4461 77.4408 47.3484Z" fill="url(#paint0_linear)"/>
<path opacity="0.59" d="M77.4416 47.3484C77.4416 64.6963 63.4069 78.7515 46.1002 78.7515C43.5073 78.7515 40.9967 78.4223 38.589 77.8461C36.8192 77.4139 35.1111 76.8377 33.4648 76.0969C38.8359 75.7059 44.1452 74.7181 48.6725 71.9194C52.6648 69.4705 55.7516 65.7252 57.7889 61.4654C58.7561 59.4693 59.4764 57.3291 59.9497 55.1683C61.3902 48.6654 60.7934 41.8127 62.6044 35.4127C63.304 32.9638 64.3741 30.5561 66.2056 28.7863C67.1934 27.8397 68.4076 27.0989 69.704 26.7079C74.5194 32.223 77.4416 39.4461 77.4416 47.3484Z" fill="url(#paint1_linear)"/>
<path d="M50.1978 65.5606C52.4708 65.5606 54.3135 63.7179 54.3135 61.4448C54.3135 59.1718 52.4708 57.3291 50.1978 57.3291C47.9247 57.3291 46.082 59.1718 46.082 61.4448C46.082 63.7179 47.9247 65.5606 50.1978 65.5606Z" fill="url(#paint2_linear)"/>
<path d="M96.6219 29.6506C94.3789 23.6005 83.431 21.8925 67.7088 24.6294C68.8818 25.7407 70.1165 27.0783 71.1043 28.4571C78.6567 27.8603 82.4432 29.1156 83.575 32.1613C85.7975 38.1291 71.2689 49.077 51.1429 56.5882C31.0169 64.0995 12.887 65.3754 10.6645 59.4075C9.73845 56.9175 10.8291 54.3863 14.9037 50.785C14.7597 49.1387 14.7391 47.2661 14.7597 45.5786C3.66772 53.0487 -1.57985 60.1895 0.41629 65.5811C3.72947 74.4917 27.9506 73.648 54.4972 63.7291C81.1056 53.8307 99.9351 38.5612 96.6219 29.6506Z" fill="#F7BF03"/>
<mask id="mask1" mask-type="alpha" maskUnits="userSpaceOnUse" x="14" y="15" width="38" height="44">
<path d="M51.9643 16.5214C49.9065 17.0359 47.9103 17.7767 46.0376 18.7645C44.5971 19.5054 43.2184 20.3902 42.0042 21.4603C39.1026 24.0738 37.3328 27.7574 36.5714 31.5851C35.81 35.4127 35.9952 39.3638 36.5714 43.2121C36.8389 44.9613 37.1682 46.6899 37.0653 48.4596C36.592 57.0204 25.6853 61.5272 18.6679 57.2262C17.4126 56.4648 16.3631 55.3947 15.4782 54.2011C15.1489 52.7194 14.9432 51.2172 14.8197 49.6738C14.758 48.9124 14.7168 48.1304 14.7168 47.3484C14.7168 30.2063 28.4222 16.2951 45.482 15.9658C45.6878 15.9658 45.873 15.9658 46.0788 15.9658C46.3669 15.9658 46.6756 15.9658 46.9637 15.9864C48.6717 16.0275 50.3386 16.2128 51.9643 16.5214Z" fill="url(#paint3_linear)"/>
</mask>
<g mask="url(#mask1)">
<path opacity="0.3" d="M51.9643 16.5214C49.9065 17.0359 47.9103 17.7767 46.0376 18.7645C44.5971 19.5054 43.2184 20.3902 42.0042 21.4603C39.1026 24.0738 37.3328 27.7574 36.5714 31.5851C35.81 35.4127 35.9952 39.3638 36.5714 43.2121C36.8389 44.9613 37.1682 46.6899 37.0653 48.4596C36.592 57.0204 25.6853 61.5272 18.6679 57.2262C17.4126 56.4648 16.3631 55.3947 15.4782 54.2011C15.1489 52.7194 14.9432 51.2172 14.8197 49.6738C14.758 48.9124 14.7168 48.1304 14.7168 47.3484C14.7168 30.2063 28.4222 16.2951 45.482 15.9658C45.6878 15.9658 45.873 15.9658 46.0788 15.9658C46.3669 15.9658 46.6756 15.9658 46.9637 15.9864C48.6717 16.0275 50.3386 16.2128 51.9643 16.5214Z" fill="url(#paint4_linear)"/>
</g>
<mask id="mask2" mask-type="alpha" maskUnits="userSpaceOnUse" x="30" y="33" width="12" height="12">
<path d="M36.1625 44.5497C39.197 44.5497 41.657 42.0897 41.657 39.0551C41.657 36.0206 39.197 33.5606 36.1625 33.5606C33.1279 33.5606 30.668 36.0206 30.668 39.0551C30.668 42.0897 33.1279 44.5497 36.1625 44.5497Z" fill="url(#paint5_linear)"/>
</mask>
<g mask="url(#mask2)">
<path d="M36.1625 44.5497C39.197 44.5497 41.657 42.0897 41.657 39.0551C41.657 36.0206 39.197 33.5606 36.1625 33.5606C33.1279 33.5606 30.668 36.0206 30.668 39.0551C30.668 42.0897 33.1279 44.5497 36.1625 44.5497Z" fill="url(#paint6_linear)"/>
</g>
<mask id="mask3" mask-type="alpha" maskUnits="userSpaceOnUse" x="35" y="25" width="6" height="6">
<path d="M37.6034 30.3503C39.0014 30.3503 40.1346 29.2079 40.1346 27.7986C40.1346 26.3893 39.0014 25.2468 37.6034 25.2468C36.2055 25.2468 35.0723 26.3893 35.0723 27.7986C35.0723 29.2079 36.2055 30.3503 37.6034 30.3503Z" fill="url(#paint7_linear)"/>
</mask>
<g mask="url(#mask3)">
<path d="M37.6034 30.3503C39.0014 30.3503 40.1346 29.2079 40.1346 27.7986C40.1346 26.3893 39.0014 25.2468 37.6034 25.2468C36.2055 25.2468 35.0723 26.3893 35.0723 27.7986C35.0723 29.2079 36.2055 30.3503 37.6034 30.3503Z" fill="url(#paint8_linear)"/>
</g>
</g>
<defs>
<linearGradient id="paint0_linear" x1="14.0822" y1="15.0016" x2="80.1475" y2="81.805" gradientUnits="userSpaceOnUse">
<stop offset="0.045977" stop-color="#C161FF"/>
<stop offset="0.4636" stop-color="#594CC5"/>
<stop offset="1" stop-color="#0043AC"/>
</linearGradient>
<linearGradient id="paint1_linear" x1="74.4545" y1="71.1888" x2="23.3436" y2="26.9819" gradientUnits="userSpaceOnUse">
<stop offset="0.045977" stop-color="#C161FF"/>
<stop offset="0.4636" stop-color="#594CC5"/>
<stop offset="1" stop-color="#0043AC"/>
</linearGradient>
<linearGradient id="paint2_linear" x1="54.5479" y1="65.2197" x2="39.7243" y2="52.3985" gradientUnits="userSpaceOnUse">
<stop stop-color="#594CC5"/>
<stop offset="1" stop-color="#0043AC"/>
</linearGradient>
<linearGradient id="paint3_linear" x1="24.827" y1="57.7629" x2="37.9123" y2="14.4885" gradientUnits="userSpaceOnUse">
<stop offset="0.00383142" stop-color="white"/>
<stop offset="1"/>
</linearGradient>
<linearGradient id="paint4_linear" x1="24.827" y1="57.7629" x2="37.9123" y2="14.4885" gradientUnits="userSpaceOnUse">
<stop offset="0.00383142" stop-color="#C995FF"/>
<stop offset="1" stop-color="#9CFFFF"/>
</linearGradient>
<linearGradient id="paint5_linear" x1="34.6697" y1="43.964" x2="37.6095" y2="34.2417" gradientUnits="userSpaceOnUse">
<stop offset="0.00383142" stop-color="white"/>
<stop offset="1"/>
</linearGradient>
<linearGradient id="paint6_linear" x1="34.6697" y1="43.964" x2="37.6095" y2="34.2417" gradientUnits="userSpaceOnUse">
<stop offset="0.00383142" stop-color="#C995FF"/>
<stop offset="1" stop-color="#9CFFFF"/>
</linearGradient>
<linearGradient id="paint7_linear" x1="36.9097" y1="30.0759" x2="38.2694" y2="25.5794" gradientUnits="userSpaceOnUse">
<stop offset="0.00383142" stop-color="white"/>
<stop offset="1"/>
</linearGradient>
<linearGradient id="paint8_linear" x1="36.9097" y1="30.0759" x2="38.2694" y2="25.5794" gradientUnits="userSpaceOnUse">
<stop offset="0.00383142" stop-color="#C995FF"/>
<stop offset="1" stop-color="#9CFFFF"/>
</linearGradient>
</defs>
</svg>
