<svg width="322" height="76" viewBox="0 0 322 76" fill="none" xmlns="http://www.w3.org/2000/svg">
<rect x="0.00012207" width="322" height="76" rx="20.2667" fill="url(#paint0_linear)"/>
<path fill-rule="evenodd" clip-rule="evenodd" d="M20.2668 0C9.07382 0 0.00012207 9.0737 0.00012207 20.2667V55.7333C0.00012207 55.768 0.000208945 55.8026 0.000382487 55.8372V27.8667C0.000382487 16.6737 9.07408 7.6 20.267 7.6H301.734C312.891 7.6 321.943 16.6161 322 27.76V20.2667C322 9.0737 312.926 0 301.733 0H20.2668Z" fill="#FFD092"/>
<path fill-rule="evenodd" clip-rule="evenodd" d="M20.2667 76C9.0737 76 0 66.9263 0 55.7333V20.2667C0 20.232 8.68742e-05 20.1974 0.000260417 20.1628V48.1333C0.000260417 59.3263 9.07396 68.4 20.2669 68.4H301.733C312.891 68.4 321.942 59.3839 322 48.24V55.7333C322 66.9263 312.926 76 301.733 76H20.2667Z" fill="#CB5A00"/>
<path d="M44.5783 33.3698C46.988 34.761 46.988 38.239 44.5783 39.6302L30.6717 47.6592C28.262 49.0504 25.25 47.3114 25.25 44.529L25.25 28.471C25.25 25.6886 28.262 23.9496 30.6717 25.3408L44.5783 33.3698Z" fill="#AB3300"/>
<path d="M67.212 43.6C67.0813 41.7333 67.072 39.652 67.184 37.356C67.352 33.3613 67.436 31.252 67.436 31.028V27.332C67.4547 27.0707 67.5387 26.828 67.688 26.604C68.1733 25.8013 69.0787 25.2413 70.404 24.924C70.5907 24.868 70.8893 24.8307 71.3 24.812C71.6173 24.7933 72.0187 24.784 72.504 24.784C73.456 24.7653 74.576 24.756 75.864 24.756C77.1707 24.756 78.3 24.7653 79.252 24.784C79.756 24.784 80.1573 24.7933 80.456 24.812C80.904 24.8307 81.212 24.868 81.38 24.924C82.6307 25.2413 83.452 25.82 83.844 26.66C83.9373 26.8653 83.9933 27.1267 84.012 27.444C84.0307 27.612 84.0493 27.8267 84.068 28.088C84.0867 28.5547 84.096 29.18 84.096 29.964C84.096 31.2893 84.0867 33.0813 84.068 35.34C84.0493 37.1133 84.0027 39.8107 83.928 43.432C83.928 43.88 83.7693 44.2627 83.452 44.58C83.1347 44.8787 82.752 45.0187 82.304 45C81.856 45 81.4733 44.8413 81.156 44.524C80.8573 44.2067 80.7173 43.824 80.736 43.376C80.8107 39.7733 80.8573 37.0853 80.876 35.312C80.8947 33.072 80.904 31.2987 80.904 29.992C80.8853 29.2267 80.876 28.6293 80.876 28.2L80.848 28.088C80.792 28.0693 80.7267 28.0507 80.652 28.032H80.596C80.5773 28.032 80.54 28.032 80.484 28.032C80.428 28.0133 80.372 28.004 80.316 28.004C80.036 27.9853 79.6533 27.976 79.168 27.976C78.2533 27.9573 77.152 27.948 75.864 27.948C74.6133 27.948 73.5213 27.9573 72.588 27.976C72.1213 27.9947 71.7387 28.004 71.44 28.004C71.3653 28.0227 71.3093 28.032 71.272 28.032H71.16C70.9547 28.0693 70.7773 28.116 70.628 28.172V31.028C70.628 31.532 70.544 33.688 70.376 37.496C70.264 39.6613 70.2733 41.6027 70.404 43.32C70.4413 43.768 70.3107 44.16 70.012 44.496C69.732 44.832 69.368 45.0187 68.92 45.056C68.4907 45.0933 68.108 44.972 67.772 44.692C67.436 44.3933 67.2493 44.0293 67.212 43.6ZM88.5708 48.556C88.4961 46.2227 88.3748 42.4053 88.2068 37.104C87.8894 36.7867 87.7121 36.404 87.6748 35.956C87.6561 35.508 87.7868 35.1067 88.0667 34.752L88.1508 34.64L88.0948 32.036C88.0761 31.5507 88.2254 31.1307 88.5428 30.776C88.8788 30.4213 89.2894 30.244 89.7748 30.244C90.4654 30.2253 90.9881 30.5333 91.3428 31.168C93.3401 29.7307 95.2628 29.3293 97.1108 29.964C98.1188 30.3 98.9681 30.8787 99.6588 31.7C100.349 32.54 100.881 33.4827 101.255 34.528C102.076 36.6373 102.169 38.588 101.535 40.38C101.217 41.4627 100.657 42.4147 99.8548 43.236C99.0708 44.0387 98.0814 44.5893 96.8868 44.888C95.4494 45.224 94.1148 45.1213 92.8828 44.58C92.5841 44.4493 92.2574 44.272 91.9028 44.048C91.9588 45.6347 92.0054 47.1 92.0428 48.444C92.0614 48.9293 91.9028 49.34 91.5668 49.676C91.2494 50.0307 90.8481 50.2173 90.3628 50.236C89.8774 50.2547 89.4574 50.096 89.1028 49.76C88.7668 49.4427 88.5894 49.0413 88.5708 48.556ZM96.0468 41.472C97.0734 41.2293 97.7641 40.688 98.1188 39.848C98.5108 38.5227 98.4548 37.132 97.9508 35.676C97.4841 34.3507 96.8308 33.548 95.9908 33.268C95.0574 32.9507 93.9001 33.436 92.5188 34.724C92.2761 34.948 91.9961 35.284 91.6788 35.732L91.7908 39.428L92.6588 40.212C93.0134 40.548 93.3028 40.8 93.5268 40.968C93.7508 41.1173 94.0028 41.2573 94.2828 41.388C94.7868 41.612 95.3748 41.64 96.0468 41.472ZM107.241 44.216C106.065 43.5627 105.178 42.6107 104.581 41.36C103.984 40.1093 103.685 38.784 103.685 37.384C103.685 36.0027 103.974 34.6867 104.553 33.436C105.15 32.1853 106.037 31.224 107.213 30.552C107.773 30.2347 108.492 30.048 109.369 29.992C109.649 29.712 109.985 29.544 110.377 29.488C110.788 29.432 111.17 29.516 111.525 29.74C111.973 30.0387 112.636 30.4307 113.513 30.916C114.26 31.3453 114.81 31.7 115.165 31.98C115.725 32.484 116.145 33.0813 116.425 33.772C116.724 34.4627 116.957 35.3587 117.125 36.46C117.312 37.7667 117.2 39.0547 116.789 40.324C116.378 41.5933 115.716 42.648 114.801 43.488C113.812 44.4027 112.664 44.9347 111.357 45.084C110.05 45.2333 108.678 44.944 107.241 44.216ZM108.893 41.192C110.274 41.9573 111.46 41.8827 112.449 40.968C112.934 40.52 113.298 39.9413 113.541 39.232C113.784 38.504 113.84 37.7387 113.709 36.936C113.522 35.648 113.252 34.864 112.897 34.584C112.729 34.4347 112.384 34.2107 111.861 33.912L110.853 33.352C110.704 33.3707 110.526 33.38 110.321 33.38H110.013C109.826 33.38 109.686 33.3893 109.593 33.408C109.257 33.4267 109.033 33.464 108.921 33.52C108.38 33.8373 107.941 34.3413 107.605 35.032C107.288 35.7227 107.129 36.516 107.129 37.412C107.129 38.2893 107.288 39.0733 107.605 39.764C107.922 40.436 108.352 40.912 108.893 41.192ZM130.356 48.024C130.356 47.7627 130.375 47.436 130.412 47.044L130.44 46.736C130.459 46.5493 130.468 46.4 130.468 46.288C130.505 45.8773 130.496 45.588 130.44 45.42C130.403 45.2893 130.272 45.1867 130.048 45.112C129.917 45.0747 129.684 45.0653 129.348 45.084C129.292 45.1027 129.227 45.112 129.152 45.112C129.077 45.112 128.993 45.112 128.9 45.112C128.825 45.1307 128.76 45.1493 128.704 45.168C128.368 45.1867 128.079 45.196 127.836 45.196H120.864L120.808 46.904C120.808 47.3707 120.631 47.772 120.276 48.108C119.921 48.444 119.501 48.6027 119.016 48.584C118.549 48.584 118.148 48.4067 117.812 48.052C117.476 47.6973 117.317 47.2773 117.336 46.792L117.42 43.572C117.42 43.1987 117.532 42.8627 117.756 42.564C118.036 42.0973 118.456 41.8173 119.016 41.724C120.715 38.308 121.639 34.976 121.788 31.728C121.807 31.2613 121.993 30.8693 122.348 30.552C122.703 30.216 123.123 30.0573 123.608 30.076C123.72 30.076 123.841 30.0947 123.972 30.132C123.991 30.132 124.205 30.1227 124.616 30.104C125.027 30.0853 125.484 30.0667 125.988 30.048C126.492 30.0293 126.968 30.02 127.416 30.02C128.312 29.9827 129.021 29.964 129.544 29.964C129.861 29.964 130.113 29.9733 130.3 29.992H130.636C130.711 30.0107 130.785 30.02 130.86 30.02C131.084 30.076 131.289 30.16 131.476 30.272C131.644 30.384 131.784 30.5147 131.896 30.664C132.027 30.8133 132.111 30.9347 132.148 31.028L132.204 31.168C132.241 31.2613 132.26 31.3547 132.26 31.448C132.279 31.5227 132.288 31.588 132.288 31.644C132.307 31.7 132.316 31.7653 132.316 31.84V32.148C132.297 32.372 132.288 32.708 132.288 33.156C132.269 33.436 132.251 33.9307 132.232 34.64C132.213 35.3493 132.195 35.8067 132.176 36.012C132.101 39.092 132.073 41.1733 132.092 42.256C132.913 42.7787 133.464 43.46 133.744 44.3C133.949 44.9347 134.024 45.6907 133.968 46.568L133.884 47.38C133.847 47.66 133.828 47.8747 133.828 48.024C133.828 48.5093 133.66 48.92 133.324 49.256C132.988 49.592 132.577 49.76 132.092 49.76C131.607 49.76 131.196 49.592 130.86 49.256C130.524 48.92 130.356 48.5093 130.356 48.024ZM127.836 41.724C127.967 41.724 128.144 41.7053 128.368 41.668H128.592C128.592 40.4173 128.629 38.4947 128.704 35.9L128.788 33.464C128.415 33.4827 127.985 33.492 127.5 33.492C126.828 33.5107 126.044 33.5387 125.148 33.576C124.868 36.208 124.112 38.924 122.88 41.724H127.836ZM138.085 44.216C136.909 43.5627 136.022 42.6107 135.425 41.36C134.827 40.1093 134.529 38.784 134.529 37.384C134.529 36.0027 134.818 34.6867 135.397 33.436C135.994 32.1853 136.881 31.224 138.057 30.552C138.617 30.2347 139.335 30.048 140.213 29.992C140.493 29.712 140.829 29.544 141.221 29.488C141.631 29.432 142.014 29.516 142.369 29.74C142.817 30.0387 143.479 30.4307 144.357 30.916C145.103 31.3453 145.654 31.7 146.009 31.98C146.569 32.484 146.989 33.0813 147.269 33.772C147.567 34.4627 147.801 35.3587 147.969 36.46C148.155 37.7667 148.043 39.0547 147.633 40.324C147.222 41.5933 146.559 42.648 145.645 43.488C144.655 44.4027 143.507 44.9347 142.201 45.084C140.894 45.2333 139.522 44.944 138.085 44.216ZM139.737 41.192C141.118 41.9573 142.303 41.8827 143.293 40.968C143.778 40.52 144.142 39.9413 144.385 39.232C144.627 38.504 144.683 37.7387 144.553 36.936C144.366 35.648 144.095 34.864 143.741 34.584C143.573 34.4347 143.227 34.2107 142.705 33.912L141.697 33.352C141.547 33.3707 141.37 33.38 141.165 33.38H140.857C140.67 33.38 140.53 33.3893 140.437 33.408C140.101 33.4267 139.877 33.464 139.765 33.52C139.223 33.8373 138.785 34.3413 138.449 35.032C138.131 35.7227 137.973 36.516 137.973 37.412C137.973 38.2893 138.131 39.0733 138.449 39.764C138.766 40.436 139.195 40.912 139.737 41.192ZM151.661 45.14C151.363 45.5133 150.971 45.728 150.485 45.784C150 45.84 149.571 45.7187 149.197 45.42C148.824 45.1213 148.609 44.7293 148.553 44.244C148.497 43.7587 148.619 43.3293 148.917 42.956L149.925 41.808C150.28 41.4347 150.56 41.1267 150.765 40.884C150.971 40.6413 151.148 40.3707 151.297 40.072C151.559 39.5307 151.68 38.364 151.661 36.572C151.661 35.9187 151.633 35.0787 151.577 34.052C151.54 33.0067 151.521 32.372 151.521 32.148C151.521 32.0173 151.531 31.896 151.549 31.784C151.587 31.3547 151.755 30.9907 152.053 30.692C152.371 30.3747 152.753 30.2067 153.201 30.188C153.705 30.1507 154.228 30.1227 154.769 30.104C155.329 30.0667 155.693 30.048 155.861 30.048C156.029 30.0293 156.225 30.02 156.449 30.02C156.692 30.0013 156.907 29.992 157.093 29.992H157.821C158.083 29.992 158.503 30.0013 159.081 30.02C159.679 30.02 160.313 30.02 160.985 30.02C161.135 30.02 161.284 30.0387 161.433 30.076H161.461C161.947 30.1133 162.339 30.3187 162.637 30.692C162.955 31.0653 163.095 31.4853 163.057 31.952C162.684 36.6187 162.497 40.3987 162.497 43.292C162.497 43.7773 162.329 44.188 161.993 44.524C161.657 44.86 161.247 45.028 160.761 45.028C160.276 45.028 159.865 44.86 159.529 44.524C159.193 44.188 159.025 43.7773 159.025 43.292C159.025 40.436 159.165 37.1693 159.445 33.492C157.56 33.492 156.095 33.52 155.049 33.576C155.124 34.864 155.161 35.8533 155.161 36.544C155.161 38.9333 154.919 40.6133 154.433 41.584C154.228 42.0133 153.939 42.4707 153.565 42.956C153.211 43.4227 152.819 43.88 152.389 44.328C151.979 44.776 151.736 45.0467 151.661 45.14ZM167.864 44.384C167.565 44.7573 167.173 44.9627 166.688 45C166.221 45.056 165.801 44.9347 165.428 44.636C165.073 44.3373 164.877 43.9453 164.84 43.46C164.784 42.9747 164.915 42.5547 165.232 42.2L169.572 37.104L168.732 36.348L168.116 35.816L167.752 35.48L166.996 34.724L166.268 34.052L165.316 33.072C164.98 32.736 164.803 32.3347 164.784 31.868C164.784 31.4013 164.952 31 165.288 30.664C165.624 30.3093 166.025 30.132 166.492 30.132C166.959 30.1133 167.369 30.2813 167.724 30.636L168.9 31.784L170.02 32.904C170.263 33.128 170.421 33.268 170.496 33.324C170.571 33.38 170.832 33.604 171.28 33.996L172.568 35.2L172.624 31.84C172.624 31.3733 172.792 30.972 173.128 30.636C173.464 30.3 173.875 30.1413 174.36 30.16C174.845 30.16 175.247 30.3373 175.564 30.692C175.9 31.028 176.059 31.4293 176.04 31.896C176.021 32.9227 176.012 34.024 176.012 35.2L180.184 30.832C180.483 30.4587 180.865 30.2533 181.332 30.216C181.799 30.1787 182.219 30.3187 182.592 30.636C182.965 30.9347 183.171 31.3173 183.208 31.784C183.245 32.2507 183.115 32.6613 182.816 33.016L178.924 37.216C180.753 38.9707 182.312 40.6227 183.6 42.172C183.899 42.5453 184.029 42.9653 183.992 43.432C183.955 43.8987 183.749 44.2813 183.376 44.58C183.021 44.8787 182.611 45.0093 182.144 44.972C181.677 44.9347 181.285 44.7293 180.968 44.356C179.549 42.6947 177.907 40.9867 176.04 39.232C176.059 40.5013 176.087 41.8453 176.124 43.264C176.143 43.7493 175.993 44.1693 175.676 44.524C175.359 44.86 174.957 45.028 174.472 45.028C173.987 45.0467 173.567 44.8973 173.212 44.58C172.876 44.2627 172.708 43.8613 172.708 43.376C172.652 41.8267 172.615 40.3147 172.596 38.84H172.568L167.864 44.384ZM186.547 44.748C185.949 44.3373 185.697 43.7773 185.791 43.068V42.9C185.585 39.0173 185.632 35.2653 185.931 31.644C185.968 31.1587 186.164 30.7667 186.519 30.468C186.892 30.1507 187.321 30.0107 187.807 30.048C188.292 30.0853 188.684 30.2907 188.983 30.664C189.3 31.0187 189.44 31.4387 189.403 31.924C189.235 34.108 189.151 36.1987 189.151 38.196L190.439 36.544C192.193 34.248 193.519 32.3533 194.415 30.86C194.713 30.3747 195.133 30.0947 195.675 30.02C195.88 29.9453 196.085 29.908 196.291 29.908C196.776 29.8893 197.196 30.048 197.551 30.384C197.905 30.7013 198.083 31.1027 198.083 31.588C198.12 32.7827 198.129 34.7147 198.111 37.384C198.092 39.8293 198.111 41.7707 198.167 43.208C198.185 43.6933 198.027 44.1133 197.691 44.468C197.373 44.8227 196.972 45.0093 196.487 45.028C196.02 45.0467 195.609 44.8973 195.255 44.58C194.9 44.244 194.713 43.8427 194.695 43.376C194.639 41.976 194.62 39.7827 194.639 36.796L193.211 38.672C190.579 42.144 189.16 44.02 188.955 44.3C188.693 44.7107 188.32 44.9533 187.835 45.028C187.368 45.1213 186.939 45.028 186.547 44.748ZM208.119 43.32C208.119 43.7867 207.942 44.1973 207.587 44.552C207.251 44.888 206.841 45.0467 206.355 45.028C205.889 45.028 205.478 44.86 205.123 44.524C204.787 44.1693 204.629 43.7493 204.647 43.264C204.685 39.736 204.675 36.544 204.619 33.688C203.126 33.688 202.137 33.6787 201.651 33.66C201.185 33.66 200.774 33.492 200.419 33.156C200.083 32.8013 199.915 32.3907 199.915 31.924C199.934 31.4387 200.111 31.028 200.447 30.692C200.802 30.3373 201.222 30.1693 201.707 30.188C207.083 30.2253 210.285 30.244 211.311 30.244C211.797 30.2253 212.207 30.3933 212.543 30.748C212.898 31.084 213.075 31.4947 213.075 31.98C213.094 32.4467 212.926 32.8573 212.571 33.212C212.235 33.548 211.834 33.716 211.367 33.716C211.05 33.7347 209.967 33.744 208.119 33.744C208.157 36.6187 208.157 39.8107 208.119 43.32ZM216.984 45.252C216.499 45.2707 216.079 45.112 215.724 44.776C215.388 44.44 215.22 44.0293 215.22 43.544C215.183 42.088 215.099 40.0253 214.968 37.356C214.856 34.668 214.791 32.848 214.772 31.896C214.754 31.4107 214.903 30.9907 215.22 30.636C215.556 30.2813 215.967 30.104 216.452 30.104C216.938 30.0853 217.358 30.244 217.712 30.58C218.067 30.8973 218.244 31.2987 218.244 31.784L218.384 35.312C219.056 35.256 219.644 35.2093 220.148 35.172C220.932 35.116 221.604 35.1067 222.164 35.144C223.023 35.1813 223.695 35.34 224.18 35.62C224.852 35.9747 225.422 36.488 225.888 37.16C226.355 37.832 226.654 38.5413 226.784 39.288C227.046 40.968 226.682 42.3213 225.692 43.348C224.927 44.132 223.844 44.6267 222.444 44.832C221.343 45.0187 219.896 45.0187 218.104 44.832C217.787 45.112 217.414 45.252 216.984 45.252ZM218.636 41.388C220.036 41.5187 221.128 41.5187 221.912 41.388C222.547 41.2947 222.976 41.136 223.2 40.912C223.368 40.7253 223.406 40.3707 223.312 39.848C223.238 39.344 222.976 38.952 222.528 38.672H222.472C222.435 38.672 222.37 38.6627 222.276 38.644C222.202 38.6253 222.108 38.616 221.996 38.616C221.567 38.5973 221.026 38.6067 220.372 38.644C219.85 38.6813 219.243 38.7373 218.552 38.812C218.59 39.7827 218.618 40.6413 218.636 41.388ZM237.461 44.748C236.863 44.3373 236.611 43.7773 236.705 43.068V42.9C236.499 39.0173 236.546 35.2653 236.845 31.644C236.882 31.1587 237.078 30.7667 237.433 30.468C237.806 30.1507 238.235 30.0107 238.721 30.048C239.206 30.0853 239.598 30.2907 239.897 30.664C240.214 31.0187 240.354 31.4387 240.317 31.924C240.149 34.108 240.065 36.1987 240.065 38.196L241.353 36.544C243.107 34.248 244.433 32.3533 245.329 30.86C245.627 30.3747 246.047 30.0947 246.589 30.02C246.794 29.9453 246.999 29.908 247.205 29.908C247.69 29.8893 248.11 30.048 248.465 30.384C248.819 30.7013 248.997 31.1027 248.997 31.588C249.034 32.7827 249.043 34.7147 249.025 37.384C249.006 39.8293 249.025 41.7707 249.081 43.208C249.099 43.6933 248.941 44.1133 248.605 44.468C248.287 44.8227 247.886 45.0093 247.401 45.028C246.934 45.0467 246.523 44.8973 246.169 44.58C245.814 44.244 245.627 43.8427 245.609 43.376C245.553 41.976 245.534 39.7827 245.553 36.796L244.125 38.672C241.493 42.144 240.074 44.02 239.869 44.3C239.607 44.7107 239.234 44.9533 238.749 45.028C238.282 45.1213 237.853 45.028 237.461 44.748ZM252.677 43.404C252.528 41.2387 252.453 37.44 252.453 32.008C252.453 31.784 252.491 31.5693 252.565 31.364C252.659 30.9907 252.864 30.692 253.181 30.468C253.499 30.2253 253.853 30.104 254.245 30.104H259.901C260.387 30.104 260.797 30.272 261.133 30.608C261.469 30.944 261.637 31.3547 261.637 31.84C261.637 32.3253 261.469 32.736 261.133 33.072C260.797 33.408 260.387 33.576 259.901 33.576H255.925C255.925 37.8693 256 41.0707 256.149 43.18C256.187 43.6653 256.047 44.0947 255.729 44.468C255.412 44.8227 255.011 45.0093 254.525 45.028C254.04 45.0653 253.611 44.9253 253.237 44.608C252.883 44.2907 252.696 43.8893 252.677 43.404ZM264.282 48.556C264.207 46.2227 264.086 42.4053 263.918 37.104C263.6 36.7867 263.423 36.404 263.386 35.956C263.367 35.508 263.498 35.1067 263.778 34.752L263.862 34.64L263.806 32.036C263.787 31.5507 263.936 31.1307 264.254 30.776C264.59 30.4213 265 30.244 265.486 30.244C266.176 30.2253 266.699 30.5333 267.054 31.168C269.051 29.7307 270.974 29.3293 272.822 29.964C273.83 30.3 274.679 30.8787 275.37 31.7C276.06 32.54 276.592 33.4827 276.966 34.528C277.787 36.6373 277.88 38.588 277.246 40.38C276.928 41.4627 276.368 42.4147 275.566 43.236C274.782 44.0387 273.792 44.5893 272.598 44.888C271.16 45.224 269.826 45.1213 268.594 44.58C268.295 44.4493 267.968 44.272 267.614 44.048C267.67 45.6347 267.716 47.1 267.754 48.444C267.772 48.9293 267.614 49.34 267.278 49.676C266.96 50.0307 266.559 50.2173 266.074 50.236C265.588 50.2547 265.168 50.096 264.814 49.76C264.478 49.4427 264.3 49.0413 264.282 48.556ZM271.758 41.472C272.784 41.2293 273.475 40.688 273.83 39.848C274.222 38.5227 274.166 37.132 273.662 35.676C273.195 34.3507 272.542 33.548 271.702 33.268C270.768 32.9507 269.611 33.436 268.23 34.724C267.987 34.948 267.707 35.284 267.39 35.732L267.502 39.428L268.37 40.212C268.724 40.548 269.014 40.8 269.238 40.968C269.462 41.1173 269.714 41.2573 269.994 41.388C270.498 41.612 271.086 41.64 271.758 41.472ZM282.396 50.376C282.023 50.6747 281.593 50.8053 281.108 50.768C280.641 50.7307 280.249 50.5253 279.932 50.152C279.633 49.7787 279.503 49.3493 279.54 48.864C279.577 48.3973 279.783 48.0053 280.156 47.688C280.529 47.3893 280.94 47.072 281.388 46.736C281.855 46.4 282.228 46.1107 282.508 45.868C282.807 45.6253 283.077 45.364 283.32 45.084V45.056C281.36 40.8747 279.811 36.628 278.672 32.316C278.541 31.8493 278.597 31.4107 278.84 31C279.083 30.5707 279.437 30.3 279.904 30.188C280.371 30.0573 280.809 30.1133 281.22 30.356C281.649 30.5987 281.92 30.9533 282.032 31.42C282.872 34.5187 283.917 37.58 285.168 40.604C286.475 37.2627 287.371 34.2387 287.856 31.532C287.931 31.0653 288.164 30.692 288.556 30.412C288.967 30.132 289.405 30.0387 289.872 30.132C290.339 30.2067 290.712 30.4493 290.992 30.86C291.272 31.252 291.365 31.6813 291.272 32.148C290.675 35.5267 289.443 39.4747 287.576 43.992C287.539 44.0667 287.464 44.2533 287.352 44.552L287.016 45.448C286.923 45.7093 286.783 46.0173 286.596 46.372C286.409 46.7267 286.213 47.0347 286.008 47.296C285.691 47.6693 285.299 48.052 284.832 48.444C284.384 48.836 283.899 49.228 283.376 49.62C282.853 50.012 282.527 50.264 282.396 50.376Z" fill="#AB3300"/>
<defs>
<linearGradient id="paint0_linear" x1="161" y1="0" x2="161" y2="76" gradientUnits="userSpaceOnUse">
<stop stop-color="#FFBD5B"/>
<stop offset="1" stop-color="#F66903"/>
</linearGradient>
</defs>
</svg>
