<svg width="192" height="76" viewBox="0 0 192 76" fill="none" xmlns="http://www.w3.org/2000/svg">
<rect width="192" height="76" rx="20.2667" fill="#9F90FC"/>
<path fill-rule="evenodd" clip-rule="evenodd" d="M20.2667 0C9.0737 0 0 9.0737 0 20.2667V55.7333C0 55.768 8.68742e-05 55.8026 0.000260417 55.8372V27.8667C0.000260417 16.6737 9.07396 7.6 20.2669 7.6H171.734C182.892 7.6 191.944 16.6177 192 27.763V20.2667C192 9.0737 182.926 0 171.733 0H20.2667Z" fill="#B3A6FF"/>
<path fill-rule="evenodd" clip-rule="evenodd" d="M20.2667 76C9.0737 76 0 66.9263 0 55.7333V20.2667C0 20.232 8.68742e-05 20.1974 0.000260417 20.1628V48.1333C0.000260417 59.3263 9.07396 68.4 20.2669 68.4H171.734C182.892 68.4 191.944 59.3823 192 48.237V55.7333C192 66.9263 182.926 76 171.733 76H20.2667Z" fill="#6D62B4"/>
<path d="M58.368 44.888C58.1627 44.888 57.9667 44.8413 57.78 44.748C57.3693 44.7107 57.0147 44.5427 56.716 44.244C56.4173 43.9267 56.268 43.5627 56.268 43.152C56.0813 37.9253 56.044 32.54 56.156 26.996C56.156 26.5853 56.2773 26.2307 56.52 25.932C56.7813 25.6147 57.0987 25.4187 57.472 25.344C57.528 25.3253 57.584 25.316 57.64 25.316L58.48 25.176C59.0213 25.064 59.348 25.008 59.46 25.008C59.5907 24.9893 59.9267 24.9427 60.468 24.868C61.028 24.7747 61.42 24.728 61.644 24.728C61.868 24.728 62.232 24.7187 62.736 24.7C63.24 24.6813 63.6507 24.7 63.968 24.756L65.088 24.98C65.4987 25.0733 65.8907 25.1947 66.264 25.344C66.6373 25.512 66.992 25.708 67.328 25.932C68.4107 26.604 69.1853 27.416 69.652 28.368C70.1373 29.32 70.2587 30.272 70.016 31.224C69.7733 32.176 69.2227 33.0813 68.364 33.94C68.532 34.0707 68.7093 34.2107 68.896 34.36C69.7173 35.1253 70.2867 35.984 70.604 36.936C70.9213 37.9253 70.9587 38.9053 70.716 39.876C70.5107 40.7907 70.0907 41.6307 69.456 42.396C68.8213 43.1427 68.056 43.74 67.16 44.188C66.6187 44.4307 66.04 44.6267 65.424 44.776C64.808 44.9253 64.136 45.0093 63.408 45.028C62.68 45.0653 62.0733 45.0747 61.588 45.056C61.1213 45.056 60.5053 45.0373 59.74 45C58.9933 44.944 58.536 44.9067 58.368 44.888ZM59.6 41.584C60.6827 41.696 61.7933 41.7333 62.932 41.696C64.0893 41.6587 65.004 41.4813 65.676 41.164C66.6467 40.6787 67.2347 39.9973 67.44 39.12C67.6267 38.2987 67.3467 37.5613 66.6 36.908C66.3947 36.7027 66.1987 36.544 66.012 36.432C65.844 36.32 65.62 36.2453 65.34 36.208C65.06 36.1707 64.836 36.152 64.668 36.152C64.5187 36.152 64.1827 36.1613 63.66 36.18C63.156 36.1987 62.7453 36.208 62.428 36.208C62.26 36.2267 62.092 36.208 61.924 36.152C61.7933 36.1707 61.3733 36.1707 60.664 36.152C59.9547 36.1333 59.5627 36.124 59.488 36.124C59.5067 37.9907 59.544 39.8107 59.6 41.584ZM59.46 32.764C59.6653 32.764 60.076 32.7733 60.692 32.792C61.308 32.792 61.7093 32.792 61.896 32.792C62.1013 32.7733 62.4093 32.7453 62.82 32.708C63.2307 32.6707 63.5853 32.624 63.884 32.568C64.1827 32.4933 64.4813 32.3907 64.78 32.26C65.34 31.9987 65.788 31.7 66.124 31.364C66.46 31.028 66.656 30.7013 66.712 30.384C66.8613 29.8987 66.4693 29.3667 65.536 28.788C64.8267 28.3587 63.9213 28.1347 62.82 28.116C61.7373 28.0973 60.636 28.2 59.516 28.424C59.4787 29.8053 59.46 31.252 59.46 32.764ZM75.9428 44.972C75.4575 45.0093 75.0375 44.8693 74.6828 44.552C74.3281 44.2347 74.1321 43.8333 74.0948 43.348C73.9268 40.884 73.7121 37.048 73.4508 31.84C73.4135 31.3547 73.5535 30.9347 73.8708 30.58C74.2068 30.2253 74.6175 30.0387 75.1028 30.02C75.5881 29.9827 76.0081 30.132 76.3628 30.468C76.7175 30.7853 76.9041 31.1867 76.9228 31.672L77.1188 35.032C77.9028 34.8827 78.5375 34.78 79.0228 34.724C80.6281 34.5187 81.9161 34.5747 82.8868 34.892C84.0628 35.284 85.0148 35.8907 85.7428 36.712C86.4895 37.5333 86.8628 38.4853 86.8628 39.568C86.8815 40.632 86.5361 41.6027 85.8268 42.48C85.1361 43.3387 84.2028 44.02 83.0268 44.524C82.5788 44.7107 82.1121 44.86 81.6268 44.972C81.1601 45.0653 80.6375 45.112 80.0588 45.112C79.4988 45.112 79.0788 45.1027 78.7988 45.084C78.5188 45.084 78.0521 45.056 77.3988 45C76.7641 44.944 76.4188 44.9067 76.3628 44.888C76.2321 44.944 76.0921 44.972 75.9428 44.972ZM77.4548 41.5C78.2761 41.5933 79.0508 41.64 79.7788 41.64C80.5068 41.6213 81.1415 41.5 81.6828 41.276C82.1308 41.0893 82.4855 40.8747 82.7468 40.632C83.0268 40.3893 83.1948 40.1933 83.2508 40.044C83.3255 39.876 83.3628 39.736 83.3628 39.624C83.3628 39.4933 83.3348 39.3627 83.2788 39.232C83.2228 39.1013 83.0641 38.9333 82.8028 38.728C82.5415 38.5227 82.1961 38.3453 81.7668 38.196C81.3188 38.0467 80.5535 38.0467 79.4708 38.196C78.9668 38.252 78.2388 38.3733 77.2868 38.56L77.4548 41.5ZM87.3948 43.208C87.3948 37.6267 87.4415 33.828 87.5348 31.812C87.5535 31.3267 87.7401 30.9253 88.0948 30.608C88.4495 30.272 88.8695 30.1227 89.3548 30.16C89.8401 30.1787 90.2415 30.3653 90.5588 30.72C90.8948 31.0747 91.0441 31.4947 91.0068 31.98C90.9135 33.7347 90.8668 37.4773 90.8668 43.208C90.8668 43.6933 90.6988 44.104 90.3628 44.44C90.0268 44.776 89.6161 44.944 89.1308 44.944C88.6455 44.944 88.2348 44.776 87.8988 44.44C87.5628 44.104 87.3948 43.6933 87.3948 43.208ZM96.8074 45.056C96.3221 45.0933 95.8927 44.9627 95.5194 44.664C95.1647 44.3467 94.9687 43.9453 94.9314 43.46C94.5394 38.3267 94.3341 34.4813 94.3154 31.924C94.2967 31.4387 94.4554 31.028 94.7914 30.692C95.1461 30.3373 95.5567 30.16 96.0234 30.16C96.5087 30.1413 96.9194 30.3 97.2554 30.636C97.6101 30.9907 97.7874 31.4013 97.7874 31.868C97.8061 33.884 97.9087 36.1707 98.0954 38.728L103.751 31.028L103.779 30.972C104.097 30.3373 104.61 30.02 105.319 30.02C105.805 30.0013 106.215 30.1693 106.551 30.524C106.906 30.86 107.083 31.2613 107.083 31.728C107.102 33.296 107.13 35.536 107.167 38.448C107.205 41.36 107.214 43.0027 107.195 43.376C107.195 43.8427 107.018 44.2533 106.663 44.608C106.327 44.944 105.917 45.1027 105.431 45.084C104.965 45.084 104.554 44.916 104.199 44.58C103.863 44.2253 103.705 43.8053 103.723 43.32C103.723 42.48 103.695 41.2947 103.639 39.764C103.583 38.2147 103.565 37.3467 103.583 37.16L98.5154 43.824C98.4221 43.9547 98.3194 44.0667 98.2074 44.16C97.9087 44.7013 97.4421 45 96.8074 45.056ZM100.531 30.3C99.8967 30.356 99.2247 30.132 98.5154 29.628C98.4967 29.6467 98.2727 29.5067 97.8434 29.208L96.6954 28.424C96.2847 28.1627 96.0234 27.7987 95.9114 27.332C95.7994 26.8467 95.8741 26.408 96.1354 26.016C96.3967 25.6053 96.7607 25.344 97.2274 25.232C97.6941 25.12 98.1327 25.1947 98.5434 25.456C98.6554 25.5307 99.2621 25.9413 100.363 26.688L100.643 26.52C101.539 26.0533 102.417 25.6333 103.275 25.26C103.723 25.092 104.171 25.1013 104.619 25.288C105.067 25.456 105.375 25.764 105.543 26.212C105.73 26.66 105.739 27.108 105.571 27.556C105.403 28.004 105.086 28.3213 104.619 28.508C103.835 28.844 103.051 29.2173 102.267 29.628C101.502 30.0387 100.923 30.2627 100.531 30.3ZM117.139 43.32C117.139 43.7867 116.962 44.1973 116.607 44.552C116.271 44.888 115.86 45.0467 115.375 45.028C114.908 45.028 114.498 44.86 114.143 44.524C113.807 44.1693 113.648 43.7493 113.667 43.264C113.704 39.736 113.695 36.544 113.639 33.688C112.146 33.688 111.156 33.6787 110.671 33.66C110.204 33.66 109.794 33.492 109.439 33.156C109.103 32.8013 108.935 32.3907 108.935 31.924C108.954 31.4387 109.131 31.028 109.467 30.692C109.822 30.3373 110.242 30.1693 110.727 30.188C116.103 30.2253 119.304 30.244 120.331 30.244C120.816 30.2253 121.227 30.3933 121.563 30.748C121.918 31.084 122.095 31.4947 122.095 31.98C122.114 32.4467 121.946 32.8573 121.591 33.212C121.255 33.548 120.854 33.716 120.387 33.716C120.07 33.7347 118.987 33.744 117.139 33.744C117.176 36.6187 117.176 39.8107 117.139 43.32ZM124.66 44.748C124.063 44.3373 123.811 43.7773 123.904 43.068V42.9C123.699 39.0173 123.745 35.2653 124.044 31.644C124.081 31.1587 124.277 30.7667 124.632 30.468C125.005 30.1507 125.435 30.0107 125.92 30.048C126.405 30.0853 126.797 30.2907 127.096 30.664C127.413 31.0187 127.553 31.4387 127.516 31.924C127.348 34.108 127.264 36.1987 127.264 38.196L128.552 36.544C130.307 34.248 131.632 32.3533 132.528 30.86C132.827 30.3747 133.247 30.0947 133.788 30.02C133.993 29.9453 134.199 29.908 134.404 29.908C134.889 29.8893 135.309 30.048 135.664 30.384C136.019 30.7013 136.196 31.1027 136.196 31.588C136.233 32.7827 136.243 34.7147 136.224 37.384C136.205 39.8293 136.224 41.7707 136.28 43.208C136.299 43.6933 136.14 44.1133 135.804 44.468C135.487 44.8227 135.085 45.0093 134.6 45.028C134.133 45.0467 133.723 44.8973 133.368 44.58C133.013 44.244 132.827 43.8427 132.808 43.376C132.752 41.976 132.733 39.7827 132.752 36.796L131.324 38.672C128.692 42.144 127.273 44.02 127.068 44.3C126.807 44.7107 126.433 44.9533 125.948 45.028C125.481 45.1213 125.052 45.028 124.66 44.748Z" fill="#6D62B4"/>
</svg>
