<svg width="291" height="214" viewBox="0 0 291 214" fill="none" xmlns="http://www.w3.org/2000/svg">
<mask id="mask0" mask-type="alpha" maskUnits="userSpaceOnUse" x="0" y="0" width="309" height="309">
<rect width="309" height="309" transform="matrix(-1 0 0 1 309 0)" fill="#C4C4C4"/>
</mask>
<g mask="url(#mask0)">
<path d="M71.5045 199.612C77.648 210.2 85.7521 219.611 95.6863 227.323C98.1698 229.218 100.719 231.048 103.398 232.682C106.862 234.904 110.457 236.865 114.247 238.63C127.842 244.904 142.22 247.714 156.206 247.453C173.264 247.126 189.864 242.224 204.308 233.466C210.321 229.806 216.007 225.428 221.17 220.461C229.536 212.422 236.529 202.684 241.627 191.508C243.391 187.717 244.894 183.796 246.071 179.94C248.685 171.509 250.123 162.947 250.384 154.451C250.711 144.582 249.469 134.713 246.855 125.302C244.045 115.172 239.535 105.499 233.522 96.8068C228.294 89.1601 221.889 82.2323 214.504 76.2196C211.301 73.6707 207.903 71.2525 204.374 69.0957C201.236 67.2004 197.969 65.4358 194.57 63.8672C151.762 44.1297 101.895 58.5734 75.7527 95.9571C72.4848 100.597 69.6092 105.63 67.1257 110.989C65.8839 113.734 64.7728 116.544 63.7271 119.355C54.2505 146.673 57.7797 175.888 71.5045 199.612Z" fill="url(#paint0_linear)"/>
<path d="M163.197 213.01C168.164 216.147 173.131 219.219 178.098 222.356C176.202 219.938 174.438 217.323 172.869 214.709C172.346 213.86 171.824 212.945 172.02 211.964C172.216 211.049 173 210.396 173.784 209.807C183.588 202.553 195.286 197.847 207.377 196.344C208.292 202.88 208.684 209.481 208.423 216.082C208.227 222.094 207.377 228.369 204.371 233.401C210.384 229.741 216.07 225.362 221.233 220.395C221.298 220.003 221.364 219.676 221.429 219.35C223.063 208.5 223.912 197.521 223.847 186.541C204.828 188.109 184.895 191.508 170.059 203.468C166.987 206.017 164.046 209.089 163.197 213.01Z" fill="url(#paint1_linear)"/>
<path d="M103.461 232.682C106.925 234.904 110.52 236.865 114.31 238.63C127.905 244.904 142.283 247.714 156.269 247.453C152.348 243.204 148.622 238.76 145.224 234.12C143.786 232.094 142.283 229.937 141.891 227.454C141.499 224.97 142.152 222.487 142.871 220.068C147.707 203.991 155.942 189.024 166.791 176.214C168.491 174.254 170.255 172.293 172.543 171.182C174.438 170.267 176.53 169.875 178.621 169.613C198.424 166.999 218.357 170.725 237.18 176.803C240.186 177.783 243.193 178.829 246.199 179.94C248.813 171.509 250.251 162.947 250.513 154.451C249.598 154.255 248.683 154.124 247.833 153.993C241.428 153.013 234.893 153.144 228.422 153.013C212.345 152.752 196.398 151.052 180.451 149.288C176.791 148.896 173.066 148.503 169.406 148.111C166.007 147.719 161.171 146.281 157.903 146.935C152.086 147.981 149.276 154.451 146.139 158.699C142.414 163.797 139.865 169.744 137.054 175.43C130.65 188.24 124.049 200.984 115.356 212.356C112.088 216.67 108.428 220.787 106.01 225.624C104.638 227.911 103.788 230.395 103.461 232.682Z" fill="url(#paint2_linear)"/>
<path d="M71.5061 199.612C77.6495 210.2 85.7537 219.611 95.6878 227.323C95.8185 197.782 95.9492 168.176 96.08 138.635C96.08 137.197 96.1453 135.628 96.9296 134.321C97.5832 133.275 98.7596 132.622 99.8053 132.034C114.314 124.387 130.719 121.119 146.992 119.093C180.324 115.041 214.701 116.021 246.987 125.171C244.177 115.041 239.667 105.368 233.655 96.676C211.956 98.8328 189.997 97.9178 168.298 99.9438C142.287 102.297 116.863 108.898 91.5704 115.368C87.1262 116.544 82.5512 117.721 78.4338 119.747C76.7999 120.531 75.166 121.577 74.1203 123.145C73.0746 124.714 72.9439 126.74 72.7478 128.635C70.8525 152.229 70.4604 175.953 71.5061 199.612Z" fill="url(#paint3_linear)"/>
<path d="M63.9227 119.355C66.6023 117.655 69.4126 116.087 72.2883 114.649C77.19 112.296 82.2877 110.336 87.1895 107.917C91.8951 105.565 96.4047 102.754 100.914 99.9439C111.829 93.1468 122.743 86.3498 133.658 79.4874C134.115 79.226 134.573 78.8992 135.03 78.6378C139.082 76.0889 143.2 73.54 147.84 72.2329C153.461 70.6643 159.343 71.0565 165.159 71.4486C181.694 72.7557 198.23 74.2589 214.765 76.0889C211.562 73.54 208.164 71.1218 204.634 68.9651H204.504C197.903 68.8344 191.302 68.3769 184.701 67.7886C171.695 66.6122 158.624 64.1941 145.618 65.1744C142.089 65.4358 138.755 66.939 135.488 68.3769C129.867 70.8604 124.246 73.4093 118.626 75.8928C106.077 81.5135 93.5944 87.1341 81.3074 93.1468C79.5428 93.9965 77.7782 94.9115 76.0136 95.7611C72.7458 100.401 69.87 105.434 67.3865 110.793C66.014 113.734 64.903 116.544 63.9227 119.355Z" fill="url(#paint4_linear)"/>
<path d="M135.88 113.799C191.302 86.0883 244.436 66.8736 274.565 63.7365C280.97 63.0829 300.512 61.0569 307.309 74.7817C316.72 93.6042 285.349 121.446 250.449 144.713C249.142 134.19 247.639 127.655 245.024 118.897C265.546 104.649 277.049 94.1271 282.408 87.2647C280.97 87.2647 279.206 87.3954 277.049 87.5915C250.057 90.4018 198.818 109.094 146.598 135.236C76.2095 170.463 37.1919 201.507 26.6696 215.036C28.1074 215.036 29.872 214.905 32.0287 214.709C42.9432 213.598 57.0602 210.069 74.4449 204.252C78.4316 210.069 90.6532 223.336 91.8296 224.055C68.4975 232.421 49.2828 237.126 34.5123 238.63C28.1074 239.283 8.56595 241.309 1.76892 227.584C-15.6158 192.88 99.9992 131.707 135.88 113.799Z" fill="url(#paint5_linear)"/>
</g>
<defs>
<linearGradient id="paint0_linear" x1="233.104" y1="215.004" x2="66.5352" y2="79.8176" gradientUnits="userSpaceOnUse">
<stop offset="0.0574713" stop-color="#FFDF2E"/>
<stop offset="0.6667" stop-color="#00B36B"/>
<stop offset="1" stop-color="#0057F9"/>
</linearGradient>
<linearGradient id="paint1_linear" x1="219.859" y1="227.808" x2="84.5153" y2="83.6376" gradientUnits="userSpaceOnUse">
<stop offset="0.0574713" stop-color="#FFC224"/>
<stop offset="0.5249" stop-color="#00904A"/>
<stop offset="1" stop-color="#0057A9"/>
</linearGradient>
<linearGradient id="paint2_linear" x1="214.15" y1="233.107" x2="78.8041" y2="88.9347" gradientUnits="userSpaceOnUse">
<stop offset="0.0574713" stop-color="#FFC224"/>
<stop offset="0.5249" stop-color="#00904A"/>
<stop offset="1" stop-color="#0057A9"/>
</linearGradient>
<linearGradient id="paint3_linear" x1="222.854" y1="224.841" x2="87.5618" y2="80.7259" gradientUnits="userSpaceOnUse">
<stop offset="0.0574713" stop-color="#FFC224"/>
<stop offset="0.5249" stop-color="#00904A"/>
<stop offset="1" stop-color="#0057A9"/>
</linearGradient>
<linearGradient id="paint4_linear" x1="241.778" y1="206.943" x2="106.531" y2="62.8757" gradientUnits="userSpaceOnUse">
<stop offset="0.0574713" stop-color="#FFC224"/>
<stop offset="0.5249" stop-color="#00904A"/>
<stop offset="1" stop-color="#0057A9"/>
</linearGradient>
<linearGradient id="paint5_linear" x1="314.551" y1="134.564" x2="-5.56153" y2="167.876" gradientUnits="userSpaceOnUse">
<stop stop-color="#6CE3FF"/>
<stop offset="0.5019" stop-color="#F0FF6F"/>
<stop offset="1" stop-color="#00CB52"/>
</linearGradient>
</defs>
</svg>
