<svg width="312" height="311" viewBox="0 0 312 311" fill="none" xmlns="http://www.w3.org/2000/svg">
<g filter="url(#filter0_f)">
<ellipse cx="155.979" cy="155.263" rx="74.5208" ry="73.7374" fill="#0B081F"/>
</g>
<path d="M153.976 33.0677C155.85 31.9972 158.15 31.9972 160.024 33.0677L236.766 76.9092C238.666 77.9944 239.838 80.0145 239.838 82.2024V169.737C239.838 171.925 238.666 173.945 236.766 175.03L160.024 218.872C158.15 219.942 155.85 219.942 153.976 218.872L77.2337 175.03C75.334 173.945 74.1615 171.925 74.1615 169.737V82.2024C74.1615 80.0145 75.334 77.9944 77.2337 76.9092L153.976 33.0677Z" stroke="url(#paint0_linear)" stroke-width="4.06404"/>
<path d="M152.968 35.3437C155.467 33.9164 158.534 33.9164 161.032 35.3437L234.238 77.165C236.771 78.612 238.334 81.3054 238.334 84.2226V167.717C238.334 170.634 236.771 173.327 234.238 174.774L161.032 216.596C158.534 218.023 155.467 218.023 152.968 216.596L79.7622 174.774C77.2292 173.327 75.6659 170.634 75.6659 167.717V84.2226C75.6659 81.3054 77.2292 78.612 79.7622 77.165L152.968 35.3437Z" fill="url(#paint1_linear)"/>
<g filter="url(#filter1_d)">
<path d="M152.968 41.4044C155.467 39.9771 158.534 39.9771 161.032 41.4044L228.934 80.1953C231.467 81.6424 233.03 84.3358 233.03 87.2529V164.687C233.03 167.604 231.467 170.297 228.934 171.744L161.032 210.535C158.534 211.962 155.467 211.962 152.968 210.535L85.0666 171.744C82.5336 170.297 80.9704 167.604 80.9704 164.687V87.2529C80.9704 84.3358 82.5336 81.6424 85.0666 80.1953L152.968 41.4044Z" fill="url(#paint2_linear)"/>
</g>
<g filter="url(#filter2_i)">
<path d="M152.968 55.5458C155.467 54.1185 158.533 54.1185 161.032 55.5458L216.557 87.266C219.09 88.713 220.653 91.4064 220.653 94.3236V157.616C220.653 160.533 219.09 163.226 216.557 164.673L161.032 196.394C158.533 197.821 155.467 197.821 152.968 196.394L97.4433 164.673C94.9104 163.226 93.3471 160.533 93.3471 157.616V94.3236C93.3471 91.4064 94.9104 88.713 97.4433 87.266L152.968 55.5458Z" fill="url(#paint3_linear)"/>
</g>
<path d="M152.968 63.6266C155.466 62.1993 158.533 62.1993 161.032 63.6266L209.484 91.3064C212.017 92.7534 213.58 95.4468 213.58 98.364V153.575C213.58 156.493 212.017 159.186 209.484 160.633L161.032 188.313C158.533 189.74 155.466 189.74 152.968 188.313L104.516 160.633C101.983 159.186 100.42 156.493 100.42 153.575V98.364C100.42 95.4468 101.983 92.7534 104.516 91.3064L152.968 63.6266Z" fill="url(#paint4_linear)"/>
<g filter="url(#filter3_i)">
<path d="M136.285 155.967C135.049 154.666 133.944 152.91 132.968 150.7L132.09 148.651C131.83 148.001 131.603 147.513 131.408 147.188C130.627 145.628 130.497 144.002 131.018 142.311C131.538 140.621 132.578 139.385 134.139 138.605C135.764 137.76 137.422 137.597 139.113 138.117C140.804 138.638 142.072 139.71 142.917 141.336C143.242 141.986 143.6 142.767 143.99 143.677L144.77 145.53C145.095 146.375 145.388 146.928 145.648 147.188C146.558 148.099 147.924 148.814 149.745 149.334C151.63 149.854 153.711 149.984 155.987 149.724C158.328 149.464 160.344 148.879 162.034 147.969C163.725 147.058 164.895 146.018 165.546 144.847C165.936 144.132 166.066 142.637 165.936 140.361C165.611 135.419 161.709 132.168 154.231 130.607C152.151 131.127 150.297 130.672 148.672 129.241C147.631 128.591 146.819 127.713 146.233 126.608C145.713 125.438 145.518 124.235 145.648 122.999C145.908 121.243 146.721 119.813 148.087 118.708C149.517 117.602 151.11 117.147 152.866 117.342C153.126 117.407 153.419 117.472 153.744 117.537C154.199 117.407 154.687 117.309 155.207 117.244C155.727 117.114 156.085 117.049 156.28 117.049C156.54 116.984 156.832 116.919 157.157 116.854C157.483 116.724 157.808 116.562 158.133 116.367C160.084 115.261 161.124 114.058 161.254 112.758C161.319 111.262 160.604 109.702 159.108 108.076C157.222 106.06 154.979 104.857 152.378 104.467C149.777 104.012 147.079 104.63 144.283 106.32L143.697 107.003L142.82 108.369C142.299 109.149 141.877 109.767 141.552 110.222C140.446 111.587 138.983 112.4 137.162 112.66C135.407 112.855 133.846 112.4 132.481 111.295C131.115 110.189 130.302 108.759 130.042 107.003C129.847 105.182 130.302 103.589 131.408 102.224C131.603 102.029 131.83 101.736 132.09 101.346L133.066 99.7853C134.301 97.9646 135.634 96.5666 137.065 95.5912C140.771 93.1203 144.673 91.7548 148.769 91.4947C152.931 91.2346 156.67 91.8198 159.986 93.2504C163.302 94.6809 166.163 96.6967 168.569 99.2977C172.601 103.654 174.422 108.434 174.031 113.636C173.836 117.342 172.438 120.593 169.837 123.389C175.364 127.356 178.356 132.753 178.811 139.58C179.136 144.392 178.421 148.294 176.665 151.285C174.779 154.601 172.081 157.202 168.569 159.088C165.058 160.908 161.352 162.046 157.45 162.502C153.549 162.957 149.68 162.664 145.843 161.624C142.072 160.583 138.886 158.698 136.285 155.967Z" fill="url(#paint5_linear)"/>
</g>
<g opacity="0.2" filter="url(#filter4_f)">
<ellipse rx="8.92348" ry="3.04171" transform="matrix(0.948456 0.316909 -0.307311 0.951609 154.398 98.7225)" fill="white"/>
</g>
<g opacity="0.2" filter="url(#filter5_f)">
<ellipse rx="8.92348" ry="3.04171" transform="matrix(0.948456 0.316909 -0.307311 0.951609 161.398 125.722)" fill="#EBFF00"/>
</g>
<g opacity="0.6" filter="url(#filter6_f)">
<ellipse rx="27.4903" ry="2.02559" transform="matrix(0.868299 -0.496042 0.503968 0.863722 177.808 193.881)" fill="white"/>
</g>
<g opacity="0.2" filter="url(#filter7_f)">
<ellipse rx="27.4903" ry="19.2512" transform="matrix(0.868299 -0.496042 0.503968 0.863722 149.738 67.3449)" fill="white"/>
</g>
<defs>
<filter id="filter0_f" x="0.177711" y="0.244484" width="311.603" height="310.036" filterUnits="userSpaceOnUse" color-interpolation-filters="sRGB">
<feFlood flood-opacity="0" result="BackgroundImageFix"/>
<feBlend mode="normal" in="SourceGraphic" in2="BackgroundImageFix" result="shape"/>
<feGaussianBlur stdDeviation="40.6404" result="effect1_foregroundBlur"/>
</filter>
<filter id="filter1_d" x="72.8423" y="40.3339" width="168.316" height="187.528" filterUnits="userSpaceOnUse" color-interpolation-filters="sRGB">
<feFlood flood-opacity="0" result="BackgroundImageFix"/>
<feColorMatrix in="SourceAlpha" type="matrix" values="0 0 0 0 0 0 0 0 0 0 0 0 0 0 0 0 0 0 127 0"/>
<feOffset dy="8.12808"/>
<feGaussianBlur stdDeviation="4.06404"/>
<feColorMatrix type="matrix" values="0 0 0 0 0 0 0 0 0 0 0 0 0 0 0 0 0 0 0.25 0"/>
<feBlend mode="normal" in2="BackgroundImageFix" result="effect1_dropShadow"/>
<feBlend mode="normal" in="SourceGraphic" in2="effect1_dropShadow" result="shape"/>
</filter>
<filter id="filter2_i" x="93.3472" y="54.4752" width="127.306" height="151.117" filterUnits="userSpaceOnUse" color-interpolation-filters="sRGB">
<feFlood flood-opacity="0" result="BackgroundImageFix"/>
<feBlend mode="normal" in="SourceGraphic" in2="BackgroundImageFix" result="shape"/>
<feColorMatrix in="SourceAlpha" type="matrix" values="0 0 0 0 0 0 0 0 0 0 0 0 0 0 0 0 0 0 127 0" result="hardAlpha"/>
<feOffset dy="8.12808"/>
<feGaussianBlur stdDeviation="4.06404"/>
<feComposite in2="hardAlpha" operator="arithmetic" k2="-1" k3="1"/>
<feColorMatrix type="matrix" values="0 0 0 0 0 0 0 0 0 0 0 0 0 0 0 0 0 0 0.25 0"/>
<feBlend mode="normal" in2="shape" result="effect1_innerShadow"/>
</filter>
<filter id="filter3_i" x="129.998" y="91.4347" width="48.8886" height="79.4028" filterUnits="userSpaceOnUse" color-interpolation-filters="sRGB">
<feFlood flood-opacity="0" result="BackgroundImageFix"/>
<feBlend mode="normal" in="SourceGraphic" in2="BackgroundImageFix" result="shape"/>
<feColorMatrix in="SourceAlpha" type="matrix" values="0 0 0 0 0 0 0 0 0 0 0 0 0 0 0 0 0 0 127 0" result="hardAlpha"/>
<feOffset dy="8.12808"/>
<feGaussianBlur stdDeviation="4.06404"/>
<feComposite in2="hardAlpha" operator="arithmetic" k2="-1" k3="1"/>
<feColorMatrix type="matrix" values="0 0 0 0 0 0 0 0 0 0 0 0 0 0 0 0 0 0 0.25 0"/>
<feBlend mode="normal" in2="shape" result="effect1_innerShadow"/>
</filter>
<filter id="filter4_f" x="137.755" y="86.5477" width="33.2876" height="24.3495" filterUnits="userSpaceOnUse" color-interpolation-filters="sRGB">
<feFlood flood-opacity="0" result="BackgroundImageFix"/>
<feBlend mode="normal" in="SourceGraphic" in2="BackgroundImageFix" result="shape"/>
<feGaussianBlur stdDeviation="4.06404" result="effect1_foregroundBlur"/>
</filter>
<filter id="filter5_f" x="144.755" y="113.548" width="33.2876" height="24.3495" filterUnits="userSpaceOnUse" color-interpolation-filters="sRGB">
<feFlood flood-opacity="0" result="BackgroundImageFix"/>
<feBlend mode="normal" in="SourceGraphic" in2="BackgroundImageFix" result="shape"/>
<feGaussianBlur stdDeviation="4.06404" result="effect1_foregroundBlur"/>
</filter>
<filter id="filter6_f" x="145.788" y="172.003" width="64.0403" height="43.7554" filterUnits="userSpaceOnUse" color-interpolation-filters="sRGB">
<feFlood flood-opacity="0" result="BackgroundImageFix"/>
<feBlend mode="normal" in="SourceGraphic" in2="BackgroundImageFix" result="shape"/>
<feGaussianBlur stdDeviation="4.06404" result="effect1_foregroundBlur"/>
</filter>
<filter id="filter7_f" x="103.645" y="25.5198" width="92.1864" height="83.6501" filterUnits="userSpaceOnUse" color-interpolation-filters="sRGB">
<feFlood flood-opacity="0" result="BackgroundImageFix"/>
<feBlend mode="normal" in="SourceGraphic" in2="BackgroundImageFix" result="shape"/>
<feGaussianBlur stdDeviation="10.1601" result="effect1_foregroundBlur"/>
</filter>
<linearGradient id="paint0_linear" x1="157" y1="29" x2="157" y2="222.939" gradientUnits="userSpaceOnUse">
<stop stop-color="#FFB052"/>
<stop offset="1" stop-color="#FFA34E"/>
</linearGradient>
<linearGradient id="paint1_linear" x1="157" y1="33.0404" x2="157" y2="218.899" gradientUnits="userSpaceOnUse">
<stop stop-color="#FF9317"/>
<stop offset="1" stop-color="#FF9B25"/>
</linearGradient>
<linearGradient id="paint2_linear" x1="157.02" y1="212.862" x2="157.02" y2="39.1408" gradientUnits="userSpaceOnUse">
<stop stop-color="#E07F0D"/>
<stop offset="1" stop-color="#FFF076"/>
</linearGradient>
<linearGradient id="paint3_linear" x1="157" y1="53.2424" x2="157" y2="198.697" gradientUnits="userSpaceOnUse">
<stop stop-color="#FF8A00"/>
<stop offset="1" stop-color="#9F4E02"/>
</linearGradient>
<linearGradient id="paint4_linear" x1="157.015" y1="190.634" x2="157.015" y2="61.3528" gradientUnits="userSpaceOnUse">
<stop stop-color="#E29602"/>
<stop offset="1" stop-color="#FFE93B"/>
</linearGradient>
<linearGradient id="paint5_linear" x1="153.938" y1="69.4041" x2="153.938" y2="160.313" gradientUnits="userSpaceOnUse">
<stop stop-color="#FF8A00"/>
<stop offset="1" stop-color="#9F4E02"/>
</linearGradient>
</defs>
</svg>
