<svg width="185" height="252" viewBox="0 0 185 252" fill="none" xmlns="http://www.w3.org/2000/svg">
<mask id="mask0" mask-type="alpha" maskUnits="userSpaceOnUse" x="0" y="0" width="185" height="252">
<rect width="185" height="252" fill="#C4C4C4"/>
</mask>
<g mask="url(#mask0)">
<path d="M134.19 123.008C134.19 168.077 97.7292 204.592 52.7673 204.592C46.0311 204.592 39.5087 203.736 33.2536 202.239C28.6558 201.117 24.2185 199.62 19.9415 197.695C9.08862 192.937 -0.481115 185.88 -8.23315 177.112C-10.2647 174.867 -12.1359 172.461 -13.8467 170.002C-14.4882 169.039 -15.1298 168.13 -15.7714 167.168C-16.1456 166.633 -16.5199 166.099 -16.8406 165.511C-17.4822 164.388 -18.1237 163.265 -18.7653 162.143C-21.1176 157.866 -23.0423 153.375 -24.5927 148.67C-25.4481 146.104 -26.1965 143.484 -26.7846 140.758C-27.64 136.908 -28.1746 133.006 -28.4954 128.996C-28.6558 127.018 -28.7627 124.986 -28.7627 122.955C-28.7627 78.4206 6.84321 42.2801 51.1635 41.4247C51.6981 41.4247 52.1793 41.4247 52.7139 41.4247C53.4624 41.4247 54.2643 41.4247 55.0127 41.4781C59.4501 41.5851 63.7806 42.0128 67.9507 42.8682C70.6772 43.3493 73.3503 44.0443 75.97 44.7928C77.4669 45.2205 78.9638 45.7551 80.4608 46.2898C93.5591 51.0479 105.053 59.0673 114.035 69.3855C126.599 83.7134 134.19 102.479 134.19 123.008Z" fill="url(#paint0_linear)"/>
<path opacity="0.59" d="M134.191 123.008C134.191 168.077 97.7296 204.592 52.7678 204.592C46.0315 204.592 39.5091 203.736 33.254 202.239C28.6563 201.117 24.2189 199.62 19.9419 197.695C33.8956 196.679 47.6889 194.113 59.4506 186.842C69.8223 180.48 77.8416 170.75 83.1343 159.683C85.6471 154.497 87.5182 148.937 88.7479 143.324C92.4902 126.43 90.9398 108.627 95.6445 92.0001C97.4622 85.638 100.242 79.3829 105 74.7852C107.567 72.3259 110.721 70.4013 114.089 69.3855C126.599 83.7134 134.191 102.479 134.191 123.008Z" fill="url(#paint1_linear)"/>
<path d="M63.4071 170.322C69.3124 170.322 74.0995 165.535 74.0995 159.63C74.0995 153.725 69.3124 148.937 63.4071 148.937C57.5018 148.937 52.7146 153.725 52.7146 159.63C52.7146 165.535 57.5018 170.322 63.4071 170.322Z" fill="url(#paint2_linear)"/>
<path d="M184.018 77.0306C178.19 61.3127 149.749 56.8753 108.903 63.9858C111.951 66.8727 115.158 70.3478 117.725 73.9298C137.345 72.3794 147.182 75.6406 150.123 83.553C155.897 99.0571 118.152 127.499 65.8661 147.013C13.58 166.527 -33.5204 169.841 -39.2943 154.337C-41.7001 147.868 -38.8666 141.292 -28.281 131.936C-28.6553 127.659 -28.7088 122.794 -28.6553 118.41C-57.4715 137.817 -71.1043 156.369 -65.9185 170.376C-57.3111 193.525 5.61404 191.333 74.5804 165.564C143.707 139.849 192.625 100.18 184.018 77.0306Z" fill="url(#paint3_linear)"/>
<mask id="mask1" mask-type="alpha" maskUnits="userSpaceOnUse" x="-29" y="41" width="98" height="112">
<path d="M68.0041 42.9216C62.6579 44.2582 57.472 46.1828 52.6069 48.749C48.8646 50.6737 45.2826 52.9726 42.1283 55.7526C34.5901 62.5423 29.9924 72.1121 28.0143 82.056C26.0362 92 26.5173 102.265 28.0143 112.262C28.7093 116.807 29.5647 121.297 29.2974 125.895C28.0677 148.135 -0.267305 159.844 -18.498 148.67C-21.7592 146.692 -24.4857 143.912 -26.7846 140.811C-27.64 136.962 -28.1746 133.059 -28.4954 129.049C-28.6558 127.071 -28.7627 125.04 -28.7627 123.008C-28.7627 78.4741 6.84321 42.3335 51.1635 41.4781C51.6981 41.4781 52.1793 41.4781 52.7139 41.4781C53.4624 41.4781 54.2643 41.4782 55.0127 41.5316C59.4501 41.6385 63.7806 42.1197 68.0041 42.9216Z" fill="url(#paint4_linear)"/>
</mask>
<g mask="url(#mask1)">
<path opacity="0.3" d="M68.0041 42.9216C62.6579 44.2582 57.472 46.1828 52.6069 48.749C48.8646 50.6737 45.2826 52.9726 42.1283 55.7526C34.5901 62.5423 29.9924 72.1121 28.0143 82.056C26.0362 92 26.5173 102.265 28.0143 112.262C28.7093 116.807 29.5647 121.297 29.2974 125.895C28.0677 148.135 -0.267305 159.844 -18.498 148.67C-21.7592 146.692 -24.4857 143.912 -26.7846 140.811C-27.64 136.962 -28.1746 133.059 -28.4954 129.049C-28.6558 127.071 -28.7627 125.04 -28.7627 123.008C-28.7627 78.4741 6.84321 42.3335 51.1635 41.4781C51.6981 41.4781 52.1793 41.4781 52.7139 41.4781C53.4624 41.4781 54.2643 41.4782 55.0127 41.5316C59.4501 41.6385 63.7806 42.1197 68.0041 42.9216Z" fill="url(#paint5_linear)"/>
</g>
<mask id="mask2" mask-type="alpha" maskUnits="userSpaceOnUse" x="12" y="87" width="30" height="29">
<path d="M26.9448 115.737C34.8284 115.737 41.2193 109.346 41.2193 101.463C41.2193 93.5794 34.8284 87.1885 26.9448 87.1885C19.0613 87.1885 12.6704 93.5794 12.6704 101.463C12.6704 109.346 19.0613 115.737 26.9448 115.737Z" fill="url(#paint6_linear)"/>
</mask>
<g mask="url(#mask2)">
<path d="M26.9448 115.737C34.8284 115.737 41.2193 109.346 41.2193 101.463C41.2193 93.5794 34.8284 87.1885 26.9448 87.1885C19.0613 87.1885 12.6704 93.5794 12.6704 101.463C12.6704 109.346 19.0613 115.737 26.9448 115.737Z" fill="url(#paint7_linear)"/>
</g>
<mask id="mask3" mask-type="alpha" maskUnits="userSpaceOnUse" x="24" y="65" width="14" height="14">
<path d="M30.6879 78.8483C34.3196 78.8483 37.2638 75.8803 37.2638 72.219C37.2638 68.5577 34.3196 65.5897 30.6879 65.5897C27.0561 65.5897 24.1121 68.5577 24.1121 72.219C24.1121 75.8803 27.0561 78.8483 30.6879 78.8483Z" fill="url(#paint8_linear)"/>
</mask>
<g mask="url(#mask3)">
<path d="M30.6879 78.8483C34.3196 78.8483 37.2638 75.8803 37.2638 72.219C37.2638 68.5577 34.3196 65.5897 30.6879 65.5897C27.0561 65.5897 24.1121 68.5577 24.1121 72.219C24.1121 75.8803 27.0561 78.8483 30.6879 78.8483Z" fill="url(#paint9_linear)"/>
</g>
</g>
<defs>
<linearGradient id="paint0_linear" x1="-30.4113" y1="38.9732" x2="141.222" y2="212.524" gradientUnits="userSpaceOnUse">
<stop offset="0.045977" stop-color="#C161FF"/>
<stop offset="0.4636" stop-color="#594CC5"/>
<stop offset="1" stop-color="#0043AC"/>
</linearGradient>
<linearGradient id="paint1_linear" x1="126.431" y1="184.944" x2="-6.35252" y2="70.0972" gradientUnits="userSpaceOnUse">
<stop offset="0.045977" stop-color="#C161FF"/>
<stop offset="0.4636" stop-color="#594CC5"/>
<stop offset="1" stop-color="#0043AC"/>
</linearGradient>
<linearGradient id="paint2_linear" x1="74.7084" y1="169.437" x2="36.1977" y2="136.128" gradientUnits="userSpaceOnUse">
<stop stop-color="#594CC5"/>
<stop offset="1" stop-color="#0043AC"/>
</linearGradient>
<linearGradient id="paint3_linear" x1="59.0287" y1="186.426" x2="59.0287" y2="60.723" gradientUnits="userSpaceOnUse">
<stop stop-color="#FFE305"/>
<stop offset="1" stop-color="#F1A901"/>
</linearGradient>
<linearGradient id="paint4_linear" x1="-2.49703" y1="150.065" x2="31.4979" y2="37.6403" gradientUnits="userSpaceOnUse">
<stop offset="0.00383142" stop-color="white"/>
<stop offset="1"/>
</linearGradient>
<linearGradient id="paint5_linear" x1="-2.49703" y1="150.065" x2="31.4979" y2="37.6403" gradientUnits="userSpaceOnUse">
<stop offset="0.00383142" stop-color="#C995FF"/>
<stop offset="1" stop-color="#9CFFFF"/>
</linearGradient>
<linearGradient id="paint6_linear" x1="23.0666" y1="114.216" x2="30.7041" y2="88.9578" gradientUnits="userSpaceOnUse">
<stop offset="0.00383142" stop-color="white"/>
<stop offset="1"/>
</linearGradient>
<linearGradient id="paint7_linear" x1="26.9481" y1="115.741" x2="26.9481" y2="87.195" gradientUnits="userSpaceOnUse">
<stop stop-color="#F1A901"/>
<stop offset="1" stop-color="#FFE305"/>
</linearGradient>
<linearGradient id="paint8_linear" x1="28.8857" y1="78.1354" x2="32.4181" y2="66.4537" gradientUnits="userSpaceOnUse">
<stop offset="0.00383142" stop-color="white"/>
<stop offset="1"/>
</linearGradient>
<linearGradient id="paint9_linear" x1="30.6894" y1="78.8501" x2="30.6894" y2="65.5927" gradientUnits="userSpaceOnUse">
<stop stop-color="#F1A901"/>
<stop offset="1" stop-color="#FFE305"/>
</linearGradient>
</defs>
</svg>
