<svg width="62" height="54" viewBox="0 0 62 54" fill="none" xmlns="http://www.w3.org/2000/svg">
<path d="M1.13098 46.1719C3.26207 54.5368 55.5449 57.4078 59.9847 48.7239C63.9982 40.8198 61.3344 10.1604 57.9246 4.52473C53.2362 -3.13126 7.45323 -0.0121479 3.65278 6.04885C0.100959 11.6491 -1.10667 37.5235 1.13098 46.1719Z" fill="url(#paint0_radial)"/>
<path d="M1.27345 44.6833C3.40454 52.7291 55.3677 53.8279 59.772 45.463C63.7855 37.8425 61.1927 10.2667 57.7474 4.84375C53.0945 -2.56413 7.45362 0.413194 3.68869 6.22608C0.2079 11.6845 -0.928679 36.3538 1.27345 44.6833Z" fill="url(#paint1_linear)"/>
<path d="M1.91238 43.9743C4.00796 51.7721 54.8701 52.8709 59.1678 44.7541C63.0748 37.3817 60.5174 10.5503 57.1787 5.26905C52.6324 -1.92616 7.98601 0.873949 4.29211 6.54506C0.882361 11.8263 -0.218709 35.893 1.91238 43.9743Z" fill="url(#paint2_linear)"/>
<path d="M26.3135 13.4567C23.543 13.9529 25.1058 36.531 26.3135 37.5235C27.5211 38.5159 41.7639 27.8826 41.9415 26.004C42.1546 24.1255 30.1139 12.7833 26.3135 13.4567Z" fill="#CD7004"/>
<defs>
<radialGradient id="paint0_radial" cx="0" cy="0" r="1" gradientUnits="userSpaceOnUse" gradientTransform="translate(31.9932 50.1629) scale(23.9566 44.8281)">
<stop stop-color="#FFEC67"/>
<stop offset="1" stop-color="#CD7004"/>
</radialGradient>
<linearGradient id="paint1_linear" x1="30.9879" y1="51.258" x2="30.9879" y2="0.461612" gradientUnits="userSpaceOnUse">
<stop stop-color="#FFF089"/>
<stop offset="1" stop-color="white"/>
</linearGradient>
<linearGradient id="paint2_linear" x1="30.9879" y1="50.3597" x2="30.9879" y2="0.975744" gradientUnits="userSpaceOnUse">
<stop stop-color="#FFE305"/>
<stop offset="1" stop-color="#F1A901"/>
</linearGradient>
</defs>
</svg>
