<svg width="62" height="54" viewBox="0 0 62 54" fill="none" xmlns="http://www.w3.org/2000/svg">
<path d="M1.13098 46.1719C3.26207 54.5368 55.5449 57.4078 59.9847 48.7239C63.9982 40.8198 61.3344 10.1604 57.9246 4.52473C53.2362 -3.13126 7.45323 -0.0121479 3.65278 6.04885C0.100959 11.6491 -1.10667 37.5235 1.13098 46.1719Z" fill="url(#paint0_radial)"/>
<path d="M1.27345 44.6833C3.40454 52.7291 55.3677 53.8279 59.772 45.463C63.7855 37.8425 61.1927 10.2667 57.7474 4.84375C53.0945 -2.56413 7.45362 0.413194 3.68869 6.22608C0.2079 11.6845 -0.928679 36.3538 1.27345 44.6833Z" fill="url(#paint1_linear)"/>
<path d="M1.91238 43.9743C4.00796 51.7721 54.8701 52.8709 59.1678 44.7541C63.0748 37.3817 60.5174 10.5503 57.1787 5.26905C52.6324 -1.92616 7.98601 0.873949 4.29211 6.54506C0.882361 11.8263 -0.218709 35.893 1.91238 43.9743Z" fill="url(#paint2_linear)"/>
<path d="M45.0625 16.5617L44.9685 15.2601C40.7453 11.4567 36.2677 10.9721 33.9571 11.0228C33.0948 10.927 32.3651 11.1637 32.3651 11.1637C32.1385 12.3188 31.9063 14.0599 31.6797 16.0827C31.1877 20.427 30.7234 26.0504 30.4359 29.8425C30.06 29.0818 29.5736 28.417 29.0042 27.9211C25.4167 24.7713 16.6551 29.7186 16.0249 34.9869C15.3892 40.2553 27.1026 40.554 29.7062 37.5902C30.6128 36.559 31.0827 35.3138 31.2098 34.046C33.2385 29.048 34.8305 20.5003 35.6099 15.7785C40.3252 15.7221 45.0625 16.5617 45.0625 16.5617Z" fill="#CD7004"/>
<defs>
<radialGradient id="paint0_radial" cx="0" cy="0" r="1" gradientUnits="userSpaceOnUse" gradientTransform="translate(31.9932 50.1629) scale(23.9566 44.8281)">
<stop stop-color="#FFEC67"/>
<stop offset="1" stop-color="#CD7004"/>
</radialGradient>
<linearGradient id="paint1_linear" x1="30.9879" y1="51.258" x2="30.9879" y2="0.461612" gradientUnits="userSpaceOnUse">
<stop stop-color="#FFF089"/>
<stop offset="1" stop-color="white"/>
</linearGradient>
<linearGradient id="paint2_linear" x1="30.9879" y1="50.3597" x2="30.9879" y2="0.975744" gradientUnits="userSpaceOnUse">
<stop stop-color="#FFE305"/>
<stop offset="1" stop-color="#F1A901"/>
</linearGradient>
</defs>
</svg>
